<?xml version="1.0" standalone="no"?>
<!DOCTYPE svg PUBLIC "-//W3C//DTD SVG 20010904//EN"
 "http://www.w3.org/TR/2001/REC-SVG-20010904/DTD/svg10.dtd">
<svg version="1.0" xmlns="http://www.w3.org/2000/svg"
 width="477.000000pt" height="322.000000pt" viewBox="0 0 477.000000 322.000000"
 preserveAspectRatio="xMidYMid meet">
<metadata>
Created by potrace 1.12, written by Peter Selinger 2001-2015
</metadata>
<g transform="translate(0.000000,322.000000) scale(0.100000,-0.100000)"
fill="#000000" stroke="none">
<path d="M1100 3025 c0 -16 58 -19 115 -6 17 4 45 4 63 0 23 -5 32 -4 29 4 -2
8 -39 13 -105 14 -83 2 -102 -1 -102 -12z"/>
<path d="M1320 3025 c0 -8 9 -15 20 -15 11 0 20 5 20 11 0 5 -4 7 -10 4 -5 -3
-10 -1 -10 4 0 6 -4 11 -10 11 -5 0 -10 -7 -10 -15z"/>
<path d="M980 3023 c-44 -6 -150 -35 -150 -42 0 -3 -14 -7 -30 -8 -17 -1 -43
-9 -58 -16 -33 -17 -90 -38 -117 -42 -37 -6 -95 -35 -95 -48 0 -7 3 -8 8 -2 4
6 22 11 39 12 18 1 43 8 55 15 13 6 28 12 33 13 36 2 74 18 68 28 -4 6 0 8 9
5 12 -5 122 25 178 48 8 4 31 8 50 10 80 8 120 16 120 22 0 7 -67 10 -110 5z"/>
<path d="M1370 3015 c0 -8 25 -14 67 -18 37 -3 69 -10 71 -16 5 -16 22 -13 22
3 0 19 -6 22 -55 31 -68 13 -105 12 -105 0z"/>
<path d="M2100 3015 c-67 -15 -119 -52 -105 -75 5 -8 13 -5 26 9 11 12 27 21
37 21 15 0 15 2 2 10 -12 8 -8 10 15 11 36 2 64 5 125 17 42 7 73 4 141 -17
38 -12 59 3 28 20 -35 19 -192 21 -269 4z"/>
<path d="M2400 2995 c0 -10 11 -16 33 -17 41 -1 47 -2 77 -13 37 -12 159 -8
176 6 10 8 18 9 25 2 12 -12 49 -6 49 8 0 5 -28 6 -62 4 -98 -8 -160 -5 -219
10 -68 19 -79 19 -79 0z"/>
<path d="M2785 2979 c4 -6 13 -8 20 -5 7 2 16 -2 19 -11 4 -9 9 -14 11 -11 13
12 -9 38 -32 38 -15 0 -22 -4 -18 -11z"/>
<path d="M1568 2950 c37 -34 54 -38 45 -12 -8 24 -33 42 -57 42 -18 0 -16 -4
12 -30z"/>
<path d="M3286 2949 c-53 -6 -80 -15 -118 -41 -48 -33 -48 -33 -27 -50 25 -21
61 -26 41 -6 -16 16 -15 38 1 38 7 0 18 5 25 12 12 12 20 14 75 23 16 2 42 7
59 10 21 5 28 4 24 -4 -5 -8 0 -8 18 -1 15 5 52 6 93 1 37 -5 93 -7 123 -4 72
4 155 3 205 -3 72 -10 105 -11 105 -3 0 14 -50 20 -210 24 -91 3 -205 6 -255
8 -49 2 -121 1 -159 -4z"/>
<path d="M3963 2894 c29 -27 87 -139 87 -168 0 -9 8 -16 18 -17 9 0 12 -3 6
-5 -8 -4 -9 -16 -2 -42 5 -20 11 -48 13 -61 2 -13 9 -27 15 -31 8 -5 9 -10 2
-14 -7 -4 -7 -19 0 -43 5 -21 9 -49 9 -63 -1 -14 3 -68 9 -120 6 -52 13 -133
16 -180 3 -47 9 -101 14 -120 5 -19 10 -66 12 -105 3 -63 1 -70 -17 -73 -11
-2 -38 -12 -60 -22 -22 -10 -74 -32 -115 -50 -41 -18 -77 -36 -80 -40 -10 -13
-135 -40 -265 -55 -71 -9 -141 -20 -155 -25 -26 -10 -48 -14 -135 -25 -56 -7
-66 -12 -45 -25 16 -10 110 -9 110 1 0 4 21 9 46 12 26 2 49 9 53 13 3 5 22 9
41 10 58 2 90 8 90 17 0 5 7 4 15 -3 9 -8 15 -8 15 -2 0 6 8 11 18 11 79 0
231 44 273 80 9 7 45 24 80 38 35 13 71 28 80 33 9 5 36 14 59 20 25 7 39 15
32 19 -6 4 -10 16 -8 26 2 11 -1 58 -6 105 -5 47 -11 101 -12 120 -2 19 -6 43
-11 53 -4 9 -5 23 -2 31 3 7 -1 23 -10 35 -13 20 -13 24 1 40 9 10 14 20 12
22 -10 9 -19 76 -18 134 0 33 -8 93 -19 133 -11 40 -17 77 -14 82 3 5 1 11 -5
15 -6 4 -8 10 -5 15 3 5 1 11 -5 15 -5 3 -10 15 -10 26 0 10 -5 19 -11 19 -8
0 -8 4 0 14 9 10 8 15 -3 19 -8 3 -17 20 -21 37 -4 17 -13 34 -21 37 -8 3 -14
13 -14 22 0 9 -15 26 -33 39 -45 30 -58 28 -24 -4z"/>
<path d="M1744 2851 c3 -5 8 -64 11 -132 3 -68 7 -153 10 -189 10 -142 24
-588 24 -778 0 -18 3 -37 6 -43 4 -5 8 -35 11 -67 4 -69 16 -114 31 -119 12
-4 12 119 0 128 -4 3 -10 42 -12 87 -2 45 -5 85 -8 89 -2 4 -1 17 3 28 4 11 4
30 -1 42 -5 13 -4 25 1 28 6 4 8 16 5 28 -3 12 -7 94 -10 182 -2 88 -7 187
-11 220 -3 33 -5 71 -4 85 3 41 -5 149 -16 203 -3 16 -6 61 -7 100 0 71 -12
117 -29 117 -5 0 -7 -4 -4 -9z"/>
<path d="M2931 2790 c0 -28 3 -49 7 -46 4 2 7 -28 6 -67 0 -40 3 -82 8 -95 8
-23 13 -78 23 -272 11 -205 17 -267 27 -305 5 -22 12 -56 14 -75 3 -19 10 -38
17 -42 8 -5 9 -8 0 -8 -8 0 -7 -14 4 -47 8 -27 22 -74 30 -105 9 -32 19 -58
23 -58 12 0 19 37 9 47 -4 4 -10 33 -13 63 -3 30 -13 82 -22 115 -8 33 -17 73
-19 89 -2 16 -10 33 -17 38 -10 8 -10 11 0 15 14 5 17 33 3 33 -5 0 -9 24 -8
53 2 49 -11 265 -19 335 -2 17 -5 45 -7 60 -2 16 -7 33 -10 39 -4 6 -9 47 -12
90 -6 104 -15 157 -27 164 -6 4 -7 12 -4 18 4 6 3 11 -2 11 -5 0 -10 -23 -11
-50z"/>
<path d="M520 2670 c0 -11 3 -20 8 -20 4 0 8 -11 8 -25 1 -14 8 -32 14 -40 7
-9 14 -41 16 -73 1 -31 6 -97 10 -147 4 -49 6 -106 6 -127 -1 -23 4 -38 13
-42 13 -4 14 15 10 140 -3 81 -7 150 -10 154 -3 4 -7 23 -9 41 -8 56 -25 140
-31 150 -11 17 -35 9 -35 -11z"/>
<path d="M1150 2660 c-13 -8 -13 -10 2 -10 9 0 20 5 23 10 8 13 -5 13 -25 0z"/>
<path d="M1070 2635 c-14 -8 -33 -14 -42 -15 -9 0 -20 -5 -24 -11 -5 -9 1 -10
22 -5 41 10 84 30 84 38 0 11 -12 9 -40 -7z"/>
<path d="M2410 2630 c0 -6 9 -10 19 -10 10 0 33 -13 51 -30 42 -39 92 -39 179
-1 63 27 90 51 56 51 -9 0 -14 -4 -10 -9 3 -6 -11 -13 -32 -17 -21 -4 -43 -10
-49 -15 -25 -20 -112 -9 -130 16 -14 19 -84 32 -84 15z"/>
<path d="M960 2595 c-14 -8 -32 -14 -41 -15 -14 0 -51 -15 -129 -53 l-35 -17
35 6 c19 4 41 11 49 18 8 6 15 10 15 8 3 -9 136 50 136 60 0 10 0 10 -30 -7z"/>
<path d="M2370 2544 c0 -8 5 -12 10 -9 6 4 8 11 5 16 -9 14 -15 11 -15 -7z"/>
<path d="M3373 2522 c-44 -7 -22 -21 32 -21 63 0 93 -7 118 -29 15 -14 17 -13
18 4 0 10 10 -6 21 -36 23 -59 43 -86 53 -71 10 16 -6 61 -22 61 -8 0 -11 4
-8 10 11 18 -42 63 -74 63 -17 0 -31 3 -31 7 0 4 -6 7 -12 8 -45 6 -76 7 -95
4z"/>
<path d="M2030 2510 c0 -5 5 -10 10 -10 6 0 10 5 10 10 0 6 -4 10 -10 10 -5 0
-10 -4 -10 -10z"/>
<path d="M2330 2499 c-16 -29 -6 -35 19 -10 25 25 26 31 6 31 -8 0 -19 -9 -25
-21z"/>
<path d="M3320 2510 c0 -5 -5 -10 -10 -10 -21 0 -90 -51 -90 -66 0 -12 7 -10
31 10 17 14 37 26 45 26 8 0 14 5 14 10 0 6 7 10 15 10 8 0 15 7 15 15 0 8 -4
15 -10 15 -5 0 -10 -4 -10 -10z"/>
<path d="M2066 2497 c2 -7 13 -13 23 -13 11 0 17 6 14 13 -3 7 -14 13 -24 13
-11 0 -16 -5 -13 -13z"/>
<path d="M2260 2490 c0 -5 7 -7 15 -4 8 4 15 8 15 10 0 2 -7 4 -15 4 -8 0 -15
-4 -15 -10z"/>
<path d="M2168 2483 c7 -3 16 -2 19 1 4 3 -2 6 -13 5 -11 0 -14 -3 -6 -6z"/>
<path d="M2220 2480 c0 -5 5 -10 10 -10 6 0 10 5 10 10 0 6 -4 10 -10 10 -5 0
-10 -4 -10 -10z"/>
<path d="M846 2409 c-25 -20 -36 -59 -16 -59 6 0 10 6 10 13 0 7 14 21 31 31
26 15 45 18 112 13 73 -5 79 -4 57 9 -14 7 -55 13 -96 14 -57 0 -76 -4 -98
-21z"/>
<path d="M3182 2404 c-12 -8 -20 -20 -17 -25 10 -15 21 -10 33 16 14 29 13 30
-16 9z"/>
<path d="M3653 2378 c-13 -6 -23 -15 -23 -20 0 -5 8 -4 19 1 10 6 21 8 23 5 3
-3 8 2 11 11 7 17 1 18 -30 3z"/>
<path d="M810 2330 c0 -5 5 -10 10 -10 6 0 10 5 10 10 0 6 -4 10 -10 10 -5 0
-10 -4 -10 -10z"/>
<path d="M2579 2336 c-4 -4 -14 -6 -104 -21 -62 -10 -69 -12 -85 -18 -8 -4
-46 -17 -84 -29 -39 -13 -72 -29 -74 -37 -3 -10 0 -12 12 -8 9 4 16 1 16 -5 0
-7 9 -2 20 10 12 12 28 22 38 22 9 0 29 6 43 14 14 7 41 16 60 20 19 3 45 9
59 12 14 3 36 7 50 9 31 4 80 23 80 30 0 6 -25 7 -31 1z"/>
<path d="M3613 2228 c-18 -6 -33 -15 -33 -20 0 -11 37 -1 65 18 22 16 14 16
-32 2z"/>
<path d="M3390 2220 c0 -5 5 -10 10 -10 6 0 10 5 10 10 0 6 -4 10 -10 10 -5 0
-10 -4 -10 -10z"/>
<path d="M3420 2205 c0 -8 8 -16 18 -16 77 -6 102 -4 99 5 -2 6 -22 12 -45 12
-23 1 -49 4 -57 8 -9 3 -15 0 -15 -9z"/>
<path d="M580 2146 c-6 -19 -10 -56 -9 -83 1 -38 -6 -200 -15 -300 0 -10 6
-19 14 -20 12 -3 15 8 17 49 1 29 4 122 7 206 3 84 8 157 11 162 3 5 1 11 -4
14 -5 4 -14 -9 -21 -28z"/>
<path d="M2354 2078 c-4 -7 -4 -10 1 -6 4 4 23 1 42 -7 42 -18 43 -18 43 -6 0
5 -11 12 -24 15 -13 3 -31 8 -39 12 -8 3 -18 -1 -23 -8z"/>
<path d="M1038 2067 c-21 -5 -38 -13 -38 -18 0 -5 -6 -9 -13 -9 -16 0 -51 -37
-60 -63 -9 -25 9 -58 28 -51 8 4 15 10 15 16 0 5 -4 6 -10 3 -6 -3 -10 5 -10
19 0 16 11 32 31 47 27 19 43 21 135 21 66 -1 104 3 104 10 0 6 -11 8 -27 4
-15 -4 -29 -3 -33 3 -3 6 -19 12 -36 14 -16 2 -34 6 -39 9 -6 2 -27 1 -47 -5z"/>
<path d="M2641 2059 c-26 -21 -92 -26 -136 -9 -15 6 -32 7 -38 3 -15 -9 29
-24 91 -30 34 -3 58 -1 67 7 8 7 15 9 15 4 0 -5 7 2 16 14 21 30 15 35 -15 11z"/>
<path d="M2292 1988 c-7 -27 -8 -44 -2 -46 6 -2 8 -8 5 -13 -8 -12 41 -22 60
-12 9 5 38 6 65 3 27 -4 55 -3 61 0 20 13 -45 29 -102 25 -73 -4 -87 4 -70 41
7 16 8 31 3 36 -6 6 -14 -8 -20 -34z"/>
<path d="M769 1888 c17 -18 36 -33 43 -33 7 0 40 -4 73 -8 33 -4 80 -3 105 2
l45 9 -65 0 c-99 0 -171 15 -188 40 -8 12 -21 22 -29 22 -9 0 -3 -12 16 -32z"/>
<path d="M1048 1863 c6 -2 18 -2 25 0 6 3 1 5 -13 5 -14 0 -19 -2 -12 -5z"/>
<path d="M562 1706 c1 -13 7 -22 13 -20 15 6 13 44 -2 44 -7 0 -12 -10 -11
-24z"/>
<path d="M2630 1598 c-19 -4 -44 -11 -55 -13 -11 -3 -44 -8 -73 -11 -29 -3
-92 -15 -140 -26 -48 -10 -125 -24 -172 -29 -91 -11 -96 -12 -85 -29 5 -7 19
-10 39 -6 17 4 45 8 61 10 62 8 120 19 150 29 12 4 41 9 65 13 87 10 95 12
140 23 79 20 93 22 185 26 133 4 132 4 117 14 -18 11 -187 11 -232 -1z"/>
<path d="M1456 1473 c-1 -1 -33 -5 -72 -8 -38 -3 -96 -10 -129 -15 -33 -5 -86
-12 -119 -16 -32 -3 -75 -11 -95 -19 -20 -7 -56 -16 -81 -20 -61 -9 -152 -36
-170 -50 -8 -7 -24 -15 -34 -19 -14 -5 -16 -10 -8 -18 8 -8 22 -6 54 10 64 30
119 51 153 56 17 2 53 9 80 15 126 29 146 33 177 36 18 2 87 8 152 14 65 6
128 13 140 16 12 2 39 7 60 10 66 9 53 15 -28 12 -43 -1 -79 -3 -80 -4z"/>
<path d="M2785 1401 c-3 -12 -13 -21 -21 -21 -8 0 -13 -3 -10 -8 7 -12 -70
-113 -103 -133 -30 -18 -31 -18 -51 3 -11 12 -20 36 -20 52 0 47 -73 106 -131
106 -30 0 -129 -39 -129 -50 0 -4 -13 -13 -30 -20 -30 -12 -34 -22 -44 -110
-9 -70 -26 -141 -41 -170 -8 -16 -16 -33 -16 -37 -1 -12 -31 -44 -53 -55 -14
-8 -17 -7 -10 3 4 7 9 31 10 54 3 64 24 122 63 167 l36 42 -33 -19 c-19 -11
-39 -29 -44 -40 -6 -11 -14 -22 -17 -25 -16 -14 -44 -90 -48 -136 -6 -56 8
-94 35 -94 17 0 92 75 92 93 0 6 6 18 14 26 17 21 36 98 36 150 0 30 6 46 26
64 21 20 24 28 16 43 -8 15 -3 23 26 46 46 37 76 44 131 29 52 -14 63 -25 57
-61 -12 -77 -27 -95 -54 -68 -19 19 -25 1 -8 -24 23 -33 20 -50 -17 -93 -28
-32 -37 -37 -60 -31 -18 4 -27 13 -27 26 0 20 -35 46 -44 32 -3 -4 -1 -25 4
-46 4 -20 9 -73 9 -117 0 -45 4 -86 8 -91 3 -6 5 -28 5 -50 -1 -21 3 -38 9
-38 5 0 8 -4 4 -9 -7 -12 15 -101 25 -101 4 0 7 -6 6 -12 0 -7 7 -40 17 -73
10 -33 21 -71 25 -85 9 -31 48 -36 44 -5 -4 29 -22 90 -50 170 -26 75 -27 79
-42 170 -19 119 -21 185 -5 185 8 0 15 4 15 8 0 4 12 9 26 10 14 1 36 15 50
32 29 34 54 39 54 12 0 -10 5 -23 11 -29 6 -6 13 -26 15 -44 2 -19 5 -45 8
-59 20 -127 25 -165 31 -230 3 -41 13 -101 21 -133 8 -32 14 -62 14 -66 0 -4
-26 -18 -57 -31 -85 -34 -123 -59 -123 -81 0 -19 0 -19 28 0 15 11 39 23 54
26 26 7 27 6 22 -32 -2 -21 -7 -51 -10 -66 -7 -31 12 -86 30 -88 22 -2 51 3
62 12 6 5 13 6 16 3 7 -6 58 36 58 48 0 12 -27 10 -42 -5 -7 -7 -25 -18 -40
-24 -24 -11 -27 -10 -34 15 -4 15 -7 33 -7 40 0 6 1 36 2 65 1 50 3 53 39 70
20 10 51 21 67 26 l30 8 -33 7 c-25 6 -32 12 -27 23 3 9 -1 26 -9 38 -16 25
-23 71 -31 202 -3 50 -9 103 -14 116 -5 13 -12 44 -15 68 -8 70 -18 109 -27
109 -5 0 -9 9 -9 21 0 11 -4 29 -10 39 -5 10 -7 32 -4 50 6 29 8 30 25 14 10
-9 35 -18 55 -20 29 -2 43 3 65 25 15 16 30 26 33 23 3 -2 10 7 15 22 6 14 15
26 21 26 6 0 8 5 5 10 -3 6 -2 10 4 10 11 0 46 98 38 106 -3 3 -8 -4 -12 -15z"/>
<path d="M2841 470 c-18 -27 -42 -57 -52 -66 -17 -16 -19 -15 -30 12 -6 16
-15 37 -20 47 -6 10 -7 22 -4 27 4 6 -3 10 -14 10 -29 0 -32 -12 -17 -63 16
-54 42 -85 58 -69 6 6 16 8 23 5 25 -9 81 64 90 116 3 17 4 31 3 31 -2 0 -18
-22 -37 -50z"/>
</g>
</svg>
