<?xml version="1.0" standalone="no"?>
<!DOCTYPE svg PUBLIC "-//W3C//DTD SVG 20010904//EN"
 "http://www.w3.org/TR/2001/REC-SVG-20010904/DTD/svg10.dtd">
<svg version="1.0" xmlns="http://www.w3.org/2000/svg"
 width="306.000000pt" height="309.000000pt" viewBox="0 0 306.000000 309.000000"
 preserveAspectRatio="xMidYMid meet">
<metadata>
Created by potrace 1.12, written by Peter Selinger 2001-2015
</metadata>
<g transform="translate(0.000000,309.000000) scale(0.100000,-0.100000)"
fill="#000000" stroke="none">
<path d="M1485 2536 c-38 -31 -26 -45 13 -16 17 12 34 21 40 19 5 -2 -17 -59
-49 -126 -50 -105 -72 -139 -154 -232 -52 -60 -128 -139 -167 -175 -83 -76
-82 -89 1 -18 68 58 72 61 146 147 32 39 70 81 84 95 13 14 35 42 49 63 14 20
26 36 28 35 2 -3 13 -46 47 -182 7 -27 18 -51 26 -54 10 -3 11 0 2 17 -17 30
-51 197 -51 245 0 25 12 66 30 104 17 35 30 72 30 83 0 27 -38 25 -75 -5z"/>
<path d="M1451 2474 c0 -11 3 -14 6 -6 3 7 2 16 -1 19 -3 4 -6 -2 -5 -13z"/>
<path d="M1930 2086 c0 -2 7 -9 15 -16 13 -11 14 -10 9 4 -5 14 -24 23 -24 12z"/>
<path d="M1550 2071 c0 -5 5 -22 11 -38 6 -15 10 -29 9 -31 -1 -4 78 -108 103
-136 30 -32 195 -116 214 -109 9 3 11 0 8 -10 -5 -12 2 -13 47 -5 29 5 54 14
56 18 2 5 9 7 17 4 21 -8 128 16 147 33 9 8 21 12 27 8 6 -3 16 -1 23 5 7 6
22 17 33 26 18 13 16 13 -15 0 -218 -87 -375 -81 -508 19 -52 40 -136 140
-134 161 0 5 -5 18 -11 29 -6 11 -10 23 -9 28 1 4 -2 7 -8 7 -5 0 -10 -4 -10
-9z"/>
<path d="M1990 2051 c0 -10 63 -33 105 -38 11 -1 53 -8 94 -16 41 -7 88 -11
105 -8 25 4 20 6 -29 13 -33 4 -76 10 -95 13 -42 6 -138 29 -162 40 -11 4 -18
3 -18 -4z"/>
<path d="M1065 1920 c-10 -11 -13 -20 -8 -20 13 0 38 29 31 35 -3 3 -13 -4
-23 -15z"/>
<path d="M2457 1910 c-3 -14 0 -20 10 -20 14 0 14 -2 0 -18 -21 -23 -23 -82
-3 -82 11 0 27 73 27 127 0 18 -29 12 -34 -7z"/>
<path d="M1011 1877 c-6 -8 -46 -31 -88 -52 -43 -21 -85 -45 -93 -53 -8 -8
-29 -21 -48 -29 -19 -8 -32 -16 -29 -19 6 -6 56 16 118 53 26 16 72 42 102 60
54 31 78 53 59 53 -5 0 -15 -6 -21 -13z"/>
<path d="M1795 1730 c-27 -7 -26 -8 15 -9 25 0 52 4 60 9 11 7 8 9 -15 9 -16
-1 -43 -5 -60 -9z"/>
<path d="M1723 1723 c-18 -2 -33 -9 -33 -14 0 -12 49 -4 64 11 5 5 8 9 6 8 -3
0 -20 -3 -37 -5z"/>
<path d="M710 1713 c-8 -3 -47 -21 -87 -39 -71 -33 -153 -46 -153 -24 0 11
-55 -14 -64 -29 -4 -5 15 -10 41 -10 52 -1 215 47 207 61 -3 4 4 8 15 8 25 0
71 20 71 32 0 9 -8 9 -30 1z"/>
<path d="M1622 1700 c-39 -9 -47 -16 -33 -25 6 -3 11 -1 11 4 0 6 13 11 29 11
17 0 33 5 36 10 7 11 4 11 -43 0z"/>
<path d="M1538 1683 c6 -2 18 -2 25 0 6 3 1 5 -13 5 -14 0 -19 -2 -12 -5z"/>
<path d="M1460 1670 c-13 -9 -13 -10 0 -9 8 1 26 5 40 9 l25 8 -25 1 c-14 0
-32 -4 -40 -9z"/>
<path d="M1378 1662 c-16 -2 -28 -8 -28 -13 0 -13 47 -11 55 2 9 14 5 15 -27
11z"/>
<path d="M1425 1660 c-3 -5 -1 -10 4 -10 6 0 11 5 11 10 0 6 -2 10 -4 10 -3 0
-8 -4 -11 -10z"/>
<path d="M1275 1639 c-32 -7 -32 -8 2 -15 12 -2 25 1 28 7 10 15 4 16 -30 8z"/>
<path d="M1140 1618 c0 -4 6 -8 14 -8 8 0 17 4 20 8 2 4 -4 8 -15 8 -10 0 -19
-4 -19 -8z"/>
<path d="M1200 1620 c0 -5 5 -10 10 -10 6 0 10 5 10 10 0 6 -4 10 -10 10 -5 0
-10 -4 -10 -10z"/>
<path d="M988 1613 c-21 -2 -38 -9 -38 -15 0 -7 16 -9 46 -4 26 3 58 6 71 6
14 0 21 4 18 10 -6 10 -24 10 -97 3z"/>
<path d="M755 1601 c-93 -8 -71 -18 29 -13 52 2 75 7 65 13 -8 5 -16 8 -19 7
-3 -1 -36 -4 -75 -7z"/>
<path d="M880 1602 c0 -4 14 -9 30 -10 17 -1 30 2 30 8 0 5 -13 10 -30 10 -16
0 -30 -4 -30 -8z"/>
<path d="M2100 1600 c0 -5 5 -10 11 -10 5 0 7 5 4 10 -3 6 -8 10 -11 10 -2 0
-4 -4 -4 -10z"/>
<path d="M580 1590 c0 -5 5 -10 10 -10 6 0 10 5 10 10 0 6 -4 10 -10 10 -5 0
-10 -4 -10 -10z"/>
<path d="M2103 1565 c0 -8 4 -12 9 -9 4 3 8 9 8 15 0 5 -4 9 -8 9 -5 0 -9 -7
-9 -15z"/>
<path d="M556 1502 c-4 -7 -5 -16 -1 -21 3 -5 2 -12 -3 -15 -4 -2 -7 -31 -5
-63 2 -32 5 -86 6 -120 2 -35 8 -68 14 -74 7 -7 9 34 6 138 -5 163 -6 172 -17
155z"/>
<path d="M2400 1435 c0 -5 5 -17 10 -25 5 -8 10 -10 10 -5 0 6 -5 17 -10 25
-5 8 -10 11 -10 5z"/>
<path d="M2115 1388 c-9 -27 -6 -178 3 -193 3 -5 7 -29 9 -54 2 -42 8 -59 17
-50 3 3 1 20 -3 40 -4 19 -5 44 -1 54 4 11 3 52 -2 90 -5 39 -8 85 -8 103 0
38 -5 41 -15 10z"/>
<path d="M1320 1249 c-11 -19 -23 -45 -27 -59 -3 -14 -15 -43 -26 -65 -15 -30
-21 -36 -26 -23 -5 14 -9 13 -24 -8 -15 -20 -15 -25 -4 -30 23 -9 64 13 83 45
21 36 30 37 62 13 22 -17 23 -22 16 -105 -6 -76 -9 -87 -25 -87 -11 0 -19 -5
-19 -11 0 -5 4 -8 9 -4 5 3 15 -1 23 -8 9 -10 13 -46 13 -125 0 -82 3 -113 13
-117 18 -7 25 18 14 57 -10 37 -9 233 2 321 6 44 13 61 30 72 13 9 28 27 35
41 8 17 17 24 27 20 17 -6 38 11 66 53 32 48 19 56 -21 13 -36 -38 -61 -56
-46 -33 3 5 -5 21 -17 36 -18 20 -35 27 -80 32 -56 6 -57 5 -78 -28z m117 -25
c32 -50 -20 -110 -67 -77 -18 13 -21 22 -16 52 3 20 7 41 8 47 3 18 59 2 75
-22z"/>
<path d="M2429 1258 c-6 -12 -4 -48 2 -48 5 0 9 11 9 25 0 21 -6 33 -11 23z"/>
<path d="M685 1241 c-7 -12 12 -24 25 -16 11 7 4 25 -10 25 -5 0 -11 -4 -15
-9z"/>
<path d="M563 1160 c3 -39 17 -39 17 0 0 17 -4 30 -10 30 -5 0 -8 -13 -7 -30z"/>
<path d="M2443 1160 c-1 -11 2 -18 8 -15 11 7 12 35 1 35 -4 0 -8 -9 -9 -20z"/>
<path d="M564 1085 c-4 -23 -2 -41 5 -48 12 -12 12 -12 14 38 1 48 -10 55 -19
10z"/>
<path d="M2450 1109 c0 -5 5 -7 10 -4 6 3 10 8 10 11 0 2 -4 4 -10 4 -5 0 -10
-5 -10 -11z"/>
<path d="M1425 1015 c4 -57 3 -75 -7 -75 -9 -1 -8 -5 3 -13 14 -10 16 -35 15
-155 -1 -123 -3 -142 -17 -142 -9 0 -30 -5 -48 -11 -28 -10 -30 -13 -16 -23
13 -9 17 -31 18 -96 2 -85 2 -85 29 -88 15 -2 35 1 45 7 16 9 14 10 -9 11 -30
0 -35 11 -37 85 -1 28 -4 58 -7 68 -4 14 1 17 30 17 56 0 92 23 49 32 -16 3
-18 20 -18 175 l-1 172 64 -35 c36 -19 66 -33 68 -31 8 8 -8 37 -21 37 -7 0
-18 6 -24 14 -7 8 -32 24 -57 35 -25 12 -42 26 -39 32 5 7 11 6 20 -1 13 -10
125 -33 132 -26 2 2 1 10 -3 19 -7 18 -40 27 -107 29 -43 0 -52 6 -48 31 0 4
-4 7 -10 7 -7 0 -8 -25 -4 -75z"/>
<path d="M2462 1061 c1 -18 5 -34 8 -36 9 -5 5 53 -3 62 -4 4 -6 -8 -5 -26z"/>
<path d="M2133 1018 c2 -35 7 -62 13 -60 5 1 9 11 8 22 -3 82 -5 100 -14 100
-6 0 -9 -25 -7 -62z"/>
<path d="M1870 1030 c0 -14 -7 -20 -24 -20 -29 0 -148 -53 -147 -66 0 -5 -9
-8 -20 -6 -17 3 -19 1 -10 -16 7 -14 5 -26 -9 -50 -11 -18 -24 -32 -29 -32
-16 0 -18 -74 -3 -112 8 -21 19 -38 23 -38 4 0 20 -11 36 -24 16 -13 42 -26
58 -29 17 -3 46 -11 65 -16 20 -7 60 -8 93 -5 l58 7 -7 -71 c-7 -80 4 -122 43
-159 21 -20 27 -21 54 -10 16 6 39 27 50 45 25 38 12 43 -19 7 -49 -56 -102
-16 -102 77 1 75 2 88 12 88 5 0 8 7 6 16 -2 10 8 20 29 28 35 13 103 70 103
87 0 6 7 9 15 5 12 -4 13 -2 6 13 -6 10 -7 22 -3 26 4 3 7 37 7 73 0 59 -3 69
-25 87 -37 31 -96 54 -175 68 -56 10 -70 16 -69 30 1 9 -2 17 -7 17 -5 0 -9
-9 -9 -20z m187 -87 c44 -21 55 -32 65 -64 17 -58 -4 -140 -44 -174 -57 -48
-129 -70 -216 -66 -41 2 -144 28 -151 38 -3 5 -15 13 -26 19 -21 12 -34 48
-27 77 4 14 11 16 38 11 29 -5 34 -3 34 12 0 13 15 25 48 38 26 10 74 32 106
48 32 16 60 27 62 26 10 -11 6 -42 -6 -48 -23 -11 -142 -49 -165 -53 -28 -4
-30 -21 -3 -26 13 -1 26 -8 30 -15 11 -16 10 -36 -2 -36 -5 0 -10 6 -10 14 0
18 -17 30 -24 17 -10 -15 28 -52 56 -55 25 -3 27 -1 21 28 -3 17 -10 37 -16
44 -6 8 -6 12 2 12 6 0 17 -11 26 -23 15 -24 65 -53 65 -39 0 4 -13 22 -29 40
-28 30 -29 33 -11 42 26 14 40 13 40 -4 0 -12 40 -46 55 -46 4 0 -3 16 -15 35
-19 31 -20 35 -4 35 9 0 28 -12 42 -27 29 -31 43 -17 19 18 -9 12 -13 27 -11
34 3 7 -2 15 -10 18 -10 4 -16 19 -16 38 0 29 -2 31 -27 26 -30 -5 -150 -54
-225 -91 -27 -13 -48 -20 -48 -14 0 31 54 93 110 127 50 30 191 22 267 -16z"/>
<path d="M2470 1000 c0 -5 5 -10 10 -10 6 0 10 5 10 10 0 6 -4 10 -10 10 -5 0
-10 -4 -10 -10z"/>
<path d="M558 948 c-6 -17 1 -38 13 -38 5 0 9 11 9 25 0 26 -14 34 -22 13z"/>
<path d="M2486 924 c3 -21 10 -43 15 -49 7 -7 8 -5 5 5 -3 8 -8 28 -10 44 -3
16 -8 31 -11 34 -3 3 -3 -12 1 -34z"/>
<path d="M1238 912 c12 -8 72 -4 72 4 0 2 -19 4 -42 4 -26 0 -38 -4 -30 -8z"/>
<path d="M562 893 c1 -5 -1 -30 -5 -58 -7 -54 -17 -163 -22 -260 -2 -33 -7
-91 -10 -130 -12 -145 -12 -185 -4 -185 5 0 9 6 9 13 0 6 5 53 11 102 12 107
22 250 23 323 1 28 3 52 6 52 3 0 6 34 8 75 2 47 -1 75 -8 75 -5 0 -9 -3 -8
-7z"/>
<path d="M2501 804 c0 -11 3 -14 6 -6 3 7 2 16 -1 19 -3 4 -6 -2 -5 -13z"/>
<path d="M2149 708 c-5 -16 -4 -70 3 -80 4 -8 8 6 8 35 0 26 -2 47 -5 47 -3 0
-5 -1 -6 -2z"/>
<path d="M2500 659 c0 -5 5 -7 10 -4 6 3 10 8 10 11 0 2 -4 4 -10 4 -5 0 -10
-5 -10 -11z"/>
<path d="M1770 600 c0 -6 7 -27 15 -46 13 -32 13 -39 0 -65 -20 -38 -54 -69
-77 -69 -22 0 -24 -18 -2 -27 25 -9 65 20 91 68 23 43 23 64 1 122 -10 26 -28
37 -28 17z"/>
<path d="M2420 580 c0 -5 4 -10 9 -10 6 0 13 5 16 10 3 6 -1 10 -9 10 -9 0
-16 -4 -16 -10z"/>
<path d="M1429 568 c-6 -76 32 -123 69 -86 19 19 14 26 -12 21 -22 -5 -25 -1
-28 33 -3 35 -27 62 -29 32z"/>
<path d="M2333 484 c-38 -33 -56 -64 -35 -64 7 0 60 62 76 88 11 19 4 15 -41
-24z"/>
<path d="M2130 483 c0 -4 5 -15 10 -23 8 -13 10 -13 10 2 0 9 -4 20 -10 23 -5
3 -10 3 -10 -2z"/>
</g>
</svg>
