<?xml version="1.0" standalone="no"?>
<!DOCTYPE svg PUBLIC "-//W3C//DTD SVG 20010904//EN"
 "http://www.w3.org/TR/2001/REC-SVG-20010904/DTD/svg10.dtd">
<svg version="1.0" xmlns="http://www.w3.org/2000/svg"
 width="530.000000pt" height="344.000000pt" viewBox="0 0 530.000000 344.000000"
 preserveAspectRatio="xMidYMid meet">
<metadata>
Created by potrace 1.12, written by Peter Selinger 2001-2015
</metadata>
<g transform="translate(0.000000,344.000000) scale(0.100000,-0.100000)"
fill="#000000" stroke="none">
<path d="M1540 2973 c-8 -3 -22 -12 -31 -20 -9 -8 -27 -15 -40 -17 -23 -2 -37
-8 -129 -50 -25 -11 -50 -19 -57 -18 -7 1 -17 -8 -24 -20 -6 -13 -26 -35 -43
-50 -17 -14 -28 -29 -24 -33 4 -5 14 -2 23 5 13 11 15 5 15 -46 0 -33 1 -68 1
-78 0 -20 20 -44 117 -143 45 -46 126 -97 148 -93 3 1 11 -6 17 -14 7 -8 20
-14 29 -13 19 3 108 67 108 77 0 14 73 90 86 90 15 0 46 -59 38 -71 -2 -4 -12
-5 -22 -2 -10 2 -25 -3 -33 -13 -13 -16 -11 -17 33 -12 40 5 48 3 53 -13 4
-11 10 -19 15 -19 5 0 12 -9 15 -20 3 -11 13 -20 21 -20 19 0 17 10 -6 40 -11
14 -20 33 -20 42 0 9 -6 21 -12 25 -20 13 -48 75 -50 113 -3 34 -2 35 31 32
19 -1 40 -10 48 -20 23 -28 113 -222 113 -243 0 -12 -11 -24 -27 -30 -16 -6
-39 -15 -52 -20 -40 -16 -11 -30 31 -15 21 7 41 15 44 19 4 4 17 7 29 7 13 0
28 7 35 15 10 12 9 15 -4 15 -11 0 -25 18 -37 48 -12 26 -41 89 -65 140 -49
104 -50 108 -29 116 12 4 15 21 13 80 -3 72 -4 74 -21 55 -10 -10 -24 -19 -31
-19 -8 0 -19 -6 -25 -14 -10 -12 -8 -15 11 -18 29 -4 47 -50 29 -72 -7 -9 -18
-13 -25 -9 -6 4 -20 7 -30 8 -25 0 -40 49 -24 79 16 29 16 86 1 86 -13 0 -17
-18 -13 -53 1 -10 -6 -27 -16 -38 -14 -15 -15 -25 -6 -58 8 -32 7 -43 -5 -52
-7 -7 -12 -21 -11 -33 2 -11 -1 -21 -7 -22 -5 0 -17 -4 -26 -8 -9 -4 -20 -6
-25 -5 -14 3 -44 -12 -44 -22 0 -5 9 -9 20 -9 31 0 25 -14 -36 -79 -54 -59
-84 -76 -84 -48 0 8 -9 22 -20 32 -11 10 -20 23 -20 29 0 7 -9 18 -21 26 -11
8 -35 25 -52 38 -17 12 -37 22 -43 22 -7 0 -24 5 -38 11 -31 14 -91 132 -80
157 4 10 6 28 5 42 -1 16 7 34 21 46 34 31 139 86 173 90 16 2 42 13 57 24 15
11 31 20 36 20 9 0 39 -61 47 -95 16 -76 91 -225 112 -225 20 0 26 20 11 38
-25 30 -81 158 -93 212 -8 35 -31 79 -50 92 -11 9 -14 9 -35 1z m-115 -474
c33 -29 44 -49 28 -49 -10 0 -83 65 -83 73 0 15 21 5 55 -24z"/>
<path d="M2533 2869 c-31 -20 -33 -24 -33 -84 0 -48 5 -68 21 -89 11 -14 17
-26 12 -26 -8 0 -43 -52 -43 -64 0 -3 7 -6 15 -6 12 0 14 -8 9 -42 -4 -24 -8
-45 -10 -46 -2 -4 -53 17 -111 45 -18 9 -40 12 -50 9 -14 -6 -8 -12 31 -31 46
-22 74 -33 104 -40 8 -2 16 -6 20 -9 7 -8 -37 -116 -55 -134 -7 -7 -40 -15
-73 -18 -71 -6 -71 -6 -35 103 22 66 26 98 10 82 -13 -14 -64 -176 -59 -191 5
-18 44 -29 84 -24 14 2 33 4 43 5 24 1 65 47 85 94 9 20 19 37 22 37 8 0 27
-105 29 -153 2 -66 41 -105 56 -57 9 27 25 25 25 -4 0 -32 20 -86 32 -86 9 0
8 19 -9 118 -4 25 -2 32 11 32 11 0 16 -9 16 -29 0 -16 7 -35 17 -42 15 -13
16 -10 10 35 -4 27 -7 57 -7 68 0 17 -3 17 -49 -6 -29 -15 -51 -34 -54 -47 -8
-29 -27 -15 -27 20 0 16 -7 68 -16 117 -15 87 -20 210 -9 243 4 14 66 61 79
61 8 0 35 -93 40 -135 3 -22 5 -77 5 -122 1 -67 4 -83 16 -83 13 0 14 12 10
68 -10 118 -26 216 -42 257 -9 23 -15 62 -14 92 2 45 -2 57 -23 78 -30 30 -41
31 -83 4z m64 -26 c15 -18 22 -36 18 -48 -2 -11 -5 -25 -5 -31 0 -5 -14 -20
-31 -33 -24 -18 -33 -20 -45 -11 -21 18 -19 105 4 129 23 26 31 25 59 -6z"/>
<path d="M1438 2840 c-44 -43 -46 -50 -18 -50 18 0 20 -4 14 -34 -5 -30 -3
-34 13 -32 10 2 19 12 21 24 3 21 4 21 29 4 26 -16 26 -16 20 7 -4 17 0 29 16
42 l22 18 -29 1 c-22 0 -27 4 -22 16 6 16 -9 45 -23 43 -3 0 -23 -18 -43 -39z"/>
<path d="M3872 2837 c-6 -7 -16 -37 -23 -65 -12 -61 -30 -66 -49 -17 -19 48
-36 38 -33 -19 2 -30 -3 -56 -13 -71 -29 -45 1 -136 52 -155 16 -6 24 -17 24
-32 0 -19 -11 -28 -60 -47 -34 -14 -63 -28 -66 -33 -9 -15 40 -8 84 12 23 10
42 15 42 10 0 -5 -11 -12 -25 -16 -14 -3 -25 -10 -25 -15 0 -5 -6 -9 -14 -9
-7 0 -19 -7 -26 -15 -7 -8 -10 -15 -7 -15 2 0 21 7 40 15 60 25 63 22 76 -59
l12 -75 -71 -68 c-78 -74 -89 -100 -90 -202 0 -36 -6 -61 -17 -73 -22 -24 -9
-35 22 -18 20 11 25 21 25 54 1 82 13 152 32 178 33 47 107 103 120 90 8 -8 4
-21 -16 -47 -16 -20 -30 -34 -33 -31 -10 9 -61 -99 -52 -109 15 -16 11 -118
-7 -143 -25 -36 -11 -50 19 -19 29 33 35 59 26 137 -7 62 -6 66 44 123 20 23
50 58 66 77 24 29 31 32 44 22 10 -9 17 -9 22 -3 7 12 -23 141 -36 155 -5 6
-9 17 -9 26 0 9 -12 39 -26 68 l-26 52 20 27 c30 42 34 67 21 119 -11 44 -11
48 10 66 13 10 21 24 18 33 -4 8 -2 17 4 20 5 4 6 11 3 17 -5 7 -19 -3 -39
-26 -50 -60 -82 -29 -54 53 12 35 8 49 -9 28z m12 -152 c17 -17 38 -84 31 -96
-8 -12 -104 -41 -115 -34 -15 9 -12 25 5 25 25 0 65 46 65 75 0 14 -4 25 -10
25 -5 0 -10 5 -10 10 0 15 16 12 34 -5z m-59 -25 c22 -25 13 -50 -20 -50 -27
0 -34 17 -10 26 8 4 15 13 15 21 0 13 -3 13 -15 3 -14 -12 -22 0 -8 13 10 11
19 8 38 -13z m58 -127 c-7 -2 -19 -2 -25 0 -7 3 -2 5 12 5 14 0 19 -2 13 -5z
m12 -89 c14 -32 32 -77 41 -102 13 -41 13 -46 0 -54 -23 -13 -20 -30 4 -23 13
4 20 2 20 -6 0 -17 -30 -49 -45 -49 -17 0 -65 164 -57 194 2 4 -2 14 -8 21 -8
10 -8 15 0 20 6 4 10 14 9 23 -4 50 7 42 36 -24z"/>
<path d="M2296 2516 c-10 -15 -22 -23 -33 -20 -12 3 -36 -12 -71 -46 -28 -29
-52 -55 -52 -59 0 -8 37 -44 57 -55 8 -4 20 9 34 36 12 24 39 67 60 97 22 30
39 58 39 63 0 16 -18 8 -34 -16z m-53 -73 c-12 -32 -50 -83 -56 -76 -14 14 -6
35 25 64 38 34 39 35 31 12z"/>
<path d="M4034 2428 c-8 -12 -10 -11 71 -40 59 -21 70 -30 73 -50 l3 -25 -57
10 c-49 9 -58 15 -66 39 -10 27 -28 39 -28 18 0 -5 7 -52 16 -102 16 -98 34
-132 56 -110 10 10 10 15 -1 21 -11 7 -34 100 -27 108 0 0 28 -2 61 -5 l59 -7
8 -43 c4 -23 10 -47 13 -52 12 -20 -60 -44 -145 -48 -78 -3 -193 -33 -205 -52
-3 -4 11 -10 30 -13 48 -8 155 -50 155 -61 0 -5 -13 -44 -29 -85 -46 -120 -52
-144 -41 -155 15 -15 34 9 36 45 2 29 48 154 64 172 4 5 28 -12 54 -37 25 -25
50 -46 55 -46 26 0 16 21 -29 59 -28 23 -50 48 -50 54 0 7 15 25 33 41 59 52
137 127 137 133 0 3 -9 3 -19 0 -14 -3 -21 2 -26 20 -3 13 -3 28 0 33 3 5 1
20 -6 32 -19 36 -29 91 -18 104 12 14 -13 27 -56 29 -16 1 -49 7 -73 12 -27 7
-44 7 -48 1z m90 -332 c-7 -19 -45 -27 -86 -19 -32 7 -31 7 27 19 33 6 61 12
62 13 1 0 0 -5 -3 -13z"/>
<path d="M639 2362 c-58 -5 -72 -29 -70 -116 l2 -73 -57 -52 c-32 -28 -63 -51
-69 -51 -6 0 -16 25 -23 56 -10 50 -9 60 8 95 38 73 21 119 -41 119 -52 0 -72
-11 -97 -54 -24 -40 -18 -83 14 -100 28 -16 32 -25 28 -65 -5 -46 24 -271 36
-286 6 -7 5 -16 -2 -23 -9 -9 -5 -12 17 -13 17 0 24 -3 18 -6 -17 -6 -16 -32
1 -39 8 -3 17 -28 21 -60 3 -30 13 -60 20 -68 8 -7 11 -16 8 -20 -4 -3 3 -6
14 -6 25 0 71 35 61 46 -4 4 -15 1 -23 -6 -24 -20 -35 -1 -51 86 -16 93 -17
104 -6 104 5 0 15 -21 23 -47 14 -44 18 -48 45 -45 53 4 75 13 71 25 -5 13 -7
13 -48 3 -24 -5 -29 -2 -42 32 -9 22 -11 41 -6 48 5 6 6 13 3 17 -7 7 -62 -9
-80 -24 -12 -9 -14 -5 -14 23 0 19 -4 38 -9 44 -21 24 -41 254 -22 254 11 0
19 -21 31 -87 23 -119 44 -193 56 -193 22 0 24 15 9 71 -23 84 -20 95 25 120
22 13 47 33 55 46 13 19 19 21 40 13 14 -5 25 -6 25 -2 0 27 134 42 144 16 7
-19 -2 -22 -84 -28 -44 -3 -76 -10 -81 -18 -11 -18 19 -28 49 -17 13 5 45 9
72 9 76 0 81 10 78 153 l-3 122 -55 0 c-30 0 -71 -1 -91 -3z m113 -29 c8 -16
-4 -133 -13 -133 -5 0 -9 7 -9 16 0 29 -32 84 -49 84 -20 0 -61 -58 -62 -91
-2 -27 -17 52 -18 93 -1 20 5 28 22 31 39 8 126 7 129 0z m-350 -37 c8 5 9 -4
4 -32 -10 -50 -16 -56 -57 -52 -30 3 -34 7 -37 36 -2 23 1 32 11 32 8 0 18 7
21 15 4 13 10 14 26 5 11 -6 25 -8 32 -4z m284 -86 c5 -33 5 -34 -10 -16 -9
11 -16 31 -16 45 0 35 18 14 26 -29z"/>
<path d="M2355 2270 c-39 -15 -55 -46 -71 -136 -16 -93 -31 -116 -82 -130 -26
-7 -47 -39 -33 -49 6 -3 15 4 21 15 6 12 19 20 28 18 9 -1 22 1 29 5 12 7 43
-43 43 -70 0 -8 4 -12 9 -9 4 3 5 24 1 46 -4 22 -4 40 1 40 7 0 6 29 -2 77 -4
21 2 33 13 27 7 -5 9 -2 6 8 -5 12 0 14 25 9 30 -6 33 -11 50 -76 9 -39 16
-86 15 -105 -3 -29 -7 -36 -28 -38 -14 -2 -33 -11 -43 -19 -14 -14 -23 -14
-60 -4 -23 7 -63 23 -90 37 -35 18 -52 22 -66 15 -19 -11 -46 -74 -54 -131 -3
-19 -9 -50 -13 -67 -6 -29 -3 -34 19 -42 27 -10 77 -1 134 25 17 8 38 14 46
14 9 0 18 4 22 9 13 21 -18 20 -94 -5 -45 -14 -87 -24 -95 -21 -20 8 -9 55 12
53 14 -1 18 12 22 66 3 36 8 69 11 73 4 3 37 -15 75 -42 41 -29 65 -41 61 -30
-5 13 -1 17 14 17 12 0 23 -8 26 -20 7 -28 23 -25 23 4 0 29 31 42 113 50 32
2 65 10 73 17 24 20 34 -1 51 -101 19 -112 19 -112 -87 -103 -41 3 -95 7 -120
7 l-45 1 -6 50 c-6 50 -6 50 -7 -16 l-2 -66 49 5 c28 2 51 0 55 -6 6 -10 -3
-86 -24 -207 -5 -27 -5 -54 -1 -58 8 -8 41 159 41 209 0 41 9 49 54 53 34 2
38 0 33 -16 -28 -85 -29 -99 -18 -155 7 -32 16 -58 21 -58 4 0 6 35 3 78 -4
49 -1 92 6 115 11 33 16 37 48 37 l36 0 -5 88 c-3 48 -14 106 -23 130 -17 41
-20 43 -49 37 -96 -19 -96 -20 -97 11 -1 45 -5 95 -13 141 -6 35 -5 42 11 47
24 8 53 57 53 90 0 42 -74 76 -125 56z m84 -41 c18 -20 18 -22 3 -50 -24 -42
-37 -42 -77 -2 -34 34 -35 37 -19 54 23 25 69 24 93 -2z m-89 -74 c0 -8 -4
-15 -9 -15 -13 0 -22 16 -14 24 11 11 23 6 23 -9z"/>
<path d="M1140 2126 l-11 -55 -44 22 c-24 12 -44 26 -45 30 0 5 21 6 48 3 l47
-6 -47 17 c-41 14 -52 15 -73 3 -27 -15 -32 -29 -12 -34 64 -18 99 -31 103
-38 6 -10 -27 -68 -39 -68 -19 0 -77 42 -77 56 0 8 -4 14 -10 14 -18 0 -11
-26 15 -54 13 -14 31 -26 40 -26 18 0 18 1 4 -38 -7 -19 -15 -29 -22 -25 -16
10 -58 10 -63 1 -3 -5 1 -11 9 -14 8 -3 17 -17 20 -32 8 -36 43 -72 71 -72 13
0 31 -9 41 -20 25 -27 39 -25 20 3 -23 36 -1 74 46 80 50 7 87 -2 92 -22 3 -9
5 2 6 25 0 23 4 62 7 86 l6 45 37 -71 c19 -39 38 -73 41 -76 6 -6 17 -26 68
-119 20 -36 42 -70 49 -74 7 -4 13 -17 13 -27 0 -10 5 -22 11 -26 6 -3 19 -26
30 -50 10 -24 37 -71 59 -104 l40 -59 -47 -27 c-52 -31 -45 -43 13 -19 20 8
40 12 43 9 3 -4 0 -9 -6 -11 -29 -10 -100 -134 -119 -208 -17 -63 -17 -75 -1
-75 9 0 19 22 27 58 19 88 96 222 127 222 7 0 13 6 13 13 1 24 38 57 65 57 26
0 27 -1 20 -42 -4 -24 -11 -50 -15 -58 -4 -8 -10 -37 -14 -63 -8 -64 -38 -132
-76 -170 -28 -29 -31 -37 -28 -89 2 -32 8 -58 13 -58 6 -1 13 30 17 67 7 60
12 71 42 98 19 17 39 47 46 68 9 28 17 37 34 37 17 0 28 -12 49 -57 21 -47 26
-73 26 -138 0 -85 12 -143 27 -135 5 3 8 9 6 13 -5 17 -9 185 -5 235 4 42 8
52 24 52 13 0 18 -7 18 -27 0 -16 6 -59 14 -98 19 -92 26 -185 14 -185 -6 0
-34 -12 -64 -27 -49 -25 -53 -30 -53 -63 0 -19 -9 -52 -20 -73 -11 -20 -20
-41 -20 -47 0 -5 9 -10 20 -10 13 0 20 7 20 18 0 10 4 22 9 27 4 6 14 32 21
58 16 59 46 81 54 39 3 -15 4 -43 2 -63 -5 -39 7 -69 18 -50 4 6 10 42 13 81
4 48 10 70 19 70 20 0 27 19 14 35 -7 9 -10 28 -6 47 5 28 -13 177 -30 244 -4
16 0 23 15 27 23 6 61 62 61 91 0 15 -3 16 -15 6 -13 -11 -15 -8 -15 17 0 55
-62 91 -105 60 -16 -13 -15 -14 15 -15 18 0 37 -7 41 -14 14 -21 10 -74 -5
-87 -22 -18 -31 6 -12 28 16 17 15 19 -4 24 -11 3 -27 -1 -35 -10 -13 -13 -16
-11 -25 12 -14 36 -13 78 2 93 9 9 8 12 -4 12 -27 0 -40 -27 -36 -75 3 -45 3
-46 -22 -40 -14 4 -26 8 -27 9 -9 9 18 113 36 136 30 41 29 103 -4 135 -24 25
-50 30 -92 19 -36 -10 -27 -23 11 -17 26 4 38 0 55 -18 41 -44 15 -123 -32
-97 -12 6 -23 11 -24 10 -25 -17 -40 34 -17 59 25 27 12 33 -19 8 -29 -22 -34
-48 -16 -81 8 -16 8 -24 -4 -35 -17 -17 -26 -3 -158 227 -45 80 -95 164 -111
187 -15 23 -28 44 -28 48 0 3 -21 43 -47 88 l-46 82 17 48 c10 27 15 51 12 55
-3 3 -18 -1 -33 -8 -16 -7 -23 -15 -15 -17 15 -6 16 -29 1 -39 -14 -8 -48 34
-49 60 0 17 -1 17 -25 2 -25 -17 -26 -17 -19 9 4 15 2 25 -4 25 -6 0 -16 -24
-22 -54z m75 -43 c40 -45 29 -70 -25 -58 -37 8 -48 39 -24 66 22 24 20 24 49
-8z m-78 -108 c-1 -38 -6 -64 -12 -62 -15 5 -17 41 -5 86 6 23 12 41 14 41 2
0 3 -29 3 -65z m70 4 c-17 -27 -35 -31 -42 -9 -9 28 1 38 29 33 22 -4 23 -8
13 -24z m40 -39 c3 -57 -10 -71 -39 -42 -20 19 -20 22 -4 37 9 9 21 25 26 36
6 10 12 19 13 19 1 0 3 -22 4 -50z m-157 -66 c0 -8 -4 -14 -10 -14 -5 0 -10 9
-10 21 0 11 5 17 10 14 6 -3 10 -13 10 -21z m90 16 c0 -5 -4 -10 -10 -10 -5 0
-10 5 -10 10 0 6 5 10 10 10 6 0 10 -4 10 -10z m-134 -25 c1 -14 -2 -22 -7
-19 -11 6 -12 44 -1 44 4 0 8 -11 8 -25z m816 -667 c-12 -12 -35 -1 -27 12 3
5 13 6 21 3 10 -4 12 -9 6 -15z"/>
<path d="M2863 2112 c-25 -4 -83 -68 -83 -91 0 -8 16 4 36 27 39 46 64 52 93
23 17 -17 18 -25 9 -63 -6 -23 -20 -53 -31 -66 -21 -22 -21 -22 -41 -3 -19 20
-19 21 -1 41 21 24 14 25 -23 6 -22 -11 -31 -27 -41 -68 -7 -29 -15 -60 -17
-68 -3 -11 -15 -14 -47 -12 -30 3 -47 -1 -56 -12 -11 -13 -6 -15 38 -14 58 0
71 -6 71 -33 0 -18 -2 -18 -34 -5 -19 8 -43 13 -53 11 -10 -2 -21 -4 -25 -4
-5 -1 -8 -5 -8 -10 0 -8 22 -14 97 -27 26 -5 32 -12 38 -40 8 -45 35 -46 35
-1 0 18 -5 38 -10 43 -12 12 -19 138 -8 149 14 15 56 -27 67 -68 14 -50 32
-178 26 -187 -2 -3 -18 -7 -36 -8 -17 -1 -36 -5 -40 -8 -18 -11 -8 -24 17 -24
l27 0 -27 -21 c-24 -19 -26 -26 -26 -100 0 -64 3 -79 15 -79 12 0 15 16 15 80
0 65 3 82 16 87 19 7 29 -7 46 -65 12 -41 36 -54 30 -16 -13 92 -14 134 -2
134 9 0 9 4 3 13 -6 6 -13 40 -17 75 -3 35 -13 91 -21 123 l-16 60 30 34 c31
36 48 104 37 149 -6 26 -46 44 -83 38z"/>
<path d="M4422 1840 c-63 -26 -92 -80 -92 -171 0 -53 -4 -71 -15 -75 -22 -9
-18 -34 5 -34 12 0 24 10 30 24 l9 24 39 -19 40 -20 -19 -38 c-28 -59 -59
-180 -59 -233 0 -26 -4 -58 -9 -71 -10 -25 -10 -25 -73 -12 -47 10 -64 11 -70
2 -4 -7 -4 -15 0 -19 14 -14 113 -28 130 -19 15 8 17 -1 15 -102 -1 -62 2
-141 7 -177 9 -63 18 -152 19 -197 1 -14 7 -23 17 -23 12 0 15 6 10 25 -4 14
-9 56 -11 93 -3 37 -10 114 -16 172 -21 194 7 442 62 558 12 23 27 42 35 42
20 0 32 -35 83 -245 7 -27 21 -160 31 -295 11 -135 23 -259 28 -276 l10 -31
-47 4 c-39 4 -58 -2 -120 -34 -76 -40 -107 -72 -58 -59 28 7 26 12 43 -116 l6
-47 -33 -3 c-48 -5 -50 -28 -2 -28 63 0 67 7 60 103 -4 47 -10 92 -13 101 -4
11 5 20 33 31 90 39 133 40 133 1 0 -29 15 -50 30 -41 7 4 9 17 5 32 -14 58
-35 229 -45 378 -11 164 -37 324 -72 453 -19 70 -19 74 -1 110 l18 38 12 -24
c7 -13 13 -29 13 -36 0 -21 51 -66 74 -66 30 0 76 36 76 61 0 26 -30 99 -41
99 -5 0 -4 -12 1 -26 24 -61 9 -104 -35 -104 -20 0 -58 72 -86 163 -36 120
-82 157 -157 127z m44 -36 c33 -9 59 -69 59 -138 l0 -61 -40 -3 c-22 -1 -51 4
-65 11 -48 25 -80 131 -42 143 34 11 47 22 44 38 -3 17 9 20 44 10z"/>
<path d="M4430 1749 c0 -5 5 -7 10 -4 6 3 10 8 10 11 0 2 -4 4 -10 4 -5 0 -10
-5 -10 -11z"/>
<path d="M4410 1654 c0 -10 7 -14 22 -12 32 5 35 28 4 28 -17 0 -26 -5 -26
-16z"/>
<path d="M2075 1659 c-16 -5 -43 -19 -59 -32 l-29 -23 16 -63 c9 -35 23 -71
31 -80 9 -10 14 -38 14 -81 0 -36 2 -72 6 -80 3 -8 12 -40 20 -70 8 -30 19
-68 26 -85 24 -62 80 -97 94 -59 4 11 2 15 -8 11 -20 -8 -42 20 -70 89 -36 87
-37 116 -6 124 23 7 24 8 5 15 -11 4 -26 9 -32 11 -7 2 -13 18 -13 36 0 39 14
66 24 49 4 -6 16 -11 26 -11 27 0 58 -44 76 -109 9 -31 21 -62 26 -68 7 -9 7
-28 -1 -59 -7 -26 -9 -59 -6 -74 5 -23 2 -29 -19 -34 -33 -8 -61 -37 -46 -46
8 -5 7 -19 -1 -53 -11 -37 -10 -51 1 -74 14 -27 14 -27 20 39 4 37 12 73 19
82 7 8 31 17 54 21 59 9 84 23 98 56 8 21 9 36 1 57 -6 15 -13 43 -14 62 -3
39 -34 55 -50 26 -15 -26 -27 -18 -39 27 -6 23 -24 68 -40 101 -16 32 -29 60
-29 61 0 2 8 11 17 20 12 12 17 35 17 79 1 56 -2 66 -32 104 -35 43 -45 47
-97 31z m39 -63 c21 -44 20 -48 -6 -44 -27 4 -72 53 -63 68 3 5 17 10 29 10
17 0 28 -10 40 -34z m48 -111 c-19 -39 -16 -37 -45 -30 -14 4 -27 14 -30 23
-3 10 -8 25 -12 35 -6 15 -1 17 34 17 30 0 43 5 48 18 6 14 8 13 13 -8 4 -14
1 -38 -8 -55z m138 -286 c0 -5 -10 -9 -21 -9 -18 0 -19 2 -9 15 12 15 30 12
30 -6z m20 -70 c0 -34 -19 -59 -45 -59 -14 0 -25 3 -25 8 0 4 -3 18 -7 31 -4
17 -3 22 5 17 7 -4 12 -16 12 -27 0 -10 5 -19 11 -19 7 0 9 9 6 22 -4 14 0 26
11 34 24 19 32 17 32 -7z"/>
<path d="M4137 1589 c-37 -5 -109 -18 -160 -29 -149 -33 -165 -62 -166 -306
-1 -97 2 -103 49 -99 69 7 189 26 218 36 18 6 44 12 58 14 30 3 41 12 28 24
-5 6 -34 4 -69 -4 -89 -20 -234 -37 -247 -29 -11 7 -5 179 8 266 7 38 31 56
85 62 13 2 51 8 84 14 125 23 205 35 209 31 2 -2 6 -44 9 -94 12 -178 26 -236
43 -169 6 22 10 24 35 19 16 -4 29 -2 29 3 0 11 -30 37 -52 45 -15 5 -18 19
-18 89 0 134 -11 144 -143 127z"/>
<path d="M1740 1520 c0 -5 7 -10 16 -10 8 0 12 5 9 10 -3 6 -10 10 -16 10 -5
0 -9 -4 -9 -10z"/>
<path d="M4140 1489 c0 -7 -14 -8 -39 -4 -33 5 -41 3 -55 -17 -18 -25 -20 -38
-7 -38 5 0 11 9 14 20 5 18 8 19 31 9 20 -10 30 -9 51 5 25 17 33 36 15 36 -5
0 -10 -5 -10 -11z"/>
<path d="M3905 1470 c-21 -23 -20 -96 2 -109 15 -8 15 -13 5 -36 -16 -35 -15
-55 3 -55 11 0 15 11 15 36 0 36 1 36 31 30 17 -3 35 -6 40 -6 5 0 9 -11 9
-24 0 -20 -8 -27 -42 -38 -24 -8 -44 -22 -46 -31 -3 -14 1 -14 48 1 46 14 51
20 61 56 9 34 8 42 -7 53 -10 7 -27 13 -38 13 -20 0 -20 1 2 16 18 12 22 25
22 65 l0 49 -45 -2 c-27 -1 -51 -8 -60 -18z m75 -35 c0 -28 -5 -37 -30 -50
-25 -13 -30 -13 -30 -2 0 8 -3 28 -6 45 -6 29 -4 31 27 35 19 2 35 5 37 5 1 1
2 -14 2 -33z"/>
<path d="M4113 1437 c-23 -7 -48 -18 -55 -26 -11 -11 -10 -12 7 -8 11 3 34 8
52 12 17 3 37 13 44 21 13 16 9 16 -48 1z"/>
<path d="M4062 1378 c-20 -20 -14 -24 28 -20 25 3 39 9 37 16 -5 16 -50 19
-65 4z"/>
<path d="M4125 1342 c-44 -4 -65 -17 -65 -40 0 -14 1 -14 13 0 6 9 29 18 51
21 65 10 66 24 1 19z"/>
<path d="M1593 1203 c-13 -2 -23 -10 -23 -18 0 -11 5 -11 30 1 28 15 39 26 23
23 -5 -1 -18 -4 -30 -6z"/>
<path d="M1610 1123 c0 -6 -10 -13 -23 -17 -29 -7 -47 -55 -54 -146 -5 -65 -4
-70 14 -70 27 0 34 10 19 26 -11 11 -10 26 5 90 10 42 26 85 35 95 10 11 14
22 11 26 -4 3 -7 2 -7 -4z"/>
<path d="M2097 1033 c-31 -50 -57 -117 -57 -148 0 -40 18 -29 31 18 6 23 17
53 25 67 34 64 43 89 34 95 -5 3 -20 -11 -33 -32z"/>
<path d="M4584 653 c3 -16 8 -48 11 -73 4 -25 9 -53 11 -62 4 -13 -5 -20 -35
-28 -24 -6 -41 -17 -41 -25 0 -23 75 -20 99 4 19 19 19 21 0 107 -10 48 -19
92 -19 96 0 4 -7 8 -16 8 -12 0 -14 -7 -10 -27z"/>
</g>
</svg>
