<?xml version="1.0" standalone="no"?>
<!DOCTYPE svg PUBLIC "-//W3C//DTD SVG 20010904//EN"
 "http://www.w3.org/TR/2001/REC-SVG-20010904/DTD/svg10.dtd">
<svg version="1.0" xmlns="http://www.w3.org/2000/svg"
 width="269.000000pt" height="258.000000pt" viewBox="0 0 269.000000 258.000000"
 preserveAspectRatio="xMidYMid meet">
<metadata>
Created by potrace 1.12, written by Peter Selinger 2001-2015
</metadata>
<g transform="translate(0.000000,258.000000) scale(0.100000,-0.100000)"
fill="#000000" stroke="none">
<path d="M1745 2155 c-55 -8 -143 -27 -196 -44 -53 -16 -117 -32 -143 -36 -25
-4 -46 -11 -46 -16 0 -17 52 -9 142 21 122 41 237 60 403 66 133 6 224 -4 288
-31 9 -4 17 -3 17 2 0 41 -281 63 -465 38z"/>
<path d="M2282 2052 c-13 -9 -13 -12 4 -237 11 -150 12 -168 18 -215 4 -25 12
-61 18 -80 13 -37 15 -44 17 -60 0 -5 8 -10 17 -10 8 0 13 4 10 8 -11 19 -35
160 -35 212 -1 30 -3 71 -5 90 -11 86 -18 170 -19 233 -1 69 -3 73 -25 59z"/>
<path d="M1295 1941 c1 -21 5 -43 8 -47 3 -5 3 -38 2 -74 -5 -85 8 -180 26
-191 20 -12 33 6 20 29 -6 12 -11 71 -11 134 0 121 -12 188 -35 188 -9 0 -13
-11 -10 -39z"/>
<path d="M1695 1935 c-82 -12 -185 -50 -185 -67 0 -6 7 -7 18 -2 63 27 158 53
216 57 67 5 136 -8 136 -26 0 -5 7 -7 15 -4 8 4 17 2 20 -3 7 -12 122 -12 150
0 13 5 -5 8 -52 8 -50 1 -87 7 -119 21 -60 27 -103 31 -199 16z"/>
<path d="M2090 1846 c0 -32 -26 -44 -77 -34 -26 5 -73 12 -103 14 l-55 4 70
-20 c39 -11 91 -20 118 -20 26 0 47 -3 47 -7 0 -5 3 -47 7 -95 l6 -88 -74 -1
c-190 -2 -295 -12 -401 -41 -108 -29 -105 -50 2 -24 42 11 160 25 255 31 50 3
115 9 145 12 30 4 68 7 84 6 l28 0 -6 61 c-3 34 -13 93 -21 130 -7 38 -12 73
-9 78 3 4 0 8 -5 8 -6 0 -11 -6 -11 -14z"/>
<path d="M1476 1822 c-3 -6 -1 -23 5 -39 6 -15 10 -29 10 -30 -1 -2 -1 -4 0
-5 0 -2 3 -16 5 -33 3 -16 9 -35 15 -41 5 -6 6 -14 2 -17 -3 -4 2 -7 11 -7 15
0 17 5 12 28 -4 15 -11 49 -15 75 -8 49 -33 88 -45 69z"/>
<path d="M1660 1762 c-31 -25 -20 -40 12 -18 25 18 74 21 83 6 8 -14 78 -13
110 2 31 14 34 33 3 23 -27 -9 -66 -9 -133 0 -42 6 -54 4 -75 -13z"/>
<path d="M1845 1680 c-16 -4 -51 -8 -77 -9 -28 -1 -48 -6 -48 -12 0 -8 17 -10
53 -5 28 3 85 9 125 12 45 4 68 10 60 15 -16 10 -71 10 -113 -1z"/>
<path d="M760 1649 c0 -6 -8 -8 -18 -4 -22 6 -72 -29 -72 -52 0 -13 -3 -13
-15 -3 -8 7 -15 8 -15 3 0 -5 -17 -10 -37 -10 -48 -1 -73 -31 -73 -87 0 -44
35 -167 50 -176 5 -3 11 -24 14 -48 4 -34 1 -46 -16 -62 -12 -11 -18 -20 -12
-20 5 0 4 -4 -1 -8 -15 -11 -36 -62 -30 -73 10 -15 59 -10 84 10 30 23 31 69
5 196 -6 28 -5 29 12 15 10 -8 28 -23 38 -32 11 -10 30 -18 42 -18 13 0 26 -4
29 -10 3 -5 -1 -10 -9 -10 -13 0 -13 -6 4 -44 10 -24 20 -65 22 -91 3 -31 10
-50 21 -57 20 -11 37 -3 37 17 0 17 31 28 54 19 9 -3 16 -14 16 -23 0 -10 3
-21 7 -24 3 -4 7 -24 8 -44 1 -21 5 -57 9 -80 6 -33 5 -43 -6 -43 -9 -1 -8 -4
3 -13 17 -13 49 -153 49 -213 0 -17 5 -35 12 -42 9 -9 3 -12 -31 -12 -44 0
-231 -57 -231 -70 0 -21 73 -16 135 10 63 26 135 36 135 20 0 -6 -5 -8 -11 -4
-11 6 -9 -37 3 -97 5 -22 37 -69 46 -67 4 1 17 -2 30 -6 25 -8 79 22 101 56 9
15 8 18 -7 18 -10 0 -27 -7 -38 -15 -32 -24 -62 -18 -79 15 -20 39 -19 57 6
63 20 5 20 7 4 31 -10 14 -14 26 -11 26 4 0 1 10 -5 22 -7 13 -16 59 -20 103
-4 44 -10 98 -14 120 l-7 41 69 36 c117 61 153 83 153 91 0 15 -63 -4 -145
-44 -45 -21 -83 -39 -87 -39 -3 0 -8 17 -11 37 -6 32 -2 41 31 78 73 81 91
104 107 137 10 18 24 40 32 50 10 11 11 18 4 23 -21 12 -50 -6 -61 -38 -14
-43 -120 -153 -131 -136 -4 7 -5 17 -3 21 3 4 0 8 -5 8 -6 0 -11 6 -11 13 0
17 -52 36 -82 30 -21 -4 -25 2 -41 49 -10 29 -20 61 -24 71 -3 10 0 17 7 17
21 0 110 73 110 90 1 28 30 -22 30 -51 0 -51 57 -78 98 -46 14 11 45 78 39 84
-9 8 -37 -10 -52 -33 -23 -36 -32 -30 -41 29 -10 71 -11 80 -2 98 12 28 17 98
7 105 -6 3 -14 17 -19 30 -5 13 -29 33 -52 45 -47 24 -138 36 -138 18z m73
-26 c-7 -2 -21 -2 -30 0 -10 3 -4 5 12 5 17 0 24 -2 18 -5z m-98 -13 c-3 -5
-14 -10 -23 -10 -15 0 -15 2 -2 10 20 13 33 13 25 0z m165 -20 c0 -5 -7 -7
-15 -4 -8 4 -15 8 -15 10 0 2 7 4 15 4 8 0 15 -4 15 -10z m-95 -10 c4 -6 -6
-10 -22 -10 -22 0 -25 2 -13 10 19 12 27 12 35 0z m-155 -14 c0 -2 -9 -23 -20
-47 -11 -24 -20 -57 -21 -74 -1 -17 -3 -22 -6 -12 -2 9 -8 17 -13 17 -27 0 -8
92 23 112 13 8 37 11 37 4z m191 -38 c12 -13 19 -18 15 -11 -9 17 14 28 25 12
27 -40 -37 -177 -93 -200 -31 -13 -91 -5 -107 14 -17 21 -24 109 -11 142 20
53 38 65 96 65 42 0 58 -5 75 -22z m-241 -358 c0 -11 -7 -20 -15 -20 -18 0
-19 12 -3 28 16 16 18 15 18 -8z"/>
<path d="M1980 1493 c-119 -7 -293 -26 -365 -39 -44 -7 -93 -16 -110 -18 -95
-14 -115 -19 -115 -27 0 -11 10 -11 85 1 33 5 83 12 110 15 28 3 64 9 80 14
17 5 66 13 110 17 44 4 89 8 100 9 119 12 216 14 245 6 32 -9 33 -9 16 4 -11
8 -34 15 -52 15 -18 0 -38 1 -46 3 -7 2 -33 2 -58 0z"/>
<path d="M1356 1301 c-4 -5 -9 -44 -12 -88 -3 -43 -10 -80 -14 -83 -5 -3 -10
-25 -11 -50 -3 -36 0 -45 13 -48 11 -2 19 5 22 20 18 84 24 123 20 130 -5 8 3
10 61 13 17 2 70 9 120 18 63 10 96 12 109 5 28 -15 2 -28 -58 -28 -53 0 -56
-13 -3 -16 78 -4 72 -2 52 -24 -10 -11 -14 -20 -9 -20 6 0 10 -8 11 -19 1 -15
-8 -20 -44 -25 -86 -12 -102 -9 -97 17 10 42 9 52 -6 52 -8 0 -15 -5 -15 -12
0 -6 -3 -15 -7 -19 -17 -16 -6 -44 22 -59 30 -16 100 -18 100 -3 0 4 18 6 39
4 24 -2 47 2 58 10 10 7 34 14 54 14 58 0 129 12 129 21 0 5 -7 6 -15 3 -11
-5 -15 1 -15 22 0 36 9 50 35 57 19 5 -61 10 -157 10 -51 0 -75 23 -35 32 12
3 42 9 67 15 25 5 93 10 153 10 l107 0 0 -25 c0 -14 -4 -25 -9 -25 -5 0 -7
-24 -6 -54 1 -30 -1 -59 -4 -65 -9 -14 -157 -45 -276 -57 -22 -2 -89 -11 -150
-19 -60 -8 -141 -17 -178 -19 -38 -2 -71 -6 -73 -9 -18 -17 93 -18 186 -2 14
2 81 9 149 15 69 6 132 15 140 20 9 4 39 11 66 14 47 6 63 9 125 21 199 41
227 42 223 10 -4 -27 13 -53 26 -40 13 13 30 122 24 155 -2 14 -4 36 -5 50 0
17 -6 26 -18 27 -10 1 -69 8 -131 17 -169 22 -323 16 -474 -20 -70 -17 -186
-34 -232 -34 -32 0 -33 1 -33 45 0 42 -11 58 -24 36z m851 -63 c7 -5 16 -7 21
-4 5 3 10 -16 11 -42 1 -26 2 -56 4 -67 2 -17 -4 -20 -38 -21 -22 -1 -69 -4
-105 -5 l-65 -4 3 30 c1 17 2 39 2 50 1 10 6 25 12 32 6 8 8 16 5 20 -4 3 -3
11 3 18 11 13 128 8 147 -7z m-373 -75 c-10 -43 -24 -51 -96 -57 l-67 -7 12
24 c26 50 45 59 135 65 20 2 22 -1 16 -25z"/>
<path d="M1905 1110 c3 -5 11 -10 16 -10 6 0 7 5 4 10 -3 6 -11 10 -16 10 -6
0 -7 -4 -4 -10z"/>
<path d="M1958 1113 c7 -3 16 -2 19 1 4 3 -2 6 -13 5 -11 0 -14 -3 -6 -6z"/>
<path d="M723 1023 c-20 -29 -25 -171 -10 -273 5 -30 10 -68 12 -85 6 -49 16
-65 41 -65 21 0 24 5 24 34 0 19 -4 37 -9 40 -4 3 -11 31 -14 62 -3 32 -10 60
-14 63 -7 5 -10 101 -5 159 1 12 11 30 21 39 15 12 17 21 10 35 -14 26 -36 22
-56 -9z"/>
<path d="M837 483 c-9 -2 -14 -9 -11 -15 4 -6 6 -45 5 -87 -2 -94 11 -112 76
-106 87 8 116 48 31 43 l-52 -3 -2 76 c-1 73 -7 100 -22 98 -4 -1 -15 -3 -25
-6z"/>
<path d="M270 119 c0 -5 5 -7 10 -4 6 3 10 8 10 11 0 2 -4 4 -10 4 -5 0 -10
-5 -10 -11z"/>
</g>
</svg>
