<?xml version="1.0" standalone="no"?>
<!DOCTYPE svg PUBLIC "-//W3C//DTD SVG 20010904//EN"
 "http://www.w3.org/TR/2001/REC-SVG-20010904/DTD/svg10.dtd">
<svg version="1.0" xmlns="http://www.w3.org/2000/svg"
 width="460.000000pt" height="345.000000pt" viewBox="0 0 460.000000 345.000000"
 preserveAspectRatio="xMidYMid meet">
<metadata>
Created by potrace 1.12, written by Peter Selinger 2001-2015
</metadata>
<g transform="translate(0.000000,345.000000) scale(0.100000,-0.100000)"
fill="#000000" stroke="none">
<path d="M2157 3194 c-2 -2 -94 -4 -205 -4 -111 -1 -202 -5 -202 -10 0 -4 103
-7 230 -6 212 1 269 6 205 18 -13 3 -26 4 -28 2z"/>
<path d="M1708 3185 c-4 -4 -188 -17 -238 -16 -58 1 -160 -13 -160 -21 0 -7
25 -8 73 -4 39 3 124 9 187 12 153 8 155 9 158 19 4 11 -11 18 -20 10z"/>
<path d="M2270 3179 c0 -5 12 -9 28 -10 15 0 58 -1 95 -3 38 -1 71 2 73 6 6 9
9 9 -108 12 -49 2 -88 -1 -88 -5z"/>
<path d="M2759 3186 c-3 -3 -26 -6 -51 -7 -26 -2 -45 -6 -43 -10 5 -6 96 0
104 7 2 2 2 6 -1 9 -2 3 -7 3 -9 1z"/>
<path d="M2490 3167 c0 -6 18 -8 45 -5 29 4 45 2 45 -5 0 -8 3 -8 11 0 7 7 21
8 39 3 22 -6 28 -5 24 5 -7 17 -164 19 -164 2z"/>
<path d="M2848 3173 c7 -3 16 -2 19 1 4 3 -2 6 -13 5 -11 0 -14 -3 -6 -6z"/>
<path d="M2938 3173 c6 -2 18 -2 25 0 6 3 1 5 -13 5 -14 0 -19 -2 -12 -5z"/>
<path d="M1275 3150 c-19 -8 -19 -9 3 -9 12 -1 22 4 22 9 0 6 -1 10 -2 9 -2 0
-12 -4 -23 -9z"/>
<path d="M1097 3144 c-1 -2 -27 -3 -57 -4 -103 -3 -183 -12 -169 -21 8 -4 32
-6 54 -4 22 2 102 7 178 10 144 7 206 27 73 23 -42 -1 -77 -3 -79 -4z"/>
<path d="M4003 3135 c0 -8 4 -15 10 -15 5 0 7 -6 4 -12 -6 -17 12 -50 22 -44
10 7 2 56 -12 74 -13 16 -24 15 -24 -3z"/>
<path d="M713 3123 c-35 -2 -63 -7 -63 -11 0 -4 31 -6 70 -4 38 2 70 8 70 13
0 5 -3 8 -7 7 -5 -1 -36 -3 -70 -5z"/>
<path d="M818 3118 c5 -5 16 -8 23 -6 8 3 3 7 -10 11 -17 4 -21 3 -13 -5z"/>
<path d="M575 3110 c3 -5 11 -10 16 -10 6 0 7 5 4 10 -3 6 -11 10 -16 10 -6 0
-7 -4 -4 -10z"/>
<path d="M470 3100 c0 -5 18 -7 43 -4 58 8 60 14 4 14 -26 0 -47 -4 -47 -10z"/>
<path d="M4034 3020 c0 -17 6 -30 13 -30 15 0 15 5 7 38 -9 32 -22 27 -20 -8z"/>
<path d="M457 3003 c-3 -2 2 -24 10 -46 9 -23 17 -55 19 -72 1 -16 5 -41 8
-55 3 -14 8 -38 11 -55 2 -16 9 -61 15 -100 11 -68 3 -390 -10 -390 -3 0 -11
-59 -14 -100 -2 -22 -4 -40 -5 -40 -11 0 -16 -87 -11 -162 2 -32 26 -63 47
-63 12 0 12 3 -1 16 -26 25 -30 62 -16 148 7 45 14 97 16 116 2 19 8 82 14
140 10 98 7 319 -4 365 -7 26 -14 83 -22 168 -4 37 -11 70 -15 73 -5 3 -9 16
-9 29 0 21 -22 40 -33 28z"/>
<path d="M4043 2903 c4 -38 10 -69 15 -71 5 -1 7 -16 4 -32 -2 -16 -1 -38 3
-47 9 -20 14 -133 7 -146 -2 -5 -4 -50 -3 -100 2 -103 2 -175 1 -292 0 -44 2
-91 6 -105 3 -14 7 -38 8 -55 1 -16 4 -34 7 -40 4 -5 5 -20 4 -32 -1 -13 3
-23 8 -23 6 0 7 -3 4 -6 -3 -4 -2 -15 4 -26 6 -10 12 -38 15 -61 6 -55 13 -77
25 -77 5 0 9 9 9 20 0 11 -3 20 -7 20 -5 0 -9 19 -10 43 -2 23 -7 43 -12 45
-6 2 -8 9 -5 17 3 7 1 30 -5 51 -6 22 -12 68 -15 104 -6 81 -8 93 -21 102 -7
5 -6 8 1 8 16 0 8 548 -10 629 -7 36 -13 82 -12 103 2 27 -2 38 -12 38 -12 0
-14 -12 -9 -67z"/>
<path d="M2751 2869 c-13 -5 -22 -11 -20 -14 8 -7 49 7 49 16 0 5 -1 9 -2 8
-2 0 -14 -5 -27 -10z"/>
<path d="M2800 2871 c0 -6 9 -9 20 -8 11 1 20 5 20 9 0 4 -9 8 -20 8 -11 0
-20 -4 -20 -9z"/>
<path d="M2873 2873 c9 -2 23 -2 30 0 6 3 -1 5 -18 5 -16 0 -22 -2 -12 -5z"/>
<path d="M2958 2873 c6 -2 18 -2 25 0 6 3 1 5 -13 5 -14 0 -19 -2 -12 -5z"/>
<path d="M2645 2843 c-77 -24 -147 -59 -200 -101 -24 -19 -27 -25 -15 -32 8
-6 28 -10 44 -10 28 0 29 1 11 14 -17 12 -18 15 -3 30 9 9 21 16 26 16 5 0 20
9 33 19 14 10 57 29 97 42 39 13 72 27 72 31 0 10 -4 9 -65 -9z"/>
<path d="M1145 2760 c-27 -4 -59 -12 -71 -16 -24 -10 -133 -96 -134 -105 0 -4
9 -9 20 -12 11 -3 20 -1 20 4 0 12 49 62 81 83 15 9 53 21 84 26 32 5 63 14
69 20 11 11 6 11 -69 0z"/>
<path d="M1260 2758 c0 -4 14 -8 30 -8 17 0 30 2 30 4 0 2 -13 6 -30 8 -16 3
-30 1 -30 -4z"/>
<path d="M1340 2756 c0 -2 18 -6 40 -8 22 -2 40 0 40 4 0 5 -18 8 -40 8 -22 0
-40 -2 -40 -4z"/>
<path d="M3195 2458 c-22 -5 -74 -20 -115 -33 -41 -13 -104 -29 -140 -34 -36
-6 -66 -15 -68 -21 -2 -6 -8 -8 -12 -5 -5 3 -11 1 -15 -5 -3 -5 -1 -10 6 -10
12 0 81 18 109 28 8 3 19 4 25 3 15 -4 95 21 95 29 0 4 10 8 23 8 25 -1 124
26 134 36 11 11 -1 12 -42 4z"/>
<path d="M2492 2409 c-13 -5 -99 -10 -190 -11 -107 -1 -178 -6 -199 -14 -31
-12 -58 -46 -46 -58 12 -12 23 -6 23 14 0 32 36 39 219 39 135 0 176 3 201 16
45 23 39 33 -8 14z"/>
<path d="M2755 2334 l-40 -14 44 4 c24 2 48 9 54 15 15 15 -7 13 -58 -5z"/>
<path d="M1765 2234 c-95 -20 -242 -66 -285 -90 -43 -23 6 -16 85 12 150 54
174 61 240 70 21 2 41 7 44 9 5 6 -55 5 -84 -1z"/>
<path d="M3610 2140 c0 -5 5 -10 10 -10 6 0 10 5 10 10 0 6 -4 10 -10 10 -5 0
-10 -4 -10 -10z"/>
<path d="M1406 2108 c-62 -49 -71 -57 -60 -58 6 0 21 9 34 20 13 11 28 20 34
20 6 0 17 9 24 20 16 26 3 25 -32 -2z"/>
<path d="M3565 2105 c-31 -26 -59 -31 -190 -40 -114 -7 -159 -20 -198 -58 -26
-26 -12 -35 16 -10 33 32 154 57 261 55 37 -1 63 6 98 26 26 15 48 33 48 40 0
16 0 16 -35 -13z"/>
<path d="M1945 1940 c-3 -5 -1 -10 4 -10 6 0 11 5 11 10 0 6 -2 10 -4 10 -3 0
-8 -4 -11 -10z"/>
<path d="M1892 1915 c-18 -38 -15 -41 13 -15 28 26 32 40 12 40 -8 0 -19 -11
-25 -25z"/>
<path d="M1495 1916 c-44 -6 -75 -14 -70 -17 6 -4 42 -3 80 2 43 6 98 5 143
-1 90 -12 95 -12 88 -1 -3 5 -36 12 -73 16 -36 4 -71 8 -77 10 -6 1 -47 -3
-91 -9z"/>
<path d="M3595 1730 c-3 -5 1 -10 10 -10 9 0 13 5 10 10 -3 6 -8 10 -10 10 -2
0 -7 -4 -10 -10z"/>
<path d="M3760 1730 c0 -5 7 -10 16 -10 8 0 12 5 9 10 -3 6 -10 10 -16 10 -5
0 -9 -4 -9 -10z"/>
<path d="M3457 1718 c-7 -4 18 -8 56 -8 40 0 67 4 67 11 0 11 -104 9 -123 -3z"/>
<path d="M3373 1713 c-13 -2 -23 -9 -23 -15 0 -5 7 -7 16 -4 9 3 24 6 35 6 10
0 19 5 19 10 0 10 -8 11 -47 3z"/>
<path d="M3279 1706 c-2 -2 -33 -7 -69 -10 -78 -7 -111 -13 -119 -22 -6 -6
153 3 205 12 42 8 54 24 18 24 -17 0 -33 -2 -35 -4z"/>
<path d="M1825 1670 c-3 -5 -1 -10 4 -10 6 0 11 5 11 10 0 6 -2 10 -4 10 -3 0
-8 -4 -11 -10z"/>
<path d="M2845 1658 c-116 -10 -154 -29 -44 -21 41 3 83 6 94 8 11 1 36 3 55
4 27 1 31 4 20 11 -8 5 -17 9 -20 8 -3 0 -50 -5 -105 -10z"/>
<path d="M1791 1646 c-7 -8 -8 -17 -3 -20 6 -3 13 1 16 10 9 23 2 28 -13 10z"/>
<path d="M2685 1641 c-11 -4 -54 -8 -95 -10 -41 -1 -79 -7 -85 -12 -5 -6 16
-7 55 -4 114 10 149 16 155 26 7 11 -2 11 -30 0z"/>
<path d="M2390 1610 c-20 -7 -16 -8 23 -9 26 -1 47 4 47 9 0 12 -34 12 -70 0z"/>
<path d="M2470 1609 c0 -5 5 -7 10 -4 6 3 10 8 10 11 0 2 -4 4 -10 4 -5 0 -10
-5 -10 -11z"/>
<path d="M1764 1595 c-12 -8 -59 -15 -119 -19 -55 -2 -122 -7 -150 -10 -27 -3
-97 -11 -155 -16 -176 -18 -290 -34 -355 -49 -106 -24 -143 -32 -175 -37 -19
-3 -42 -13 -50 -21 -13 -14 -12 -15 10 -9 14 4 34 9 45 11 11 2 34 8 50 13 17
5 36 7 43 5 7 -3 18 0 25 6 7 5 35 12 63 15 27 2 56 7 64 10 14 6 40 10 115
21 17 2 68 7 115 10 47 3 105 10 130 15 25 5 65 7 88 6 23 -2 42 0 42 3 0 3
21 6 48 7 26 1 97 3 157 7 61 3 133 6 160 7 38 1 45 4 30 10 -11 5 -47 6 -79
3 -47 -5 -61 -3 -71 10 -10 14 -14 14 -31 2z"/>
<path d="M2339 1606 c-2 -2 -82 -6 -178 -9 -110 -4 -178 -10 -185 -18 -8 -8 4
-10 49 -5 33 3 120 8 193 12 73 3 135 10 138 15 5 9 -8 13 -17 5z"/>
<path d="M715 1430 c-3 -5 -1 -10 4 -10 6 0 11 5 11 10 0 6 -2 10 -4 10 -3 0
-8 -4 -11 -10z"/>
<path d="M654 1411 c3 -5 15 -7 26 -4 28 7 25 13 -6 13 -14 0 -23 -4 -20 -9z"/>
<path d="M2305 1112 c-56 -18 -95 -77 -93 -140 1 -38 -42 -107 -71 -115 -30
-7 -26 13 9 51 39 43 38 46 -5 21 -19 -12 -35 -27 -35 -35 0 -8 -4 -14 -9 -14
-5 0 -12 -8 -15 -17 -16 -40 55 -51 97 -15 23 21 33 8 15 -20 -21 -34 -38
-100 -43 -169 -5 -77 25 -169 55 -166 16 1 18 9 18 54 -1 37 -6 53 -15 53 -14
0 -17 13 -14 80 4 104 44 200 72 173 7 -7 26 -13 41 -13 32 0 30 16 32 -235 1
-117 3 -140 16 -140 12 0 15 19 17 105 1 58 2 107 3 110 1 3 3 46 4 95 1 66 6
97 19 116 9 14 14 29 10 32 -3 4 -1 7 6 7 7 0 15 -8 18 -19 6 -24 54 -51 60
-34 2 7 10 10 17 7 19 -7 86 82 86 116 0 15 -20 12 -26 -5 -3 -8 -21 -31 -39
-51 -34 -37 -55 -38 -55 -3 0 10 -3 19 -7 19 -12 0 -33 51 -33 77 0 13 -4 23
-10 23 -5 0 -10 5 -10 11 0 6 -10 19 -22 30 -23 19 -56 22 -93 11z m65 -47
c21 -22 26 -50 19 -107 -3 -20 -14 -23 -24 -7 -6 9 -37 7 -88 -7 -15 -5 -17 0
-12 38 3 24 10 45 16 46 6 3 6 8 -1 17 -8 10 -5 17 12 29 31 22 51 20 78 -9z
m-36 -161 c9 -36 -5 -47 -32 -28 -18 12 -20 19 -12 35 15 27 37 24 44 -7z"/>
<path d="M2360 428 c-19 -4 -63 -5 -97 -2 -42 3 -63 1 -63 -6 0 -6 7 -13 16
-17 13 -5 15 -16 10 -59 -3 -29 -8 -59 -12 -67 -7 -20 58 -49 99 -44 l32 3
-43 19 c-31 13 -41 23 -37 34 3 8 9 34 12 58 4 30 10 43 22 43 9 0 27 3 40 7
23 6 23 4 17 -29 -9 -51 17 -98 55 -98 34 0 69 27 69 53 0 16 -3 16 -31 -5
-26 -19 -31 -20 -40 -8 -5 8 -8 39 -6 68 2 29 1 54 -2 56 -3 1 -22 -1 -41 -6z"/>
</g>
</svg>
