<?xml version="1.0" standalone="no"?>
<!DOCTYPE svg PUBLIC "-//W3C//DTD SVG 20010904//EN"
 "http://www.w3.org/TR/2001/REC-SVG-20010904/DTD/svg10.dtd">
<svg version="1.0" xmlns="http://www.w3.org/2000/svg"
 width="381.000000pt" height="242.000000pt" viewBox="0 0 381.000000 242.000000"
 preserveAspectRatio="xMidYMid meet">
<metadata>
Created by potrace 1.12, written by Peter Selinger 2001-2015
</metadata>
<g transform="translate(0.000000,242.000000) scale(0.100000,-0.100000)"
fill="#000000" stroke="none">
<path d="M2968 2203 c-45 -7 -32 -18 20 -16 70 2 80 4 52 13 -27 9 -32 9 -72
3z"/>
<path d="M2600 2190 c-62 -8 -263 -25 -400 -35 -193 -14 -419 -37 -444 -45
-16 -5 -33 -7 -37 -4 -5 3 -26 0 -46 -5 -21 -5 -63 -12 -93 -15 -30 -4 -66 -8
-80 -11 -14 -3 -40 -8 -58 -11 -43 -8 -49 -20 -9 -18 45 2 185 24 229 35 21 5
84 14 140 19 57 5 141 13 188 19 77 9 211 21 300 26 19 2 123 10 230 20 107
10 243 18 303 19 59 0 107 4 107 8 0 10 -243 8 -330 -2z"/>
<path d="M3217 2178 c5 -7 10 -26 11 -41 1 -16 8 -43 16 -60 7 -18 19 -63 26
-102 7 -38 15 -74 19 -80 3 -5 6 -35 7 -65 2 -110 16 -291 25 -323 13 -46 38
-207 45 -291 4 -39 18 -125 31 -191 14 -66 28 -139 30 -162 4 -34 9 -43 24
-43 23 0 23 0 4 70 -18 64 -38 180 -65 370 -11 74 -27 178 -35 230 -9 52 -24
177 -35 278 -17 162 -29 229 -48 282 -10 28 -14 45 -19 80 -6 37 -19 60 -35
60 -7 0 -7 -5 -1 -12z"/>
<path d="M130 2156 c0 -2 7 -6 15 -10 8 -3 15 -1 15 4 0 6 -7 10 -15 10 -8 0
-15 -2 -15 -4z"/>
<path d="M578 2045 c-5 -5 -132 -18 -185 -18 -18 0 -33 -4 -33 -9 0 -4 -7 -8
-15 -8 -8 0 -15 -4 -15 -10 0 -12 31 -13 63 -1 24 9 191 32 247 33 52 2 44 18
-8 18 -27 0 -51 -2 -54 -5z"/>
<path d="M703 2044 c5 -5 59 -10 120 -11 62 -1 112 -2 112 -3 0 -1 25 -4 55
-6 30 -2 72 -5 93 -7 41 -4 50 7 15 17 -36 10 -404 19 -395 10z"/>
<path d="M1295 2039 c-22 -4 -68 -8 -103 -8 -35 -1 -61 -5 -58 -10 3 -5 27 -7
53 -5 125 8 189 16 198 25 11 11 -33 10 -90 -2z"/>
<path d="M264 1895 c-5 -30 -6 -55 -2 -55 4 0 8 8 8 17 0 9 3 13 7 10 3 -4 7
-73 8 -154 3 -150 12 -311 20 -323 6 -10 14 -85 20 -210 8 -137 7 -133 20
-142 6 -5 6 -8 -1 -8 -11 0 -10 -125 1 -157 2 -6 0 -13 -5 -15 -4 -2 -9 -21
-10 -43 -3 -65 -1 -87 9 -80 5 3 12 1 16 -5 12 -20 24 -9 20 18 -3 15 -7 92
-9 172 -6 178 -21 368 -40 521 -9 64 -16 190 -16 280 -1 180 -6 229 -24 229
-6 0 -16 -25 -22 -55z"/>
<path d="M2090 771 c0 -5 10 -11 23 -13 19 -3 22 -9 22 -43 0 -29 -4 -41 -16
-43 -18 -3 -33 34 -17 44 6 4 6 10 0 16 -6 6 -15 7 -21 4 -14 -9 -14 -73 0
-78 7 -2 13 -44 15 -113 2 -61 3 -119 4 -130 0 -11 7 -30 15 -42 8 -11 16 -33
19 -48 6 -35 6 -34 39 -28 31 6 37 33 7 33 -11 0 -20 5 -20 11 0 6 8 8 18 5 9
-3 24 -1 32 4 13 9 13 11 -1 20 -11 6 -16 21 -14 45 1 19 -3 35 -9 35 -6 0
-11 18 -10 42 0 23 -2 69 -5 102 -4 34 -2 80 3 103 8 36 6 46 -9 63 -18 20
-75 28 -75 11z m56 -256 c8 -50 7 -65 -3 -69 -18 -7 -24 7 -27 74 -4 83 18 80
30 -5z m19 -113 c-8 -8 -25 10 -19 20 4 6 9 5 15 -3 4 -7 6 -15 4 -17z"/>
<path d="M2465 764 c-17 -8 -44 -29 -62 -46 -27 -26 -30 -33 -18 -42 13 -10
22 -62 30 -169 2 -23 4 -45 4 -49 1 -5 10 -8 20 -8 15 0 18 -5 14 -22 -3 -13
-13 -31 -22 -42 -15 -17 -14 -18 8 -15 17 3 25 12 28 29 5 40 12 52 24 44 6
-3 9 -19 5 -35 -4 -21 -2 -29 8 -29 16 0 30 31 19 39 -8 6 -9 20 -3 39 3 8 3
5 -4 62 -2 25 -8 78 -12 118 -4 40 -13 79 -20 87 -8 7 -14 18 -14 24 0 15 23
14 38 -1 6 -6 14 -9 17 -6 3 2 -3 12 -13 21 -16 15 -21 15 -47 1z m5 -64 c0
-23 -4 -24 -31 -9 -23 12 -16 29 12 29 12 0 19 -7 19 -20z m-5 -100 c27 0 31
-123 4 -128 -13 -2 -18 12 -26 70 -6 40 -8 78 -4 83 3 6 7 2 9 -7 2 -10 9 -18
17 -18z"/>
<path d="M2233 723 c-20 -7 -15 -41 6 -53 13 -6 18 -18 17 -35 -4 -35 18 -64
35 -47 7 6 33 12 57 12 30 0 42 4 40 12 -3 7 -11 13 -19 13 -8 0 -29 6 -48 14
-30 13 -33 17 -28 47 7 39 -18 54 -60 37z"/>
<path d="M3299 615 c-10 -10 -90 -15 -310 -20 -125 -3 -269 -9 -320 -15 -52
-5 -102 -10 -111 -10 -10 0 -18 -4 -18 -8 0 -5 12 -7 28 -6 15 2 50 6 77 9 28
3 163 7 300 9 256 4 351 12 361 28 7 10 0 21 -7 13z"/>
<path d="M2255 543 c-27 -2 -54 -9 -60 -15 -12 -12 111 -4 160 11 29 9 29 9
-10 8 -22 0 -62 -2 -90 -4z"/>
<path d="M1930 499 c-36 -5 -106 -16 -156 -24 -50 -8 -129 -16 -175 -16 -46
-1 -97 -5 -114 -9 -34 -9 236 -5 275 4 47 10 95 17 185 25 96 8 167 31 90 29
-22 0 -69 -4 -105 -9z"/>
<path d="M1275 438 c-49 -4 -130 -12 -180 -18 -49 -6 -121 -13 -160 -16 -38
-3 -76 -7 -83 -10 -8 -2 -37 -6 -65 -9 -78 -8 -189 -26 -217 -36 -19 -6 -12
-8 25 -5 98 8 183 17 201 20 44 8 104 16 169 21 38 4 72 8 76 11 8 4 98 13
204 20 39 3 96 6 129 8 32 3 63 9 68 14 12 12 -19 12 -167 0z"/>
</g>
</svg>
