<?xml version="1.0" standalone="no"?>
<!DOCTYPE svg PUBLIC "-//W3C//DTD SVG 20010904//EN"
 "http://www.w3.org/TR/2001/REC-SVG-20010904/DTD/svg10.dtd">
<svg version="1.0" xmlns="http://www.w3.org/2000/svg"
 width="554.000000pt" height="311.000000pt" viewBox="0 0 554.000000 311.000000"
 preserveAspectRatio="xMidYMid meet">
<metadata>
Created by potrace 1.12, written by Peter Selinger 2001-2015
</metadata>
<g transform="translate(0.000000,311.000000) scale(0.100000,-0.100000)"
fill="#000000" stroke="none">
<path d="M1170 2502 c0 -4 5 -13 12 -20 9 -9 7 -12 -9 -12 -12 0 -30 -11 -41
-25 -12 -16 -26 -23 -36 -19 -15 6 -15 -19 -1 -90 5 -26 -15 -66 -34 -66 -9 0
-25 16 -35 35 -10 19 -22 32 -27 30 -4 -3 -10 -1 -14 5 -18 29 -135 -6 -154
-46 -16 -35 -14 -54 9 -99 11 -22 20 -51 20 -65 0 -32 17 -50 47 -50 33 0 29
27 -12 79 -45 56 -55 105 -27 133 11 11 25 17 32 13 8 -5 5 -12 -9 -22 -12 -8
-21 -20 -21 -27 0 -19 40 -66 63 -75 18 -7 20 -16 18 -82 -2 -74 28 -222 49
-243 6 -6 10 -31 10 -56 0 -33 6 -52 18 -64 11 -9 31 -47 46 -85 15 -37 38
-79 51 -91 22 -20 28 -22 51 -12 14 7 30 10 35 6 5 -3 27 -6 50 -6 33 0 39 -3
33 -17 -27 -65 -7 -70 24 -6 33 69 30 72 -37 47 -11 -4 -13 2 -8 23 6 33 -27
111 -80 192 -19 29 -32 57 -28 63 3 5 -2 10 -11 10 -14 0 -15 3 -6 12 19 19
14 68 -8 86 -12 10 -28 47 -38 87 -17 63 -38 120 -63 167 -10 19 -6 22 34 32
19 5 32 16 39 36 7 22 16 30 34 30 20 0 24 -5 24 -29 0 -29 14 -79 32 -117 5
-11 8 -36 6 -55 -2 -25 1 -34 13 -37 9 -2 19 4 23 13 3 9 2 13 -4 10 -6 -4
-10 8 -10 29 0 19 -11 70 -24 112 -19 60 -22 82 -14 97 10 20 11 20 29 -4 10
-13 19 -30 19 -37 0 -8 6 -26 14 -40 8 -15 21 -51 30 -81 16 -53 16 -53 -9
-83 -14 -16 -25 -40 -25 -53 0 -13 -4 -27 -10 -30 -19 -11 -10 -78 17 -134 15
-31 37 -92 48 -136 14 -52 27 -80 36 -80 8 0 12 7 10 15 -12 48 -12 60 -1 60
14 0 53 40 46 47 -5 5 -48 -18 -57 -30 -3 -5 -13 11 -21 35 -8 24 -18 51 -22
60 -5 11 -1 20 15 29 21 11 27 7 71 -42 26 -30 48 -47 48 -39 0 8 -9 21 -20
28 -11 7 -20 18 -20 26 0 7 -9 21 -21 32 -14 12 -18 25 -14 41 4 17 2 21 -9
17 -10 -4 -21 8 -35 38 -10 24 -23 42 -28 40 -4 -1 -10 7 -11 19 -2 14 8 33
29 55 18 19 28 34 21 34 -7 0 -12 13 -12 28 0 16 -3 32 -7 36 -5 4 -8 11 -9
14 -4 45 -48 149 -68 164 -6 4 -5 21 1 43 12 39 9 60 -15 88 -15 17 -42 23
-42 9z m40 -63 c0 -26 -38 -96 -56 -103 -7 -3 -18 1 -24 9 -23 28 30 110 73
114 4 1 7 -9 7 -20z m-256 -132 c-2 -7 9 -18 26 -25 36 -16 38 -34 8 -62 -28
-26 -34 -25 -63 5 -30 29 -31 41 -6 56 11 8 16 19 13 31 -3 13 0 17 11 12 9
-3 14 -11 11 -17z m85 -150 c11 -24 28 -77 40 -117 l20 -73 -27 -28 c-47 -51
-70 -34 -93 66 -17 78 -14 167 7 182 27 20 33 16 53 -30z m-134 -55 c-8 -8
-25 10 -19 20 4 6 9 5 15 -3 4 -7 6 -15 4 -17z m401 -163 c17 -34 7 -56 -20
-46 -22 9 -21 77 0 77 2 0 11 -14 20 -31z m-166 -111 c0 -19 -38 -78 -50 -78
-15 0 -7 53 10 72 18 20 40 23 40 6z m-80 -32 c0 -14 -4 -28 -10 -31 -6 -4
-10 7 -10 24 0 17 5 31 10 31 6 0 10 -11 10 -24z m146 -90 l23 -49 -31 -43
c-17 -23 -36 -40 -42 -38 -16 6 -48 60 -62 103 -10 32 -8 37 25 71 42 43 46
40 87 -44z m47 -108 c8 -29 2 -36 -27 -31 -22 5 -23 8 -14 29 14 30 34 31 41
2z"/>
<path d="M768 2133 c40 -34 43 -75 8 -98 -18 -12 -30 -13 -50 -6 -28 11 -33
30 -16 61 8 15 7 18 -3 14 -8 -3 -20 -16 -27 -29 -11 -21 -11 -28 4 -44 10
-11 29 -24 44 -30 24 -10 27 -17 29 -59 3 -97 47 -261 75 -278 5 -3 -10 -15
-33 -26 -51 -22 -56 -19 -86 61 -27 73 -53 111 -80 117 -20 5 -23 11 -18 28
20 60 18 84 -9 101 -28 19 -89 14 -102 -7 -5 -8 6 -9 38 -5 54 7 72 -7 62 -47
-11 -46 -68 -43 -76 4 -2 14 -7 17 -18 10 -12 -7 -11 -13 10 -36 14 -14 35
-30 48 -35 21 -8 22 -10 8 -31 -10 -15 -13 -36 -10 -58 3 -19 6 -42 6 -50 1
-8 4 -17 8 -20 4 -3 17 -36 30 -75 28 -86 47 -125 61 -125 15 0 6 35 -37 143
-38 98 -53 171 -35 181 18 11 50 -13 57 -42 4 -15 11 -33 17 -40 44 -55 66
-163 42 -202 -13 -20 3 -23 29 -3 13 10 29 28 35 41 6 12 15 22 21 22 7 0 9 8
5 21 -6 17 -3 20 17 17 21 -3 23 -9 26 -60 3 -49 0 -58 -18 -68 -12 -6 -25
-22 -30 -36 -12 -31 -25 -30 -46 1 -18 27 -34 31 -51 14 -13 -13 25 -54 60
-63 28 -7 32 -24 43 -186 4 -66 13 -114 22 -128 l15 -23 37 42 36 42 34 -16
c18 -10 36 -14 39 -11 6 5 -7 16 -46 40 -17 11 -17 12 0 31 9 11 17 24 17 29
-1 5 -26 -18 -56 -51 -40 -44 -57 -57 -63 -47 -8 13 -24 172 -25 237 0 29 29
75 46 75 11 0 44 -75 59 -132 6 -27 16 -48 21 -48 6 0 8 10 5 23 -26 109 -40
155 -52 174 -9 14 -13 38 -11 65 2 24 4 49 5 56 2 29 21 7 55 -63 19 -42 41
-103 48 -135 9 -47 16 -60 30 -60 10 0 18 6 18 13 0 7 15 27 33 44 26 25 38
30 65 26 29 -5 33 -8 28 -29 -5 -17 -2 -24 9 -24 11 0 15 10 15 35 0 31 -3 35
-25 35 -14 0 -28 7 -31 15 -4 8 -12 15 -19 15 -7 0 -18 20 -24 44 -6 25 -17
51 -23 58 -28 30 -39 60 -33 89 7 33 -6 56 -41 69 -24 9 -63 87 -95 187 -34
107 -54 112 -25 8 12 -46 35 -103 58 -148 5 -11 8 -20 6 -20 -2 -1 -17 -10
-35 -19 -53 -30 -60 -25 -87 65 -54 179 -58 222 -20 239 23 11 28 9 45 -12 10
-14 19 -20 19 -14 0 6 -9 19 -21 30 -13 11 -18 26 -15 39 8 31 -35 99 -64 103
-24 3 -24 2 8 -25z m210 -462 c30 -26 28 -34 -8 -26 -19 4 -36 2 -45 -5 -26
-22 -38 0 -14 26 27 29 37 29 67 5z m-4 -60 c3 -5 0 -11 -8 -14 -15 -6 -26 1
-26 15 0 11 27 10 34 -1z m80 -114 l39 -77 -23 -25 c-27 -29 -50 -33 -50 -8 0
9 -17 53 -37 96 -31 65 -34 80 -22 88 33 21 54 5 93 -74z"/>
<path d="M2634 1990 c-11 -4 -33 -22 -47 -40 -22 -26 -30 -29 -46 -20 -45 24
-57 4 -12 -23 24 -14 28 -23 27 -56 0 -30 6 -47 26 -68 l26 -28 -19 -42 c-14
-35 -23 -43 -44 -43 -21 0 -25 5 -25 29 0 16 -7 34 -15 41 -15 13 -129 19
-140 8 -8 -8 -8 -146 1 -159 3 -5 12 -9 20 -9 13 0 15 12 13 70 -2 38 1 74 6
79 6 5 25 7 45 2 47 -9 54 -45 13 -63 l-28 -12 28 -4 c26 -3 28 -7 25 -40 -3
-35 -6 -38 -60 -57 -31 -11 -60 -24 -64 -28 -16 -15 48 -6 101 16 55 22 55 22
55 65 0 38 2 42 24 42 21 0 25 -6 31 -42 4 -24 14 -55 21 -70 8 -15 14 -38 14
-51 0 -29 26 -53 52 -49 10 2 18 -2 18 -7 0 -6 -8 -11 -19 -11 -10 0 -29 -8
-42 -19 -13 -10 -43 -28 -66 -40 -24 -12 -43 -23 -43 -26 0 -17 74 -125 85
-125 17 0 20 16 5 25 -6 4 -19 24 -30 44 -18 36 -18 40 -2 54 23 20 67 33 57
18 -13 -22 16 -109 49 -147 47 -54 65 -36 21 22 -19 25 -35 54 -35 65 0 10 16
40 36 66 25 32 34 54 31 70 -3 16 2 27 15 34 15 8 18 17 13 42 -8 43 -43 163
-60 210 -13 36 -12 41 8 73 19 31 26 35 55 30 23 -3 32 -1 32 9 0 7 -10 15
-22 17 -32 4 -39 48 -8 48 16 0 20 4 15 18 -3 11 3 30 16 46 29 36 19 43 -19
11 -33 -28 -52 -32 -52 -11 0 28 -51 50 -86 36z m48 -98 c-1 -22 2 -43 7 -47
14 -8 -31 -74 -50 -75 -9 0 -24 11 -33 25 -17 26 -22 95 -7 95 6 0 22 11 37
25 36 34 50 27 46 -23z m-28 -174 c3 -13 6 -37 6 -55 0 -20 9 -42 25 -59 26
-28 44 -90 29 -103 -5 -4 -21 -12 -36 -19 -26 -11 -28 -10 -28 13 0 13 -4 26
-10 30 -16 10 -44 111 -35 131 9 22 11 31 13 62 1 12 8 22 16 22 7 0 16 -10
20 -22z"/>
<path d="M4993 1822 c-11 -9 -23 -26 -25 -37 -2 -15 -12 -21 -38 -23 -47 -4
-64 -22 -22 -22 25 0 35 -6 44 -24 6 -14 8 -32 4 -41 -5 -14 -8 -14 -31 1 -26
17 -54 13 -56 -8 -1 -7 -23 -33 -50 -57 -35 -31 -52 -41 -61 -34 -7 5 -26 9
-43 8 -16 -1 -42 -3 -56 -3 -15 -1 -50 -18 -79 -38 -43 -29 -56 -34 -74 -26
-11 5 -43 18 -71 27 -27 10 -80 33 -118 52 -37 19 -83 37 -103 39 -35 4 -35 4
-33 -33 1 -21 0 -42 -2 -48 -6 -18 23 -149 38 -173 8 -13 17 -45 20 -73 l6
-50 22 21 c26 25 65 119 65 158 0 15 -6 39 -14 54 -17 33 -13 38 35 38 31 0
48 -9 96 -51 55 -48 109 -79 139 -79 29 0 12 22 -31 41 -55 24 -58 34 -8 24
31 -6 35 -5 25 8 -19 22 -6 42 46 68 55 28 98 31 131 11 20 -12 27 -12 50 -1
14 8 30 20 34 26 11 17 60 17 54 1 -2 -7 -11 -12 -19 -12 -19 2 -18 -24 4 -56
18 -27 33 -168 20 -185 -4 -5 -29 -11 -56 -13 -27 -1 -86 -12 -130 -23 -45
-12 -103 -24 -130 -28 -38 -5 -54 -12 -70 -34 -19 -26 -21 -44 -25 -223 -2
-119 1 -205 7 -224 l11 -30 -54 0 c-30 0 -56 -4 -59 -9 -12 -19 22 -27 94 -22
58 5 75 9 75 21 0 8 -7 14 -17 14 -14 -1 -17 14 -24 95 -13 172 -5 350 17 377
4 5 28 10 51 9 42 -1 43 -2 46 -35 1 -19 7 -79 13 -133 l10 -97 -50 -57 c-36
-40 -48 -60 -40 -67 7 -8 16 -4 30 14 12 14 34 41 51 60 31 35 31 35 23 120
-4 47 -8 112 -9 145 l-1 60 34 0 c32 0 35 -3 52 -54 16 -52 26 -131 31 -271
l3 -65 -37 -17 c-38 -18 -52 -48 -23 -48 26 0 87 29 100 47 10 14 10 19 0 28
-9 6 -15 46 -18 115 -7 126 -21 210 -42 253 -18 37 -25 32 90 62 63 16 80 24
79 38 0 9 -1 48 -2 86 -1 49 -7 74 -18 86 -18 17 -15 24 39 78 15 16 27 38 27
50 0 12 4 29 10 37 8 12 11 12 27 -1 10 -9 25 -19 35 -22 16 -6 41 -76 51
-147 l5 -35 -65 -3 c-71 -3 -87 -8 -77 -24 4 -7 28 -8 65 -4 56 5 59 5 60 -17
0 -12 2 -31 4 -42 2 -11 6 -58 8 -104 5 -82 4 -85 -23 -113 -46 -45 -91 -228
-57 -228 9 0 19 4 22 10 3 6 1 10 -4 10 -7 0 -8 6 -2 18 5 9 17 46 26 82 23
89 33 112 46 105 7 -5 6 -11 -2 -21 -8 -10 -6 -23 10 -57 12 -24 21 -54 21
-68 0 -13 4 -40 9 -59 24 -94 26 -87 -29 -115 -47 -24 -70 -48 -58 -61 3 -2
28 7 56 21 27 14 54 25 60 25 5 0 15 7 22 15 10 12 10 19 2 27 -7 7 -12 23
-12 38 0 14 -9 66 -20 116 -20 96 -31 213 -34 379 -2 93 -18 177 -38 200 -11
13 -10 63 2 70 17 11 41 79 36 100 -16 65 -86 95 -133 57z m87 -24 c34 -37 23
-101 -20 -117 -52 -18 -79 42 -51 112 13 33 42 35 71 5z m-160 -175 c0 -13 -3
-13 -15 -3 -8 7 -15 19 -15 27 0 13 3 13 15 3 8 -7 15 -19 15 -27z m-660 -28
c10 -13 9 -15 -8 -15 -22 0 -36 13 -25 24 10 10 20 7 33 -9z m35 -138 c6 -45
-5 -99 -21 -104 -5 -2 -10 5 -10 14 -2 34 -12 98 -20 117 -8 22 14 40 33 25 6
-6 15 -29 18 -52z"/>
<path d="M1453 1756 c-35 -11 -70 -29 -79 -38 -16 -15 -15 -18 11 -42 34 -32
52 -34 31 -4 -9 12 -16 27 -16 33 0 10 111 55 135 55 6 0 18 -19 27 -42 12
-32 18 -39 23 -27 3 9 -1 33 -9 53 -18 43 -31 44 -123 12z"/>
<path d="M1966 1762 c-3 -5 -8 -28 -12 -50 -6 -38 -9 -42 -35 -42 -20 0 -35
-10 -54 -35 -26 -33 -26 -55 -1 -55 7 0 34 -16 59 -36 46 -36 47 -38 47 -92 0
-35 -5 -61 -15 -72 -14 -16 -13 -41 11 -166 2 -13 20 -30 43 -42 22 -12 48
-26 58 -31 10 -6 39 -20 65 -31 43 -18 49 -25 59 -65 13 -50 39 -62 39 -17 0
56 -30 93 -97 119 -35 14 -61 28 -59 32 3 4 26 8 52 10 26 1 55 6 65 11 19 11
43 -17 55 -64 7 -28 34 -36 34 -11 0 40 -56 120 -74 106 -11 -9 -137 -31 -179
-31 -23 0 -26 6 -36 68 -7 37 -14 75 -17 85 -5 16 -1 18 23 14 15 -3 45 -12
67 -21 41 -17 86 -21 86 -8 0 4 -21 14 -47 20 -73 20 -78 28 -43 71 19 23 26
37 18 40 -6 2 -27 -14 -45 -35 l-33 -39 0 30 c0 17 -3 46 -6 66 -6 33 -4 37
19 43 14 3 35 21 47 40 17 29 20 44 14 85 -7 57 -26 80 -48 62 -12 -10 -18 -7
-31 18 -16 33 -21 36 -29 23z m72 -114 c35 -35 -5 -98 -61 -98 -39 0 -51 8
-36 26 7 8 7 14 -1 19 -18 11 -11 45 13 55 32 13 71 12 85 -2z"/>
<path d="M388 1749 c-30 -17 -20 -27 21 -22 51 7 67 -17 48 -74 -9 -29 -18
-39 -38 -41 -14 -2 -31 4 -39 12 -8 11 -9 16 -1 16 6 0 11 5 11 10 0 14 -13
13 -34 -3 -15 -11 -16 -17 -5 -40 10 -23 18 -27 52 -27 l40 0 -7 -56 c-6 -55
16 -209 35 -246 11 -20 49 -24 66 -7 17 17 33 1 33 -32 0 -16 4 -29 9 -29 15
0 23 37 16 70 -5 25 -3 30 12 30 10 0 28 -8 41 -18 20 -15 22 -22 13 -45 -13
-32 3 -46 19 -17 22 42 9 73 -42 98 -33 16 -48 30 -48 43 0 26 -66 185 -92
222 -18 25 -19 33 -8 72 11 39 10 48 -4 70 -18 27 -65 34 -98 14z m136 -259
c8 -25 22 -63 30 -85 19 -50 20 -85 3 -85 -8 0 -22 -9 -32 -20 -10 -11 -22
-17 -26 -13 -27 28 -54 265 -32 287 11 11 41 -34 57 -84z"/>
<path d="M4515 1343 c-138 -39 -216 -66 -221 -75 -4 -6 1 -8 12 -5 11 4 57 15
104 27 103 25 170 50 170 61 0 11 -2 11 -65 -8z"/>
<path d="M1003 1223 c-26 -10 -12 -24 17 -18 22 5 32 3 36 -9 6 -17 34 -23 34
-8 0 28 -53 49 -87 35z"/>
<path d="M3015 1020 c-7 -12 2 -30 16 -30 5 0 9 9 9 20 0 21 -15 27 -25 10z"/>
<path d="M5052 901 c-11 -7 -11 -9 1 -14 8 -3 23 1 34 8 17 14 17 14 -2 15
-11 0 -26 -4 -33 -9z"/>
<path d="M4872 889 c-41 -16 -14 -32 44 -26 59 6 77 14 69 28 -8 12 -83 11
-113 -2z"/>
<path d="M2960 740 c0 -5 7 -10 16 -10 8 0 12 5 9 10 -3 6 -10 10 -16 10 -5 0
-9 -4 -9 -10z"/>
</g>
</svg>
