<?xml version="1.0" standalone="no"?>
<!DOCTYPE svg PUBLIC "-//W3C//DTD SVG 20010904//EN"
 "http://www.w3.org/TR/2001/REC-SVG-20010904/DTD/svg10.dtd">
<svg version="1.0" xmlns="http://www.w3.org/2000/svg"
 width="470.000000pt" height="341.000000pt" viewBox="0 0 470.000000 341.000000"
 preserveAspectRatio="xMidYMid meet">
<metadata>
Created by potrace 1.12, written by Peter Selinger 2001-2015
</metadata>
<g transform="translate(0.000000,341.000000) scale(0.100000,-0.100000)"
fill="#000000" stroke="none">
<path d="M1031 2759 c-18 -4 -36 -11 -40 -16 -5 -7 -23 -12 -59 -15 -7 -1 -11
-6 -9 -12 2 -6 -10 -17 -27 -26 -22 -10 -32 -24 -34 -42 -2 -20 -9 -28 -23
-28 -16 0 -18 -5 -13 -24 4 -19 0 -27 -16 -36 -16 -9 -21 -18 -17 -36 2 -13 0
-24 -4 -24 -5 0 -4 -12 1 -26 6 -14 10 -37 10 -51 0 -14 9 -38 21 -54 11 -16
19 -35 16 -42 -2 -6 0 -20 5 -31 12 -22 18 -96 8 -96 -4 0 -10 -10 -13 -21 -5
-17 -12 -21 -36 -17 -17 2 -32 1 -33 -4 -2 -4 -15 3 -31 17 -18 17 -27 36 -27
57 0 26 -2 29 -15 18 -8 -7 -15 -19 -15 -27 0 -8 -4 -12 -9 -9 -5 4 -9 -8 -8
-25 1 -20 9 -36 22 -43 11 -6 22 -13 25 -16 29 -29 151 -52 164 -31 4 6 2 11
-3 11 -6 0 -11 4 -11 8 0 13 53 8 58 -6 2 -7 -2 -19 -8 -27 -9 -11 -9 -15 -1
-15 19 0 12 -17 -10 -23 -19 -5 -21 -11 -16 -41 3 -20 2 -36 -4 -36 -14 0 -11
-28 4 -33 6 -3 -1 -10 -17 -16 -23 -9 -26 -14 -16 -26 9 -10 9 -15 1 -15 -6 0
-11 -14 -11 -31 0 -16 4 -28 9 -25 5 3 11 -1 15 -9 3 -9 0 -15 -8 -15 -8 0
-16 -7 -20 -15 -7 -18 3 -45 16 -45 5 0 6 -4 3 -10 -3 -5 -1 -10 6 -10 8 0 8
-4 1 -13 -15 -18 -7 -68 12 -79 16 -9 16 -11 -1 -23 -17 -13 -17 -14 0 -33 10
-11 17 -23 16 -28 -5 -31 2 -74 12 -68 9 5 10 -1 5 -20 -4 -17 -1 -35 10 -51
8 -13 13 -29 9 -35 -3 -6 3 -10 14 -10 12 0 21 -5 21 -11 0 -5 -4 -7 -10 -4
-16 10 -12 -11 5 -25 11 -9 14 -22 10 -42 -4 -17 -2 -28 4 -28 6 0 11 -19 11
-43 0 -24 3 -47 7 -50 12 -13 15 -79 2 -72 -8 5 -9 -1 -4 -24 5 -22 3 -31 -7
-31 -7 0 -22 -7 -33 -16 -19 -14 -19 -15 9 -39 16 -14 35 -25 43 -25 11 0 13
-30 10 -170 -2 -98 0 -173 5 -176 5 -3 7 -12 4 -20 -8 -22 16 -54 41 -54 27 0
41 20 21 31 -9 5 -14 22 -13 43 0 19 -3 32 -7 30 -4 -3 -8 0 -8 5 0 6 5 11 10
11 6 0 10 25 10 55 0 32 -4 55 -11 55 -5 0 -8 4 -4 10 3 5 8 37 11 72 3 35 12
70 20 79 20 22 17 39 -5 39 -10 0 -21 7 -25 15 -4 11 1 15 17 15 12 0 32 7 44
15 19 13 21 13 26 -4 6 -24 2 -90 -8 -120 -6 -19 -4 -23 8 -18 12 4 15 1 12
-15 -3 -12 -10 -25 -17 -29 -9 -6 -9 -17 -1 -46 6 -21 9 -71 7 -111 -4 -68 -3
-73 18 -81 17 -6 34 -3 63 14 22 12 39 28 37 34 -1 6 7 11 19 11 11 0 18 4 15
9 -4 5 3 7 14 4 14 -4 20 0 20 11 0 9 4 16 9 16 5 0 9 11 9 25 0 24 -3 25 -37
19 -20 -4 -49 -16 -66 -28 -16 -13 -35 -26 -42 -29 -9 -6 -10 26 -7 129 4 106
2 139 -8 146 -11 6 -10 10 2 17 12 8 12 17 3 51 l-11 42 34 -7 c38 -7 41 -3
48 60 3 22 10 85 16 140 10 79 20 289 20 408 0 27 14 20 29 -14 8 -18 22 -34
32 -36 11 -3 19 -11 19 -17 0 -14 58 -51 80 -51 8 -1 21 -4 28 -8 6 -5 12 -4
12 1 0 5 14 12 30 14 20 3 30 0 30 -8 0 -7 9 -18 20 -24 16 -8 26 -7 42 5 13
8 17 15 10 15 -13 0 51 104 81 132 26 23 74 13 107 -23 17 -19 42 -32 78 -39
54 -12 60 -21 43 -65 -10 -25 6 -64 38 -90 14 -10 36 -30 49 -42 26 -24 34
-27 66 -23 21 2 76 39 76 51 0 5 11 20 25 35 14 15 25 33 25 40 0 8 4 14 10
14 16 0 21 63 8 115 -9 35 -20 53 -35 60 -13 5 -23 15 -23 22 0 7 -6 13 -14
13 -7 0 -19 7 -26 16 -8 8 -25 14 -39 12 -22 -3 -27 1 -29 25 -2 20 -9 27 -24
27 -17 0 -18 -2 -8 -15 10 -12 9 -15 -5 -15 -10 0 -25 -9 -35 -20 -15 -18 -19
-18 -30 -5 -13 16 -32 21 -28 8 3 -8 -33 -53 -42 -53 -13 0 -8 58 8 87 15 30
15 34 0 49 -15 15 -17 14 -31 -12 -8 -16 -20 -46 -26 -67 -14 -41 -40 -54 -92
-43 -19 4 -38 0 -53 -9 -12 -8 -26 -12 -29 -8 -4 3 -7 -4 -7 -16 0 -14 -4 -20
-12 -15 -7 5 -9 0 -6 -14 4 -15 0 -22 -17 -26 -16 -4 -26 -18 -36 -51 -16 -54
-29 -58 -29 -9 l0 35 -46 -4 c-64 -7 -134 20 -134 51 0 5 -7 16 -16 23 -16 13
-55 93 -69 139 -4 14 -13 35 -21 47 -10 15 -11 24 -3 29 6 4 15 1 19 -6 4 -7
14 -10 21 -8 8 3 22 1 32 -4 9 -5 17 -5 17 0 0 4 26 7 58 6 31 -1 62 3 69 8 7
5 16 7 22 4 15 -10 61 12 61 30 0 9 10 24 21 33 l22 18 -20 19 -21 19 54 110
c30 61 54 118 54 128 0 10 4 16 9 12 6 -3 13 10 17 30 3 19 9 35 13 35 4 0 18
22 31 50 26 55 37 54 60 -5 7 -19 17 -35 22 -35 15 0 8 -22 -12 -38 -20 -16
-20 -19 -5 -49 23 -47 43 -49 79 -9 17 19 43 38 59 41 15 4 27 11 27 16 0 5
12 23 26 39 15 16 32 38 38 48 6 10 21 34 33 53 30 44 31 64 3 47 -18 -12 -25
-28 -21 -51 1 -5 -8 -5 -20 -2 -18 6 -21 4 -15 -10 4 -12 2 -16 -8 -12 -8 3
-20 -8 -32 -31 -25 -47 -44 -53 -44 -13 0 20 -5 31 -14 31 -19 0 -47 -40 -39
-54 4 -6 -1 -5 -11 3 -9 8 -15 20 -12 27 3 7 -1 18 -9 24 -7 6 -18 24 -25 40
-10 25 -18 30 -45 30 -27 0 -35 -5 -45 -30 -7 -16 -16 -30 -20 -30 -4 0 -10
-8 -14 -17 -7 -22 -25 -50 -49 -77 -10 -11 -15 -26 -12 -34 2 -7 0 -10 -5 -7
-6 4 -10 -7 -10 -24 0 -16 -5 -33 -11 -36 -6 -4 -8 -14 -5 -22 3 -8 2 -12 -2
-10 -9 6 -33 -19 -25 -27 3 -3 -1 -16 -9 -28 -8 -13 -14 -33 -13 -45 1 -12 -2
-20 -6 -17 -5 3 -11 -8 -15 -23 -3 -15 -12 -33 -19 -38 -7 -6 -14 -19 -16 -30
-3 -16 -12 -19 -47 -18 -26 1 -42 -3 -42 -10 0 -8 -3 -8 -8 -2 -4 6 -27 11
-52 11 -109 3 -100 -2 -100 53 0 30 -5 51 -12 54 -10 4 -10 8 -1 14 6 4 15 21
18 36 4 15 11 27 16 27 5 0 9 11 9 23 0 13 3 27 7 31 25 25 37 178 21 270 -2
14 4 19 25 21 15 2 27 -1 27 -7 0 -7 5 -7 14 1 7 6 21 9 30 5 9 -4 16 -1 16 6
0 7 7 10 15 6 8 -3 20 0 27 7 7 7 26 19 42 27 16 8 31 23 34 33 2 9 8 17 13
17 15 0 40 60 34 81 -5 14 -10 17 -23 10 -9 -5 -17 -18 -17 -28 0 -10 -5 -17
-12 -16 -6 2 -21 -8 -31 -22 -11 -13 -22 -21 -26 -17 -4 3 -11 0 -15 -7 -13
-21 -173 -13 -187 10 -3 5 -13 9 -23 9 -10 0 -27 17 -40 40 -12 22 -27 38 -32
35 -5 -4 -19 1 -31 9 -12 9 -18 16 -13 16 5 0 -6 8 -25 19 -32 17 -36 17 -42
2 -5 -11 -7 -8 -7 11 -1 33 -7 37 -50 27z m69 -99 c0 -5 -7 -10 -15 -10 -8 0
-15 5 -15 10 0 6 7 10 15 10 8 0 15 -4 15 -10z m40 -85 c0 -8 5 -15 10 -15 6
0 10 -9 10 -21 0 -13 4 -18 13 -13 9 6 9 5 0 -7 -14 -18 18 -185 36 -182 6 2
11 -2 11 -7 0 -5 -7 -10 -15 -10 -21 0 -19 -18 3 -23 16 -4 16 -5 -2 -12 -11
-5 -26 -3 -37 3 -25 16 -76 15 -82 0 -3 -10 -7 -10 -20 0 -20 17 -43 6 -27
-13 8 -9 3 -14 -19 -18 -17 -4 -31 -14 -34 -24 -4 -16 -5 -16 -11 2 -4 11 -12
30 -18 41 -11 24 -2 100 13 110 5 3 7 10 4 15 -4 5 0 9 9 9 19 0 78 59 70 71
-5 8 9 13 29 10 4 0 7 4 7 9 0 15 -15 12 -43 -10 l-26 -20 -15 22 c-10 14 -12
24 -6 26 5 2 10 14 10 27 0 29 18 42 27 20 5 -16 7 -16 15 -1 10 19 35 21 40
4 3 -8 9 -6 19 5 18 21 29 21 29 2z m-154 -34 c-10 -11 -15 -25 -11 -30 3 -7
-2 -11 -14 -11 -26 0 -26 6 1 46 14 21 26 30 32 24 6 -6 3 -17 -8 -29z m275
-56 c19 -60 17 -75 -6 -75 -7 0 -15 15 -18 38 -3 20 -7 52 -11 70 -9 55 15 32
35 -33z m-305 -19 c0 -13 -10 -30 -20 -36 -17 -11 -18 -9 -13 12 4 12 7 29 7
36 0 6 6 12 14 12 8 0 13 -9 12 -24z m183 -235 l23 -18 -28 -26 c-32 -30 -44
-32 -77 -14 -12 6 -23 13 -25 14 -9 4 21 43 33 43 8 0 15 4 15 8 0 15 36 10
59 -7z m-90 -131 c15 -22 14 -22 -9 -15 -14 4 -26 12 -28 16 -2 5 -10 9 -18 9
-14 0 -19 21 -7 33 9 9 43 -14 62 -43z m129 -2 c-7 -20 -68 -49 -89 -43 -30
10 -22 30 13 32 18 2 34 7 36 13 2 5 13 10 24 10 11 0 18 -5 16 -12z m-186
-45 c-7 -3 1 -14 23 -29 28 -19 49 -24 95 -24 32 0 62 5 65 10 11 17 35 11 35
-9 0 -20 -14 -34 -39 -38 -21 -3 -33 -27 -15 -31 8 -2 14 -9 13 -15 -3 -26 2
-37 16 -37 8 0 15 7 15 16 0 8 5 12 11 9 5 -4 8 -12 6 -18 -2 -7 2 -26 10 -44
8 -21 9 -34 3 -38 -6 -4 -8 -11 -4 -16 3 -5 9 -7 13 -5 12 8 11 -37 -1 -52 -8
-9 -9 -16 -1 -20 7 -5 8 -24 3 -54 -6 -40 -4 -48 9 -48 11 0 12 -3 4 -8 -13
-8 -21 -77 -10 -88 4 -4 2 -13 -4 -21 -7 -8 -8 -13 -1 -13 5 0 9 -12 9 -27 0
-16 3 -39 7 -53 5 -17 4 -20 -2 -11 -7 10 -11 10 -17 1 -4 -6 -2 -17 4 -23 15
-15 14 -27 -4 -27 -18 0 -19 -12 -3 -28 9 -9 8 -16 -4 -29 -22 -24 -31 -163
-11 -170 7 -3 11 -9 8 -14 -3 -4 -12 -6 -20 -2 -8 3 -15 0 -15 -6 0 -8 -6 -9
-19 -2 -10 6 -21 7 -25 4 -4 -4 -17 -8 -29 -10 -12 -2 -32 -5 -44 -8 -26 -6
-31 7 -35 88 -2 33 -6 61 -10 64 -5 2 -8 13 -8 23 0 10 -13 58 -29 107 -87
268 -100 351 -81 517 16 137 34 186 70 185 14 0 19 -3 12 -6z m1012 -397 c-4
-10 -18 -16 -35 -16 -16 0 -32 0 -36 -1 -4 0 -9 4 -11 10 -2 6 3 11 12 11 9 0
16 8 16 20 0 10 8 23 18 29 13 8 20 5 29 -14 7 -13 10 -31 7 -39z m153 5 c38
-42 42 -81 13 -118 -11 -14 -20 -33 -20 -42 0 -10 -18 -26 -42 -38 -42 -22
-42 -22 -69 -2 -36 26 -44 53 -29 100 12 35 40 55 40 29 0 -5 5 -10 10 -10 20
0 10 49 -15 68 -14 11 -25 30 -25 41 0 20 3 21 53 15 43 -5 58 -13 84 -43z
m-262 -1 c3 -5 -1 -10 -9 -10 -9 0 -16 5 -16 10 0 6 4 10 9 10 6 0 13 -4 16
-10z m-275 -84 c0 -3 -4 -8 -10 -11 -5 -3 -10 -1 -10 4 0 6 5 11 10 11 6 0 10
-2 10 -4z m-380 -356 c0 -5 -5 -10 -11 -10 -5 0 -7 5 -4 10 3 6 8 10 11 10 2
0 4 -4 4 -10z"/>
<path d="M3160 2629 c0 -11 5 -17 10 -14 6 3 10 13 10 21 0 8 -4 14 -10 14 -5
0 -10 -9 -10 -21z"/>
<path d="M3150 2587 c0 -7 5 -18 12 -25 8 -8 8 -12 1 -12 -6 0 -14 -7 -17 -16
-3 -8 -2 -13 2 -10 4 2 9 -23 9 -56 1 -34 6 -64 11 -67 6 -3 12 -15 14 -26 4
-17 6 -16 17 9 6 16 8 32 4 35 -9 7 -17 65 -18 126 0 37 -9 54 -27 55 -5 0 -8
-6 -8 -13z"/>
<path d="M2752 2448 c-7 -7 -12 -25 -12 -40 0 -15 -5 -28 -11 -28 -5 0 -9 -8
-8 -17 1 -10 1 -29 0 -43 -1 -19 -3 -22 -10 -11 -8 13 -12 13 -26 1 -10 -8
-40 -15 -67 -16 -28 -1 -53 -6 -57 -11 -3 -5 -19 -15 -36 -22 -19 -7 -36 -26
-47 -49 -30 -68 -30 -78 -2 -111 25 -30 25 -31 5 -31 -12 0 -21 -4 -21 -10 0
-5 7 -10 15 -10 8 0 15 -4 15 -10 0 -13 53 -40 85 -42 14 -1 25 -5 25 -9 0
-11 43 -19 54 -10 6 5 26 12 44 16 17 3 32 12 32 20 0 15 31 25 85 25 40 1 40
1 15 15 -22 13 -20 20 4 16 5 -1 21 10 36 24 l27 25 24 -22 c14 -13 28 -31 32
-41 8 -22 47 -23 47 0 0 9 -3 13 -7 10 -3 -4 -11 3 -17 15 -6 11 -20 26 -30
32 -36 20 -51 41 -53 70 -2 44 -39 75 -95 78 -38 2 -48 7 -48 21 0 9 4 16 9
15 5 -2 9 1 9 6 0 5 6 13 14 17 11 7 10 11 -2 19 -9 6 -10 10 -3 10 10 0 39
72 30 75 -1 0 -11 8 -23 17 -16 14 -23 15 -32 6z m-2 -108 c0 -11 -4 -20 -9
-20 -5 0 -7 9 -4 20 3 11 7 20 9 20 2 0 4 -9 4 -20z m10 -125 c29 -3 59 -20
49 -28 -2 -2 -21 -7 -42 -10 -30 -5 -38 -3 -34 8 3 7 -1 16 -9 19 -8 3 -14 13
-14 23 0 14 2 15 9 4 5 -8 23 -15 41 -16z m-92 -7 c-2 -13 -7 -23 -13 -24 -25
-2 -45 -18 -45 -36 0 -14 5 -18 15 -14 10 4 15 -1 15 -14 0 -11 6 -20 13 -21
6 0 2 -4 -11 -10 -17 -6 -22 -14 -17 -28 4 -15 0 -20 -25 -23 -17 -3 -33 -1
-36 4 -3 4 0 8 5 8 6 0 11 5 11 11 0 6 -9 9 -19 6 -11 -3 -29 2 -41 10 -25 18
-20 40 23 100 29 41 44 49 100 52 24 1 28 -2 25 -21z m159 -30 c-3 -8 -6 -5
-6 6 -1 11 2 17 5 13 3 -3 4 -12 1 -19z m-117 -8 c0 -5 -2 -10 -4 -10 -3 0 -8
5 -11 10 -3 6 -1 10 4 10 6 0 11 -4 11 -10z m64 -30 l29 -11 -39 -20 c-52 -26
-63 -22 -52 18 5 19 13 30 21 28 6 -2 25 -9 41 -15z"/>
<path d="M3196 2355 c-3 -8 -14 -15 -23 -15 -10 0 -29 -7 -41 -16 -12 -8 -26
-13 -30 -10 -14 9 -29 -8 -35 -41 -4 -23 -2 -35 8 -40 7 -4 14 -12 16 -18 7
-35 15 -35 19 0 4 31 10 41 27 43 l21 3 -20 -41 c-19 -38 -19 -42 -4 -59 12
-14 14 -24 7 -42 -5 -13 -10 -18 -10 -11 -1 6 -12 12 -26 12 -18 0 -25 -5 -25
-20 0 -40 109 -136 125 -110 3 6 19 10 34 10 40 0 121 38 121 57 0 9 6 13 15
9 8 -3 15 -1 15 5 0 6 4 8 9 5 13 -8 44 31 38 47 -3 8 -1 19 4 24 6 6 6 20 -1
38 -9 23 -8 30 5 37 20 12 20 49 0 42 -8 -4 -15 -1 -15 6 0 6 -4 9 -10 5 -5
-3 -6 -13 -3 -23 6 -15 5 -16 -13 -2 -10 8 -32 27 -48 43 -16 15 -35 26 -42
23 -7 -3 -16 -1 -19 4 -3 5 -13 6 -22 3 -11 -4 -14 -3 -9 5 5 8 0 12 -14 12
-11 0 -23 7 -26 15 -4 8 -10 15 -14 15 -4 0 -10 -7 -14 -15z m4 -84 c0 -5 -9
-7 -20 -4 -11 3 -20 7 -20 9 0 2 9 4 20 4 11 0 20 -4 20 -9z m99 -8 c37 -22
39 -29 7 -37 -13 -3 -31 -9 -40 -12 -13 -5 -16 1 -16 30 0 41 6 43 49 19z
m-79 -43 c0 -12 7 -20 18 -21 16 -1 16 -2 0 -6 -11 -3 -18 -14 -18 -30 0 -18
-4 -24 -15 -19 -8 3 -15 0 -16 -7 -1 -14 -17 22 -18 41 -1 7 4 10 10 6 6 -4 9
1 8 12 -4 21 7 44 22 44 5 0 9 -9 9 -20z m145 -20 c3 -5 1 -10 -4 -10 -6 0
-11 5 -11 10 0 6 2 10 4 10 3 0 8 -4 11 -10z m25 -45 c0 -9 -40 -45 -51 -45
-7 0 -22 -8 -33 -18 -29 -26 -124 -46 -142 -31 -15 12 -19 49 -6 49 4 0 14 -6
20 -12 10 -10 15 -10 22 2 8 13 10 12 10 -2 0 -24 15 -23 51 3 16 11 29 17 29
12 0 -4 7 0 15 11 18 24 56 44 73 38 6 -2 12 -5 12 -7z"/>
<path d="M1430 2239 c0 -5 5 -7 10 -4 6 3 10 8 10 11 0 2 -4 4 -10 4 -5 0 -10
-5 -10 -11z"/>
<path d="M2099 2226 c-2 -2 -74 -18 -159 -36 -170 -35 -210 -51 -210 -80 0
-19 35 -50 57 -50 7 0 22 -8 32 -17 58 -53 92 -64 198 -68 73 -2 92 1 112 16
13 11 31 19 41 19 18 0 32 24 49 86 21 77 16 98 -27 117 -36 16 -83 22 -93 13z
m72 -80 c-6 -7 -12 -25 -13 -40 -2 -23 -44 -68 -68 -72 -15 -3 -46 -19 -52
-28 -4 -6 -12 -5 -22 3 -8 7 -29 13 -46 13 -17 1 -33 5 -36 10 -3 5 -12 4 -20
-3 -11 -9 -14 -8 -14 5 0 14 -11 20 -32 18 -12 -2 -30 27 -23 38 4 6 16 8 28
5 16 -5 18 -4 8 3 -15 11 -6 36 10 27 5 -4 9 0 9 9 0 12 5 12 29 3 23 -8 44
-7 93 5 84 21 165 23 149 4z"/>
<path d="M3330 1811 c0 -6 -7 -8 -15 -5 -8 3 -30 1 -50 -6 -27 -9 -35 -17 -35
-36 0 -17 -8 -27 -25 -34 -14 -5 -25 -16 -25 -25 0 -8 -4 -15 -10 -15 -19 0
-10 -30 14 -46 14 -9 22 -22 19 -29 -2 -8 5 -28 16 -44 12 -16 21 -34 21 -40
0 -6 6 -11 13 -12 6 0 3 -4 -7 -8 -18 -7 -17 -9 12 -23 22 -12 34 -13 39 -5 3
6 1 13 -5 15 -7 2 -12 9 -12 15 0 6 10 1 23 -11 12 -12 32 -23 42 -25 11 -1
25 -5 30 -8 6 -3 28 -5 50 -5 30 1 42 6 50 23 9 17 14 19 30 10 11 -5 23 -15
27 -21 4 -6 10 -7 14 -3 4 4 13 2 21 -5 8 -6 29 -12 48 -13 27 -1 36 4 45 23
10 23 9 24 -12 17 -43 -13 -63 -12 -88 4 -36 22 -44 39 -44 95 -1 44 2 51 29
68 16 10 38 18 48 18 9 0 17 5 17 11 0 5 5 7 10 4 6 -3 10 1 10 9 0 9 7 16 15
16 23 0 18 27 -6 33 -12 3 -33 1 -48 -5 -14 -6 -30 -10 -34 -9 -5 1 -24 -3
-42 -8 -30 -8 -35 -7 -41 11 -3 11 -27 29 -52 41 -26 12 -50 23 -54 25 -5 2
-8 -3 -8 -12 0 -9 -5 -16 -11 -16 -6 0 -9 7 -6 15 4 8 2 17 -3 20 -6 4 -10 2
-10 -4z m57 -87 c17 -17 17 -19 -11 -49 -20 -21 -25 -23 -30 -10 -3 9 -11 13
-17 9 -8 -4 -7 -9 2 -15 7 -4 10 -12 5 -16 -4 -4 -13 -1 -19 8 -15 21 -77 14
-77 -8 0 -8 -6 -13 -12 -10 -7 2 -13 19 -13 38 0 28 4 35 23 37 16 2 22 8 18
18 -5 12 6 14 56 13 35 -1 68 -8 75 -15z m203 -13 c2 -1 -5 -8 -17 -16 -12 -8
-28 -12 -37 -9 -11 4 -16 1 -16 -10 0 -18 -15 -22 -25 -6 -3 6 1 13 9 16 9 3
16 12 16 19 0 12 27 14 70 6z m-275 -102 c8 -12 -35 -33 -46 -22 -16 16 0 41
22 36 11 -3 22 -9 24 -14z m129 -5 c3 -9 6 -27 6 -40 0 -21 -5 -24 -35 -24
-21 0 -35 -5 -35 -12 -1 -8 -5 -7 -13 4 -9 12 -17 14 -30 7 -11 -7 -17 -6 -17
1 0 5 4 10 9 10 5 0 11 10 14 21 4 15 11 20 21 16 10 -4 16 -1 16 8 0 12 16
21 46 24 7 0 15 -6 18 -15z"/>
<path d="M2683 1796 c-37 -13 -33 -27 12 -50 26 -14 27 -16 9 -21 -10 -4 -42
-17 -70 -31 -41 -18 -52 -29 -51 -46 0 -13 -3 -30 -6 -38 -4 -9 3 -27 18 -44
14 -16 25 -33 25 -38 0 -4 9 -8 20 -8 11 0 20 -4 20 -9 0 -5 14 -14 30 -20 17
-5 30 -8 30 -6 0 3 11 0 25 -5 17 -7 25 -6 25 1 0 8 4 8 14 0 11 -9 20 -7 41
13 15 14 36 28 47 32 11 3 17 12 14 19 -2 7 1 15 7 18 18 7 10 157 -9 157 -8
0 -14 7 -14 16 0 8 -4 13 -9 9 -6 -3 -19 5 -31 17 -12 13 -29 24 -38 25 -9 2
-26 4 -37 6 -11 2 -25 6 -30 9 -6 3 -24 0 -42 -6z m105 -131 c3 -18 2 -19 -8
-2 -6 9 -15 15 -21 12 -5 -4 -9 -1 -9 5 0 20 35 6 38 -15z m-40 -22 c13 -29
17 -103 5 -102 -5 0 -17 4 -28 9 -19 8 -19 9 3 9 38 2 25 29 -20 42 -24 7 -45
14 -47 15 -5 5 53 53 64 54 6 0 16 -12 23 -27z m102 -12 c0 -27 -32 -81 -49
-81 -11 0 -11 4 1 23 8 12 18 34 22 50 7 31 26 37 26 8z m-150 -71 c0 -5 -4
-10 -10 -10 -5 0 -10 5 -10 10 0 6 5 10 10 10 6 0 10 -4 10 -10z"/>
<path d="M1835 1790 c3 -5 8 -10 11 -10 2 0 4 5 4 10 0 6 -5 10 -11 10 -5 0
-7 -4 -4 -10z"/>
<path d="M3396 1323 c-3 -10 -9 -24 -12 -30 -3 -7 1 -13 9 -13 8 0 20 -6 27
-14 6 -8 18 -12 26 -9 8 3 14 0 14 -7 0 -7 7 -10 15 -6 8 3 15 2 15 -3 0 -18
-14 -19 -47 -6 -44 19 -46 19 -39 0 3 -9 0 -15 -9 -15 -8 0 -20 -8 -27 -19 -7
-10 -17 -19 -23 -19 -27 -3 -75 -38 -75 -55 0 -10 -10 -27 -22 -38 -21 -18
-22 -20 -5 -29 9 -6 17 -19 17 -30 0 -10 15 -35 34 -55 19 -20 35 -39 36 -43
1 -4 6 -6 10 -5 4 1 16 -7 25 -17 10 -11 26 -20 36 -20 10 0 20 -4 24 -10 3
-5 12 -7 19 -4 8 3 17 1 21 -5 3 -7 -2 -11 -14 -11 -27 0 -27 -16 -1 -23 27
-7 35 -6 34 2 -1 3 -4 20 -7 37 -5 28 -4 31 13 27 13 -4 22 1 27 13 4 11 13
24 21 30 8 6 12 16 8 23 -4 6 -4 11 1 10 22 -4 32 2 27 16 -4 9 0 15 7 16 31
3 64 -4 70 -13 18 -29 47 49 30 80 -7 13 -10 12 -15 -6 -4 -12 -4 -27 0 -33 4
-8 3 -9 -4 -5 -7 4 -12 3 -12 -1 0 -5 -9 -9 -20 -9 -27 0 -26 26 2 62 12 16
15 23 7 16 -14 -10 -16 -8 -15 15 0 16 -3 42 -7 58 -5 21 -5 25 2 15 6 -8 13
-11 16 -8 11 10 -4 28 -24 28 -10 0 -35 18 -57 39 -26 27 -41 36 -46 28 -5 -8
-8 -6 -8 5 0 16 -10 21 -65 31 -11 2 -19 9 -17 15 3 19 -15 14 -22 -5z m136
-134 c10 -17 21 -28 25 -26 7 4 8 -21 4 -68 -1 -5 -6 -3 -11 5 -5 8 -10 10
-10 3 0 -6 -8 -10 -17 -9 -10 2 -20 0 -23 -5 -3 -4 -15 0 -26 10 -16 13 -20
25 -16 49 3 25 7 30 17 22 14 -12 48 -2 39 11 -3 5 -9 7 -14 4 -4 -3 -6 4 -3
15 7 27 15 25 35 -11z m-107 -59 c3 -5 1 -10 -4 -10 -6 0 -11 -4 -11 -10 0 -5
7 -10 15 -10 9 0 15 -9 15 -22 -1 -22 -1 -22 -15 -5 -10 14 -21 17 -43 12 -40
-8 -48 9 -16 34 29 23 49 27 59 11z m115 -66 c0 -8 -5 -12 -10 -9 -6 4 -8 11
-5 16 9 14 15 11 15 -7z m-105 -31 c-4 -10 -9 -31 -11 -47 -2 -16 -6 -31 -8
-34 -8 -7 -66 32 -66 44 0 7 -7 14 -15 18 -24 9 -18 29 8 23 12 -2 33 -1 47 3
42 13 53 12 45 -7z m55 6 c0 -5 4 -8 9 -5 19 12 19 -26 0 -45 -27 -27 -41 -13
-33 29 6 30 24 46 24 21z"/>
<path d="M2271 1233 c-1 -6 -10 -14 -20 -18 -11 -3 -21 -17 -23 -31 -2 -13 -7
-25 -13 -25 -5 0 -16 -5 -22 -11 -9 -7 -15 -6 -19 6 -4 10 -12 15 -19 12 -7
-2 -21 2 -32 9 -16 11 -24 11 -54 -3 -46 -21 -45 -20 -23 -36 25 -19 16 -26
-40 -30 -25 -1 -45 -7 -44 -12 2 -5 6 -8 10 -7 5 2 8 -2 8 -8 0 -6 7 -9 15 -6
8 4 17 1 21 -5 4 -7 10 -5 16 5 8 15 11 14 28 -3 25 -25 25 -33 3 -26 -25 8
-38 -3 -51 -42 -11 -33 -7 -62 9 -62 5 0 9 -7 9 -15 0 -8 6 -15 13 -15 14 0
20 -57 7 -65 -16 -10 -11 -34 10 -55 22 -22 40 -26 40 -9 0 5 4 8 9 4 5 -3 18
6 29 20 15 19 29 25 61 25 23 0 41 5 41 11 0 6 7 8 15 5 11 -4 15 0 13 12 -2
11 3 17 14 16 29 -3 32 41 12 169 -5 30 -3 37 10 37 9 0 16 8 16 20 0 23 -15
27 -24 5 -3 -8 -10 -15 -15 -15 -6 0 -8 7 -5 15 4 9 0 15 -10 15 -9 0 -16 6
-16 14 0 8 -3 23 -7 33 -6 15 -5 16 9 5 16 -13 35 -1 24 16 -2 4 7 12 20 19
18 8 24 8 24 0 0 -13 20 13 20 26 0 15 -38 6 -45 -10 -7 -17 -8 -16 -15 2 -5
11 -9 15 -9 8z m-137 -124 c-3 -5 -10 -7 -15 -3 -5 3 -7 10 -3 15 3 5 10 7 15
3 5 -3 7 -10 3 -15z m86 -54 c0 -7 7 -18 15 -25 9 -7 13 -15 11 -18 -3 -2 1
-20 9 -39 13 -31 13 -37 -3 -59 -9 -13 -23 -21 -30 -19 -8 3 -23 5 -34 5 -16
0 -19 5 -16 25 4 19 1 25 -13 25 -12 0 -21 -10 -25 -25 -3 -14 -10 -25 -14
-25 -10 0 -1 38 11 46 5 3 9 15 9 27 0 20 1 20 13 2 10 -13 16 -15 21 -6 5 7
1 20 -7 29 -13 15 -13 19 -1 30 8 7 14 21 14 31 0 14 5 18 20 14 11 -3 20 -11
20 -18z m-132 -85 c-7 -10 -14 -18 -15 -16 -6 6 9 36 18 36 5 0 4 -9 -3 -20z
m18 -127 c-10 -10 -19 5 -10 18 6 11 8 11 12 0 2 -7 1 -15 -2 -18z"/>
<path d="M2732 1228 c-16 -16 -15 -38 2 -38 28 0 4 -35 -37 -56 -23 -11 -44
-29 -46 -39 -2 -11 -9 -24 -16 -30 -7 -5 -16 -24 -20 -41 -5 -26 0 -38 31 -75
20 -24 44 -47 53 -50 9 -3 16 -12 17 -20 0 -8 2 -28 2 -45 1 -18 8 -34 16 -37
21 -8 56 4 56 19 0 10 13 14 40 14 29 0 40 4 40 15 0 8 5 15 10 15 6 0 10 -4
10 -10 0 -5 7 -10 16 -10 11 0 14 5 10 16 -4 11 -2 15 8 11 15 -6 31 18 27 42
-2 8 3 12 12 8 16 -6 41 20 51 51 5 14 12 19 23 15 21 -8 8 16 -19 35 -10 7
-18 18 -18 23 0 23 -42 99 -60 109 -11 6 -20 18 -20 27 0 9 -3 13 -6 10 -4 -4
-19 2 -34 13 -16 11 -42 21 -59 23 -17 2 -34 7 -38 10 -10 11 -38 8 -51 -5z
m187 -135 c6 -21 7 -41 2 -46 -16 -16 -45 -3 -52 23 -4 14 -8 21 -8 15 -1 -5
-5 -4 -10 4 -12 18 8 40 36 41 17 0 24 -8 32 -37z m-163 -55 c-22 -13 -20 -35
5 -41 13 -4 19 -1 16 6 -2 7 6 20 20 30 l24 18 -4 -36 c-2 -19 -9 -41 -15 -47
-7 -7 -12 -20 -12 -29 0 -12 -8 -16 -25 -15 -28 1 -31 6 -13 24 6 6 8 15 4 19
-4 4 -16 -3 -27 -17 -11 -14 -19 -18 -16 -10 2 8 -7 23 -20 33 -22 18 -23 21
-8 43 8 13 15 30 15 38 0 17 24 28 45 20 9 -4 16 0 16 7 1 8 4 3 6 -10 3 -15
-1 -27 -11 -33z m201 -30 c7 -1 4 -16 -9 -44 -21 -42 -43 -54 -101 -54 -16 0
-18 3 -9 12 7 7 12 20 12 30 0 9 5 29 12 44 11 23 16 25 48 19 19 -3 40 -7 47
-7z"/>
<path d="M3655 1170 c3 -5 8 -10 11 -10 2 0 4 5 4 10 0 6 -5 10 -11 10 -5 0
-7 -4 -4 -10z"/>
<path d="M3678 1108 c9 -9 15 -9 24 0 9 9 7 12 -12 12 -19 0 -21 -3 -12 -12z"/>
<path d="M3080 970 c0 -5 5 -10 10 -10 6 0 10 5 10 10 0 6 -4 10 -10 10 -5 0
-10 -4 -10 -10z"/>
<path d="M3620 961 c0 -5 -3 -16 -6 -25 -4 -11 -1 -16 10 -16 10 0 16 9 16 25
0 14 -4 25 -10 25 -5 0 -10 -4 -10 -9z"/>
<path d="M3575 900 c-3 -6 -3 -20 0 -32 6 -18 4 -20 -15 -15 -25 6 -60 -8 -60
-24 0 -6 5 -7 10 -4 6 3 13 -1 16 -9 8 -22 26 -20 22 1 -2 11 4 18 15 18 16 0
47 44 47 66 0 12 -27 11 -35 -1z"/>
<path d="M1145 513 c-27 -8 -68 -16 -90 -19 -22 -2 -46 -5 -52 -6 -7 -1 -13
-5 -13 -10 0 -4 -7 -8 -15 -8 -8 0 -15 -7 -15 -15 0 -9 6 -12 15 -9 11 5 13 2
9 -10 -4 -10 -1 -16 9 -16 8 0 17 -4 19 -9 2 -5 15 -7 30 -4 20 4 25 9 20 22
-5 13 -3 13 13 -2 18 -18 19 -18 37 5 12 14 21 19 24 12 6 -14 64 11 64 27 0
5 6 9 14 9 14 0 42 28 35 34 -14 11 -61 11 -104 -1z"/>
</g>
</svg>
