<?xml version="1.0" standalone="no"?>
<!DOCTYPE svg PUBLIC "-//W3C//DTD SVG 20010904//EN"
 "http://www.w3.org/TR/2001/REC-SVG-20010904/DTD/svg10.dtd">
<svg version="1.0" xmlns="http://www.w3.org/2000/svg"
 width="500.000000pt" height="342.000000pt" viewBox="0 0 500.000000 342.000000"
 preserveAspectRatio="xMidYMid meet">
<metadata>
Created by potrace 1.12, written by Peter Selinger 2001-2015
</metadata>
<g transform="translate(0.000000,342.000000) scale(0.100000,-0.100000)"
fill="#000000" stroke="none">
<path d="M4268 2983 c-10 -2 -18 -9 -18 -14 0 -5 -8 -9 -18 -9 -20 0 -112 -43
-155 -73 -23 -16 -40 -19 -97 -15 -38 3 -73 1 -78 -4 -5 -5 -22 -11 -38 -14
-40 -7 -62 -30 -70 -71 -5 -26 -2 -37 12 -48 22 -17 60 -19 69 -5 3 6 14 10
23 10 9 0 44 21 77 46 55 41 64 45 100 39 111 -17 117 -16 146 14 15 17 39 48
54 70 14 23 32 41 41 41 9 0 14 7 12 18 -3 17 -29 24 -60 15z m-28 -60 c0 -5
-14 -23 -30 -40 -25 -28 -37 -33 -75 -33 -58 0 -52 12 28 50 65 31 77 35 77
23z m-269 -89 c12 -7 -84 -72 -119 -81 -28 -7 -33 -3 -26 22 11 42 109 82 145
59z"/>
<path d="M1299 2556 c-11 -19 -26 -37 -33 -39 -25 -10 -29 -75 -7 -119 18 -37
19 -44 5 -69 -7 -15 -14 -37 -14 -47 0 -32 -25 -45 -70 -37 -23 4 -44 13 -47
20 -6 17 22 66 60 107 24 27 34 48 22 48 -11 0 -81 -53 -112 -85 -28 -29 -32
-38 -23 -54 13 -25 13 -32 -2 -28 -6 1 -26 -20 -44 -48 -18 -27 -41 -58 -51
-68 -10 -11 -17 -23 -16 -27 1 -4 -9 -11 -22 -14 -14 -4 -25 -13 -25 -21 0 -9
-5 -24 -12 -35 -21 -32 -1 -34 31 -2 17 16 28 32 25 34 -2 3 24 13 58 22 35
10 82 26 106 37 24 11 51 18 60 17 11 -2 17 4 17 16 0 11 5 21 10 23 6 2 11
-33 12 -87 3 -97 5 -112 23 -179 10 -39 10 -45 -5 -53 -13 -8 -14 -13 -4 -24
6 -8 18 -14 25 -14 8 0 14 -3 15 -7 0 -5 2 -17 5 -28 2 -11 6 -33 8 -48 3 -27
2 -28 -33 -23 -20 4 -43 2 -51 -4 -38 -24 71 -59 110 -35 9 5 11 4 6 -3 -4 -7
-1 -12 9 -12 13 0 14 8 9 48 -7 50 -10 72 -19 113 -4 19 -1 28 11 33 23 9 26
4 35 -56 6 -36 5 -56 -3 -66 -10 -11 -8 -17 7 -28 24 -18 49 -18 42 0 -3 7 -1
18 5 24 6 6 7 22 3 39 -24 87 -30 133 -16 133 6 0 11 4 11 10 0 5 -7 7 -16 3
-14 -5 -15 1 -9 43 12 86 14 278 3 291 -7 9 -7 13 0 13 6 0 10 6 8 13 -15 46
-15 77 0 77 8 0 17 7 20 15 9 22 21 18 36 -12 25 -51 87 -47 91 6 1 12 4 21 7
21 3 0 5 11 5 25 0 37 -27 27 -37 -13 -5 -17 -12 -32 -17 -32 -10 0 -21 50
-21 96 0 26 -8 41 -36 66 -50 46 -57 49 -87 33 -25 -13 -27 -12 -27 6 0 29
-18 23 -41 -15z m91 -40 c0 -3 -4 -8 -10 -11 -5 -3 -10 -1 -10 4 0 6 5 11 10
11 6 0 10 -2 10 -4z m-54 -28 c-1 -14 5 -23 14 -23 8 0 14 6 12 13 -2 10 2 10
18 2 35 -19 7 -80 -36 -80 -33 0 -46 29 -32 73 13 41 25 49 24 15z m25 -161
c5 -131 -2 -393 -12 -408 -4 -6 -12 -8 -18 -5 -6 4 -9 12 -6 17 4 5 2 9 -4 9
-5 0 -14 -7 -19 -16 -11 -19 -23 53 -27 158 -2 60 0 71 22 95 13 16 29 39 34
51 12 32 0 51 -17 27 -18 -24 -27 -15 -19 18 5 17 12 24 21 20 10 -4 14 3 14
23 0 23 -2 26 -10 14 -5 -8 -10 -10 -10 -4 0 15 6 19 30 21 14 1 20 -4 21 -20z
m-241 -127 c0 -4 -16 -17 -35 -29 -19 -11 -35 -16 -35 -11 0 5 5 12 11 15 6 4
8 14 5 22 -3 8 -2 12 2 9 4 -2 14 -1 22 4 15 9 30 4 30 -10z"/>
<path d="M1015 2500 c4 -6 11 -8 16 -5 5 4 9 2 9 -3 0 -9 37 -25 53 -23 4 1 7
-4 7 -9 0 -11 24 -22 73 -34 49 -12 29 8 -47 47 -70 35 -124 49 -111 27z"/>
<path d="M937 2474 c-21 -14 -62 -48 -91 -77 -30 -29 -67 -64 -82 -78 -49 -46
-109 -112 -134 -149 -13 -19 -29 -38 -35 -42 -5 -4 -6 -8 -2 -8 5 0 -1 -15
-12 -34 -12 -18 -21 -38 -21 -45 0 -19 29 -12 40 9 6 11 8 20 5 20 -3 0 3 10
15 22 11 12 20 28 20 35 0 7 5 13 10 13 6 0 10 -16 10 -35 0 -38 28 -74 58
-76 34 -2 67 3 80 13 6 6 12 8 12 4 0 -3 19 14 42 39 42 44 68 104 68 156 0
31 15 39 69 39 26 0 44 7 57 21 19 21 18 21 -9 45 -16 13 -25 24 -22 24 4 0
-3 14 -15 30 -22 30 -60 41 -60 17 0 -7 -6 -19 -12 -25 -7 -7 -14 -16 -14 -20
-8 -40 -20 -53 -57 -63 -22 -6 -51 -18 -64 -26 -13 -9 -26 -13 -30 -10 -6 7
183 197 197 197 4 0 10 7 14 15 7 18 9 19 -37 -11z m49 -121 c20 -27 17 -33
-16 -33 -33 0 -35 3 -20 31 13 24 19 24 36 2z m-96 -103 c-6 -11 -8 -20 -4
-20 3 0 2 -6 -3 -12 -6 -7 -13 -24 -16 -38 -4 -14 -27 -47 -51 -73 -35 -36
-53 -47 -76 -47 -23 0 -31 5 -34 23 -8 36 -1 70 19 102 28 42 46 54 75 49 15
-3 37 3 55 16 38 25 49 25 35 0z"/>
<path d="M1546 2485 c-8 -23 -8 -35 3 -35 13 0 20 25 11 39 -5 10 -9 8 -14 -4z"/>
<path d="M530 2011 c-13 -9 -12 -14 8 -33 19 -19 22 -20 16 -4 -6 17 -5 17 22
3 25 -12 62 -19 154 -30 27 -3 90 14 90 23 0 6 -17 10 -37 11 -51 1 -79 5
-138 18 -94 21 -100 21 -115 12z"/>
<path d="M4401 1854 c-74 -55 -75 -56 -127 -49 -48 6 -53 9 -56 33 -2 15 -7
25 -13 22 -5 -3 -9 -11 -9 -17 1 -7 -2 -13 -6 -13 -4 0 -6 -19 -5 -42 2 -24
-1 -47 -5 -53 -4 -5 -10 -31 -13 -57 -7 -52 7 -73 30 -43 7 11 13 15 13 11 0
-6 52 52 54 61 1 1 46 4 101 8 54 4 117 14 138 21 22 8 51 14 64 14 16 0 27 7
30 18 2 10 18 23 34 29 40 15 37 41 -11 81 -33 27 -47 32 -92 32 -49 0 -59 -4
-127 -56z m188 -4 c27 -14 20 -26 -27 -46 -35 -15 -156 -23 -168 -11 -3 3 16
21 42 41 42 32 53 36 90 32 23 -2 52 -9 63 -16z m-334 -79 c19 -8 19 -8 -2
-19 -31 -17 -43 -15 -43 8 0 21 12 24 45 11z"/>
<path d="M2162 1471 c7 -9 14 -18 15 -20 2 -2 3 5 3 16 0 11 -7 20 -15 20 -12
0 -12 -3 -3 -16z"/>
<path d="M2910 910 c-13 -11 -26 -20 -29 -20 -17 0 -62 -159 -66 -235 -5 -83
-15 -110 -51 -134 -19 -13 -34 -28 -34 -33 0 -6 -12 -24 -26 -41 -22 -26 -23
-31 -10 -39 16 -9 55 -7 86 4 8 3 35 11 60 18 80 22 75 19 57 37 -13 13 -19
14 -30 4 -12 -10 -15 -6 -19 21 -4 41 1 68 12 68 11 0 60 48 60 59 0 4 9 16
20 26 11 10 20 24 20 30 0 7 7 18 15 25 8 7 12 16 9 22 -3 5 0 15 6 23 6 8 9
19 5 25 -3 5 -3 16 2 23 12 19 12 36 1 43 -7 4 -7 9 1 13 7 5 7 18 -1 44 -9
31 -16 37 -38 37 -15 0 -37 -9 -50 -20z m54 -56 c-1 -58 -14 -126 -29 -157
-16 -33 -68 -97 -79 -97 -3 0 -4 17 -1 38 3 20 8 55 11 77 9 62 26 118 46 146
9 14 14 29 11 33 -4 4 4 3 17 -2 19 -7 25 -16 24 -38z m-160 -379 c3 -8 1 -15
-3 -15 -5 0 -17 -3 -26 -7 -15 -5 -16 -3 -6 15 14 26 27 28 35 7z"/>
</g>
</svg>
