<?xml version="1.0" standalone="no"?>
<!DOCTYPE svg PUBLIC "-//W3C//DTD SVG 20010904//EN"
 "http://www.w3.org/TR/2001/REC-SVG-20010904/DTD/svg10.dtd">
<svg version="1.0" xmlns="http://www.w3.org/2000/svg"
 width="496.000000pt" height="284.000000pt" viewBox="0 0 496.000000 284.000000"
 preserveAspectRatio="xMidYMid meet">
<metadata>
Created by potrace 1.12, written by Peter Selinger 2001-2015
</metadata>
<g transform="translate(0.000000,284.000000) scale(0.100000,-0.100000)"
fill="#000000" stroke="none">
<path d="M2033 2576 c-23 -11 -30 -30 -15 -40 5 -3 9 -19 10 -36 0 -18 7 -42
16 -54 13 -21 13 -25 -9 -48 -13 -14 -21 -29 -18 -32 4 -3 0 -6 -8 -6 -26 0
-51 -24 -43 -43 3 -9 10 -15 14 -12 5 3 24 -10 42 -28 30 -29 33 -37 26 -62
-4 -17 -6 -35 -3 -42 2 -7 0 -15 -5 -18 -13 -8 -2 -32 15 -32 8 0 15 4 15 9 0
4 -5 8 -11 8 -6 0 -3 7 6 16 9 9 19 29 22 45 3 16 11 29 18 29 21 0 28 -55 20
-167 -6 -83 -11 -109 -26 -124 -10 -10 -25 -19 -32 -19 -17 0 -22 72 -7 100 8
14 8 20 0 20 -6 0 -8 5 -4 12 14 23 13 58 -2 58 -8 0 -14 -10 -14 -26 0 -14
-4 -23 -10 -19 -5 3 -10 0 -10 -9 0 -8 -5 -16 -12 -18 -8 -3 -14 -33 -16 -81
-2 -42 -8 -74 -13 -71 -5 3 -19 -1 -31 -8 -13 -7 -25 -13 -28 -13 -3 -1 -22
-9 -44 -18 -33 -15 -37 -19 -25 -33 8 -10 24 -14 46 -12 34 4 43 -8 21 -30
-16 -16 -28 -15 -28 3 0 8 -4 15 -10 15 -5 0 -10 -7 -10 -15 0 -9 -10 -15 -26
-15 -14 0 -41 -12 -59 -26 -19 -14 -37 -24 -42 -22 -4 2 -10 -10 -11 -27 -2
-16 -8 -36 -14 -42 -13 -16 -3 -43 17 -43 8 0 15 -4 15 -10 0 -14 -13 -13 -28
2 -17 17 -27 2 -12 -17 11 -13 10 -14 -3 -10 -8 4 -18 2 -21 -3 -6 -10 -89 -5
-130 8 -20 7 -33 6 -42 -1 -10 -8 -12 -6 -9 10 3 18 0 20 -19 15 -22 -5 -23
-3 -21 38 4 58 -4 72 -37 59 -28 -11 -48 1 -48 30 0 9 -7 35 -15 58 -8 23 -15
59 -17 81 -1 22 -5 40 -9 40 -12 0 3 55 19 68 25 19 31 15 52 -35 41 -94 75
-157 88 -161 14 -4 17 34 2 43 -5 3 -10 15 -10 26 0 10 -5 29 -12 42 -21 41
-25 53 -33 85 -4 20 -13 32 -23 32 -13 0 -10 6 10 23 29 26 55 77 38 77 -6 0
-8 10 -5 23 4 15 1 28 -9 36 -9 8 -16 10 -16 6 0 -4 -6 -3 -12 3 -7 5 -28 13
-45 17 -39 8 -41 15 -9 42 16 14 32 19 49 16 17 -3 39 3 62 17 34 21 46 40 25
40 -5 0 -10 -4 -10 -10 0 -5 -16 -10 -35 -10 -32 0 -35 2 -30 23 5 20 3 23
-16 22 -13 -1 -25 -8 -27 -16 -6 -24 -27 -64 -36 -71 -14 -10 -38 3 -32 18 3
8 2 14 -2 14 -4 0 -8 14 -8 31 -1 32 -17 49 -46 49 -12 0 -16 -6 -12 -22 3
-13 7 -34 8 -48 2 -13 9 -26 15 -28 9 -3 9 -7 0 -18 -9 -11 -6 -16 12 -23 13
-5 20 -10 14 -11 -5 0 -4 -4 3 -9 10 -6 3 -10 -22 -15 -53 -10 -72 -61 -52
-142 3 -12 2 -26 -4 -29 -16 -10 -12 -28 5 -21 8 3 15 1 15 -5 0 -6 8 -8 18
-5 32 10 39 -8 45 -111 3 -57 10 -111 16 -120 5 -10 12 -34 15 -54 7 -48 -11
-63 -70 -60 -26 1 -44 -2 -44 -9 0 -6 6 -10 13 -9 6 1 24 1 40 0 27 -1 27 -1
11 -26 -11 -17 -25 -25 -46 -25 -18 0 -27 -4 -23 -11 4 -5 12 -8 18 -6 7 2 23
0 36 -5 17 -6 27 -5 33 4 6 10 8 10 8 0 0 -8 8 -10 24 -6 13 3 27 1 30 -5 11
-17 26 -13 19 5 -4 11 -15 15 -34 12 -34 -5 -37 8 -7 33 11 11 18 19 13 19 -4
0 -2 7 5 15 19 23 38 18 38 -9 0 -39 69 -94 86 -68 7 12 106 14 106 2 0 -5 16
-10 35 -10 27 0 35 -4 35 -18 0 -10 6 -24 12 -30 10 -10 10 -17 0 -33 -7 -11
-10 -24 -7 -29 4 -6 1 -10 -5 -10 -8 0 -10 -12 -6 -32 3 -18 3 -27 0 -20 -3 6
-11 12 -17 12 -5 0 -7 -3 -4 -7 4 -3 3 -11 -2 -17 -15 -20 -30 -75 -21 -81 5
-3 11 3 13 12 3 11 4 7 4 -7 -1 -21 -6 -26 -29 -25 -15 0 -28 4 -28 9 0 4 -6
6 -14 3 -8 -3 -16 -3 -18 1 -5 12 -62 48 -98 62 -19 7 -42 19 -51 27 -8 7 -22
13 -30 13 -8 0 -27 7 -43 15 -15 8 -32 13 -36 10 -5 -3 -11 1 -14 7 -5 10 -7
10 -12 1 -3 -7 -10 -13 -15 -13 -6 0 -7 5 -4 10 6 9 -10 14 -42 13 -7 -1 -13
4 -13 9 0 6 -9 8 -20 5 -11 -3 -23 -1 -26 4 -3 5 -17 9 -30 9 -36 0 -25 -24
12 -27 70 -6 80 -9 99 -26 11 -10 28 -16 40 -13 11 3 27 1 35 -4 8 -5 11 -10
5 -10 -5 0 10 -9 34 -21 25 -11 52 -17 60 -14 8 3 12 3 8 -1 -8 -9 31 -44 50
-44 7 0 13 -4 13 -10 0 -5 9 -10 20 -10 11 0 20 -4 20 -8 0 -5 18 -16 40 -25
28 -11 40 -21 40 -35 0 -27 26 -35 59 -19 26 13 49 11 135 -11 21 -6 48 -8 60
-5 11 2 27 5 34 5 6 1 12 5 12 8 0 10 -79 22 -91 15 -5 -4 -9 -2 -9 2 0 5 -14
10 -31 11 -42 3 -51 10 -40 30 4 9 6 23 4 30 -3 6 0 12 6 12 6 0 10 3 9 8 0 4
1 14 4 22 25 73 26 80 15 73 -7 -4 -7 -1 1 9 7 9 14 29 15 44 1 15 8 29 15 32
8 2 12 -11 12 -46 0 -34 5 -52 14 -55 16 -6 32 26 21 43 -3 5 -1 10 5 10 8 0
8 6 0 20 -9 17 -8 20 11 17 12 -1 24 4 27 12 3 10 0 12 -11 8 -19 -7 -33 8
-17 18 6 4 8 15 5 25 -3 10 -1 21 5 25 7 4 7 12 0 25 -12 23 13 95 30 85 5 -3
10 -2 10 4 0 13 53 3 62 -12 5 -8 8 -6 8 6 0 10 8 17 20 17 11 0 20 -5 20 -11
0 -8 21 -10 73 -5 39 3 92 7 117 9 25 1 50 6 57 10 6 4 23 8 37 9 14 1 26 5
26 8 0 3 17 4 37 4 21 -1 41 4 45 10 4 6 12 12 18 12 5 1 11 2 13 3 1 2 19 4
39 7 20 2 49 11 64 19 15 8 31 12 36 9 4 -3 8 -1 8 5 0 7 -18 9 -47 6 -27 -3
-41 -2 -33 1 8 4 32 20 53 36 20 16 37 27 37 23 0 -4 6 -3 13 3 8 7 13 38 14
84 1 44 6 74 13 76 18 6 31 51 20 72 -8 15 -5 19 23 23 17 2 38 0 45 -5 8 -7
12 -7 12 1 0 7 4 10 9 6 5 -3 13 0 17 6 5 8 8 8 14 -1 5 -8 17 -9 41 -3 19 5
50 6 69 3 33 -5 34 -6 14 -17 -12 -7 -24 -10 -27 -7 -3 3 -12 2 -19 -2 -16
-10 -55 -19 -99 -23 -9 0 -16 -7 -16 -14 0 -9 15 -13 49 -13 26 1 42 3 36 5
-11 4 103 41 125 41 15 0 6 -17 -15 -29 -13 -6 -15 -9 -6 -7 19 6 16 -12 -10
-52 -8 -13 -16 -33 -17 -45 -8 -61 -20 -74 -83 -80 -32 -4 -66 -9 -75 -13 -17
-6 -17 8 -1 109 5 34 4 38 -12 35 -15 -3 -19 -12 -19 -41 0 -20 -3 -37 -7 -37
-5 0 -8 -11 -8 -24 0 -37 -18 -76 -35 -76 -8 0 -15 -4 -15 -9 0 -5 8 -8 18 -7
11 1 17 -6 17 -19 0 -23 12 -45 24 -45 5 0 7 14 6 30 -2 25 3 34 26 45 16 9
32 14 36 13 4 -1 26 4 48 10 22 7 42 12 45 12 3 0 4 -29 2 -65 -4 -61 -3 -65
17 -65 17 0 20 4 15 29 -4 17 1 56 11 88 36 122 49 159 68 203 11 25 20 48 19
51 -5 24 99 62 112 41 3 -5 -6 -20 -19 -32 -14 -13 -25 -29 -25 -37 0 -7 -4
-13 -9 -13 -5 0 -14 -15 -21 -32 -6 -18 -16 -41 -21 -50 -5 -10 -9 -24 -9 -32
0 -7 -6 -19 -14 -25 -14 -12 -39 -71 -31 -71 3 0 11 14 20 30 9 17 20 30 25
30 7 0 7 -6 1 -17 -42 -77 -100 -228 -90 -231 5 -2 9 -8 9 -13 0 -6 -4 -8 -9
-5 -11 7 -21 -17 -21 -49 0 -13 -4 -26 -10 -30 -10 -6 -6 -291 5 -360 9 -51
17 -59 51 -51 26 7 26 8 8 21 -16 11 -19 23 -17 69 1 35 -1 54 -8 51 -5 -4 -7
-10 -4 -15 3 -5 1 -11 -5 -15 -15 -9 -12 21 3 37 8 7 12 24 10 38 -3 27 -4 37
-1 73 2 25 22 50 32 40 19 -19 36 -7 56 40 13 32 24 47 28 40 4 -7 34 -13 67
-15 l60 -3 0 -102 c0 -57 -3 -103 -6 -103 -4 0 -9 -16 -11 -35 -4 -35 8 -45
28 -25 6 6 15 6 24 0 13 -8 13 -10 -2 -10 -24 0 -78 -33 -74 -45 1 -5 17 -9
33 -8 34 2 48 -21 31 -51 -5 -9 -6 -21 -3 -26 3 -6 -5 -10 -19 -10 -32 0 -34
-17 -3 -22 14 -3 2 -9 -35 -17 -46 -10 -58 -16 -58 -32 0 -22 41 -26 87 -8 15
7 36 12 46 13 10 1 23 12 30 26 19 37 43 37 56 -1 6 -17 9 -35 6 -39 -3 -4 6
-10 20 -12 28 -6 35 8 8 15 -15 4 -15 5 2 6 17 1 18 3 5 11 -12 8 -9 10 13 10
19 0 30 7 36 22 9 26 58 32 84 10 9 -8 17 -12 17 -8 0 3 17 -1 37 -9 21 -9 48
-13 61 -10 13 3 21 2 18 -3 -3 -5 -33 -15 -66 -22 -33 -7 -63 -17 -66 -21 -9
-15 38 -10 101 10 33 11 83 27 110 36 28 9 58 17 68 18 9 1 17 6 17 12 0 5 7
2 14 -8 12 -16 17 -16 55 -2 23 8 41 10 41 4 0 -5 23 2 51 16 27 14 58 23 68
20 21 -6 111 68 111 92 0 8 6 13 12 11 7 -3 20 4 28 15 15 18 16 18 30 -7 7
-14 17 -26 22 -26 5 0 6 5 3 10 -3 6 -1 10 5 10 6 0 9 4 6 9 -4 5 -1 11 5 13
6 2 -1 10 -15 18 -39 20 -92 0 -150 -56 -26 -27 -94 -56 -101 -44 -3 5 3 13
12 19 14 8 16 12 6 22 -10 10 -16 10 -25 1 -7 -7 -8 -12 -4 -12 15 0 -42 -40
-78 -55 -40 -17 -56 -19 -56 -6 0 5 14 14 30 21 17 7 29 14 27 17 -2 2 -17 -2
-33 -8 -16 -7 -33 -13 -37 -13 -4 -1 -11 -7 -16 -14 -5 -8 -38 -16 -84 -19
-43 -3 -77 -9 -77 -14 0 -4 -9 -5 -20 -2 -13 3 -20 0 -20 -8 -1 -10 -4 -8 -11
3 -7 14 -19 17 -47 13 -20 -3 -58 0 -84 7 -43 10 -48 15 -48 39 0 15 -4 31
-10 34 -13 8 -13 65 1 65 5 0 7 5 3 12 -5 8 -2 9 9 5 11 -4 17 -1 17 9 0 8 -4
13 -8 10 -18 -11 -31 12 -32 59 -1 28 -1 93 0 146 1 75 -3 106 -19 147 -11 28
-18 57 -15 64 2 7 29 23 59 34 l55 21 0 -23 c0 -13 5 -24 11 -24 6 0 9 -7 6
-14 -4 -9 2 -17 14 -21 10 -4 19 -10 19 -14 0 -9 46 -8 56 2 4 4 15 7 25 7 14
0 24 12 34 40 1 3 4 12 8 20 13 35 17 70 7 70 -5 0 -10 -4 -10 -8 0 -4 -18
-27 -41 -51 -30 -33 -43 -41 -52 -32 -14 14 -19 129 -6 153 5 10 12 36 15 58
5 34 2 43 -23 66 -29 27 -70 47 -81 40 -4 -2 -25 -7 -47 -10 -34 -6 -145 -66
-122 -66 5 0 2 -7 -7 -15 -12 -12 -13 -22 -6 -41 11 -27 5 -48 -10 -39 -12 7
-40 -23 -40 -43 0 -9 7 -30 15 -46 14 -27 14 -33 -4 -72 -19 -40 -22 -42 -54
-35 -55 13 -101 -14 -76 -45 9 -11 23 -13 56 -8 39 6 43 4 43 -15 0 -19 -6
-21 -53 -21 -29 0 -59 -6 -66 -12 -11 -11 -12 -3 -7 42 3 30 6 67 6 83 0 20 5
27 20 27 27 0 25 17 -2 26 -13 3 -31 15 -41 25 -10 11 -22 17 -27 14 -4 -3
-11 2 -14 11 -4 9 -2 13 5 8 7 -4 10 -1 7 7 -3 8 2 20 10 28 10 10 11 16 3 19
-17 6 -13 22 7 22 13 0 14 2 3 9 -9 6 -10 11 -2 15 6 4 11 4 11 -1 0 -4 6 3
13 17 7 14 12 37 12 53 -1 15 2 27 7 27 11 0 43 70 39 88 -1 8 6 12 21 10 13
-2 25 2 26 7 2 6 8 15 13 21 6 8 4 17 -6 28 -9 9 -14 16 -10 16 3 0 1 10 -6
21 -7 14 -7 19 0 15 5 -4 15 2 20 12 18 34 -1 32 -46 -5 -25 -21 -54 -38 -65
-40 -11 -2 -26 -10 -34 -18 -18 -17 -41 -20 -46 -4 -2 5 -11 11 -20 12 -9 2
-22 8 -30 15 -15 12 -165 10 -228 -3 -83 -18 -96 -43 -109 -208 -3 -42 -10
-77 -14 -77 -4 1 -31 -17 -59 -39 -28 -23 -61 -41 -74 -41 -32 0 -114 -22
-114 -31 0 -8 -92 0 -100 8 -3 3 1 8 8 10 19 7 14 23 -8 23 -11 0 -20 -5 -20
-12 0 -9 -3 -9 -12 0 -17 17 -77 15 -84 -3 -4 -8 -11 -12 -16 -9 -6 4 -5 10 3
15 10 6 5 9 -15 9 -21 0 -27 4 -22 16 3 9 6 22 6 29 0 8 11 26 25 41 13 14 22
30 19 35 -3 5 -1 9 5 9 5 0 11 -5 13 -10 2 -6 23 8 46 30 24 22 51 40 60 40
15 1 15 2 -1 15 -11 7 -25 11 -33 8 -10 -3 -14 2 -14 19 0 13 -6 30 -12 37
-11 11 -10 12 1 6 11 -6 13 -4 8 8 -3 10 -3 17 2 17 4 0 7 42 6 93 -1 78 1 95
17 111 11 10 17 25 14 33 -4 8 -2 11 5 7 11 -7 29 12 29 31 0 6 -5 3 -10 -5
-6 -9 -10 -10 -10 -3 0 7 7 16 17 21 15 9 15 13 -4 51 -17 33 -18 43 -7 49 16
9 8 52 -10 52 -6 0 -3 5 6 10 20 12 22 70 1 70 -7 0 -13 -5 -13 -12 0 -6 -3
-8 -7 -5 -10 11 -42 -23 -36 -39 3 -8 0 -14 -6 -14 -6 0 -21 -11 -33 -25 -16
-18 -25 -22 -34 -14 -12 10 -25 53 -29 93 -2 24 -13 27 -42 12z m137 -166 c3
-1 -5 -5 -18 -11 -16 -6 -22 -15 -18 -26 3 -10 8 -36 12 -57 6 -36 5 -39 -12
-32 -10 5 -24 9 -31 10 -24 4 -51 37 -46 56 5 19 29 34 42 25 5 -2 13 6 19 20
10 21 20 24 52 15z m-844 -260 c22 19 72 2 88 -29 12 -22 12 -32 2 -52 -7 -13
-19 -22 -27 -20 -48 14 -69 13 -69 -3 0 -19 -19 -22 -24 -3 -2 6 -9 30 -16 51
-11 35 -11 41 6 53 12 9 20 10 22 3 3 -8 8 -7 18 0z m1821 -77 c2 -6 -5 -13
-15 -15 -15 -4 -18 -1 -14 14 5 19 23 20 29 1z m-1782 -53 c3 -5 2 -10 -4 -10
-5 0 -13 5 -16 10 -3 6 -2 10 4 10 5 0 13 -4 16 -10z m2096 -121 c13 -21 11
-27 -10 -34 -23 -7 -34 -44 -20 -62 30 -35 -84 -103 -138 -82 -46 17 -71 70
-39 82 8 3 13 14 10 24 -5 22 11 42 56 71 40 25 125 25 141 1z m-1451 -69 c0
-5 -2 -10 -4 -10 -3 0 -8 5 -11 10 -3 6 -1 10 4 10 6 0 11 -4 11 -10z m-50
-60 c0 -5 -4 -10 -10 -10 -5 0 -10 5 -10 10 0 6 5 10 10 10 6 0 10 -4 10 -10z
m-80 -30 c0 -5 -4 -10 -10 -10 -5 0 -10 5 -10 10 0 6 5 10 10 10 6 0 10 -4 10
-10z m288 -30 c-1 -29 -8 -37 -21 -24 -4 4 -3 12 1 18 4 6 7 14 8 19 3 15 4
17 8 17 3 0 4 -13 4 -30z m-98 -9 c0 -10 -24 -21 -46 -21 -20 0 -17 18 4 23
29 8 42 7 42 -2z m45 -11 c3 -6 -4 -10 -17 -10 -18 0 -20 2 -8 10 19 12 18 12
25 0z m-182 -7 c-7 -2 -19 -2 -25 0 -7 3 -2 5 12 5 14 0 19 -2 13 -5z m1041
-28 c-6 -16 -24 -21 -24 -7 0 11 11 22 21 22 5 0 6 -7 3 -15z m306 -19 c21
-55 29 -351 11 -396 -5 -14 -10 -20 -10 -13 -1 7 -16 16 -33 21 -32 8 -33 9
-30 58 2 27 5 99 7 159 3 116 7 141 25 174 14 27 18 26 30 -3z m-280 -95 c-7
-42 -16 -84 -22 -94 -9 -17 -11 -17 -29 4 -33 38 -26 97 19 154 45 58 50 47
32 -64z m-1186 64 c3 -8 1 -15 -4 -15 -6 0 -10 -8 -10 -17 -1 -21 -30 -64 -30
-44 0 23 23 91 31 91 4 0 9 -7 13 -15z m-18 -133 c-15 -15 -16 -14 -16 6 0 24
-15 30 -23 10 -4 -10 -6 -10 -6 0 -1 7 9 16 22 21 30 11 46 -14 23 -37z m1116
-64 c-7 -7 -12 -8 -12 -2 0 14 12 26 19 19 2 -3 -1 -11 -7 -17z m-1201 -73
c-10 -33 -19 -51 -20 -39 -1 28 32 133 36 114 2 -9 -5 -42 -16 -75z m1601
-178 c-6 -7 -9 -23 -5 -35 10 -38 -5 -72 -31 -72 -30 0 -37 17 -26 64 4 20 6
36 3 36 -2 0 -1 5 2 10 3 6 20 10 37 10 24 0 28 -3 20 -13z"/>
<path d="M3349 1884 c-6 -8 -9 -17 -6 -21 4 -3 2 -12 -5 -20 -13 -17 -4 -28
14 -17 7 5 20 7 29 6 17 -3 41 39 31 54 -11 16 -49 14 -63 -2z"/>
<path d="M823 2078 c-23 -11 -37 -37 -38 -75 -1 -34 -9 -35 -30 -2 -24 35 -65
41 -65 9 0 -12 11 -33 25 -47 21 -23 22 -29 11 -43 -19 -21 -30 -60 -17 -60 6
0 22 10 36 22 44 38 104 43 116 11 7 -21 5 -23 -21 -23 -16 0 -32 -4 -35 -10
-3 -5 -19 -10 -34 -10 -15 0 -36 -9 -46 -19 -16 -19 -16 -21 5 -50 14 -20 30
-31 46 -31 21 0 24 -5 24 -34 0 -52 22 -136 35 -136 19 0 36 25 25 36 -5 5
-12 29 -16 54 -5 36 -4 43 6 33 18 -17 51 -93 40 -93 -6 0 -10 -4 -10 -10 0
-5 7 -7 15 -4 11 5 15 -1 15 -20 0 -14 -4 -26 -9 -26 -4 0 -25 -11 -45 -25
-37 -25 -84 -29 -128 -10 -9 4 -22 4 -28 0 -5 -3 -10 -3 -10 2 0 13 -52 32
-95 34 -22 1 -45 6 -51 11 -13 10 -44 0 -44 -13 0 -9 22 -13 49 -10 7 2 11 -4
9 -11 -3 -7 -12 -12 -22 -10 -21 4 -20 -4 3 -29 l19 -21 7 31 c4 17 10 29 15
26 5 -3 10 0 12 7 3 9 6 9 11 1 4 -6 0 -19 -9 -27 -14 -15 -13 -16 11 -16 15
0 24 4 20 10 -7 12 31 12 60 1 11 -4 20 -16 20 -26 0 -19 31 -30 41 -14 3 5
10 7 15 4 5 -4 9 -1 9 6 0 9 3 9 15 -1 8 -6 23 -9 35 -5 11 3 20 2 20 -3 0 -6
9 -8 20 -5 11 3 20 0 20 -6 0 -9 5 -9 20 -1 11 6 19 7 18 3 -3 -11 22 -56 36
-65 18 -13 26 -9 26 12 0 11 7 20 15 20 8 0 15 4 15 9 0 5 9 13 20 16 11 3 27
14 36 23 16 15 32 22 62 24 7 1 11 6 9 12 -6 18 -49 6 -101 -29 -48 -32 -83
-36 -72 -9 3 7 1 14 -4 16 -5 2 -11 14 -12 27 -4 29 21 34 164 35 84 0 94 2
77 14 -11 7 -28 10 -39 7 -11 -4 -20 -3 -20 0 0 11 44 44 60 45 10 1 11 3 3 6
-7 3 -9 13 -6 22 5 14 3 15 -8 5 -7 -7 -24 -13 -39 -13 -23 -1 -24 -2 -7 -14
16 -13 15 -15 -14 -25 -25 -9 -34 -8 -41 1 -5 9 0 15 15 20 14 4 8 6 -18 4
-32 -1 -39 -5 -37 -19 2 -10 -4 -17 -12 -17 -10 0 -13 6 -9 16 5 15 3 15 -20
-1 -26 -17 -57 -15 -57 4 0 5 8 12 18 14 14 4 13 5 -4 6 -14 1 -27 15 -43 50
-12 27 -29 52 -37 55 -8 3 -12 10 -9 16 3 5 -2 10 -12 11 -10 0 -13 3 -5 6 6
2 12 11 12 18 0 7 5 15 11 17 5 2 11 10 13 18 2 8 8 27 14 43 21 50 21 75 2
92 -11 10 -28 15 -40 12 -13 -3 -24 1 -29 12 -11 20 2 50 13 32 9 -14 53 -14
61 -1 3 6 1 10 -5 10 -6 0 -8 5 -5 10 3 6 2 10 -2 10 -5 0 -9 10 -10 22 -1 11
-8 25 -15 29 -16 10 -17 10 -45 -3z m22 -258 c-14 -27 -20 -31 -52 -28 -35 3
-61 28 -29 28 9 0 33 9 53 20 20 11 39 18 41 16 2 -2 -4 -18 -13 -36z m52
-336 c-9 -9 -28 6 -21 18 4 6 10 6 17 -1 6 -6 8 -13 4 -17z"/>
<path d="M1260 1905 c-7 -9 -10 -18 -7 -21 7 -8 47 14 47 26 0 15 -26 12 -40
-5z"/>
<path d="M2480 1820 c0 -5 5 -10 10 -10 6 0 10 5 10 10 0 6 -4 10 -10 10 -5 0
-10 -4 -10 -10z"/>
<path d="M2450 1790 c-12 -8 -9 -10 13 -10 15 0 27 5 27 10 0 13 -20 13 -40 0z"/>
<path d="M1786 1776 c3 -9 11 -16 16 -16 13 0 5 23 -10 28 -7 2 -10 -2 -6 -12z"/>
<path d="M2365 1780 c-3 -5 -1 -10 4 -10 6 0 11 5 11 10 0 6 -2 10 -4 10 -3 0
-8 -4 -11 -10z"/>
<path d="M2270 1760 c-12 -8 -10 -10 8 -10 13 0 20 4 17 10 -7 12 -6 12 -25 0z"/>
<path d="M1495 1740 c4 -6 11 -8 16 -5 14 9 11 15 -7 15 -8 0 -12 -5 -9 -10z"/>
<path d="M1065 1660 c-16 -7 -17 -9 -3 -9 9 -1 20 4 23 9 7 11 7 11 -20 0z"/>
<path d="M2050 1580 c-12 -8 -10 -10 8 -10 13 0 20 4 17 10 -7 12 -6 12 -25 0z"/>
<path d="M728 1573 c7 -3 16 -2 19 1 4 3 -2 6 -13 5 -11 0 -14 -3 -6 -6z"/>
<path d="M385 1550 c-10 -11 -13 -20 -7 -20 6 0 18 -3 27 -6 10 -4 15 -2 13 7
-2 10 6 13 24 12 20 -1 26 2 21 13 -8 21 -57 17 -78 -6z"/>
<path d="M470 1561 c0 -6 5 -13 10 -16 6 -3 10 1 10 9 0 9 -4 16 -10 16 -5 0
-10 -4 -10 -9z"/>
<path d="M660 1558 c0 -4 7 -8 15 -8 8 0 15 4 15 8 0 5 -7 9 -15 9 -8 0 -15
-4 -15 -9z"/>
<path d="M1908 1553 c7 -3 16 -2 19 1 4 3 -2 6 -13 5 -11 0 -14 -3 -6 -6z"/>
<path d="M1440 1520 c0 -6 7 -10 15 -10 8 0 15 2 15 4 0 2 -7 6 -15 10 -8 3
-15 1 -15 -4z"/>
<path d="M1530 1506 c0 -2 9 -6 20 -9 11 -3 20 -1 20 4 0 5 -9 9 -20 9 -11 0
-20 -2 -20 -4z"/>
<path d="M2210 1486 c0 -2 7 -9 15 -16 13 -11 14 -10 9 4 -5 14 -24 23 -24 12z"/>
<path d="M357 1455 c3 -9 10 -14 16 -12 6 2 19 -5 28 -14 11 -11 26 -15 38
-12 30 8 26 17 -14 36 -46 22 -76 22 -68 2z"/>
<path d="M547 1446 c-7 -17 18 -40 33 -31 7 4 7 12 0 26 -13 23 -26 25 -33 5z"/>
<path d="M2270 1447 c0 -6 10 -12 23 -12 12 -1 42 -4 67 -8 42 -7 44 -6 25 9
-11 8 -30 13 -42 11 -13 -2 -23 -1 -23 2 0 4 -11 8 -25 9 -14 1 -25 -4 -25
-11z"/>
<path d="M1940 1439 c0 -5 5 -7 10 -4 6 3 10 8 10 11 0 2 -4 4 -10 4 -5 0 -10
-5 -10 -11z"/>
<path d="M1970 1440 c0 -5 5 -10 11 -10 5 0 7 5 4 10 -3 6 -8 10 -11 10 -2 0
-4 -4 -4 -10z"/>
<path d="M2014 1435 c-18 -14 -18 -14 8 -15 20 0 26 4 22 15 -7 18 -6 18 -30
0z"/>
<path d="M2164 1438 c-3 -4 4 -8 15 -8 12 0 21 4 21 8 0 5 -7 9 -15 9 -9 0
-18 -4 -21 -9z"/>
<path d="M455 1410 c-10 -11 -25 -20 -34 -20 -13 -1 -12 -4 4 -16 11 -8 19
-19 18 -24 -4 -15 78 -171 93 -177 8 -3 14 -9 14 -14 0 -5 14 -22 31 -39 18
-16 28 -30 23 -30 -5 -1 2 -7 16 -15 14 -7 25 -22 25 -32 0 -10 6 -17 13 -15
8 1 11 -1 8 -6 -3 -5 6 -29 19 -55 40 -74 58 -137 61 -207 2 -36 3 -71 3 -77
1 -14 37 -18 44 -5 15 25 -42 275 -66 293 -4 3 -9 16 -10 27 -1 12 -4 22 -8
22 -4 0 -11 9 -14 20 -3 11 -14 20 -22 20 -9 0 -13 3 -10 7 9 9 -13 34 -24 27
-5 -3 -6 3 -2 12 5 13 3 16 -10 11 -12 -5 -17 -1 -17 12 0 11 -6 22 -12 25 -7
3 -1 4 14 1 15 -3 30 -1 33 5 10 15 25 12 32 -7 8 -20 46 -80 65 -102 7 -8 13
-20 14 -25 6 -34 25 -99 44 -151 14 -38 22 -86 23 -134 2 -70 1 -76 -23 -87
-22 -12 -23 -14 -6 -20 41 -16 72 38 61 106 -3 19 -8 51 -11 70 -2 19 -10 51
-16 70 -7 19 -12 39 -13 43 0 4 -5 11 -10 15 -6 4 -16 29 -23 57 -7 27 -20 57
-28 66 -8 8 -14 21 -14 27 0 19 -64 112 -77 112 -6 0 -10 8 -8 19 3 18 -28 54
-39 44 -3 -4 -6 2 -6 12 0 10 -8 25 -19 34 -10 9 -21 26 -25 39 -4 12 -12 22
-17 22 -6 0 -8 3 -6 8 6 9 -34 46 -54 50 -9 1 -24 -7 -34 -18z m178 -202 c4
-11 2 -18 -6 -18 -19 0 -37 21 -37 42 0 10 -7 21 -15 24 -8 4 -12 11 -9 16 7
11 56 -36 67 -64z"/>
<path d="M2420 1410 c0 -5 16 -10 35 -10 19 0 35 -4 35 -10 0 -5 12 -10 28 -9
27 0 27 1 5 11 -13 6 -23 15 -23 20 0 4 -18 8 -40 8 -22 0 -40 -4 -40 -10z"/>
<path d="M2546 1396 c3 -9 11 -16 16 -16 13 0 5 23 -10 28 -7 2 -10 -2 -6 -12z"/>
<path d="M2678 1378 c9 -9 15 -9 24 0 9 9 7 12 -12 12 -19 0 -21 -3 -12 -12z"/>
<path d="M3115 1260 c3 -5 10 -10 16 -10 5 0 9 5 9 10 0 6 -7 10 -16 10 -8 0
-12 -4 -9 -10z"/>
<path d="M3715 1260 c-3 -5 1 -10 9 -10 9 0 16 5 16 10 0 6 -4 10 -9 10 -6 0
-13 -4 -16 -10z"/>
<path d="M3755 1260 c3 -5 11 -10 16 -10 6 0 7 5 4 10 -3 6 -11 10 -16 10 -6
0 -7 -4 -4 -10z"/>
<path d="M3655 1250 c-3 -6 1 -7 9 -4 18 7 21 14 7 14 -6 0 -13 -4 -16 -10z"/>
<path d="M3813 1253 c9 -2 23 -2 30 0 6 3 -1 5 -18 5 -16 0 -22 -2 -12 -5z"/>
<path d="M3545 1240 c-23 -10 -21 -11 23 -15 22 -2 32 2 32 11 0 15 -24 17
-55 4z"/>
<path d="M3410 1232 c0 -10 61 -23 69 -16 7 7 -2 11 -36 19 -20 4 -33 3 -33
-3z"/>
<path d="M1977 1223 c-12 -11 -8 -23 8 -23 8 0 15 7 15 15 0 16 -12 20 -23 8z"/>
<path d="M2016 1204 c7 -3 10 -13 7 -23 -4 -15 -14 -18 -54 -17 -30 1 -50 -3
-53 -10 -8 -20 131 -10 154 11 16 14 18 14 30 0 7 -9 19 -14 25 -11 7 2 18 -1
24 -7 8 -8 16 -6 31 8 11 10 20 22 20 28 0 12 -64 0 -68 -13 -2 -5 -14 -2 -27
6 -13 9 -29 13 -35 9 -5 -3 -17 1 -26 9 -8 9 -21 16 -27 15 -9 0 -9 -2 -1 -5z"/>
<path d="M2216 1191 c-4 -7 -5 -15 -2 -18 9 -9 19 4 14 18 -4 11 -6 11 -12 0z"/>
<path d="M2225 1134 c30 -12 45 -10 45 6 0 5 -17 9 -37 8 l-38 -1 30 -13z"/>
<path d="M2285 1129 c4 -6 13 -8 20 -5 7 2 18 -1 24 -7 8 -8 11 -8 11 0 0 6 8
14 18 16 9 3 -5 5 -31 6 -32 1 -46 -3 -42 -10z"/>
<path d="M2415 1130 c3 -5 8 -10 11 -10 2 0 4 5 4 10 0 6 -5 10 -11 10 -5 0
-7 -4 -4 -10z"/>
<path d="M2456 1130 c6 -5 25 -14 42 -19 26 -8 32 -7 32 6 0 9 -6 13 -15 9 -8
-3 -28 -1 -43 5 -19 7 -24 7 -16 -1z"/>
<path d="M2550 1110 c0 -5 4 -10 9 -10 6 0 13 5 16 10 3 6 -1 10 -9 10 -9 0
-16 -4 -16 -10z"/>
<path d="M2610 1101 c0 -7 4 -10 9 -6 5 3 12 2 15 -3 2 -4 24 -9 48 -9 l43 -1
-35 8 c-19 5 -45 11 -57 15 -15 5 -23 3 -23 -4z"/>
<path d="M2750 1073 c0 -5 14 -9 30 -10 18 -1 28 2 25 7 -7 12 -55 14 -55 3z"/>
<path d="M2824 1069 c-9 -16 2 -22 21 -11 15 8 16 10 1 15 -8 3 -18 2 -22 -4z"/>
<path d="M2888 1053 c7 -3 16 -2 19 1 4 3 -2 6 -13 5 -11 0 -14 -3 -6 -6z"/>
<path d="M3045 1052 c-2 -3 -2 -9 1 -13 7 -12 74 -12 74 0 0 9 -67 20 -75 13z"/>
<path d="M3940 996 c-17 -36 -33 -76 -34 -90 -2 -14 -8 -32 -14 -39 -6 -7 -14
-33 -18 -57 -4 -25 -14 -57 -22 -72 -9 -15 -13 -31 -8 -35 9 -10 42 12 39 26
-2 6 3 11 10 11 8 0 7 4 -3 10 -13 8 -13 10 1 10 15 0 31 47 34 100 0 8 4 21
8 28 5 6 6 16 2 21 -3 5 5 17 17 25 22 16 22 16 3 32 -11 8 -15 13 -10 10 6
-2 17 -1 25 5 13 7 13 9 0 9 -10 0 -7 6 9 19 16 12 22 24 18 35 -11 28 -24 18
-57 -48z"/>
<path d="M1900 970 c-8 -5 -23 -11 -33 -14 -9 -3 -21 -7 -25 -8 -13 -5 -54
-43 -63 -60 -14 -26 -21 -98 -9 -98 5 0 13 -1 16 -2 4 -2 8 10 10 26 2 16 8
34 13 39 6 6 11 18 11 27 0 19 29 45 61 53 37 10 55 25 44 36 -6 5 -17 5 -25
1z"/>
<path d="M1960 959 c0 -5 5 -7 11 -3 6 3 15 0 20 -7 7 -11 9 -10 9 4 0 10 -8
17 -20 17 -11 0 -20 -5 -20 -11z"/>
<path d="M3355 960 c-3 -5 1 -10 9 -10 9 0 16 5 16 10 0 6 -4 10 -9 10 -6 0
-13 -4 -16 -10z"/>
<path d="M2265 782 c-29 -21 -137 -143 -132 -148 9 -10 67 16 67 30 0 13 88
106 101 106 5 0 9 -6 9 -13 0 -21 71 -99 85 -93 8 3 16 -2 19 -10 4 -10 17
-15 33 -13 16 1 41 -3 56 -10 39 -15 49 -14 45 6 -3 16 -32 27 -95 37 -27 5
-83 46 -83 62 0 6 -9 14 -21 17 -12 3 -18 10 -15 15 10 16 -50 28 -69 14z"/>
<path d="M2760 674 c0 -8 5 -12 10 -9 6 3 10 10 10 16 0 5 -4 9 -10 9 -5 0
-10 -7 -10 -16z"/>
<path d="M2668 674 c-6 -5 -32 -12 -55 -13 -18 -1 -16 -31 1 -31 8 0 17 4 21
9 3 6 19 8 35 6 19 -2 38 3 52 15 l23 19 -36 1 c-20 0 -38 -3 -41 -6z"/>
<path d="M2560 640 c0 -5 5 -10 10 -10 6 0 10 5 10 10 0 6 -4 10 -10 10 -5 0
-10 -4 -10 -10z"/>
<path d="M960 575 c0 -13 7 -15 33 -10 22 4 39 2 48 -7 15 -15 66 -48 73 -48
2 0 6 6 9 14 8 21 -67 61 -120 65 -34 2 -43 -1 -43 -14z"/>
<path d="M893 537 c-18 -12 -32 -27 -33 -34 0 -6 -3 -13 -8 -15 -4 -1 -22 -25
-39 -53 -22 -34 -29 -53 -22 -60 7 -7 16 -2 29 15 10 13 17 27 14 31 -2 3 5
14 16 24 11 10 20 22 20 26 0 14 34 49 47 49 7 0 17 9 23 20 14 27 -4 25 -47
-3z"/>
<path d="M1377 554 c-3 -3 -38 -8 -77 -10 -39 -2 -83 -10 -98 -18 -26 -14 -24
-14 38 -15 65 0 165 22 175 40 7 10 -28 13 -38 3z"/>
<path d="M1140 520 c0 -6 7 -10 15 -10 8 0 15 2 15 4 0 2 -7 6 -15 10 -8 3
-15 1 -15 -4z"/>
<path d="M4073 499 c-18 -5 -33 -14 -33 -19 0 -13 16 -13 40 0 10 6 21 6 24 2
4 -6 56 -8 76 -3 10 3 -45 30 -60 30 -8 -1 -30 -5 -47 -10z"/>
<path d="M4197 494 c-12 -12 -8 -34 6 -34 8 0 26 -13 40 -30 15 -16 31 -30 36
-30 6 0 20 -4 33 -9 13 -5 28 -9 33 -11 6 -1 17 -8 26 -16 15 -13 17 -13 22 1
4 9 1 15 -7 15 -7 0 -19 7 -26 15 -7 8 -23 15 -36 15 -13 0 -24 3 -24 8 0 4
-14 13 -30 20 -17 8 -28 18 -24 23 5 8 -2 10 -23 8 -4 0 -10 7 -13 16 -3 9 -9
13 -13 9z"/>
<path d="M3344 420 c-62 -14 -134 -81 -112 -107 17 -21 35 -15 47 15 6 15 28
37 49 48 39 23 48 23 184 -4 26 -5 49 -8 51 -6 2 2 17 6 33 8 39 5 82 23 100
41 14 13 14 15 0 15 -9 0 -16 -4 -16 -9 0 -23 -125 -34 -181 -16 -20 7 -54 11
-75 10 -22 -1 -41 1 -44 5 -3 3 -19 3 -36 0z"/>
<path d="M4590 380 c-24 -15 -7 -19 20 -5 15 8 19 14 10 14 -8 1 -22 -3 -30
-9z"/>
<path d="M4430 353 c0 -7 11 -13 26 -13 15 0 24 5 22 12 -6 16 -48 18 -48 1z"/>
<path d="M4502 363 c-6 -2 -10 -8 -8 -12 7 -10 76 -1 76 10 0 9 -46 11 -68 2z"/>
</g>
</svg>
