<?xml version="1.0" standalone="no"?>
<!DOCTYPE svg PUBLIC "-//W3C//DTD SVG 20010904//EN"
 "http://www.w3.org/TR/2001/REC-SVG-20010904/DTD/svg10.dtd">
<svg version="1.0" xmlns="http://www.w3.org/2000/svg"
 width="742.000000pt" height="483.000000pt" viewBox="0 0 742.000000 483.000000"
 preserveAspectRatio="xMidYMid meet">
<metadata>
Created by potrace 1.12, written by Peter Selinger 2001-2015
</metadata>
<g transform="translate(0.000000,483.000000) scale(0.100000,-0.100000)"
fill="#000000" stroke="none">
<path d="M4717 4353 c-10 -3 -16 -11 -13 -18 3 -8 0 -16 -7 -18 -8 -3 -5 -12
10 -27 14 -16 36 -24 69 -27 26 -2 44 0 40 4 -8 8 -13 10 -46 12 -28 1 -36 28
-16 50 24 26 9 36 -37 24z"/>
<path d="M4606 4301 c-3 -5 0 -11 8 -14 15 -6 26 1 26 15 0 11 -27 10 -34 -1z"/>
<path d="M4530 4288 c0 -5 -9 -8 -19 -8 -11 0 -23 -4 -26 -10 -3 -5 -19 -10
-35 -10 -23 0 -35 -8 -56 -40 -24 -36 -25 -41 -10 -55 9 -9 16 -22 16 -28 -1
-18 -26 -47 -41 -47 -12 0 -11 -2 0 -9 15 -10 58 5 47 16 -3 3 4 14 15 24 16
14 18 21 10 38 -6 11 -11 27 -11 37 0 17 35 53 54 55 6 1 29 3 50 5 53 4 67
11 60 28 -5 14 -54 17 -54 4z"/>
<path d="M4967 4249 c13 -13 -6 -50 -44 -84 -28 -25 -29 -32 -5 -39 9 -2 4 -4
-13 -3 -22 2 -31 -3 -33 -17 -7 -32 21 -38 45 -9 13 14 23 32 23 40 0 8 5 11
10 8 6 -3 13 2 17 11 3 10 15 26 25 36 10 10 18 29 18 43 0 20 -5 25 -27 25
-20 0 -24 -3 -16 -11z"/>
<path d="M4325 4061 c3 -5 -4 -12 -15 -16 -11 -3 -20 -14 -20 -22 0 -13 5 -12
25 7 26 25 32 40 14 40 -5 0 -8 -4 -4 -9z"/>
<path d="M4890 4044 c0 -8 5 -12 10 -9 6 3 10 10 10 16 0 5 -4 9 -10 9 -5 0
-10 -7 -10 -16z"/>
<path d="M2607 4026 c-15 -7 -24 -15 -21 -19 4 -4 0 -7 -9 -7 -9 0 -17 -6 -17
-14 0 -15 -56 -39 -70 -31 -4 3 -10 -2 -14 -10 -3 -8 0 -18 6 -21 7 -4 14 -2
16 4 7 21 29 13 30 -10 0 -41 20 -77 46 -84 23 -5 23 -7 10 -32 -8 -15 -14
-30 -14 -34 0 -14 37 -8 50 7 7 8 19 15 26 15 8 0 14 5 14 10 0 6 -4 10 -10
10 -5 0 -10 6 -10 14 0 9 -12 16 -32 18 -34 3 -36 8 -25 72 3 13 58 66 69 66
5 0 7 4 4 9 -3 5 1 11 9 15 8 3 15 12 15 21 0 18 -33 19 -73 1z"/>
<path d="M4910 3992 c0 -5 7 -13 16 -16 10 -4 14 -1 12 6 -5 15 -28 23 -28 10z"/>
<path d="M4290 3960 c0 -11 2 -20 4 -20 2 0 6 9 9 20 3 11 1 20 -4 20 -5 0 -9
-9 -9 -20z"/>
<path d="M4930 3951 c0 -6 5 -13 10 -16 6 -3 10 1 10 9 0 9 -4 16 -10 16 -5 0
-10 -4 -10 -9z"/>
<path d="M2395 3910 c-10 -16 7 -31 23 -21 10 6 10 10 -2 20 -10 9 -16 9 -21
1z"/>
<path d="M4295 3910 c-3 -5 -1 -10 4 -10 6 0 11 5 11 10 0 6 -2 10 -4 10 -3 0
-8 -4 -11 -10z"/>
<path d="M4966 3903 c13 -31 8 -70 -13 -93 -30 -31 -46 -99 -26 -107 12 -5 12
-7 1 -14 -10 -7 -9 -9 3 -9 9 0 20 -7 23 -16 3 -8 10 -12 16 -9 9 6 12 -2 14
-50 1 -11 -5 -25 -13 -31 -7 -6 -14 -25 -15 -42 -1 -18 -6 -32 -13 -32 -7 0
-13 -9 -13 -20 0 -11 5 -20 12 -20 9 0 9 -3 0 -12 -14 -14 -16 -52 -3 -76 11
-21 -40 -82 -85 -100 -16 -7 -43 -24 -59 -38 -29 -25 -29 -25 -5 -19 14 4 38
7 53 7 15 -1 25 3 22 8 -4 6 -2 10 4 10 16 0 81 61 81 76 0 8 5 14 10 14 6 0
8 11 6 25 -3 13 0 28 6 31 7 4 6 9 -2 14 -8 5 -10 15 -5 26 4 11 9 31 11 46 2
14 14 55 27 90 l23 64 -38 33 c-30 27 -38 41 -38 68 0 23 5 33 15 33 8 0 16 7
16 15 1 15 4 28 9 43 1 4 2 10 1 15 0 4 4 7 9 7 6 0 10 7 10 15 0 8 -4 15 -10
15 -5 0 -9 3 -8 8 2 13 -14 42 -24 42 -6 0 -7 -7 -2 -17z"/>
<path d="M2344 3865 c-4 -8 -12 -15 -19 -15 -7 0 -15 -9 -18 -20 -8 -29 18
-25 53 9 25 24 28 30 14 35 -22 8 -24 8 -30 -9z"/>
<path d="M2268 3778 c9 -9 15 -9 24 0 9 9 7 12 -12 12 -19 0 -21 -3 -12 -12z"/>
<path d="M2228 3773 c7 -3 16 -2 19 1 4 3 -2 6 -13 5 -11 0 -14 -3 -6 -6z"/>
<path d="M2170 3757 c-14 -6 -26 -12 -28 -13 -9 -5 13 -34 27 -34 9 0 22 -5
28 -11 7 -7 17 -8 28 -2 14 8 13 11 -10 21 -27 12 -33 28 -13 34 7 3 8 7 3 10
-6 3 -21 1 -35 -5z"/>
<path d="M2581 3724 c-6 -15 -8 -31 -3 -38 5 -6 8 -30 7 -52 -1 -36 1 -41 20
-41 13 0 21 6 22 18 1 11 -5 19 -13 19 -15 0 -19 12 -6 24 12 12 9 30 -8 43
-13 11 -13 12 1 13 9 0 19 9 22 20 8 31 -27 25 -42 -6z"/>
<path d="M4425 3710 c-3 -5 -1 -10 4 -10 6 0 11 5 11 10 0 6 -2 10 -4 10 -3 0
-8 -4 -11 -10z"/>
<path d="M2130 3631 c0 -5 -10 -11 -22 -14 -12 -4 -19 -10 -15 -14 4 -4 -3
-13 -15 -21 -15 -9 -17 -11 -5 -8 10 3 23 6 28 6 5 0 9 6 9 14 0 7 9 16 20 19
20 5 28 27 10 27 -5 0 -10 -4 -10 -9z"/>
<path d="M2596 3565 c4 -8 7 -15 9 -15 2 0 5 7 9 15 3 9 0 15 -9 15 -9 0 -12
-6 -9 -15z"/>
<path d="M2021 3537 c-5 -5 -7 -16 -3 -25 4 -11 1 -14 -10 -9 -14 5 -29 -11
-32 -35 -1 -3 -13 -16 -28 -27 -59 -46 -67 -114 -17 -135 16 -7 26 -15 22 -19
-3 -4 -1 -7 5 -7 6 0 33 -13 61 -29 27 -16 52 -27 54 -24 3 2 10 -4 16 -15 6
-11 17 -27 25 -35 17 -16 47 -113 39 -121 -4 -3 -1 -6 5 -6 7 0 12 5 12 10 0
6 4 10 9 10 12 0 1 -42 -16 -59 -9 -8 -12 -28 -10 -52 5 -48 7 -50 36 -42 20
5 22 10 17 37 -4 17 -11 33 -16 34 -6 2 -7 9 -3 15 22 35 5 133 -27 152 -5 3
-7 12 -3 21 3 8 2 14 -3 13 -22 -4 -45 2 -39 10 3 5 1 12 -5 16 -6 4 -8 11 -5
16 4 5 -1 11 -9 14 -9 3 -24 8 -33 12 -10 3 -22 5 -26 4 -5 -1 -6 3 -3 8 3 5
-1 14 -9 21 -10 9 -15 9 -15 1 0 -6 -4 -11 -10 -11 -5 0 -10 6 -10 13 0 7 -8
17 -18 23 -14 9 -17 21 -14 53 2 22 8 41 13 41 5 0 9 5 9 11 0 6 10 20 23 31
12 11 16 17 10 13 -7 -3 -13 -1 -13 4 0 6 9 11 20 11 11 0 20 6 20 14 0 8 7
16 15 20 22 8 18 35 -5 33 -11 -1 -24 -5 -29 -10z"/>
<path d="M2575 3500 c-19 -7 -19 -8 -2 -15 12 -5 24 -2 35 9 13 13 14 16 2 15
-8 0 -24 -4 -35 -9z"/>
<path d="M4417 3482 c-10 -10 -17 -24 -17 -30 0 -7 -4 -12 -9 -12 -8 0 -20
-33 -22 -57 0 -5 -6 -15 -13 -23 -22 -26 -14 -93 17 -137 30 -44 71 -67 117
-65 34 1 47 -28 44 -95 -2 -43 18 -65 39 -44 7 7 5 12 -6 17 -13 4 -14 10 -5
23 7 12 8 30 2 57 -8 31 -16 41 -39 48 -41 12 -87 34 -106 48 -34 28 -57 137
-30 146 6 2 11 10 11 18 0 8 4 14 9 14 5 0 11 8 14 18 3 9 12 34 21 55 13 30
14 37 3 37 -8 0 -21 -8 -30 -18z"/>
<path d="M2530 3451 c0 -5 5 -22 10 -37 9 -22 13 -25 23 -14 9 9 9 14 1 17 -7
2 -10 13 -7 23 4 14 0 20 -11 20 -9 0 -16 -4 -16 -9z"/>
<path d="M3515 3390 c17 -19 17 -20 -1 -21 -10 -1 -22 -1 -25 -1 -4 1 -15 -8
-25 -19 -26 -29 -26 -128 -1 -154 10 -10 16 -24 13 -32 -3 -8 -6 -19 -6 -24 0
-14 -52 -10 -80 6 -14 8 -39 14 -57 15 -17 0 -35 5 -38 10 -3 6 1 10 9 10 24
0 86 59 79 76 -4 11 -10 10 -34 -7 -17 -11 -36 -18 -44 -15 -8 3 -21 -2 -29
-10 -9 -8 -18 -15 -21 -14 -3 0 -6 0 -7 -1 -2 -1 -14 -3 -28 -4 -14 -2 -43 -8
-65 -14 -72 -19 -82 -16 -77 24 4 36 -5 42 -63 47 -63 4 -96 -20 -61 -45 14
-11 15 -18 3 -62 -7 -27 -12 -56 -11 -62 1 -7 2 -20 3 -28 0 -8 8 -15 17 -15
9 0 12 5 8 13 -5 9 -3 8 7 -1 12 -11 11 -15 -4 -23 -16 -9 -16 -11 -1 -26 13
-14 17 -14 24 -2 17 27 26 -29 16 -97 -6 -36 -12 -61 -14 -55 -2 6 -10 11 -18
11 -9 0 -13 -4 -10 -8 4 -7 -7 -7 -74 0 -37 3 -61 -2 -54 -14 5 -8 0 -9 -14
-6 -12 4 -22 2 -22 -3 0 -5 -11 -9 -25 -9 -14 0 -25 5 -25 10 0 6 5 10 11 10
5 0 7 5 4 10 -3 6 -1 10 4 10 6 0 11 5 11 10 0 16 -27 12 -34 -6 -3 -8 -10
-13 -15 -9 -6 3 -14 -2 -19 -11 -8 -14 -31 -18 -148 -20 -77 -2 -175 -5 -219
-7 -44 -3 -97 0 -117 6 -37 10 -48 22 -28 29 13 4 0 48 -14 48 -12 0 -16 -14
-16 -57 0 -23 -15 -31 -67 -35 -18 -1 -33 -5 -33 -9 0 -3 -12 -6 -27 -6 -16 0
-46 -3 -68 -6 -22 -3 -70 -8 -107 -11 -36 -3 -82 -12 -101 -20 -20 -8 -38 -12
-41 -8 -3 3 -6 1 -6 -5 0 -9 31 -15 86 -15 25 0 23 -15 -15 -101 -12 -27 -21
-56 -21 -65 0 -9 -9 -32 -20 -50 -11 -18 -21 -41 -23 -50 -1 -10 -13 -35 -25
-56 -12 -20 -22 -43 -22 -51 0 -8 -4 -17 -10 -20 -5 -3 -10 -15 -10 -25 0 -10
-7 -25 -15 -34 -8 -8 -15 -20 -15 -27 0 -7 -24 -62 -54 -123 -30 -61 -60 -129
-67 -151 -8 -22 -16 -42 -19 -45 -3 -3 -13 -22 -24 -42 -16 -32 -34 -49 -57
-52 -3 -1 -20 -18 -39 -39 -30 -34 -31 -40 -18 -53 14 -14 17 -14 32 1 15 15
16 15 16 -4 0 -39 27 -22 33 21 3 16 8 18 48 18 17 0 28 -4 24 -10 -4 -6 7
-10 25 -10 18 0 29 4 25 10 -3 6 4 11 17 12 13 1 30 2 38 3 8 0 24 7 35 14 17
10 13 11 -30 6 l-50 -6 27 19 27 18 -21 18 c-20 17 -20 20 -5 31 9 7 15 14 13
16 -3 2 7 5 21 6 14 0 29 6 33 13 4 6 10 11 14 11 3 -1 7 -1 9 0 1 0 10 2 21
4 10 2 27 13 37 24 11 11 26 18 34 15 19 -8 87 24 80 36 -3 6 1 7 10 4 18 -7
75 14 75 28 0 5 4 7 9 4 12 -8 41 3 41 15 0 5 -9 9 -20 9 -39 0 -21 28 23 36
56 10 197 11 197 2 0 -5 -5 -8 -10 -8 -6 0 -4 -14 4 -35 11 -26 12 -35 3 -36
-7 0 -2 -4 10 -9 12 -5 24 -21 28 -39 4 -17 10 -31 13 -32 4 0 14 -2 22 -5 51
-14 120 -25 153 -24 39 1 48 -12 20 -29 -17 -10 -16 -11 2 -12 80 -7 155 -3
160 9 3 10 -4 11 -28 7 -39 -7 -49 0 -67 43 -9 23 -10 36 -2 44 6 6 8 17 5 25
-5 13 2 15 35 11 23 -2 42 0 42 4 0 3 9 10 20 13 33 10 150 13 156 4 3 -5 20
-9 38 -9 25 0 35 5 39 20 3 13 13 20 29 20 18 0 20 -2 8 -9 -8 -6 -18 -7 -24
-4 -5 3 -6 1 -2 -5 4 -7 13 -12 21 -12 7 0 12 -10 11 -25 0 -14 -4 -25 -8 -25
-12 0 -38 -57 -38 -84 0 -26 -1 -26 -65 -21 -36 3 -65 1 -65 -3 0 -8 42 -15
105 -15 34 -1 40 2 37 19 -2 16 0 15 18 -6 11 -14 23 -35 26 -47 3 -13 10 -23
15 -23 5 0 9 -5 9 -11 0 -17 42 -50 59 -47 23 5 25 28 2 28 -12 0 -21 5 -21
10 0 6 -9 19 -20 30 -11 11 -16 20 -10 20 5 0 7 6 4 13 -5 14 72 18 93 4 7 -5
20 -4 30 1 14 9 14 10 -6 17 -25 7 -25 40 -1 40 12 0 16 16 18 72 3 85 16 98
88 88 47 -6 56 2 24 23 -29 18 -16 32 23 26 19 -3 39 0 51 9 16 12 11 13 -45
9 -64 -4 -116 -21 -91 -30 16 -5 5 -22 -14 -22 -13 0 -14 13 -9 78 12 145 17
181 30 201 3 5 7 22 9 38 2 15 9 42 14 58 24 69 32 103 32 126 1 24 1 24 16 4
26 -33 72 -138 80 -177 3 -21 12 -38 19 -38 7 0 11 -10 9 -25 -2 -24 26 -121
45 -155 5 -9 12 -30 15 -48 4 -17 12 -34 17 -37 15 -10 10 -28 -6 -22 -8 4
-17 2 -20 -3 -4 -6 0 -10 7 -10 15 0 48 -35 48 -50 0 -5 6 -7 13 -4 13 4 18
64 6 64 -8 0 -30 62 -64 183 -15 53 -32 97 -36 97 -5 0 -6 7 -3 15 4 8 1 15
-6 15 -6 0 -9 4 -5 9 7 12 -33 120 -52 143 -8 9 -12 22 -8 27 3 6 -1 14 -9 17
-9 3 -16 12 -16 19 0 7 -6 18 -14 24 -8 6 -16 22 -18 35 -4 18 1 27 19 35 30
14 50 14 55 1 2 -7 44 -11 106 -12 100 0 102 -1 102 -24 0 -12 -4 -25 -9 -28
-4 -3 -11 -26 -14 -50 -4 -25 -14 -57 -24 -73 -22 -34 -62 -42 -70 -13 -3 11
-12 20 -19 20 -8 0 -14 7 -14 15 0 8 -6 15 -12 15 -10 0 -9 3 1 9 11 7 9 11
-9 21 -30 16 -34 8 -16 -28 8 -16 12 -32 9 -36 -4 -3 4 -6 17 -6 18 0 20 -3
11 -13 -8 -11 -5 -19 14 -37 13 -13 22 -27 19 -31 -3 -5 0 -9 7 -9 7 0 10 -3
6 -6 -8 -8 13 -64 24 -64 5 0 9 -6 9 -14 0 -8 4 -26 10 -41 9 -22 12 -24 30
-13 20 13 22 35 2 31 -6 -2 -9 4 -6 12 4 8 1 15 -4 15 -6 0 -9 9 -7 20 2 11 0
20 -5 20 -11 0 -20 27 -14 44 3 8 14 16 24 19 25 6 49 46 52 87 2 19 7 38 12
41 4 4 10 20 12 37 2 17 5 36 6 43 4 18 31 49 42 49 6 0 6 -4 0 -10 -6 -6 -8
-31 -4 -61 4 -27 3 -52 -1 -55 -5 -3 -9 -31 -9 -62 -2 -112 -5 -162 -12 -162
-14 0 -20 -62 -7 -71 8 -5 9 -9 3 -9 -6 0 -14 -14 -18 -31 -6 -32 -26 -31 -26
2 0 23 -27 36 -43 20 -8 -8 -6 -18 9 -38 45 -61 48 -118 8 -134 -17 -7 -17 -8
-1 -8 10 -1 15 -6 12 -11 -4 -6 -11 -8 -16 -5 -8 5 -14 -32 -10 -57 0 -5 -6
-8 -14 -8 -8 0 -15 -4 -15 -10 0 -5 7 -10 15 -10 12 0 13 -4 5 -19 -13 -25
-13 -61 0 -61 6 0 10 -4 10 -10 0 -5 -3 -9 -7 -9 -25 4 -63 -2 -63 -11 0 -5
29 -8 68 -6 87 4 84 4 76 19 -6 9 -5 9 7 1 9 -8 42 -10 94 -7 44 2 107 6 140
7 74 4 75 4 75 14 0 4 -51 7 -114 5 l-114 -2 -6 34 c-6 32 7 106 23 130 3 6 6
24 7 40 0 17 4 41 7 55 4 14 8 74 11 133 3 89 7 112 22 128 11 10 28 28 38 39
19 20 19 20 35 -3 9 -12 17 -35 19 -52 4 -34 29 -85 41 -85 5 0 8 -7 7 -16 -3
-20 11 -60 47 -134 37 -76 46 -85 90 -86 32 0 46 -9 95 -57 54 -53 84 -68 96
-49 3 5 6 29 8 55 2 38 6 47 22 47 18 0 18 1 3 18 -14 15 -14 23 -1 82 9 36
28 124 44 195 16 72 36 150 45 175 9 25 17 75 18 113 1 56 3 67 18 67 10 0 21
-13 28 -31 11 -33 33 -32 24 1 -3 11 -1 26 5 33 12 15 90 13 105 -2 8 -8 8
-11 0 -11 -15 0 -23 -48 -9 -54 7 -3 7 -5 -1 -5 -18 -1 -17 -51 1 -51 9 0 14
12 14 37 0 21 5 39 11 41 6 2 11 11 11 20 0 34 56 45 242 49 195 4 196 4 141
-55 l-23 -25 20 -19 c21 -20 27 -34 10 -23 -9 6 -11 1 -14 -37 -1 -7 -15 -28
-33 -47 -18 -20 -31 -37 -29 -38 7 -7 35 10 30 18 -3 5 5 9 17 9 15 0 19 -3
12 -12 -5 -7 -10 -29 -12 -48 -4 -69 -28 -170 -41 -170 -3 0 -4 29 -2 65 4 58
2 65 -14 65 -22 0 -44 -43 -42 -80 1 -14 10 -37 20 -52 18 -26 18 -27 -3 -33
-19 -6 -20 -8 -3 -26 15 -17 15 -19 1 -19 -13 0 -15 -9 -12 -45 3 -25 0 -47
-6 -51 -6 -3 -60 -7 -120 -8 -119 -3 -111 -7 -124 67 -3 20 -10 37 -15 37 -6
0 -8 -10 -6 -22 3 -13 5 -23 6 -23 1 0 4 -12 6 -27 3 -30 -23 -52 -49 -42 -15
5 -34 -13 -24 -22 3 -3 22 -1 43 5 20 6 42 7 48 3 6 -3 44 -5 85 -3 69 3 73 2
66 -16 -13 -31 -13 -67 0 -80 19 -18 33 4 37 57 2 32 8 45 18 45 12 0 15 -14
15 -65 0 -36 -4 -71 -9 -77 -5 -8 -4 -13 3 -13 7 0 0 -11 -15 -25 l-27 -25 27
0 c15 0 34 -7 42 -15 20 -20 40 -20 24 0 -11 13 -10 14 10 7 27 -10 72 -4 64
9 -3 5 0 9 5 9 6 0 11 -3 11 -7 0 -5 14 -9 30 -10 l30 -2 0 57 c0 31 3 81 6
110 6 46 9 52 30 52 15 0 24 6 24 16 0 8 -4 13 -9 10 -4 -3 -16 0 -25 7 -13
10 -15 18 -7 42 6 17 12 41 14 55 2 14 7 33 10 43 15 39 16 47 5 47 -7 0 -5 5
4 13 8 6 23 49 33 95 15 66 22 82 37 82 10 0 18 5 18 10 0 6 -4 10 -10 10 -5
0 -10 10 -10 23 1 21 2 20 25 -8 14 -16 25 -33 25 -37 0 -4 20 -37 45 -74 25
-36 45 -69 45 -75 0 -5 4 -9 9 -9 13 0 1 43 -16 57 -8 6 -14 15 -14 20 0 9
-33 79 -51 108 -7 11 -23 36 -36 57 -22 35 -23 37 -7 68 9 17 15 41 13 53 -3
24 -6 24 -100 12 -53 -7 -56 -6 -52 13 5 16 12 19 47 15 23 -3 96 3 162 13 66
9 143 18 171 19 28 1 56 5 63 9 9 6 10 0 5 -21 -4 -15 -10 -32 -14 -38 -6 -8
-17 -57 -34 -155 -2 -8 -8 -28 -15 -43 -6 -16 -11 -32 -11 -37 0 -10 -32 -82
-40 -90 -3 -3 -6 -12 -8 -20 -2 -8 -10 -18 -17 -23 -7 -4 -16 -26 -20 -50 -4
-23 -16 -59 -26 -80 -10 -21 -16 -52 -14 -68 3 -23 0 -29 -16 -29 -10 0 -19
-5 -19 -11 0 -6 -9 -8 -20 -4 -39 12 -69 15 -74 6 -3 -4 -17 -7 -31 -5 -17 1
-25 -2 -22 -9 2 -7 15 -11 28 -11 13 1 51 3 84 5 l59 3 -3 -52 c-2 -52 2 -60
41 -66 7 -1 18 -5 24 -8 15 -10 58 -1 62 12 2 5 8 10 13 10 4 0 6 -7 2 -16 -5
-14 -3 -15 12 -6 13 6 24 34 35 79 15 67 16 68 50 71 19 2 41 8 47 14 7 6 20
8 28 4 8 -3 30 -3 47 1 27 5 29 7 13 14 -17 6 -16 8 8 8 16 1 26 -3 22 -9 -9
-14 78 -13 110 2 22 10 28 9 36 -3 5 -8 9 -9 9 -3 0 6 14 8 33 6 17 -2 52 -6
77 -8 25 -1 47 -3 50 -4 12 -1 -28 -21 -62 -30 -21 -6 -38 -15 -38 -20 0 -6
-12 -10 -26 -10 -15 0 -68 -20 -120 -45 -51 -25 -99 -45 -108 -45 -8 0 -17 -4
-20 -9 -3 -5 -23 -12 -43 -16 -21 -4 -43 -11 -50 -17 -7 -5 -56 -12 -110 -14
-54 -2 -120 -6 -148 -8 -27 -2 -60 -4 -72 -5 -33 -2 -17 -31 16 -31 15 0 31 3
34 7 7 7 20 8 147 16 41 3 67 3 58 0 -10 -2 -18 -11 -18 -19 0 -9 -6 -22 -14
-29 -9 -10 -11 -26 -6 -59 4 -25 4 -46 0 -46 -4 0 -6 -42 -4 -92 2 -51 4 -93
4 -93 2 0 0 -159 -3 -295 -1 -47 -6 -88 -11 -91 -5 -4 -6 -15 -2 -25 7 -18 8
-18 22 1 8 10 14 35 14 55 0 19 2 134 5 255 3 121 6 249 7 285 1 96 12 119 59
126 21 4 44 13 50 20 6 8 18 14 25 14 8 0 14 4 14 9 0 5 12 12 28 16 38 9 160
62 172 75 12 12 38 7 33 -6 -6 -16 6 -18 27 -4 12 8 13 12 2 19 -11 6 -9 10 7
14 12 3 19 1 15 -4 -3 -5 0 -9 5 -9 6 0 11 6 11 13 0 10 128 77 148 77 4 0 14
-15 22 -32 14 -32 15 -32 18 -8 8 50 42 66 63 29 12 -22 19 -159 9 -159 -3 0
-6 -27 -6 -60 1 -33 -2 -60 -6 -60 -5 0 -8 -9 -8 -21 0 -11 5 -17 10 -14 6 3
10 -1 10 -9 0 -8 -4 -18 -10 -21 -15 -9 -12 -55 4 -55 16 0 29 45 32 110 1 25
3 47 4 50 12 33 17 216 6 242 -4 9 -16 18 -27 21 -29 8 -23 25 14 36 17 5 25
10 16 10 -15 1 -23 31 -9 31 12 0 -2 52 -19 73 -9 11 -26 29 -38 40 -12 11
-21 23 -18 26 2 4 -10 16 -26 26 -17 11 -40 36 -51 55 -12 19 -37 53 -55 75
-49 58 -53 63 -53 73 0 5 -22 31 -49 59 -77 77 -129 96 -103 38 6 -13 17 -22
24 -20 7 3 18 -5 23 -17 6 -13 16 -22 24 -20 7 1 20 -16 29 -38 9 -22 25 -43
35 -46 9 -3 17 -13 17 -23 0 -21 30 -51 51 -51 9 0 15 -10 14 -27 0 -18 7 -31
21 -38 11 -5 19 -15 17 -22 -2 -6 1 -14 6 -18 6 -3 11 -1 11 6 0 8 4 8 15 -1
8 -7 15 -19 15 -26 0 -8 7 -14 16 -14 14 0 14 -3 4 -15 -8 -9 -8 -15 -2 -15 6
0 13 -9 17 -19 3 -11 12 -18 19 -15 7 3 13 -2 13 -11 0 -8 -4 -15 -8 -15 -4 0
-14 -12 -21 -27 -10 -21 -20 -28 -43 -28 -25 0 -30 4 -29 23 0 12 -3 22 -7 22
-5 0 -23 17 -41 37 -18 20 -42 46 -53 58 -11 11 -21 25 -22 30 -2 6 -11 19
-20 30 -10 11 -18 24 -18 28 0 5 -20 26 -45 48 -24 21 -40 39 -36 39 5 0 3 8
-5 18 -8 9 -21 30 -29 46 -8 16 -26 41 -40 56 -14 15 -24 32 -22 38 2 6 -6 16
-16 24 -11 7 -19 17 -19 22 0 4 -17 28 -37 51 -20 25 -32 47 -26 50 5 3 10 1
10 -5 0 -7 8 -9 20 -5 14 4 18 2 15 -7 -7 -19 61 -51 83 -39 15 9 15 10 -3 17
-11 4 -25 15 -32 24 -18 26 -92 55 -105 42 -14 -14 -38 -4 -38 15 0 12 -8 14
-33 9 -26 -5 -36 -2 -47 14 -16 22 -90 29 -90 8 0 -6 -7 -4 -18 5 -21 19 -68
22 -108 7 -15 -6 -30 -7 -33 -3 -3 4 -25 8 -48 9 -88 2 -95 4 -90 18 3 7 0 19
-6 25 -8 8 -8 11 1 11 15 0 8 103 -8 108 -5 2 -10 8 -10 14 0 6 -11 21 -26 34
-28 27 -67 33 -58 9 3 -8 9 -14 12 -13 45 5 66 -30 70 -115 3 -46 -1 -63 -17
-84 -12 -14 -21 -23 -21 -20 0 4 -11 2 -24 -3 -14 -5 -27 -5 -33 1 -6 6 -20 6
-37 -1 -18 -7 -40 -7 -61 -1 -18 5 -38 5 -46 0 -19 -12 -32 -11 -24 1 4 6 -5
10 -19 10 -14 0 -25 3 -25 8 3 20 -3 32 -17 32 -11 0 -14 -6 -9 -21 7 -21 -14
-46 -25 -30 -3 5 -36 11 -73 13 -56 5 -67 3 -63 -8 6 -15 -19 -20 -28 -6 -3 5
-36 7 -73 5 -37 -3 -93 -4 -123 -4 -104 2 -144 0 -154 -7 -6 -4 -24 -7 -41 -7
-21 0 -29 -4 -27 -15 3 -11 1 -12 -8 -3 -8 7 -22 8 -41 3 -16 -5 -42 -5 -57
-1 -15 5 -50 5 -77 1 -40 -6 -54 -5 -68 8 -10 9 -25 17 -33 18 -24 4 -28 12
-14 30 11 13 11 17 0 24 -7 4 -10 15 -7 25 8 19 -16 70 -39 83 -8 5 -16 16
-18 26 -1 10 -7 21 -12 24 -14 10 -19 49 -16 124 l2 46 29 -26 c56 -52 95 -70
107 -50 4 7 9 6 14 -2 8 -13 7 -13 50 39 22 27 23 30 11 49 -6 10 -13 5 -28
-20 -18 -31 -24 -34 -56 -30 -20 2 -35 8 -32 12 2 4 -20 33 -50 65 -30 32 -55
62 -55 66 0 5 -28 9 -62 9 -60 0 -61 0 -43 -20z m69 -72 c3 -13 6 -34 6 -48 0
-24 -3 -25 -55 -25 -55 0 -56 1 -50 25 7 28 52 69 76 70 9 0 19 -10 23 -22z
m-34 -122 c0 -3 -4 -8 -10 -11 -5 -3 -10 -1 -10 4 0 6 5 11 10 11 6 0 10 -2
10 -4z m36 -61 c8 -10 14 -26 14 -35 0 -9 9 -25 19 -34 10 -10 24 -37 30 -62
10 -39 9 -50 -9 -90 -19 -40 -24 -45 -45 -40 -13 3 -27 1 -31 -5 -9 -15 -24 8
-24 38 0 12 -5 23 -10 25 -10 3 -20 159 -12 191 2 9 11 17 19 17 8 0 12 4 9 9
-11 18 27 4 40 -14z m-301 -25 c87 -14 105 -19 105 -30 0 -6 -17 -10 -38 -10
-73 0 -247 -30 -258 -45 -16 -22 -23 -8 -17 33 7 48 18 60 56 65 33 5 49 3
152 -13z m132 -66 c-3 -3 -12 -4 -19 -1 -8 3 -5 6 6 6 11 1 17 -2 13 -5z m59
-80 c7 -38 13 -76 13 -84 1 -13 -22 -15 -137 -18 -75 -1 -155 -3 -177 -4 -22
-1 -57 -1 -78 0 l-38 2 6 38 c13 80 14 82 43 82 19 0 23 3 13 9 -8 5 -9 11 -3
15 6 3 14 2 17 -4 5 -8 14 -6 30 4 13 9 26 12 29 7 4 -5 24 -4 48 3 24 7 69
11 101 10 32 -2 68 1 80 6 35 14 40 8 53 -66z m1861 -87 c3 -5 1 -7 -5 -3 -5
3 -12 2 -14 -3 -1 -5 -32 -12 -68 -14 -36 -3 -65 -6 -65 -7 0 -1 -11 -3 -25
-4 -14 -2 -35 -8 -46 -14 -12 -6 -24 -9 -27 -5 -4 3 -41 7 -84 9 -50 1 -71 -1
-58 -6 29 -12 -6 -13 -38 -1 -14 6 -28 7 -31 4 -8 -9 -38 -11 -206 -16 -80 -3
-157 -10 -172 -16 -17 -6 -28 -6 -30 0 -2 6 -22 6 -57 -1 -80 -15 -90 -13
-109 20 -22 39 -46 41 -31 4 12 -34 10 -36 -32 -24 -18 6 -46 10 -61 10 -21 0
-28 5 -28 20 0 35 -28 22 -47 -22 -11 -24 -19 -28 -53 -28 -22 0 -40 -3 -40
-7 0 -9 -25 -11 -137 -15 -39 -2 -69 -7 -66 -11 3 -5 -4 -4 -16 2 -11 6 -32 9
-46 5 -23 -6 -25 -3 -25 24 0 19 -7 35 -17 41 -31 19 4 30 95 30 80 0 176 7
232 17 105 19 847 22 880 4 14 -8 20 -8 16 -1 -9 13 -18 12 184 20 178 6 217
4 227 -12z m-1881 -47 l35 0 -5 -42 c-3 -24 -5 -44 -5 -44 -4 -7 -42 -10 -46
-4 -3 5 -43 9 -88 8 -45 -1 -90 2 -99 7 -10 4 -36 5 -58 3 -22 -2 -40 -1 -40
2 0 3 3 15 6 27 7 24 25 29 149 39 44 3 82 8 84 10 3 3 11 2 19 -1 7 -3 29 -5
48 -5z m134 -11 c-9 -15 -31 -29 -48 -29 -4 0 -7 10 -7 23 0 19 5 23 32 23 26
0 30 -3 23 -17z m1920 -66 c6 -7 8 -13 5 -13 -3 0 -1 -9 5 -20 6 -11 15 -18
21 -15 8 6 13 -8 10 -27 0 -5 3 -8 8 -8 5 0 13 -10 17 -22 4 -13 17 -36 30
-51 13 -16 24 -37 24 -48 0 -11 7 -19 16 -19 8 0 12 -4 9 -10 -3 -5 -1 -10 4
-10 6 0 11 -7 11 -15 0 -8 11 -22 24 -31 14 -8 34 -31 45 -50 11 -19 27 -34
36 -34 8 0 15 -7 15 -15 0 -8 9 -15 20 -15 15 0 20 -7 20 -28 0 -15 5 -33 12
-40 17 -17 0 -19 -64 -6 -18 4 -43 6 -55 5 -12 0 -25 4 -28 9 -4 6 -11 8 -16
4 -14 -8 37 -34 65 -34 30 0 38 -10 21 -26 -14 -15 -29 -19 -22 -6 3 4 -19 7
-48 7 -29 0 -51 -4 -48 -9 4 -5 0 -6 -8 -1 -7 5 -31 8 -52 6 -28 -2 -37 1 -32
9 6 9 2 9 -14 1 -12 -7 -26 -9 -31 -6 -6 3 -10 0 -11 -7 0 -10 -2 -10 -6 0 -3
9 -18 11 -53 6 l-49 -6 5 48 c9 96 11 109 22 130 15 28 24 76 27 142 1 29 5
55 8 58 4 4 2 16 -4 27 -7 11 -7 17 -1 13 5 -3 12 8 14 24 3 17 1 30 -3 30 -5
0 -6 7 -2 16 3 9 0 20 -8 26 -11 7 -11 11 -1 15 9 4 7 13 -8 38 -29 47 -3 52
32 6 15 -20 32 -42 38 -48z m-2494 52 c25 -19 34 -19 34 0 0 13 7 15 38 9 20
-4 38 -8 40 -9 1 -1 -5 -15 -13 -31 -14 -29 -17 -30 -92 -32 -43 -1 -115 -4
-161 -6 -65 -3 -84 -1 -89 10 -6 17 -33 19 -33 2 0 -9 -18 -12 -62 -11 -35 1
-71 2 -81 3 -10 0 -15 5 -12 10 8 13 -8 13 -21 0 -14 -14 -36 4 -28 23 7 19
25 25 79 27 63 3 142 -2 118 -7 -13 -2 -23 -8 -23 -12 0 -11 36 -7 52 7 8 6
38 14 68 17 30 4 57 8 59 11 11 11 109 3 127 -11z m649 -33 c1 -15 -4 -22 -17
-22 -19 0 -24 15 -8 25 6 4 7 11 4 17 -4 6 -1 9 6 6 8 -2 14 -14 15 -26z
m-1490 -17 c1 -20 -3 -22 -36 -18 -20 3 -53 0 -74 -7 -20 -7 -59 -13 -85 -14
-39 -1 -50 2 -54 16 -2 11 1 18 10 18 8 0 14 5 14 11 0 6 6 9 13 7 6 -3 55 0
107 7 52 6 97 9 100 7 3 -2 5 -14 5 -27z m281 3 l1 -30 -109 5 c-112 5 -135
13 -124 42 5 13 23 16 118 14 l113 -1 1 -30z m-571 -28 c7 -21 0 -40 -15 -40
-5 0 -8 13 -7 30 2 34 13 39 22 10z m2351 -62 c-3 -38 -13 -82 -21 -97 -18
-35 -35 -107 -42 -181 -3 -30 -9 -62 -13 -70 -9 -18 -35 -151 -32 -163 1 -4
-3 -14 -10 -21 -15 -15 -60 -28 -52 -15 3 5 1 9 -3 9 -10 0 -9 48 2 111 9 51
12 80 20 169 3 36 10 81 15 100 5 19 12 69 15 110 8 101 11 110 43 110 15 0
33 4 41 9 8 5 21 7 29 4 11 -5 13 -20 8 -75z m-155 40 c0 -13 2 -32 4 -43 2
-11 0 -22 -5 -25 -10 -6 -20 -65 -24 -135 -1 -23 -6 -46 -10 -53 -4 -7 -3 -19
4 -27 8 -10 8 -15 -1 -20 -7 -5 -9 -21 -6 -41 4 -21 2 -34 -5 -34 -6 0 -8 -11
-6 -24 3 -13 -1 -31 -7 -40 -11 -14 -14 -13 -25 13 -6 16 -18 32 -27 35 -8 3
-11 10 -8 16 3 5 1 10 -4 10 -6 0 -11 5 -11 12 0 12 -79 121 -92 126 -4 2 -8
10 -8 18 0 8 -7 17 -15 20 -8 4 -15 13 -15 21 0 8 -4 11 -10 8 -5 -3 -10 1
-10 10 0 9 -4 13 -10 10 -5 -3 -7 0 -4 8 3 8 -1 17 -9 20 -14 5 -43 105 -34
114 2 2 47 4 100 5 53 1 101 4 106 7 5 4 37 8 70 9 58 3 61 2 62 -20z m-434
-17 c7 -19 7 -33 1 -39 -6 -6 -12 -33 -14 -61 -1 -28 -5 -55 -9 -61 -6 -10
-19 -176 -17 -230 3 -81 -10 -160 -29 -182 -18 -21 -20 -22 -29 -5 -6 9 -21
17 -33 18 -15 0 -17 2 -7 6 8 3 18 11 22 17 7 11 24 81 33 142 3 16 8 45 11
64 7 36 9 66 18 250 3 58 5 106 6 108 0 1 8 2 18 2 10 0 22 -12 29 -29z m-572
11 c12 -8 15 -52 4 -52 -6 0 -16 -37 -23 -86 -1 -11 -5 -24 -8 -30 -7 -12 -19
-61 -24 -98 -2 -16 -8 -34 -14 -40 -5 -5 -10 -18 -10 -28 0 -18 -15 -50 -37
-78 -7 -9 -15 -31 -18 -50 -13 -77 -24 -86 -64 -51 -15 13 -18 21 -10 26 8 6
7 10 -2 16 -11 7 -10 9 5 9 14 0 16 3 7 13 -6 8 -13 29 -15 48 -3 19 -6 35 -7
37 -1 1 -2 5 -4 10 -1 4 -4 14 -7 22 -3 8 -14 41 -23 73 -9 31 -20 57 -25 57
-4 0 -11 17 -15 37 -4 21 -12 41 -18 45 -8 5 -6 8 6 8 9 0 17 6 17 14 0 8 3
16 8 19 9 5 -11 -1 -35 -9 -15 -6 -16 -4 -5 7 14 15 16 33 2 24 -5 -3 -17 -2
-27 3 -50 26 -72 34 -80 29 -4 -3 -19 1 -33 9 -23 13 -16 14 72 12 80 -2 97
-5 95 -18 -1 -8 3 -16 8 -17 6 -2 10 3 10 9 0 23 243 49 270 30z m71 -55 c-2
-29 -4 -53 -5 -54 -1 -2 -2 -6 -2 -10 -1 -5 -6 -19 -11 -33 -5 -14 -12 -32
-14 -40 -2 -8 -13 -46 -24 -84 -11 -38 -17 -73 -14 -77 3 -5 1 -9 -4 -9 -5 0
-10 -26 -11 -57 -2 -55 -7 -130 -10 -145 -2 -9 -41 3 -41 13 0 5 -7 9 -16 9
-11 0 -14 5 -9 18 3 9 9 29 12 45 5 26 23 38 23 15 0 -6 3 -8 7 -4 5 4 1 13
-7 19 -18 14 -18 22 -2 57 11 23 43 137 72 255 36 146 65 188 56 82z m-986 43
c0 -6 12 -29 27 -53 29 -44 41 -97 23 -97 -6 0 -15 12 -22 28 -23 58 -43 92
-56 97 -8 3 -29 -4 -46 -15 -17 -11 -25 -20 -18 -20 6 0 12 -8 12 -18 0 -11 9
-27 20 -37 11 -10 24 -34 30 -53 15 -54 -3 -68 -42 -32 -12 11 -16 20 -10 20
16 0 15 16 -1 32 -8 7 -12 21 -9 32 4 14 -7 30 -38 57 -24 21 -41 42 -37 45 4
4 37 11 75 14 37 4 73 8 80 9 6 0 12 -4 12 -9z m293 -17 c-6 -53 -34 -177 -41
-182 -4 -3 -8 -17 -7 -31 0 -14 -6 -35 -13 -48 -7 -12 -10 -27 -7 -32 3 -5 1
-11 -4 -14 -5 -4 -8 -19 -7 -34 2 -16 -3 -32 -13 -39 -11 -9 -13 -15 -5 -20 9
-6 9 -11 0 -19 -11 -11 -34 3 -38 23 -5 26 -24 63 -31 63 -4 0 -5 5 -2 10 3 6
-1 13 -9 16 -9 3 -16 12 -16 20 0 7 -6 17 -12 21 -12 8 -16 21 -22 69 -1 11
-5 25 -9 31 -4 6 2 13 14 16 12 3 18 10 15 16 -4 5 2 14 11 20 17 9 17 10 1
16 -21 8 -24 31 -5 38 7 4 3 8 -10 12 -13 4 -20 11 -17 16 3 5 1 9 -4 9 -7 0
-10 41 -3 46 0 1 54 0 119 -2 106 -3 117 -5 115 -21z m92 -20 c0 -23 3 -44 7
-48 4 -4 1 -14 -7 -22 -8 -8 -15 -22 -16 -31 0 -9 -3 -25 -5 -34 -3 -10 -7
-31 -10 -46 -3 -16 -17 -42 -30 -57 -13 -15 -25 -33 -26 -39 -1 -13 -5 -28 -8
-38 -1 -5 -3 -11 -4 -15 -1 -5 -7 -18 -14 -30 -7 -13 -10 -23 -7 -23 3 0 -2
-16 -10 -36 -8 -20 -15 -49 -15 -65 0 -15 -4 -31 -10 -34 -6 -4 -10 12 -10 41
0 41 6 69 28 134 3 8 6 20 7 25 8 62 20 117 32 150 8 22 16 47 18 55 2 8 8 37
15 64 6 27 8 51 5 54 -9 9 28 43 44 40 11 -2 16 -15 16 -45z m2449 -15 c14
-29 16 -45 9 -57 -5 -9 -9 -28 -9 -43 1 -15 -4 -30 -11 -32 -7 -3 -13 -16 -13
-28 0 -13 -6 -35 -14 -50 -10 -20 -11 -29 -2 -38 8 -9 8 -14 -1 -17 -7 -2 -9
-11 -6 -19 3 -8 1 -14 -5 -14 -10 0 -21 -44 -31 -130 -6 -54 -7 -55 -38 -55
-18 0 -33 -3 -33 -7 0 -5 -9 -8 -20 -8 -22 0 -27 15 -8 26 7 5 5 11 -7 21 -14
9 -15 13 -4 13 17 0 64 142 55 166 -3 8 -2 12 3 9 11 -6 17 12 27 80 3 28 10
55 14 60 4 6 11 37 16 70 4 33 8 62 9 65 16 49 43 44 69 -12z m-3121 -7 c-7
-22 -17 -45 -57 -133 -20 -43 -36 -84 -36 -92 0 -8 -5 -16 -10 -18 -6 -2 -12
-13 -13 -26 0 -12 -7 -22 -13 -22 -7 0 -10 -8 -7 -20 3 -11 0 -20 -6 -20 -10
0 -71 -119 -71 -140 0 -6 -11 -33 -25 -60 -14 -27 -22 -55 -20 -63 3 -7 -3
-24 -15 -37 -11 -13 -20 -37 -20 -54 0 -27 -4 -32 -25 -34 -23 -2 -25 1 -19
26 4 15 11 29 16 30 4 2 8 16 8 32 0 16 3 30 8 32 9 4 28 44 83 173 24 55 46
102 49 105 12 11 31 53 54 117 13 37 31 82 40 98 9 17 16 34 16 38 0 12 31 78
43 95 13 17 28 -3 20 -27z m72 29 c-3 -5 -1 -10 4 -10 6 0 11 -5 11 -11 0 -7
6 -17 14 -23 24 -18 74 -123 65 -137 -4 -7 -3 -23 2 -37 7 -18 6 -29 -6 -42
-8 -9 -15 -20 -15 -25 0 -5 -7 -17 -17 -27 -15 -17 -15 -18 5 -18 11 0 22 -4
24 -9 2 -6 14 -11 28 -13 21 -3 82 -48 65 -48 -3 0 0 -10 7 -22 7 -13 12 -27
13 -31 0 -4 5 -11 10 -15 6 -4 10 -16 10 -27 0 -18 -7 -20 -66 -21 -54 -1
-120 -9 -149 -19 -15 -5 -48 -18 -70 -28 -14 -5 -34 -9 -45 -8 -16 2 -17 0 -5
-8 12 -9 8 -17 -25 -51 -21 -22 -47 -40 -56 -40 -10 0 -21 -4 -24 -10 -3 -5
-15 -10 -25 -10 -10 0 -25 -7 -34 -15 -8 -8 -19 -15 -25 -15 -14 0 -14 37 0
46 6 3 9 15 6 25 -3 11 -1 19 4 19 5 0 9 11 9 24 0 27 23 35 98 31 26 -2 39
-1 29 2 -9 2 -15 9 -12 14 4 5 0 10 -7 10 -7 1 -20 3 -28 4 -8 1 -23 3 -32 4
-16 1 -23 41 -7 41 4 0 10 12 14 28 4 15 5 27 3 27 -1 0 7 15 20 33 15 20 19
32 11 32 -9 0 -8 4 3 13 33 26 158 307 158 355 0 16 6 22 21 22 11 0 17 -4 14
-10z m3446 -101 c1 -43 -1 -56 -21 -154 -18 -87 -21 -98 -30 -115 -5 -10 -7
-20 -4 -23 14 -14 -9 -69 -32 -78 -58 -21 -71 -21 -77 0 -3 12 0 21 6 22 8 0
7 2 -1 6 -10 4 -10 8 -1 19 7 8 9 17 5 21 -3 3 1 15 11 25 12 13 13 18 3 18
-9 0 -7 5 6 15 14 11 16 15 4 15 -12 0 -11 3 3 11 9 6 15 14 12 19 -3 5 -1 11
5 15 5 3 10 15 10 26 0 11 9 29 20 41 10 12 17 25 14 30 -3 4 0 8 5 8 6 0 11
18 11 40 0 28 4 40 14 40 8 0 17 12 20 26 9 36 15 26 17 -27z m-2724 19 c18
-41 10 -69 -19 -67 -10 0 -10 2 -1 6 10 3 9 11 -2 33 -8 16 -15 34 -15 40 0
19 27 10 37 -12z m1020 -30 c-3 -7 -5 -2 -5 12 0 14 2 19 5 13 2 -7 2 -19 0
-25z m-1087 12 c0 -5 0 -13 -1 -16 0 -4 3 -10 8 -13 17 -12 32 -58 22 -68 -14
-14 -2 -39 27 -58 26 -17 33 -38 10 -29 -9 4 -22 -11 -37 -45 -13 -28 -30 -50
-36 -51 -7 0 -13 -7 -13 -15 0 -8 -6 -15 -14 -15 -23 0 -30 -21 -9 -26 14 -4
19 -14 19 -39 0 -19 -4 -31 -8 -29 -5 3 -22 -2 -40 -10 -34 -17 -52 -21 -29
-7 19 12 22 71 4 78 -8 3 -12 12 -9 19 3 8 0 13 -6 11 -22 -4 -19 32 6 90 69
160 86 203 86 217 0 9 5 16 10 16 6 0 10 -4 10 -10z m168 -74 c0 -13 7 -39 16
-56 9 -18 16 -39 16 -46 0 -7 5 -14 10 -16 6 -2 13 -21 17 -43 9 -70 11 -80
13 -80 2 0 4 -9 5 -20 2 -11 6 -28 10 -37 8 -19 3 -21 -33 -12 -18 5 -22 13
-20 33 2 14 -3 31 -11 37 -11 9 -36 64 -44 99 -1 5 -14 33 -29 63 -33 62 -32
56 -11 77 14 14 14 18 2 26 -11 7 -11 9 4 9 9 0 17 5 17 12 0 6 8 4 19 -6 10
-9 19 -27 19 -40z m1065 -10 c9 -7 17 -18 17 -24 0 -5 7 -12 15 -16 8 -3 15
-12 15 -19 0 -8 9 -22 20 -32 11 -10 18 -20 15 -23 -2 -2 7 -19 20 -37 14 -17
22 -35 18 -38 -3 -4 1 -7 10 -7 10 0 18 -6 19 -12 0 -7 2 -17 3 -23 2 -5 3
-15 4 -22 0 -7 7 -10 14 -7 10 3 13 -6 13 -37 -1 -35 -5 -43 -26 -51 -41 -15
-65 -2 -90 49 -13 27 -30 60 -37 76 -8 15 -11 27 -7 27 3 0 2 6 -4 13 -5 6
-13 27 -17 45 -3 17 -11 32 -17 32 -6 0 -8 6 -5 14 3 8 -1 20 -8 26 -18 15
-10 31 10 23 19 -7 19 2 -1 32 -18 27 -9 32 19 11z m2087 -11 c14 -16 10 -18
-14 -9 -9 3 -16 10 -16 15 0 14 16 11 30 -6z m-3805 -15 c-3 -5 -3 -15 1 -21
4 -8 9 -7 15 2 13 21 42 -2 54 -42 5 -19 14 -40 19 -48 6 -10 3 -18 -9 -28
-25 -17 -45 -17 -45 2 0 11 -11 15 -43 15 -24 0 -46 3 -50 6 -11 11 5 34 23
34 21 0 32 34 17 49 -6 6 -7 11 -3 11 5 0 3 7 -4 15 -10 13 -9 15 9 15 12 0
19 -4 16 -10z m550 -20 c-3 -5 -10 -10 -16 -10 -5 0 -9 5 -9 10 0 6 7 10 16
10 8 0 12 -4 9 -10z m50 -117 c11 -20 20 -39 20 -42 2 -19 18 -51 26 -51 14 0
11 -40 -3 -41 -7 -1 -47 -2 -89 -3 -58 -2 -76 1 -72 10 3 7 11 10 19 7 14 -5
21 6 27 42 1 11 6 26 10 33 5 6 5 17 2 22 -3 6 -2 10 3 10 5 0 7 11 4 25 -7
41 29 32 53 -12z m-457 -66 c17 -18 33 -41 35 -52 2 -11 7 -28 12 -37 4 -10 4
-25 1 -34 -5 -13 -9 -14 -21 -4 -8 6 -18 9 -24 6 -9 -6 -26 21 -23 37 1 4 -5
7 -14 7 -8 0 -12 5 -9 10 4 6 -3 29 -14 51 -26 49 -26 49 2 49 13 0 37 -14 55
-33z m3569 -3 c-3 -3 -12 -4 -19 -1 -8 3 -5 6 6 6 11 1 17 -2 13 -5z m-3377
-99 c0 -8 -4 -15 -10 -15 -5 0 -10 7 -10 15 0 8 5 15 10 15 6 0 10 -7 10 -15z
m2859 -7 c-6 -11 -9 -26 -8 -36 3 -37 -1 -41 -41 -39 -42 1 -44 5 -40 57 3 31
9 35 58 35 36 1 39 -1 31 -17z m-2474 2 c4 -6 10 -8 15 -5 4 3 24 7 43 9 31 4
34 2 30 -15 -3 -10 -14 -19 -25 -19 -11 0 -28 -5 -40 -11 -25 -13 -42 -16
-148 -23 -47 -4 -108 -9 -135 -12 -43 -5 -53 -3 -69 15 -21 23 -21 23 49 22
38 -1 46 1 35 9 -11 7 -3 8 29 4 32 -5 42 -4 37 4 -4 8 -2 10 7 6 8 -3 18 -1
21 5 4 5 29 7 61 4 38 -4 55 -2 55 6 0 14 27 15 35 1z m180 -18 c29 -16 44
-52 23 -52 -6 0 -6 -6 1 -14 7 -9 8 -15 2 -18 -5 -1 -11 -16 -14 -32 -3 -30
-47 -60 -47 -33 0 7 -8 0 -18 -15 -10 -17 -25 -28 -39 -28 -21 0 -22 2 -11 20
7 11 20 20 28 20 12 0 12 2 2 9 -10 6 -9 18 7 58 11 28 17 54 14 57 -4 3 -2 6
4 6 6 0 9 9 6 20 -6 24 2 25 42 2z m1881 -27 c0 -19 -4 -35 -9 -35 -5 0 -8
-15 -7 -32 3 -59 1 -66 -27 -71 -16 -3 -41 -9 -56 -13 l-28 -6 5 48 c3 27 5
59 5 72 1 15 5 21 13 16 8 -5 9 0 6 14 -4 12 -2 20 3 16 5 -3 9 -1 9 5 0 9 25
17 66 20 17 1 20 -5 20 -34z m-2584 -35 c-2 -19 -6 -38 -8 -42 -7 -10 -30 1
-32 15 -1 7 -4 25 -8 40 -6 27 -5 28 22 25 27 -3 29 -6 26 -38z m1798 19 c0
-18 -2 -19 -15 -9 -8 7 -15 16 -15 21 0 5 7 9 15 9 9 0 15 -9 15 -21z m-2160
-5 c0 -2 -9 -4 -20 -4 -11 0 -20 4 -20 9 0 5 9 7 20 4 11 -3 20 -7 20 -9z
m1630 11 c0 -11 -30 -119 -35 -123 -3 -3 -13 1 -21 10 -21 21 -26 84 -8 99 10
8 14 8 14 0 0 -6 5 -11 10 -11 6 0 9 3 9 8 -3 16 2 22 16 22 8 0 15 -2 15 -5z
m-1120 -69 c0 -24 -17 -28 -23 -6 -3 13 0 20 9 20 8 0 14 -6 14 -14z m-96 -13
c8 -21 -10 -41 -24 -27 -11 11 -3 44 10 44 4 0 11 -8 14 -17z m96 -34 c0 -11
-27 -12 -34 -1 -2 4 4 9 15 9 10 1 19 -2 19 -8z m-900 -99 c0 -5 -7 -10 -15
-10 -8 0 -15 5 -15 10 0 6 7 10 15 10 8 0 15 -4 15 -10z"/>
<path d="M5573 2292 c-6 -4 11 -8 38 -9 27 -1 49 2 49 7 0 12 -70 13 -87 2z"/>
<path d="M3830 2403 c0 -5 4 -15 10 -23 11 -18 25 -7 17 15 -6 15 -27 21 -27
8z"/>
<path d="M3867 2354 c-6 -10 9 -42 16 -34 3 3 1 14 -3 24 -3 11 -9 15 -13 10z"/>
<path d="M3905 2260 c4 -6 11 -8 16 -5 14 9 11 15 -7 15 -8 0 -12 -5 -9 -10z"/>
<path d="M2590 3310 c0 -11 42 -31 49 -24 2 2 -2 10 -9 19 -14 17 -40 20 -40
5z"/>
<path d="M2687 3252 c26 -20 25 -32 -5 -90 -12 -23 -19 -42 -17 -42 3 0 -1
-10 -9 -23 -18 -27 -16 -79 3 -85 10 -3 12 1 9 16 -4 13 1 27 12 37 10 9 16
23 13 31 -3 8 1 14 9 14 22 0 43 92 27 122 -14 27 -28 38 -49 38 -11 0 -9 -5
7 -18z"/>
<path d="M5731 3201 c-8 -6 -9 -11 -3 -15 6 -3 14 -1 17 5 9 14 2 20 -14 10z"/>
<path d="M2770 2964 c0 -9 5 -14 12 -12 18 6 21 28 4 28 -9 0 -16 -7 -16 -16z"/>
<path d="M1450 2830 c-9 -6 -10 -10 -3 -10 6 0 15 5 18 10 8 12 4 12 -15 0z"/>
<path d="M3238 2665 c12 -25 23 -35 39 -35 22 0 22 0 5 35 -11 23 -24 35 -38
35 -21 0 -21 -1 -6 -35z"/>
<path d="M4366 2671 c-4 -6 -3 -11 3 -11 5 0 9 -13 9 -29 -1 -15 6 -42 15 -59
8 -18 18 -45 22 -62 4 -16 10 -30 15 -30 5 0 16 -25 25 -55 9 -31 20 -53 25
-50 6 4 10 -5 10 -19 0 -14 5 -26 11 -26 5 0 7 -5 4 -11 -4 -5 4 -27 17 -47
14 -20 27 -45 31 -54 6 -16 27 -26 27 -13 0 14 -43 95 -51 95 -5 0 -8 3 -7 8
3 13 -25 92 -33 92 -4 0 -8 8 -7 18 0 17 -43 127 -56 139 -3 3 -6 15 -6 25 0
10 -7 21 -15 24 -8 4 -12 10 -9 15 2 5 -1 21 -9 35 -9 17 -17 23 -21 15z"/>
<path d="M4437 2596 c-7 -19 27 -54 61 -62 33 -8 64 -33 56 -46 -4 -6 2 -7 15
-3 15 4 21 2 21 -8 0 -15 41 -37 70 -37 11 0 20 5 20 12 0 6 -3 9 -6 5 -12
-12 -79 31 -97 61 -14 24 -25 31 -55 34 -29 2 -40 9 -50 31 -14 30 -27 35 -35
13z"/>
<path d="M4327 2578 c-4 -14 4 -35 22 -62 16 -23 34 -58 42 -79 7 -21 20 -46
29 -55 8 -9 16 -28 17 -42 3 -43 21 -80 37 -74 14 6 3 39 -59 179 -70 156 -79
170 -88 133z"/>
<path d="M5061 2530 c-17 -10 -7 -40 14 -40 16 0 20 17 7 37 -5 7 -13 9 -21 3z"/>
<path d="M5090 2460 c0 -11 4 -20 9 -20 5 0 11 -8 14 -17 4 -16 5 -16 12 1 6
13 4 21 -3 24 -7 2 -12 10 -12 18 0 8 -4 14 -10 14 -5 0 -10 -9 -10 -20z"/>
<path d="M4650 2405 c-7 -8 -9 -15 -5 -15 4 0 1 -7 -6 -17 -10 -11 -11 -17 -3
-20 6 -2 10 -17 8 -32 -2 -19 2 -31 12 -35 8 -3 12 -10 9 -16 -3 -5 3 -10 14
-10 20 0 29 24 13 34 -5 3 -7 32 -5 65 2 47 0 61 -11 61 -7 0 -19 -7 -26 -15z"/>
<path d="M5130 2385 c0 -8 7 -15 15 -15 9 0 12 6 9 15 -4 8 -10 15 -15 15 -5
0 -9 -7 -9 -15z"/>
<path d="M7156 2371 c-7 -11 22 -23 35 -15 5 3 9 9 9 15 0 12 -37 12 -44 0z"/>
<path d="M6110 2251 c0 -36 5 -39 19 -12 8 14 7 22 -4 31 -13 11 -15 8 -15
-19z"/>
<path d="M7065 2270 c4 -6 11 -8 16 -5 14 9 11 15 -7 15 -8 0 -12 -5 -9 -10z"/>
<path d="M4672 2238 c-7 -7 -12 -26 -12 -44 0 -26 4 -31 23 -30 12 0 22 7 21
14 -1 6 -2 26 -2 42 -2 32 -11 37 -30 18z"/>
<path d="M6695 2230 c3 -5 15 -10 26 -10 11 0 17 5 14 10 -3 6 -15 10 -26 10
-11 0 -17 -4 -14 -10z"/>
<path d="M4253 2129 c-26 -9 -31 -26 -8 -26 8 0 15 4 15 9 0 5 8 8 18 6 11 -2
21 1 23 6 5 12 -21 15 -48 5z"/>
<path d="M4366 2131 c-3 -5 -15 -7 -26 -4 -11 3 -20 1 -20 -3 0 -5 20 -9 45
-10 36 -1 43 2 34 13 -13 15 -25 17 -33 4z"/>
<path d="M3215 2110 c-8 -13 16 -22 51 -18 36 4 45 28 10 28 -14 0 -26 -5 -26
-11 0 -8 -4 -8 -14 0 -10 8 -16 9 -21 1z"/>
<path d="M3654 2108 c-3 -4 13 -8 35 -8 23 0 41 3 41 8 0 10 -70 11 -76 0z"/>
<path d="M3798 2103 c12 -2 30 -2 40 0 9 3 -1 5 -23 4 -22 0 -30 -2 -17 -4z"/>
<path d="M3878 2103 c7 -3 16 -2 19 1 4 3 -2 6 -13 5 -11 0 -14 -3 -6 -6z"/>
<path d="M5818 2089 c-10 -5 -15 -16 -11 -25 5 -12 7 -12 19 3 11 15 13 15 14
3 0 -13 1 -13 10 0 19 30 3 40 -32 19z"/>
<path d="M4978 1950 c-15 -4 -29 -5 -32 -2 -3 3 -6 1 -6 -4 0 -14 93 -9 98 5
4 13 -21 13 -60 1z"/>
<path d="M4454 1928 c-3 -4 11 -8 30 -8 19 0 38 4 41 10 3 5 -9 9 -30 8 -20
-1 -38 -5 -41 -10z"/>
<path d="M4546 1928 c3 -4 35 -8 71 -8 37 0 63 3 60 6 -9 10 -136 11 -131 2z"/>
<path d="M3854 1919 c-3 -5 -2 -9 3 -10 22 -2 114 -2 163 1 30 1 60 1 65 0 21
-5 138 0 132 6 -10 10 -357 12 -363 3z"/>
<path d="M4276 1921 c-5 -8 94 -4 102 3 2 3 -19 5 -47 4 -28 0 -53 -3 -55 -7z"/>
<path d="M1055 1902 c-5 -4 -12 -14 -14 -22 -2 -8 -6 -23 -8 -32 -7 -25 14
-22 27 3 13 24 9 62 -5 51z"/>
<path d="M2310 1899 c-17 -5 -6 -7 38 -8 34 -1 62 3 62 8 0 10 -65 10 -100 0z"/>
<path d="M3258 1894 c-2 -1 -23 -5 -48 -9 -78 -12 -59 -17 39 -12 88 6 133 15
80 18 -13 1 -34 3 -46 4 -12 1 -24 1 -25 -1z"/>
<path d="M1955 1873 c-69 -7 -59 -20 12 -16 37 2 72 8 77 13 10 10 -8 11 -89
3z"/>
<path d="M3115 1870 c3 -5 8 -10 11 -10 2 0 4 5 4 10 0 6 -5 10 -11 10 -5 0
-7 -4 -4 -10z"/>
<path d="M1780 1851 c-8 -5 -32 -11 -52 -15 -21 -4 -38 -11 -38 -16 0 -6 3
-10 6 -10 12 0 179 42 183 46 8 8 -84 3 -99 -5z"/>
<path d="M1006 1799 c4 -8 7 -28 5 -46 -1 -20 2 -33 9 -33 16 0 8 82 -9 88
-10 3 -11 0 -5 -9z"/>
<path d="M1100 1764 c0 -8 5 -12 10 -9 6 3 10 10 10 16 0 5 -4 9 -10 9 -5 0
-10 -7 -10 -16z"/>
<path d="M6026 1723 c-5 -28 -10 -124 -7 -153 1 -9 7 -3 16 14 8 15 12 32 9
37 -3 5 -1 9 4 9 5 0 8 17 7 38 -1 20 2 42 7 49 12 15 2 33 -17 33 -7 0 -16
-12 -19 -27z"/>
<path d="M1011 1684 c0 -11 3 -14 6 -6 3 7 2 16 -1 19 -3 4 -6 -2 -5 -13z"/>
<path d="M1216 1678 c-9 -12 -16 -28 -16 -35 0 -20 18 -15 25 7 3 11 11 20 16
20 5 0 9 7 9 15 0 22 -17 18 -34 -7z"/>
<path d="M1334 1689 c-4 -6 -8 -89 -10 -183 -2 -94 -5 -196 -8 -225 -3 -34 -1
-60 6 -69 9 -10 9 -15 0 -21 -7 -4 -11 -27 -10 -57 1 -27 1 -71 0 -99 -3 -73
0 -85 18 -85 15 0 17 26 20 263 2 144 4 305 5 357 0 74 3 96 15 101 11 5 10 8
-7 17 -16 9 -24 9 -29 1z"/>
<path d="M5550 1620 c0 -6 -10 -14 -21 -18 -21 -8 -21 -9 -3 -27 11 -10 19
-21 20 -24 0 -3 4 -13 8 -22 4 -9 8 -70 9 -135 2 -100 4 -119 18 -122 11 -2
18 7 23 29 9 47 7 180 -3 217 -9 28 -7 32 10 32 10 0 19 4 19 8 0 7 12 9 82
16 30 2 31 1 48 -182 10 -111 25 -152 50 -137 13 8 4 219 -10 223 -6 2 -5 10
1 20 8 13 5 29 -10 65 -19 45 -22 47 -63 49 -64 2 -70 2 -110 -6 -31 -6 -38
-4 -38 9 0 8 -7 15 -15 15 -8 0 -15 -5 -15 -10z"/>
<path d="M3580 1586 c0 -9 8 -16 18 -16 10 0 23 -5 29 -11 10 -10 222 -14 303
-6 66 7 68 4 64 -86 -3 -45 -10 -99 -16 -119 l-11 -38 -86 0 c-93 0 -203 14
-264 32 -27 8 -36 16 -32 26 3 9 0 19 -7 24 -10 6 -10 8 0 8 7 0 12 15 12 40
0 23 -5 40 -11 40 -8 0 -8 4 0 14 10 12 8 19 -9 36 -11 11 -24 18 -29 16 -12
-8 0 -150 13 -158 8 -6 8 -8 0 -8 -18 0 -3 -54 20 -70 11 -8 25 -16 31 -17 51
-13 106 -20 135 -18 19 1 38 0 42 -2 17 -9 148 -10 148 0 0 6 5 5 13 -1 21
-18 54 -2 69 31 7 18 12 36 10 41 -1 4 1 13 6 20 5 6 10 31 11 56 1 25 4 66 5
92 2 28 -1 51 -8 56 -15 12 -88 32 -96 27 -12 -8 -315 -8 -337 0 -18 6 -23 4
-23 -9z"/>
<path d="M1007 1583 c-11 -10 -8 -93 3 -93 7 0 11 99 4 100 0 0 -4 -3 -7 -7z"/>
<path d="M1989 1556 c-2 -3 -33 -9 -69 -15 -45 -7 -67 -7 -77 0 -17 15 -48 3
-36 -14 5 -6 10 -64 12 -126 3 -116 14 -154 41 -149 11 3 15 19 17 66 0 34 -3
62 -8 62 -9 0 -4 54 6 71 3 4 -1 9 -7 12 -9 3 -10 8 -2 16 20 22 147 38 214
28 14 -3 46 -5 72 -6 57 -1 64 -15 69 -144 2 -46 -16 -76 -46 -77 -6 0 -28 -9
-49 -21 -24 -12 -54 -20 -80 -19 -109 4 -154 -8 -141 -40 4 -12 25 -15 90 -16
47 0 85 4 85 9 0 5 6 4 14 -2 8 -7 16 -8 18 -4 1 5 32 21 68 37 96 42 93 37
85 140 -3 49 -11 98 -16 107 -5 10 -9 27 -9 38 0 28 -8 31 -117 37 -54 3 -105
7 -114 10 -8 2 -17 2 -20 0z"/>
<path d="M6029 1553 c-26 -7 -40 -93 -15 -93 16 0 29 27 20 41 -3 5 -2 9 3 9
4 0 8 11 8 25 0 14 0 24 0 24 0 -1 -7 -3 -16 -6z"/>
<path d="M1000 1460 c0 -5 5 -10 10 -10 6 0 10 5 10 10 0 6 -4 10 -10 10 -5 0
-10 -4 -10 -10z"/>
<path d="M5987 1328 c-11 -79 -13 -126 -7 -132 15 -15 20 -4 24 60 3 32 9 73
15 91 5 18 7 41 4 53 -3 11 0 20 6 20 5 0 8 7 5 15 -4 8 -12 15 -18 15 -8 0
-18 -44 -29 -122z"/>
<path d="M1017 1333 c-4 -3 -7 -11 -7 -17 0 -6 5 -5 12 2 6 6 9 14 7 17 -3 3
-9 2 -12 -2z"/>
<path d="M1020 1225 c0 -14 2 -25 4 -25 2 0 6 11 8 25 3 14 1 25 -3 25 -5 0
-9 -11 -9 -25z"/>
<path d="M5297 1183 c-13 -12 -7 -43 8 -43 9 0 15 9 15 25 0 24 -10 32 -23 18z"/>
<path d="M2090 1139 c0 -11 4 -18 10 -14 5 3 7 12 3 20 -7 21 -13 19 -13 -6z"/>
<path d="M5283 1114 c-7 -19 11 -39 26 -30 16 10 13 33 -4 40 -9 3 -18 -1 -22
-10z"/>
<path d="M1460 1063 c-14 -20 -23 -39 -22 -41 2 -3 -3 -9 -11 -13 -8 -5 -20
-38 -27 -73 -7 -38 -20 -72 -31 -82 -18 -16 -19 -16 -20 17 -1 19 -1 42 0 51
2 12 -4 15 -19 11 -22 -6 -25 -24 -9 -54 5 -11 7 -29 4 -40 -6 -19 -8 -19 -24
-5 -10 9 -21 16 -24 16 -4 0 -25 18 -46 40 -32 33 -38 46 -35 70 5 29 -9 68
-30 83 -8 5 -6 10 4 17 11 7 6 10 -20 10 -19 0 -30 -4 -25 -8 20 -14 43 -68
45 -102 3 -53 2 -54 -33 -27 -18 14 -44 27 -58 29 -13 2 -23 9 -22 15 1 6 -10
14 -24 18 -15 3 -33 15 -41 26 -7 10 -20 19 -28 19 -8 0 -26 7 -39 16 -20 13
-25 14 -25 2 0 -12 79 -71 115 -84 8 -3 15 -12 15 -19 0 -6 13 -12 30 -13 17
0 41 -12 57 -27 15 -14 39 -28 53 -32 14 -4 47 -22 73 -42 44 -33 46 -37 27
-45 -11 -5 -20 -15 -20 -22 0 -10 7 -10 34 1 38 16 50 11 35 -17 -7 -14 -7
-23 1 -34 19 -22 30 -7 30 40 0 35 5 46 29 64 17 12 36 19 44 16 8 -3 18 -1
22 5 3 6 -1 11 -10 11 -13 0 -15 6 -10 33 9 44 23 83 51 141 30 60 19 79 -16
29z"/>
<path d="M2990 1033 c0 -5 -9 -9 -21 -10 -26 -2 -69 -30 -69 -44 0 -6 -6 -17
-14 -25 -8 -7 -12 -23 -9 -34 3 -11 1 -20 -4 -20 -5 0 -8 -15 -8 -34 2 -36 19
-66 39 -66 6 0 4 6 -4 13 -17 13 -16 29 3 92 15 50 52 93 89 103 31 8 38 25
14 30 -9 2 -16 0 -16 -5z"/>
<path d="M2550 980 c0 -10 3 -11 38 -14 9 -1 22 -4 28 -8 6 -4 14 -5 18 -1 11
11 6 19 -11 19 -10 0 -30 3 -45 7 -17 5 -28 3 -28 -3z"/>
<path d="M2672 951 c-10 -6 -7 -12 12 -24 16 -11 23 -23 19 -36 -3 -10 2 -32
11 -47 15 -29 15 -29 13 30 -2 46 -7 62 -22 72 -12 8 -26 10 -33 5z"/>
<path d="M2943 933 c-4 -10 -7 -42 -7 -73 1 -30 -4 -58 -10 -62 -8 -5 -7 -8 2
-8 6 0 12 -10 12 -22 1 -13 7 -36 16 -53 13 -28 14 -21 9 82 -4 74 -2 112 5
115 13 4 2 38 -11 38 -5 0 -13 -8 -16 -17z"/>
<path d="M3100 910 c-17 -11 -27 -170 -10 -170 5 0 10 6 10 13 2 61 9 128 15
145 7 25 6 26 -15 12z"/>
<path d="M3078 700 c-5 -32 6 -41 16 -14 9 23 7 44 -3 44 -5 0 -11 -13 -13
-30z"/>
<path d="M5897 564 c-5 -28 1 -64 12 -64 4 0 8 20 9 45 2 48 -12 62 -21 19z"/>
</g>
</svg>
