<?xml version="1.0" standalone="no"?>
<!DOCTYPE svg PUBLIC "-//W3C//DTD SVG 20010904//EN"
 "http://www.w3.org/TR/2001/REC-SVG-20010904/DTD/svg10.dtd">
<svg version="1.0" xmlns="http://www.w3.org/2000/svg"
 width="236.000000pt" height="234.000000pt" viewBox="0 0 236.000000 234.000000"
 preserveAspectRatio="xMidYMid meet">
<metadata>
Created by potrace 1.12, written by Peter Selinger 2001-2015
</metadata>
<g transform="translate(0.000000,234.000000) scale(0.100000,-0.100000)"
fill="#000000" stroke="none">
<path d="M1566 1839 c-50 -44 -56 -57 -62 -142 -7 -100 -12 -119 -31 -115 -21
4 -24 26 -8 71 14 41 0 52 -15 11 -16 -42 -13 -104 6 -104 9 0 12 -5 8 -12 -8
-14 36 20 48 37 4 6 8 40 8 76 0 79 9 131 21 123 5 -3 6 -22 3 -43 -8 -53 18
-108 56 -116 25 -5 29 -12 34 -53 3 -26 5 -81 5 -122 -1 -135 -1 -132 21 -125
11 4 20 2 20 -4 0 -6 9 -2 21 10 14 14 29 19 45 16 13 -2 24 0 24 4 0 13 48
11 56 -2 3 -6 7 -51 7 -100 0 -49 4 -89 9 -89 4 0 8 7 8 16 0 12 6 15 25 10
15 -4 25 -2 25 4 0 6 5 8 10 5 6 -3 10 -2 10 4 0 5 9 11 20 13 13 2 17 7 12
16 -7 10 -17 9 -51 -3 -24 -8 -44 -15 -45 -15 -1 0 -2 21 -2 48 -1 131 -1 132
-35 132 -17 0 -39 -5 -49 -10 -12 -6 -21 -7 -25 0 -3 5 -15 6 -28 1 -12 -4
-28 -6 -34 -4 -7 3 -13 0 -13 -6 0 -6 -5 -11 -11 -11 -6 0 -8 9 -3 23 4 12 7
30 6 40 0 9 4 17 11 17 6 0 3 6 -7 13 -18 13 -17 15 9 35 15 12 31 20 35 17 4
-3 11 2 14 11 3 8 11 12 17 8 7 -4 9 -3 6 3 -4 6 9 21 28 34 19 13 35 27 35
32 0 4 9 7 20 7 11 0 20 5 20 10 0 6 13 10 30 10 19 0 33 7 40 21 11 19 9 20
-24 13 -24 -4 -36 -2 -36 5 0 6 4 11 9 11 11 0 24 31 16 38 -3 3 -14 -3 -25
-13 -11 -10 -20 -13 -20 -7 0 7 -3 11 -7 11 -20 -3 -21 3 -5 21 9 12 17 24 17
28 1 4 6 17 13 28 6 12 8 24 5 28 -4 3 -16 -13 -28 -36 -37 -73 -96 -82 -109
-16 -6 29 -58 60 -103 60 -13 0 -23 6 -23 13 0 16 56 7 71 -11 6 -8 18 -14 26
-14 12 0 12 3 -1 16 -9 8 -16 19 -16 24 0 4 -11 11 -24 14 -13 3 -30 8 -38 11
-8 3 -31 -9 -52 -26z m109 -87 c17 -10 18 -13 5 -22 -11 -7 -16 -6 -18 4 -2 8
-11 12 -23 9 -19 -5 -22 -27 -3 -29 33 -2 74 -18 71 -27 -2 -7 -26 -13 -53
-15 -55 -3 -81 14 -86 58 -2 20 3 25 27 31 38 8 55 6 80 -9z m135 -82 c0 -4
-7 -24 -15 -43 -14 -34 -89 -97 -115 -97 -6 0 -8 -4 -5 -10 3 -5 1 -10 -6 -10
-7 0 -9 10 -6 29 4 18 2 31 -5 33 -7 3 -9 12 -4 23 6 16 9 17 16 5 8 -12 10
-11 10 6 0 12 10 25 25 32 14 6 25 15 24 19 -1 5 -1 11 0 15 1 9 81 8 81 -2z"/>
<path d="M1775 1310 c-4 -6 -13 -9 -21 -6 -8 3 -14 -1 -14 -9 0 -8 -6 -15 -14
-15 -8 0 -18 -5 -22 -12 -4 -6 -3 -8 4 -4 25 15 20 -14 -8 -43 -16 -18 -32
-41 -35 -52 -7 -21 -9 -21 -72 -24 l-41 -2 -7 44 c-8 52 -18 49 -19 -5 -1 -31
-5 -38 -23 -40 -13 -2 -23 -7 -23 -12 0 -11 27 -20 43 -14 10 4 12 -30 10
-165 -2 -110 1 -172 8 -177 7 -4 10 22 9 78 -1 45 -1 123 -1 172 l1 89 39 -7
c29 -4 43 -1 60 13 11 10 21 23 21 29 0 5 7 12 15 15 8 4 27 25 42 49 15 23
39 53 53 65 19 16 22 25 14 33 -9 9 -13 9 -19 0z"/>
<path d="M640 1300 c20 -13 53 -13 45 0 -3 6 -18 10 -33 10 -21 0 -24 -2 -12
-10z"/>
<path d="M710 1295 c0 -8 8 -11 20 -8 11 3 20 7 20 8 0 1 -9 5 -20 8 -12 3
-20 0 -20 -8z"/>
<path d="M1440 1298 c0 -4 7 -8 15 -8 8 0 15 4 15 8 0 5 -7 9 -15 9 -8 0 -15
-4 -15 -9z"/>
<path d="M775 1290 c3 -5 10 -10 16 -10 5 0 9 5 9 10 0 6 -7 10 -16 10 -8 0
-12 -4 -9 -10z"/>
<path d="M1237 1285 c-12 -8 2 -11 56 -11 58 -1 66 1 42 8 -47 14 -82 15 -98
3z"/>
<path d="M905 1280 c3 -6 20 -10 37 -10 38 0 34 5 -10 13 -21 4 -31 3 -27 -3z"/>
<path d="M1548 1278 c5 -5 16 -8 23 -6 8 3 3 7 -10 11 -17 4 -21 3 -13 -5z"/>
<path d="M1650 1281 c0 -6 9 -9 20 -8 11 1 20 5 20 9 0 4 -9 8 -20 8 -11 0
-20 -4 -20 -9z"/>
<path d="M985 1270 c3 -5 10 -10 16 -10 5 0 9 5 9 10 0 6 -7 10 -16 10 -8 0
-12 -4 -9 -10z"/>
<path d="M1050 1271 c0 -6 3 -12 8 -12 45 -7 65 -7 52 0 -30 17 -60 22 -60 12z"/>
<path d="M1148 1273 c-10 -2 -18 -9 -18 -14 0 -10 32 -4 60 12 12 7 11 8 -5 8
-11 -1 -28 -3 -37 -6z"/>
<path d="M470 1260 c0 -5 7 -7 15 -4 8 4 15 8 15 10 0 2 -7 4 -15 4 -8 0 -15
-4 -15 -10z"/>
<path d="M940 1156 c-41 -7 -76 -10 -78 -6 -4 10 -42 1 -42 -10 0 -4 38 -6 85
-5 47 1 85 -2 85 -7 0 -4 7 -8 16 -8 8 0 13 4 9 9 -3 5 -1 12 5 16 5 3 10 2
10 -3 0 -18 44 -22 61 -6 11 10 19 12 24 5 3 -6 3 -11 -2 -11 -4 0 -1 -4 7 -9
8 -6 27 -7 43 -4 19 4 32 1 38 -8 5 -8 9 -9 9 -3 0 7 25 10 65 10 36 -1 65 2
65 7 0 9 -16 10 -109 8 -67 -2 -73 -1 -62 13 12 14 6 16 -50 16 -35 0 -73 2
-84 4 -11 2 -54 -1 -95 -8z"/>
<path d="M755 1140 c-3 -5 1 -10 9 -10 9 0 16 5 16 10 0 6 -4 10 -9 10 -6 0
-13 -4 -16 -10z"/>
<path d="M866 1112 c-11 -18 -9 -89 8 -322 5 -58 5 -58 17 -37 5 9 7 22 4 27
-4 6 -6 85 -6 175 1 149 -4 187 -23 157z"/>
<path d="M761 1064 c-14 -39 -7 -209 10 -219 4 -3 8 36 7 87 -1 51 1 110 4
131 8 47 -4 48 -21 1z"/>
<path d="M984 821 c14 -26 14 -34 -2 -80 -9 -28 -30 -65 -46 -82 -33 -34 -31
-43 4 -26 25 13 60 73 63 108 1 11 5 19 9 19 8 0 4 24 -11 63 -6 15 -15 27
-21 27 -6 0 -5 -12 4 -29z"/>
<path d="M1710 819 c0 -5 11 -14 25 -19 19 -7 25 -17 25 -39 0 -16 -3 -31 -7
-33 -5 -2 -19 -16 -33 -32 l-25 -29 25 13 c14 7 33 19 43 28 20 18 23 71 5 94
-15 18 -58 31 -58 17z"/>
<path d="M760 805 c0 -8 5 -15 10 -15 6 0 10 7 10 15 0 8 -4 15 -10 15 -5 0
-10 -7 -10 -15z"/>
<path d="M770 762 c0 -12 4 -22 9 -22 10 0 9 26 -2 36 -4 4 -7 -2 -7 -14z"/>
<path d="M631 721 c-21 -38 -9 -111 17 -111 15 0 15 1 0 16 -14 15 -15 22 -3
60 14 46 4 69 -14 35z"/>
<path d="M774 700 c-1 -16 2 -27 7 -24 11 6 12 54 1 54 -4 0 -8 -13 -8 -30z"/>
<path d="M1441 696 c-18 -21 45 -66 92 -66 21 0 37 5 37 11 0 7 -10 9 -25 5
-35 -9 -87 22 -79 46 6 21 -9 24 -25 4z"/>
<path d="M845 610 c-3 -5 -1 -10 4 -10 6 0 11 5 11 10 0 6 -2 10 -4 10 -3 0
-8 -4 -11 -10z"/>
<path d="M658 593 c7 -3 16 -2 19 1 4 3 -2 6 -13 5 -11 0 -14 -3 -6 -6z"/>
</g>
</svg>
