<?xml version="1.0" standalone="no"?>
<!DOCTYPE svg PUBLIC "-//W3C//DTD SVG 20010904//EN"
 "http://www.w3.org/TR/2001/REC-SVG-20010904/DTD/svg10.dtd">
<svg version="1.0" xmlns="http://www.w3.org/2000/svg"
 width="388.000000pt" height="261.000000pt" viewBox="0 0 388.000000 261.000000"
 preserveAspectRatio="xMidYMid meet">
<metadata>
Created by potrace 1.12, written by Peter Selinger 2001-2015
</metadata>
<g transform="translate(0.000000,261.000000) scale(0.100000,-0.100000)"
fill="#000000" stroke="none">
<path d="M2527 2154 c-3 -3 -55 -6 -114 -5 -102 1 -174 -9 -348 -46 -38 -8
-99 -20 -135 -28 -120 -24 -153 -33 -169 -49 -14 -15 -14 -16 2 -16 9 0 25 4
35 9 41 21 216 61 352 81 30 5 78 13 107 19 29 6 109 11 178 12 86 1 125 4
122 12 -4 13 -21 20 -30 11z"/>
<path d="M2600 2151 c-24 -2 -30 -5 -18 -10 26 -9 248 -1 248 9 0 9 -151 10
-230 1z"/>
<path d="M2846 2141 c14 -13 64 -23 64 -12 0 9 -33 21 -59 21 -9 0 -11 -3 -5
-9z"/>
<path d="M1670 2040 c0 -5 5 -10 10 -10 6 0 10 5 10 10 0 6 -4 10 -10 10 -5 0
-10 -4 -10 -10z"/>
<path d="M1680 2015 c-2 -8 -2 -259 0 -302 0 -7 3 -13 8 -13 10 0 13 216 3
275 -5 28 -10 46 -11 40z"/>
<path d="M3155 1968 c7 -107 16 -203 21 -218 3 -8 8 -44 11 -80 3 -36 9 -69
13 -75 4 -5 11 -107 14 -225 5 -193 11 -268 21 -278 9 -9 -8 438 -20 528 -8
58 -17 121 -19 140 -3 19 -7 62 -10 95 -8 99 -18 165 -26 165 -4 0 -6 -24 -5
-52z"/>
<path d="M2548 1853 c-46 -12 -8 -20 93 -21 60 -1 139 -9 175 -17 60 -14 130
-20 94 -8 -8 2 -24 8 -35 13 -61 27 -268 48 -327 33z"/>
<path d="M1899 1680 c-36 -20 -79 -57 -79 -69 0 -6 5 -13 10 -16 6 -3 10 0 10
7 0 24 91 81 137 86 28 3 43 1 43 -7 0 -6 5 -11 11 -11 6 0 22 -9 35 -19 30
-24 91 -35 144 -26 62 11 47 22 -27 21 -56 -1 -78 4 -123 27 -61 31 -114 33
-161 7z"/>
<path d="M1679 1678 c-1 -7 -1 -15 -1 -18 0 -3 3 -61 6 -129 3 -77 10 -129 18
-139 7 -8 12 -18 10 -21 -2 -3 2 -7 8 -9 8 -3 10 3 7 14 -21 70 -26 111 -28
207 -1 59 -6 107 -11 107 -4 0 -9 -6 -9 -12z"/>
<path d="M2260 1649 c0 -5 5 -7 10 -4 6 3 10 8 10 11 0 2 -4 4 -10 4 -5 0 -10
-5 -10 -11z"/>
<path d="M2655 1548 c-22 -4 -68 -7 -102 -7 -57 -1 -90 -13 -60 -23 17 -6 101
-1 168 10 43 6 63 5 83 -5 26 -14 36 -4 14 14 -19 15 -59 20 -103 11z"/>
<path d="M2775 1490 c3 -5 8 -10 11 -10 2 0 4 5 4 10 0 6 -5 10 -11 10 -5 0
-7 -4 -4 -10z"/>
<path d="M649 1446 c-26 -12 -53 -28 -61 -36 -28 -30 -56 -106 -59 -165 -2
-33 -6 -64 -10 -70 -4 -5 -9 -25 -12 -43 -3 -18 -15 -49 -26 -68 -12 -20 -19
-40 -16 -45 4 -5 -1 -9 -9 -9 -8 0 -18 -9 -21 -20 -7 -21 -39 -27 -51 -9 -3 6
8 31 26 55 40 56 26 56 -34 1 -49 -46 -56 -66 -30 -92 17 -17 75 -12 82 6 2 5
9 9 15 9 27 0 106 144 107 192 0 26 15 30 38 10 13 -12 17 -23 12 -32 -7 -14
-14 -109 -10 -135 1 -5 2 -30 2 -55 0 -54 43 -225 64 -258 23 -35 44 -39 64
-11 10 13 18 30 18 39 0 8 3 25 7 38 5 14 3 22 -4 22 -10 0 -15 -14 -12 -32 0
-5 -3 -8 -9 -8 -5 0 -10 -7 -10 -15 0 -21 -28 -19 -34 3 -2 9 -9 42 -15 72 -6
30 -15 79 -21 108 -11 60 -13 154 -4 201 6 29 10 31 48 31 40 1 82 21 69 33
-9 9 10 8 22 -1 14 -10 35 -59 35 -83 0 -10 6 -28 12 -39 11 -18 9 -23 -17
-46 -19 -17 -26 -28 -17 -31 6 -3 10 -9 6 -14 -3 -5 -1 -9 5 -9 5 0 12 6 15
13 3 6 3 -8 0 -33 -8 -60 -8 -88 0 -197 l7 -92 -28 -6 c-81 -16 -121 -28 -151
-47 -30 -18 -32 -22 -17 -31 12 -7 36 -2 84 16 36 14 79 28 95 32 28 6 29 5
21 -27 -4 -18 -7 -51 -7 -73 1 -22 1 -55 1 -73 0 -27 4 -32 25 -32 13 0 26 -5
28 -11 3 -8 10 -6 20 5 9 9 20 16 25 16 9 1 47 50 41 55 -1 2 -21 -3 -43 -10
-21 -8 -41 -13 -42 -11 -10 10 -27 487 -18 527 4 16 11 29 17 29 6 0 39 20 74
46 39 27 64 40 64 31 0 -7 11 -23 23 -36 l24 -22 29 30 c24 24 42 31 102 40
41 5 75 11 77 13 1 2 9 16 18 33 12 23 22 30 49 31 65 3 119 17 127 33 7 15
10 41 14 111 2 21 -4 26 -42 34 -39 8 -46 7 -62 -12 -22 -27 -45 -28 -61 -2
-10 15 -24 20 -60 20 -26 0 -50 -4 -53 -10 -3 -5 -25 -14 -48 -20 -47 -12 -89
-33 -123 -63 -21 -18 -22 -27 -19 -88 3 -57 2 -67 -11 -62 -14 5 -48 -13 -76
-40 -7 -8 -23 -17 -35 -21 -18 -6 -21 -1 -28 36 -4 24 -9 50 -11 59 -2 10 3
16 12 15 11 -1 22 17 35 54 31 88 39 114 36 116 -2 2 -16 -3 -31 -11 -26 -14
-28 -14 -23 2 9 32 9 38 8 59 0 11 -13 34 -28 50 -51 56 -128 67 -204 30z
m111 -18 c0 -4 6 -8 14 -8 20 0 67 -51 64 -69 -2 -11 -12 -15 -30 -13 -26 3
-27 3 -22 -50 4 -43 1 -57 -15 -76 -11 -12 -23 -22 -28 -21 -4 1 -15 1 -23 0
-13 -1 -13 -3 -1 -10 11 -7 5 -11 -22 -16 -49 -9 -83 13 -98 65 -7 22 -16 40
-21 40 -20 0 25 33 48 36 19 2 24 -2 24 -22 0 -13 5 -24 10 -24 6 0 10 11 10
25 0 19 5 25 23 26 l22 0 -22 11 c-15 7 -23 23 -28 55 -4 27 -3 48 3 52 15 9
92 9 92 -1z m-128 -73 c5 -21 1 -25 -19 -25 -19 0 -24 4 -19 16 3 9 6 20 6 25
0 21 28 7 32 -16z m637 -69 c9 -11 9 -25 1 -58 -7 -24 -14 -54 -17 -67 -6 -37
-11 -41 -48 -41 -19 0 -46 -5 -61 -10 -33 -13 -64 -4 -64 17 0 9 -8 22 -17 29
-11 8 -13 13 -5 14 9 0 10 4 0 19 -17 28 19 60 99 87 80 28 96 29 112 10z
m161 -5 c16 -31 -3 -67 -40 -75 -36 -7 -80 -8 -80 -2 0 13 30 58 51 75 31 26
55 26 69 2z m-568 -36 c-2 -14 -8 -25 -13 -25 -10 0 -12 34 -2 43 13 14 20 6
15 -18z"/>
<path d="M2022 1286 c-54 -14 -70 -22 -60 -32 4 -3 17 0 30 7 13 7 60 13 108
13 80 1 88 -1 134 -31 27 -18 56 -33 64 -33 9 0 24 -7 34 -17 10 -9 21 -13 25
-10 9 9 -27 36 -48 37 -9 0 -22 7 -30 16 -7 8 -34 26 -61 40 -53 27 -111 30
-196 10z"/>
<path d="M2395 1200 c-8 -13 5 -13 25 0 13 8 13 10 -2 10 -9 0 -20 -4 -23 -10z"/>
<path d="M3400 1090 c-8 -5 -10 -10 -5 -10 6 0 17 5 25 10 8 5 11 10 5 10 -5
0 -17 -5 -25 -10z"/>
<path d="M3305 1069 c-22 -4 -57 -8 -77 -8 -21 -1 -38 -5 -38 -10 0 -11 94 -2
150 14 50 15 28 17 -35 4z"/>
<path d="M2946 1053 c-1 -1 -42 -5 -91 -8 -92 -7 -166 -17 -245 -35 -182 -41
-459 -54 -665 -30 -93 10 -192 13 -184 5 3 -2 45 -9 94 -15 315 -36 533 -32
730 16 33 8 74 16 90 18 181 25 199 26 358 33 84 3 147 10 147 15 0 8 -226 9
-234 1z"/>
<path d="M698 533 c-9 -2 -17 -12 -17 -21 0 -9 -3 -68 -6 -129 -5 -97 -4 -113
10 -113 8 0 15 -4 15 -8 0 -14 98 22 109 41 10 15 7 17 -18 17 -17 0 -33 -4
-36 -10 -3 -5 -13 -10 -21 -10 -12 0 -13 19 -9 115 2 63 1 116 -3 118 -4 2
-15 2 -24 0z"/>
</g>
</svg>
