<?xml version="1.0" standalone="no"?>
<!DOCTYPE svg PUBLIC "-//W3C//DTD SVG 20010904//EN"
 "http://www.w3.org/TR/2001/REC-SVG-20010904/DTD/svg10.dtd">
<svg version="1.0" xmlns="http://www.w3.org/2000/svg"
 width="383.000000pt" height="292.000000pt" viewBox="0 0 383.000000 292.000000"
 preserveAspectRatio="xMidYMid meet">
<metadata>
Created by potrace 1.12, written by Peter Selinger 2001-2015
</metadata>
<g transform="translate(0.000000,292.000000) scale(0.100000,-0.100000)"
fill="#000000" stroke="none">
<path d="M3307 2355 c-15 -7 -27 -12 -27 -10 0 6 -93 -38 -124 -58 -19 -13
-36 -16 -66 -11 -89 14 -179 -61 -125 -106 19 -16 87 8 127 45 29 27 46 30
118 21 43 -5 46 -4 75 35 17 22 39 49 49 59 27 28 9 44 -27 25z m-47 -70 c-23
-24 -80 -36 -80 -16 0 10 92 52 99 45 2 -2 -6 -15 -19 -29z m-191 -51 c-20
-24 -87 -55 -94 -44 -11 18 42 60 76 60 27 0 30 -2 18 -16z"/>
<path d="M1082 2035 c-6 -14 -16 -25 -21 -25 -17 0 -23 -58 -9 -87 12 -24 12
-34 0 -70 -14 -42 -29 -52 -69 -45 -32 6 -29 32 7 77 17 21 29 43 27 49 -4 13
-80 56 -119 66 -52 15 -29 -7 37 -36 66 -29 77 -40 50 -51 -25 -9 -76 -64 -70
-74 7 -10 -47 -92 -84 -129 -29 -28 -56 -80 -42 -80 5 0 19 12 30 26 19 24
127 72 176 77 11 2 19 8 18 15 -2 7 1 12 6 12 7 0 19 -109 25 -223 1 -21 7
-42 15 -46 7 -5 13 -23 14 -42 2 -29 -1 -33 -23 -33 -14 -1 -26 -5 -28 -11 -4
-11 29 -23 71 -24 24 -1 27 2 23 26 -18 95 -18 113 -3 113 18 0 39 -74 25 -88
-12 -12 -2 -32 17 -32 19 0 27 47 14 87 -6 19 -9 45 -6 59 2 13 1 24 -2 24 -3
0 -6 71 -6 157 0 128 3 160 15 170 21 17 28 16 35 -6 6 -21 36 -32 56 -21 7 5
14 33 16 65 2 36 -1 54 -7 50 -5 -3 -10 -18 -10 -33 0 -30 -15 -60 -26 -50 -3
4 -9 29 -12 55 -6 58 -52 109 -83 93 -12 -7 -20 -7 -24 0 -10 16 -21 11 -33
-15z m54 -59 c28 7 30 -3 8 -34 -30 -43 -73 -12 -50 37 8 19 12 21 14 8 3 -13
10 -15 28 -11z m-6 -251 c0 -149 -8 -190 -31 -154 -7 12 -9 11 -9 -1 0 -11 -4
-10 -12 4 -6 11 -12 51 -13 90 -2 62 1 75 21 99 27 32 32 62 9 53 -17 -6 -18
-2 -6 22 5 9 12 25 15 35 3 10 10 15 16 12 6 -4 10 -68 10 -160z m-199 34
c-13 -11 -26 -17 -29 -14 -8 8 20 35 37 35 12 -1 11 -5 -8 -21z"/>
<path d="M790 1962 c-98 -74 -221 -220 -258 -304 -2 -5 3 -8 11 -8 8 0 22 19
33 41 l18 42 8 -32 c11 -40 49 -65 84 -57 43 11 101 81 111 134 8 43 11 47 43
52 20 4 41 10 48 14 14 9 16 36 3 36 -6 0 -18 14 -28 30 -23 40 -37 38 -64 -9
-15 -27 -32 -42 -58 -50 -20 -7 -43 -15 -51 -18 -8 -3 22 31 67 76 85 83 95
100 33 53z m60 -96 c-13 -13 -35 7 -25 24 5 8 11 8 21 -1 10 -8 12 -15 4 -23z
m-82 -73 c-20 -76 -61 -123 -107 -123 -17 0 -21 6 -21 36 0 44 35 97 58 89 10
-2 31 4 47 14 17 11 31 20 32 20 1 1 -3 -16 -9 -36z"/>
<path d="M510 1630 c-18 -11 -8 -22 23 -26 12 -2 50 -8 84 -13 46 -8 70 -8 90
1 l28 12 -30 3 c-47 5 -153 23 -167 28 -7 3 -20 1 -28 -5z"/>
<path d="M3470 1553 c-16 -6 -92 -54 -100 -64 -23 -26 -100 -17 -100 12 0 27
-19 24 -24 -3 -18 -96 -23 -144 -15 -153 7 -6 12 -6 17 0 27 39 72 62 127 64
31 1 75 8 98 16 23 8 50 15 60 15 10 0 20 6 23 14 3 8 14 16 26 19 26 7 20 34
-12 58 -27 21 -76 31 -100 22z m69 -38 c51 -16 1 -44 -86 -50 -29 -2 -53 1
-53 6 0 4 16 19 35 32 34 23 60 26 104 12z m-247 -78 c-24 -11 -38 -5 -28 11
3 6 16 8 28 4 l22 -5 -22 -10z"/>
<path d="M2273 798 c-23 -25 -51 -120 -59 -201 -3 -38 -12 -59 -30 -77 -36
-37 -64 -72 -64 -82 0 -13 51 -9 108 7 52 16 70 35 32 35 -35 0 -26 50 16 91
35 33 65 79 71 109 8 41 12 97 6 117 -7 31 -52 31 -80 1z m52 -56 c-11 -86
-17 -102 -42 -132 -28 -34 -43 -39 -38 -12 2 9 9 47 16 85 18 106 77 161 64
59z m-115 -261 c0 -5 -7 -11 -15 -15 -15 -5 -20 5 -8 17 9 10 23 9 23 -2z"/>
</g>
</svg>
