<?xml version="1.0" standalone="no"?>
<!DOCTYPE svg PUBLIC "-//W3C//DTD SVG 20010904//EN"
 "http://www.w3.org/TR/2001/REC-SVG-20010904/DTD/svg10.dtd">
<svg version="1.0" xmlns="http://www.w3.org/2000/svg"
 width="331.000000pt" height="205.000000pt" viewBox="0 0 331.000000 205.000000"
 preserveAspectRatio="xMidYMid meet">
<metadata>
Created by potrace 1.12, written by Peter Selinger 2001-2015
</metadata>
<g transform="translate(0.000000,205.000000) scale(0.100000,-0.100000)"
fill="#000000" stroke="none">
<path d="M2532 1534 c-7 -8 -17 -12 -21 -10 -15 10 -55 -101 -46 -127 2 -7 6
-31 9 -55 3 -23 10 -51 16 -61 11 -21 4 -51 -12 -51 -7 0 -9 -18 -6 -45 5 -42
4 -46 -21 -51 -14 -3 -33 -8 -41 -10 -8 -3 -56 -7 -106 -9 -78 -4 -99 -1 -139
16 -54 24 -238 38 -250 19 -3 -5 8 -25 24 -42 33 -35 76 -116 67 -126 -3 -3
-1 -11 6 -19 15 -19 12 -75 -5 -88 -24 -18 -89 -129 -89 -152 0 -13 -5 -20
-11 -16 -6 4 -8 0 -4 -10 3 -10 3 -17 -2 -17 -11 0 -24 -45 -25 -89 -1 -40 20
-67 60 -77 16 -4 31 -10 34 -14 3 -4 28 -11 56 -15 48 -6 53 -5 73 20 11 15
18 31 15 36 -3 5 -2 9 3 9 13 0 14 78 2 152 -12 73 -13 83 -24 175 l-7 62 51
52 c28 28 51 56 51 61 0 4 11 6 25 2 14 -3 33 -3 42 1 23 9 93 13 93 5 0 -8
-33 -35 -54 -43 -11 -4 -16 -10 -13 -14 4 -3 -8 -13 -25 -22 -37 -18 -46 -36
-23 -44 18 -7 65 8 80 26 6 7 30 28 54 47 25 19 55 45 67 57 29 29 46 29 43 1
-2 -13 2 -33 9 -44 6 -12 9 -24 5 -27 -3 -4 2 -9 11 -13 9 -3 14 -10 11 -15
-3 -4 6 -16 20 -25 18 -12 25 -25 25 -48 0 -17 7 -43 14 -58 15 -27 14 -28
-14 -28 -43 0 -45 -16 -4 -41 31 -19 35 -26 30 -49 -3 -15 -2 -31 1 -34 6 -6
9 -20 15 -63 1 -7 8 -13 17 -13 14 0 14 -2 1 -10 -12 -8 -10 -10 9 -10 20 0
21 -2 11 -15 -10 -12 -10 -15 0 -15 9 0 8 -6 -4 -19 -13 -14 -14 -21 -6 -26 9
-6 9 -10 -1 -16 -10 -6 -11 -11 -3 -16 15 -11 12 -65 -6 -85 -21 -26 -53 -24
-45 2 7 21 -1 25 -24 11 -17 -11 -23 -38 -15 -63 11 -36 113 -12 128 29 17 43
17 110 1 127 -15 14 -15 16 -1 16 13 0 16 12 16 54 0 30 -5 58 -10 61 -6 4 -8
26 -6 50 3 37 1 44 -15 47 -34 5 -25 23 16 31 22 5 47 13 56 17 14 7 18 3 21
-20 3 -16 0 -32 -6 -34 -7 -3 -3 -11 8 -20 11 -9 15 -16 8 -16 -8 0 -9 -7 -1
-27 6 -16 10 -29 10 -30 -1 -2 -1 -4 0 -5 1 -2 2 -21 3 -43 1 -22 5 -46 9 -53
5 -6 5 -17 2 -22 -3 -6 -1 -10 6 -10 22 0 -4 -18 -31 -22 -38 -5 -31 -31 10
-39 19 -4 45 -10 57 -14 18 -6 22 -2 28 25 5 23 2 36 -10 50 -9 10 -14 24 -10
29 3 6 2 11 -3 11 -6 0 -8 9 -5 19 3 13 -1 21 -14 24 -17 4 -17 5 0 6 11 1 15
6 11 13 -4 6 -9 48 -10 92 -4 89 -8 123 -16 146 -6 15 -22 118 -34 215 -3 28
-10 55 -15 61 -5 6 -6 13 -3 17 3 3 0 16 -7 29 -7 12 -12 29 -11 36 2 6 -2 12
-8 12 -5 0 -10 7 -10 15 0 9 -11 27 -25 40 -13 14 -21 25 -18 25 3 0 0 6 -6
13 -14 18 -4 27 31 27 23 0 28 -4 28 -23 0 -23 16 -47 32 -47 4 0 5 7 1 17 -5
13 -2 15 15 11 31 -8 38 11 12 29 -16 11 -19 18 -11 26 18 18 12 36 -16 51
-22 12 -24 15 -9 16 18 0 18 1 1 20 -10 11 -14 20 -9 20 5 0 -1 7 -13 15 -14
10 -19 22 -16 35 3 11 0 20 -6 20 -6 0 -11 -12 -11 -26 0 -15 -4 -23 -11 -18
-6 3 -8 17 -5 29 6 22 2 24 -41 30 -27 4 -55 8 -63 10 -8 2 -21 -3 -28 -11z
m31 -67 c7 -23 4 -30 -20 -51 -15 -13 -29 -23 -30 -22 -9 8 -9 53 -1 64 6 6 7
12 3 12 -4 0 -2 7 5 15 17 21 32 15 43 -18z m94 -23 c7 -22 -26 -24 -38 -3 -9
18 -8 20 12 17 12 -2 24 -8 26 -14z m-85 -86 c16 -13 34 -93 18 -83 -5 3 -11
1 -15 -5 -10 -16 -38 -12 -31 5 3 8 -1 20 -8 27 -7 7 -11 19 -8 26 2 7 -6 12
-20 13 -17 1 -18 3 -5 6 9 2 17 9 17 14 0 13 34 11 52 -3z m-42 -118 c0 -5 -5
-10 -11 -10 -5 0 -7 5 -4 10 3 6 8 10 11 10 2 0 4 -4 4 -10z m90 -14 c0 8 30
-32 48 -63 6 -13 12 -28 12 -33 0 -6 9 -29 19 -50 11 -22 15 -40 9 -40 -6 0
-7 -8 -3 -17 4 -10 9 -45 12 -78 2 -33 6 -67 10 -75 19 -46 -6 -67 -71 -62
-39 3 -41 5 -40 35 0 18 -6 50 -14 72 -8 22 -14 48 -14 58 1 10 -7 21 -16 24
-25 10 -39 33 -46 77 -5 26 -3 42 5 47 10 6 10 11 0 23 -12 14 -10 16 7 16 15
0 19 5 15 20 -8 30 24 62 48 49 11 -5 19 -7 19 -3z m-505 -131 c36 -11 37 -13
13 -14 -28 -1 -37 -14 -18 -26 15 -9 12 -23 -11 -46 l-22 -22 -18 24 c-10 13
-19 32 -19 42 0 9 -5 17 -12 17 -6 0 -8 3 -5 7 4 3 2 12 -4 20 -9 10 -5 13 22
12 19 0 52 -6 74 -14z m-70 -265 c-4 -6 -3 -19 1 -28 10 -24 13 -40 18 -105 2
-31 9 -64 15 -71 8 -9 8 -16 2 -20 -6 -4 -8 -12 -5 -19 8 -22 -20 -48 -59 -53
-20 -2 -37 -1 -37 4 0 4 -14 13 -31 19 -30 11 -31 15 -26 49 4 21 18 61 32 89
14 29 25 57 25 63 0 7 5 12 10 12 6 0 10 7 10 15 0 17 30 55 43 55 4 0 5 -5 2
-10z"/>
<path d="M761 1296 c-25 -14 -56 -80 -45 -97 3 -5 1 -9 -4 -9 -13 0 -8 -65 6
-83 11 -13 8 -21 -22 -53 l-36 -38 9 32 c5 17 12 36 16 42 4 6 0 17 -9 23 -9
7 -22 24 -29 37 -7 14 -19 25 -27 25 -18 0 -62 -65 -56 -82 3 -7 2 -13 -2 -13
-4 0 -9 -37 -9 -82 -1 -46 -5 -99 -8 -118 -6 -34 -5 -36 37 -54 30 -14 70 -21
133 -23 50 -1 115 -6 145 -10 30 -3 78 -8 105 -9 28 -1 80 -5 118 -7 51 -4 67
-2 67 8 0 7 8 12 18 11 14 -1 19 12 28 64 5 36 10 81 9 100 -1 19 2 38 7 41 4
3 10 29 13 58 3 30 8 58 11 62 3 5 3 18 -1 29 -8 26 -35 14 -35 -16 0 -13 -4
-24 -10 -24 -9 0 -14 17 -13 48 1 6 -8 12 -18 12 -10 0 -19 7 -19 15 0 8 5 15
10 15 6 0 10 3 10 8 -1 22 -22 33 -73 36 -32 2 -73 12 -96 24 -23 12 -41 19
-41 16 0 -2 -8 0 -19 5 -32 18 -143 22 -170 7z m109 -37 c30 -1 62 -6 70 -11
8 -4 28 -12 43 -18 36 -13 28 -24 -40 -56 -42 -20 -64 -25 -96 -21 -41 6 -76
36 -77 66 0 17 30 52 39 47 3 -3 31 -5 61 -7z m245 -100 c4 -17 5 -32 3 -34
-1 -2 -37 0 -78 4 l-75 7 55 26 c74 35 87 35 95 -3z m-304 -45 c9 -12 5 -14
-25 -14 -33 0 -47 15 -30 32 8 9 42 -2 55 -18z m-176 -23 c3 -10 1 -30 -5 -45
-13 -34 -13 -103 0 -111 5 -3 7 -12 4 -19 -3 -8 -1 -17 5 -21 16 -9 13 -25 -3
-25 -27 0 -43 27 -40 71 6 145 9 169 21 169 6 0 14 -8 18 -19z m431 -26 c-25
-19 -31 -19 -46 0 -11 13 -7 15 26 15 36 -1 38 -2 20 -15z m-206 -15 c0 -13
-46 -48 -79 -59 -47 -15 -61 -14 -61 7 0 28 21 42 65 43 30 0 35 2 20 9 -15 6
-11 7 18 7 20 -1 37 -4 37 -7z m117 -6 c-9 -9 35 -41 67 -50 21 -5 32 -1 53
22 24 27 26 27 21 6 -3 -12 -2 -25 4 -28 17 -11 -12 -22 -42 -18 -19 3 -29 0
-34 -11 -3 -9 -10 -13 -16 -10 -5 3 -10 2 -10 -3 0 -11 -60 -38 -74 -34 -10 3
-57 -18 -66 -29 -3 -4 -21 -13 -40 -21 -50 -20 -127 -9 -150 22 -24 32 -41 88
-28 96 5 3 12 -3 15 -14 3 -12 19 -26 36 -31 45 -16 148 20 182 65 15 19 36
34 53 37 15 2 29 5 31 6 2 0 1 -2 -2 -5z m156 -130 c-3 -8 0 -14 7 -14 6 0 8
-5 5 -10 -4 -6 -1 -18 7 -27 8 -10 8 -14 1 -10 -7 5 -13 -1 -15 -15 -3 -24 -9
-25 -78 -11 -19 4 -63 7 -97 7 -35 -1 -63 3 -63 7 0 7 74 44 149 75 38 16 91
15 84 -2z"/>
</g>
</svg>
