<?xml version="1.0" standalone="no"?>
<!DOCTYPE svg PUBLIC "-//W3C//DTD SVG 20010904//EN"
 "http://www.w3.org/TR/2001/REC-SVG-20010904/DTD/svg10.dtd">
<svg version="1.0" xmlns="http://www.w3.org/2000/svg"
 width="366.000000pt" height="200.000000pt" viewBox="0 0 366.000000 200.000000"
 preserveAspectRatio="xMidYMid meet">
<metadata>
Created by potrace 1.12, written by Peter Selinger 2001-2015
</metadata>
<g transform="translate(0.000000,200.000000) scale(0.100000,-0.100000)"
fill="#000000" stroke="none">
<path d="M300 1721 c0 -6 4 -13 10 -16 6 -3 7 1 4 9 -7 18 -14 21 -14 7z"/>
<path d="M2515 1574 c-19 -20 -33 -40 -30 -42 3 -3 0 -10 -5 -17 -14 -17 10
-75 32 -75 9 0 20 -9 23 -21 8 -24 10 -21 -40 -47 l-39 -20 -51 28 c-27 15
-56 25 -62 23 -9 -3 -13 6 -13 26 0 28 -15 49 -27 37 -3 -3 -1 -24 5 -47 10
-38 9 -44 -11 -60 l-22 -19 28 -25 c32 -29 29 -38 -35 -94 -21 -18 -38 -37
-38 -42 0 -5 12 -15 28 -22 15 -6 33 -17 40 -24 20 -19 24 -16 55 33 28 44 87
84 123 84 10 0 26 7 36 17 10 9 21 14 24 11 3 -3 10 -36 15 -74 7 -52 7 -69
-3 -76 -10 -6 -10 -8 0 -8 8 0 12 -23 13 -77 0 -43 4 -100 7 -128 6 -39 4 -53
-8 -62 -21 -16 -6 -27 25 -19 20 5 25 11 20 24 -4 9 -6 57 -6 105 1 57 -2 86
-9 82 -8 -5 -9 16 -1 68 2 15 29 6 33 -11 3 -10 5 -60 6 -112 0 -72 4 -95 14
-95 9 0 13 16 11 60 -10 361 -16 481 -23 489 -5 5 -3 24 5 44 19 44 19 86 1
101 -8 7 -30 15 -50 18 -32 5 -40 2 -71 -33z m103 -17 c2 -10 1 -30 -3 -44 -5
-20 -9 -23 -18 -14 -19 19 -44 12 -51 -14 -6 -22 -9 -24 -26 -15 -27 14 -21
67 10 92 30 24 83 21 88 -5z m-37 -90 c-13 -13 -26 -3 -16 12 3 6 11 8 17 5 6
-4 6 -10 -1 -17z m34 -59 c3 -18 5 -82 3 -143 -3 -92 -6 -110 -19 -113 -21 -4
-28 32 -35 170 -6 112 -7 109 38 117 4 0 10 -14 13 -31z m-199 -85 c19 -25 24
-38 15 -41 -15 -5 -46 -36 -87 -86 -21 -25 -36 -35 -47 -30 -25 9 -21 25 18
66 19 20 35 42 35 47 0 8 7 7 20 -1 25 -16 33 -7 24 27 -5 19 -12 25 -24 22
-23 -6 -45 7 -36 22 15 23 54 11 82 -26z m119 16 c7 -10 -21 -49 -35 -49 -4 0
-12 11 -18 24 -10 22 -8 25 11 29 12 2 25 5 29 6 4 0 10 -4 13 -10z"/>
<path d="M3220 1600 c-19 -4 -79 -19 -134 -34 -54 -14 -100 -26 -102 -26 -2 0
-4 -5 -4 -10 0 -12 16 -9 140 27 47 14 111 27 142 29 l56 4 7 -32 c11 -49 8
-189 -4 -220 -8 -22 -8 -28 3 -28 8 0 18 15 22 33 9 37 6 239 -4 248 -12 12
-86 17 -122 9z"/>
<path d="M2931 1438 c1 -59 -3 -92 -15 -113 -17 -32 -22 -105 -7 -105 5 0 12
25 16 55 3 30 11 55 16 55 13 0 12 177 -2 185 -7 5 -10 -20 -8 -77z"/>
<path d="M3200 1475 c-8 -10 -31 -15 -69 -15 -86 0 -192 -60 -151 -85 21 -13
176 -16 218 -4 50 14 60 30 45 70 -8 19 -7 31 0 38 8 8 5 11 -10 11 -11 0 -26
-7 -33 -15z m20 -60 c0 -8 -16 -19 -35 -25 -36 -12 -95 -5 -95 11 0 5 0 12 0
16 -1 4 23 12 52 18 54 11 78 5 78 -20z m-170 -15 c0 -5 -9 -10 -20 -10 -11 0
-20 5 -20 10 0 6 9 10 20 10 11 0 20 -4 20 -10z"/>
<path d="M3278 1413 c7 -3 16 -2 19 1 4 3 -2 6 -13 5 -11 0 -14 -3 -6 -6z"/>
<path d="M3225 1283 c-89 -11 -275 -62 -275 -76 0 -10 25 -6 75 11 43 16 203
51 248 56 21 2 41 6 44 10 6 6 -38 6 -92 -1z"/>
<path d="M3260 1179 c-49 -10 -230 -41 -260 -43 -16 -2 -26 -10 -28 -22 -2
-10 -8 -23 -13 -28 -12 -13 -12 -46 0 -46 5 0 13 17 18 37 8 34 13 39 48 46
79 15 238 36 246 32 4 -3 5 -14 2 -25 -3 -11 -8 -18 -12 -16 -9 6 -142 -23
-155 -33 -6 -5 -30 -15 -53 -22 -24 -6 -43 -16 -43 -21 0 -14 29 -9 93 18 38
16 84 27 120 29 32 1 62 6 66 11 12 13 23 82 14 86 -4 2 -24 1 -43 -3z"/>
<path d="M701 1050 c-10 -6 -12 -38 -9 -140 4 -124 5 -134 27 -151 18 -15 27
-16 43 -8 11 6 33 8 49 5 28 -5 29 -4 29 34 0 40 0 40 38 40 25 0 54 10 87 31
27 17 59 35 72 40 14 5 23 17 23 31 0 21 -1 21 -13 3 -13 -17 -14 -17 -20 4
-3 11 -1 24 4 27 19 11 9 25 -11 14 -17 -9 -20 -8 -20 12 0 45 -22 0 -24 -48
-1 -33 -6 -49 -16 -52 -8 -2 -24 -13 -36 -24 -16 -15 -30 -17 -60 -12 -42 6
-51 20 -84 126 -13 42 -59 81 -79 68z m54 -86 c15 -39 15 -48 4 -55 -20 -13
-39 -11 -40 4 0 6 -2 30 -3 52 -6 72 11 71 39 -1z m25 -98 c0 -19 -29 -48 -41
-41 -10 7 -12 39 -2 48 12 13 43 7 43 -7z m18 -68 c-5 -13 -58 -31 -58 -19 0
8 38 29 53 30 5 1 7 -4 5 -11z"/>
<path d="M543 994 c-13 -20 -16 -44 -15 -97 2 -39 5 -73 7 -76 2 -4 6 -33 9
-66 4 -33 9 -68 12 -77 6 -19 34 -25 34 -8 0 6 10 10 23 10 12 0 34 10 49 23
27 22 27 22 18 101 -8 63 -16 88 -42 127 -18 27 -41 49 -50 49 -10 0 -18 4
-18 10 0 5 8 14 18 19 15 9 15 10 -5 11 -13 0 -30 -11 -40 -26z m45 -43 c8 -4
16 -27 19 -50 5 -37 3 -41 -15 -41 -15 0 -20 -5 -16 -15 4 -8 2 -15 -4 -15
-10 0 -22 55 -22 103 0 27 14 34 38 18z m71 -161 c1 -13 0 -13 -9 0 -5 8 -9
26 -9 40 l1 25 8 -25 c4 -14 8 -32 9 -40z m-49 6 c0 -14 -5 -28 -10 -31 -13
-8 -24 20 -16 40 9 24 26 17 26 -9z m50 -40 c0 -8 -4 -18 -10 -21 -5 -3 -10 3
-10 14 0 12 5 21 10 21 6 0 10 -6 10 -14z m-43 -33 c4 -12 -35 -29 -44 -19 -8
8 18 37 30 33 6 -2 12 -8 14 -14z"/>
<path d="M1877 850 c-35 -6 -63 -20 -40 -20 5 0 13 -35 17 -77 3 -42 10 -81
16 -87 5 -5 26 -12 47 -15 36 -6 38 -9 38 -41 0 -34 -1 -35 -40 -35 -41 0 -47
9 -34 54 7 26 -16 21 -28 -6 -21 -45 -16 -61 21 -68 41 -8 121 7 121 22 0 23
15 25 41 4 28 -22 78 -28 89 -11 3 6 24 10 46 10 28 0 39 4 39 15 0 8 -5 15
-10 15 -6 0 -8 11 -4 25 6 24 4 25 -20 19 -18 -4 -26 -2 -26 6 0 21 -37 -18
-44 -46 -8 -29 -32 -31 -66 -4 -14 11 -33 20 -42 20 -10 0 -18 3 -19 8 0 4 -1
46 -3 94 -3 113 -18 131 -99 118z m67 -36 c9 -22 7 -134 -1 -135 -64 -10 -63
-10 -63 34 0 23 -4 56 -9 74 -11 38 -7 43 35 43 20 0 34 -6 38 -16z"/>
<path d="M1135 798 c-22 -5 -57 -7 -79 -4 -42 5 -41 8 -20 -77 5 -24 1 -34
-27 -63 -28 -29 -31 -36 -19 -44 21 -13 85 -12 132 2 37 11 39 13 33 42 -3 17
-9 52 -12 79 -5 44 -4 47 19 47 33 0 68 11 68 21 0 11 -43 10 -95 -3z m-25
-58 c0 -22 5 -49 12 -59 6 -10 8 -25 5 -34 -7 -18 -68 -33 -93 -23 -13 5 -12
11 11 38 26 30 27 45 9 91 -5 14 -1 17 49 26 4 0 7 -17 7 -39z"/>
<path d="M680 545 c-18 -22 -24 -88 -10 -129 12 -38 26 -49 73 -60 28 -7 29
-6 25 36 -2 29 1 43 10 42 6 -1 23 -2 37 -2 18 -2 25 -8 25 -21 0 -11 12 -29
26 -40 33 -26 65 -15 76 27 11 43 -3 133 -24 145 -25 17 -68 -7 -68 -37 0 -24
-16 -36 -51 -36 -13 0 -19 7 -19 24 0 17 -10 31 -34 45 -40 25 -50 26 -66 6z
m31 -61 c-5 -17 -7 -44 -4 -60 4 -22 2 -26 -6 -14 -12 17 -15 103 -4 114 14
14 23 -11 14 -40z m189 1 c0 -14 -4 -25 -10 -25 -5 0 -10 11 -10 25 0 14 5 25
10 25 6 0 10 -11 10 -25z m-10 -55 c0 -5 -2 -10 -4 -10 -3 0 -8 5 -11 10 -3 6
-1 10 4 10 6 0 11 -4 11 -10z"/>
</g>
</svg>
