<?xml version="1.0" standalone="no"?>
<!DOCTYPE svg PUBLIC "-//W3C//DTD SVG 20010904//EN"
 "http://www.w3.org/TR/2001/REC-SVG-20010904/DTD/svg10.dtd">
<svg version="1.0" xmlns="http://www.w3.org/2000/svg"
 width="232.000000pt" height="237.000000pt" viewBox="0 0 232.000000 237.000000"
 preserveAspectRatio="xMidYMid meet">
<metadata>
Created by potrace 1.12, written by Peter Selinger 2001-2015
</metadata>
<g transform="translate(0.000000,237.000000) scale(0.100000,-0.100000)"
fill="#000000" stroke="none">
<path d="M1608 1913 c-38 -2 -68 -7 -68 -11 0 -4 -19 -8 -42 -10 -23 -1 -47
-7 -53 -12 -7 -6 -15 -7 -18 -3 -4 3 -7 1 -7 -6 0 -7 -5 -9 -10 -6 -6 4 -18 1
-27 -6 -9 -8 -21 -14 -27 -15 -31 -3 -36 -5 -36 -13 0 -16 38 -19 65 -5 25 13
110 39 160 49 49 10 199 13 215 5 11 -6 24 -36 34 -77 10 -37 21 -84 26 -103
5 -19 10 -75 11 -123 1 -48 4 -87 8 -87 4 0 5 -18 3 -40 -4 -34 -8 -41 -31
-46 -14 -3 -35 -9 -46 -14 -11 -5 -51 -15 -90 -23 -38 -9 -83 -21 -100 -28
-16 -6 -37 -13 -45 -14 -131 -18 -135 -19 -106 -40 12 -9 26 -11 40 -6 11 5
24 9 29 9 19 1 74 14 92 22 11 5 34 12 50 16 17 4 32 8 35 9 3 1 19 5 35 9
124 30 185 51 188 65 1 9 0 32 -4 51 -4 19 -10 83 -13 141 -8 148 -37 279 -60
278 -5 -1 -12 5 -16 11 -4 6 -22 13 -41 15 -19 2 -45 5 -59 7 -14 3 -55 3 -92
1z"/>
<path d="M1351 1787 c-16 -8 -27 -26 -35 -57 -12 -51 -13 -201 0 -221 4 -7 9
-25 10 -38 2 -14 10 -31 19 -37 8 -6 20 -25 26 -43 8 -24 17 -31 37 -31 22 0
24 2 10 13 -16 13 -31 57 -19 57 9 0 -6 134 -18 171 -5 15 -5 32 1 42 11 20 3
37 -18 37 -12 0 -14 7 -9 33 9 39 32 67 57 67 10 0 18 5 18 10 0 14 -50 12
-79 -3z"/>
<path d="M1615 1724 c-74 -23 -125 -31 -131 -23 -3 5 -14 9 -25 9 -20 0 -40
-35 -32 -57 3 -6 6 -51 8 -100 3 -109 2 -103 23 -103 15 0 17 6 14 33 -3 30
-1 34 20 33 22 -1 23 2 21 59 -2 33 -7 61 -13 63 -16 6 32 39 65 45 36 6 70
14 95 22 14 4 19 -1 23 -25 7 -33 15 -65 17 -65 1 0 3 -23 4 -51 l4 -51 -49
-2 c-48 -1 -99 -15 -99 -26 0 -3 6 -5 13 -4 6 1 20 -2 31 -6 11 -5 26 -3 38 4
11 7 18 9 15 4 -8 -13 80 -10 93 3 9 9 8 37 -4 112 -18 115 -23 132 -40 133
-6 0 -20 2 -31 3 -11 1 -38 -4 -60 -10z"/>
<path d="M775 1409 c-16 -4 -46 -12 -66 -17 -47 -12 -59 -20 -59 -38 0 -8 -4
-14 -9 -14 -7 0 -8 -17 -3 -71 1 -9 8 -19 15 -22 8 -3 12 8 14 35 2 68 44 97
141 99 95 1 129 -16 151 -73 10 -26 -9 -94 -24 -92 -6 1 -26 5 -45 8 l-35 7
28 -21 c53 -42 21 -95 -45 -74 -13 4 -24 5 -25 3 -2 -2 -12 13 -23 34 -24 45
-20 56 17 49 26 -4 27 -3 12 12 -9 9 -25 18 -37 19 -12 1 -22 5 -22 9 0 13
-40 9 -41 -4 -1 -42 -9 -93 -18 -121 -6 -18 -18 -59 -28 -92 -20 -71 -78 -157
-102 -153 -9 2 -18 14 -19 27 -5 30 17 111 30 111 5 0 6 5 3 10 -3 6 -2 10 3
10 5 0 14 11 20 25 l12 26 -24 -18 c-14 -10 -38 -41 -56 -69 -57 -94 -28 -168
57 -145 48 14 96 81 122 172 22 76 39 119 40 102 1 -7 7 -13 15 -13 7 0 19 -7
26 -15 7 -8 16 -13 20 -10 5 3 11 1 15 -5 3 -5 19 -10 35 -10 47 0 98 -30 111
-64 6 -17 13 -68 15 -114 2 -45 6 -87 9 -92 3 -5 0 -12 -6 -15 -5 -4 -8 -13
-6 -19 6 -14 -16 -126 -27 -144 -4 -7 -12 -12 -17 -12 -6 0 -29 -9 -51 -20
-55 -26 -68 -26 -61 3 15 61 24 132 30 226 4 80 3 105 -7 111 -8 5 -21 28 -30
52 -11 31 -22 44 -38 46 -28 4 -28 -1 4 -88 29 -82 29 -83 19 -175 -4 -38 -8
-82 -9 -97 -1 -15 -5 -30 -9 -34 -4 -4 -7 -26 -7 -49 0 -22 -4 -45 -10 -51 -7
-7 2 -14 25 -23 l36 -13 -7 -111 c-4 -62 -10 -117 -15 -123 -10 -12 -2 -24 17
-24 23 0 34 38 40 138 6 93 5 100 -16 120 -29 26 -21 37 37 51 26 7 66 21 90
32 40 18 43 23 43 57 0 20 5 89 12 152 l12 115 52 1 c56 0 132 38 202 102 35
32 36 33 11 28 -15 -3 -54 -24 -88 -47 -103 -69 -180 -63 -207 16 -18 52 -18
55 5 55 24 0 37 17 46 58 3 17 10 32 14 32 7 0 8 32 2 50 -3 10 -30 -46 -31
-63 0 -10 -4 -15 -10 -12 -5 3 -10 -1 -10 -10 0 -21 -24 -29 -49 -15 -26 14
-26 35 0 85 22 44 21 82 -6 140 -12 23 -26 37 -44 41 -14 3 -37 9 -51 14 -43
14 -84 17 -115 9z m155 -299 c0 -5 -5 -10 -11 -10 -5 0 -7 5 -4 10 3 6 8 10
11 10 2 0 4 -4 4 -10z"/>
<path d="M1735 1283 c-11 -3 -58 -18 -105 -33 -47 -15 -99 -31 -117 -35 -34
-7 -83 -40 -83 -56 0 -5 9 -9 20 -9 11 0 20 5 20 10 0 6 8 10 18 10 10 0 27 6
38 14 11 8 36 17 56 20 20 3 66 17 102 30 35 14 79 26 97 28 33 3 33 3 37 -44
3 -41 1 -47 -20 -53 -13 -4 -59 -25 -103 -45 -167 -78 -209 -85 -232 -40 -7
15 -9 26 -3 28 19 7 10 22 -12 22 -41 0 -48 -11 -35 -53 7 -20 18 -37 25 -37
7 0 24 -7 37 -16 20 -13 31 -14 56 -5 17 6 35 8 40 5 5 -3 9 -1 9 5 0 5 14 12
30 16 17 4 30 11 30 16 0 5 9 9 20 9 23 0 90 30 90 41 0 8 69 33 74 27 9 -9
-7 -67 -17 -61 -6 4 -7 1 -3 -6 5 -7 15 -10 23 -7 8 3 11 2 8 -3 -7 -13 8 -21
23 -12 16 10 21 95 10 168 -10 57 -13 61 -41 67 -33 7 -62 6 -92 -1z"/>
<path d="M1260 1182 c-14 -9 -28 -21 -32 -27 -4 -5 -8 -6 -8 -2 0 8 -66 -28
-127 -69 -24 -16 -29 -24 -20 -33 16 -16 22 -14 59 19 18 17 38 30 45 30 7 0
13 4 13 8 0 5 12 15 28 23 15 8 29 16 32 20 3 3 15 12 28 21 31 21 14 30 -18
10z"/>
<path d="M645 1129 c-4 -6 -5 -12 -2 -15 2 -3 7 2 10 11 7 17 1 20 -8 4z"/>
<path d="M922 525 c-7 -15 -9 -32 -5 -38 4 -6 6 -26 5 -44 -2 -28 2 -35 23
-43 44 -17 89 -11 124 14 34 26 31 36 -9 29 -14 -2 -41 -5 -60 -6 l-35 -2 0
55 c0 62 -22 80 -43 35z"/>
<path d="M937 258 c-7 -4 -26 -8 -43 -8 -16 0 -39 -6 -50 -14 -17 -13 -17 -15
-3 -21 19 -7 117 19 145 39 17 13 17 14 -10 13 -15 -1 -33 -5 -39 -9z"/>
</g>
</svg>
