<?xml version="1.0" standalone="no"?>
<!DOCTYPE svg PUBLIC "-//W3C//DTD SVG 20010904//EN"
 "http://www.w3.org/TR/2001/REC-SVG-20010904/DTD/svg10.dtd">
<svg version="1.0" xmlns="http://www.w3.org/2000/svg"
 width="570.000000pt" height="301.000000pt" viewBox="0 0 570.000000 301.000000"
 preserveAspectRatio="xMidYMid meet">
<metadata>
Created by potrace 1.12, written by Peter Selinger 2001-2015
</metadata>
<g transform="translate(0.000000,301.000000) scale(0.100000,-0.100000)"
fill="#000000" stroke="none">
<path d="M3697 2782 c-9 -2 -24 -16 -32 -31 -20 -39 -31 -131 -17 -140 10 -6
18 -31 21 -63 1 -5 19 -21 41 -37 26 -19 35 -31 27 -34 -16 -6 -42 -90 -34
-110 4 -10 18 -13 54 -10 l48 5 0 -33 c0 -19 -4 -40 -9 -48 -7 -10 -5 -18 5
-24 13 -8 13 -21 -2 -106 -9 -53 -20 -104 -25 -115 -4 -11 -2 -21 7 -27 11 -7
10 -9 -6 -10 -14 0 -11 -3 10 -10 17 -5 48 -7 70 -5 l41 3 1 -53 c1 -29 4 -62
8 -73 9 -28 41 -33 58 -8 12 18 11 25 -1 50 -10 21 -11 32 -3 40 8 8 13 2 17
-22 4 -21 15 -37 30 -43 29 -13 29 -15 4 -56 -25 -41 -25 -62 -2 -62 22 0 75
56 67 70 -3 6 -1 10 4 10 6 0 11 14 11 31 0 25 -3 29 -19 24 -26 -8 -40 14
-47 78 -5 48 -3 59 15 78 26 28 26 31 1 54 -11 10 -20 24 -20 31 0 17 -103
104 -123 104 -21 0 -26 10 -34 67 -8 62 -42 97 -85 88 -30 -7 -30 -7 -23 26 8
33 35 72 35 49 0 -7 8 -10 20 -7 11 3 20 1 20 -4 0 -5 18 -8 40 -6 22 1 40 4
40 7 0 3 20 5 45 5 33 0 51 6 67 23 l23 23 -75 -2 c-84 -2 -81 -7 -62 84 5 26
6 47 1 47 -5 0 -9 6 -9 14 0 8 -6 17 -12 20 -10 5 -10 7 -1 12 17 8 -6 44 -28
44 -9 0 -20 7 -23 16 -4 9 -11 12 -18 7 -7 -4 -21 -6 -30 -5 -10 2 -28 -4 -39
-12 -21 -14 -21 -15 17 -13 53 4 79 -24 89 -90 7 -50 -12 -113 -34 -113 -15 0
-34 59 -27 85 9 37 -23 33 -51 -7 -15 -22 -24 -27 -26 -17 -2 8 -8 28 -14 44
-10 32 2 122 18 142 12 14 1 21 -24 15z m242 -636 c28 -30 51 -59 51 -64 0
-17 -94 -52 -139 -52 -25 0 -27 3 -23 35 2 19 8 32 13 29 5 -3 10 7 11 23 0
15 2 33 3 38 2 6 4 15 5 20 1 6 2 13 1 18 -3 22 32 0 78 -47z"/>
<path d="M3212 2590 c-23 -22 -42 -44 -42 -48 0 -5 -23 -40 -52 -77 l-51 -69
-16 25 c-9 13 -32 41 -51 61 -32 34 -41 37 -80 28 -3 0 6 -10 19 -21 41 -33
91 -120 92 -159 2 -56 6 -76 15 -91 5 -8 14 -54 20 -104 10 -88 10 -91 -18
-150 -16 -33 -32 -67 -37 -76 -5 -9 -12 -37 -16 -63 -4 -25 -11 -49 -16 -52
-41 -25 53 -114 133 -127 21 -3 40 -2 43 3 2 4 -19 24 -48 44 -49 34 -53 39
-49 70 2 19 -1 42 -6 53 -8 14 -5 29 9 58 10 22 18 45 19 51 0 17 24 64 33 64
8 0 8 -3 12 -40 1 -14 14 -59 28 -101 16 -49 24 -91 21 -115 -2 -22 0 -45 4
-51 10 -16 46 -21 50 -8 7 20 -10 160 -21 174 -7 7 -12 19 -12 25 -1 27 -40
128 -51 133 -10 4 -11 10 -4 23 8 14 6 21 -5 27 -8 5 -18 30 -21 57 -7 49 -7
49 20 44 14 -3 29 -2 31 2 3 4 20 11 39 14 44 8 80 64 71 108 -10 44 -61 96
-101 104 -19 3 -34 8 -34 11 0 2 14 24 30 48 17 24 30 48 30 53 0 5 11 18 25
28 14 10 25 28 25 39 0 15 2 17 9 6 9 -14 18 -5 17 18 -2 28 -23 21 -64 -19z
m-27 -240 c10 -11 15 -20 11 -20 -4 0 0 -10 8 -22 23 -33 20 -57 -10 -68 -39
-15 -84 -13 -84 5 0 21 -1 27 -11 53 -21 55 46 96 86 52z"/>
<path d="M4620 2301 c-18 -5 -26 -15 -28 -34 -2 -15 1 -27 7 -27 6 0 11 7 11
15 0 9 10 16 25 17 14 0 31 1 38 2 16 1 10 -44 -9 -65 -9 -10 -24 -14 -38 -12
-28 6 -66 -12 -66 -31 0 -7 11 -18 24 -26 16 -8 22 -18 19 -28 -4 -10 4 -7 27
9 55 38 68 53 79 82 32 83 -3 122 -89 98z"/>
<path d="M4365 2230 c-3 -5 5 -15 19 -21 23 -11 35 -35 41 -86 2 -12 6 -27 10
-32 8 -14 89 -51 109 -51 19 0 22 -38 4 -45 -7 -3 -13 -18 -14 -34 -1 -16 -8
-37 -17 -45 -12 -13 -13 -20 -4 -41 7 -14 16 -25 20 -25 19 0 -8 -22 -59 -47
-30 -14 -54 -29 -54 -33 0 -3 -18 -16 -40 -29 -42 -23 -45 -41 -6 -41 32 0 39
-10 20 -31 -13 -15 -74 -162 -74 -181 0 -4 9 -12 19 -18 15 -8 29 -6 55 7 42
21 46 33 11 33 -30 0 -30 -3 -4 62 26 68 45 88 81 88 24 0 27 -3 20 -17 -5
-10 -7 -45 -4 -78 9 -131 4 -195 -17 -195 -26 -1 -54 -27 -48 -45 7 -16 37
-21 37 -6 0 13 40 25 69 22 20 -2 22 0 15 16 -4 10 -9 75 -11 146 -2 120 -1
127 17 127 21 0 27 24 9 36 -8 4 -10 33 -7 85 3 44 1 79 -4 79 -5 0 -6 10 -3
23 3 12 7 33 9 47 4 33 34 100 54 123 20 23 34 22 78 -8 48 -32 83 -32 109 1
14 17 31 26 54 27 52 3 49 24 -4 31 -42 7 -48 5 -76 -23 -17 -17 -34 -31 -39
-31 -5 0 -23 12 -40 27 -33 27 -80 33 -105 13 -9 -7 -19 -8 -32 -1 -10 5 -32
15 -50 21 -44 16 -57 35 -59 84 -2 22 -3 44 -3 47 -1 8 -49 29 -66 29 -8 0
-17 -4 -20 -10z m139 -539 c-9 -10 -26 18 -18 30 5 9 9 8 14 -7 4 -10 6 -21 4
-23z"/>
<path d="M2243 2140 c-22 -20 -39 -73 -29 -89 3 -5 14 -7 24 -4 10 2 24 -3 31
-11 17 -20 55 -20 75 0 9 8 16 11 16 5 0 -5 9 -13 20 -16 13 -4 20 -15 20 -31
0 -14 6 -31 13 -39 17 -16 22 -118 7 -145 -6 -11 -17 -20 -25 -20 -8 0 -23 -8
-34 -19 -18 -18 -19 -17 -49 28 -38 60 -51 131 -28 166 24 37 19 42 -13 11
-27 -26 -29 -31 -23 -89 2 -34 8 -64 11 -67 4 -3 12 -17 18 -32 7 -16 17 -28
23 -28 5 0 10 -7 10 -15 0 -8 5 -15 11 -15 6 0 8 -7 5 -17 -4 -9 -12 -50 -18
-90 -6 -41 -14 -70 -18 -64 -7 13 -108 32 -115 22 -2 -4 -21 -8 -42 -9 -47 -4
-65 -19 -32 -27 13 -3 63 -6 111 -8 l88 -2 -6 -35 c-7 -44 -24 -80 -38 -80 -7
0 -18 -10 -26 -21 -42 -60 -50 -67 -72 -61 -20 5 -21 3 -10 -10 9 -11 10 -18
2 -23 -5 -3 -10 -1 -10 4 0 6 -9 11 -20 11 -11 0 -20 -7 -20 -15 0 -8 -9 -15
-20 -15 -12 0 -20 -7 -20 -17 0 -13 -3 -14 -12 -5 -9 9 -22 2 -54 -28 -24 -22
-51 -40 -59 -40 -9 0 -23 -6 -30 -14 -12 -11 -9 -18 19 -42 17 -16 43 -45 57
-64 30 -44 61 -49 80 -12 17 32 34 52 46 52 23 0 62 27 60 40 -1 10 5 14 21
12 32 -5 38 22 16 70 -18 40 -18 41 4 59 12 9 21 23 20 29 -2 7 6 17 17 23 11
7 30 22 42 35 13 13 23 19 23 15 1 -10 39 39 40 50 0 5 -10 5 -22 1 -20 -6
-21 -5 -9 9 7 9 11 23 8 31 -6 15 16 178 28 208 8 19 34 18 45 -3 4 -8 15 -57
25 -109 9 -52 20 -99 22 -103 3 -5 6 -29 7 -54 2 -49 -11 -63 -58 -63 -26 0
-84 -45 -73 -57 4 -3 12 -1 19 4 21 17 105 32 116 21 6 -6 16 -7 22 -3 17 11
6 121 -27 265 -31 136 -31 140 -5 207 11 29 19 70 18 93 0 22 2 40 7 40 4 0 7
-11 7 -24 0 -14 5 -28 10 -31 6 -3 10 -17 10 -31 0 -21 5 -24 36 -24 20 0 33
4 29 10 -3 6 1 7 9 4 14 -5 22 14 14 31 -2 2 6 11 17 20 20 16 19 16 -5 12
-14 -2 -33 -8 -42 -12 -13 -5 -18 -3 -18 9 0 9 -4 16 -10 16 -5 0 -10 17 -10
38 0 38 16 61 53 75 19 7 33 34 24 44 -4 3 -23 -7 -43 -22 -20 -15 -46 -28
-58 -28 -79 1 -84 11 -31 66 19 20 35 41 35 47 0 21 -27 9 -65 -30 -35 -35
-43 -39 -84 -37 -41 2 -45 5 -53 33 -12 47 -30 58 -55 34z m-144 -911 c-10
-20 -9 -21 9 -17 12 3 29 0 39 -8 17 -13 17 -13 0 -14 -10 0 -20 -7 -23 -15
-4 -8 -15 -15 -27 -15 -11 0 -31 -10 -44 -22 l-24 -22 -24 28 -25 29 52 38
c59 45 85 51 67 18z"/>
<path d="M1321 1992 c-31 -33 -34 -43 -35 -97 -1 -55 13 -224 19 -235 1 -3 -1
-14 -5 -25 -5 -16 -11 -8 -28 38 -12 32 -22 64 -22 71 0 8 -7 16 -14 19 -20 8
-30 -27 -16 -53 7 -12 9 -24 6 -27 -6 -6 21 -61 38 -79 15 -15 66 -15 68 0 0
6 2 16 3 21 2 6 4 15 5 20 1 6 1 28 0 50 l-1 40 24 -27 c21 -24 24 -36 20 -80
-2 -29 -8 -57 -13 -63 -4 -5 -7 -73 -5 -150 2 -121 7 -155 34 -255 17 -63 33
-124 35 -135 2 -11 4 -23 5 -26 0 -4 10 -9 20 -12 11 -3 20 -13 19 -23 0 -11
2 -35 5 -54 3 -19 9 -61 12 -92 3 -31 12 -61 19 -67 14 -12 83 -3 93 11 7 13
-16 28 -44 28 -13 0 -23 3 -24 8 -1 4 -2 25 -4 47 -2 22 -8 66 -13 98 -7 49
-6 61 9 78 10 11 21 19 25 18 9 -3 54 40 54 52 0 5 -6 9 -12 9 -9 0 -13 21
-14 68 -2 205 -10 262 -39 262 -15 0 -21 -35 -7 -43 4 -3 8 -73 10 -156 2
-124 0 -151 -12 -151 -7 0 -19 -6 -25 -14 -15 -18 -54 -28 -48 -13 2 7 0 23
-6 37 -5 14 -10 32 -11 40 -1 8 -7 26 -13 40 -25 58 -38 260 -26 385 7 71 10
80 28 80 11 0 19 6 17 13 -1 8 5 12 15 10 19 -3 51 -104 52 -165 1 -26 5 -33
21 -33 25 0 26 21 4 98 -25 91 -35 112 -63 127 -14 8 -20 14 -12 15 8 0 11 6
7 16 -3 9 -2 12 5 8 7 -4 10 6 9 27 -1 19 -1 36 0 39 12 38 4 83 -30 155 -36
78 -39 82 -71 83 -27 0 -41 -7 -68 -36z m83 2 c9 -3 16 -10 16 -15 0 -15 -37
-10 -50 6 -10 12 -10 15 3 15 8 0 22 -3 31 -6z m-19 -61 c0 -20 14 -26 29 -14
16 13 20 9 30 -32 8 -34 -13 -45 -51 -28 -14 7 -30 8 -35 3 -13 -13 15 -43 45
-46 15 -1 33 -8 38 -13 14 -14 1 -93 -14 -93 -46 0 -133 194 -103 228 14 14
61 11 61 -5z"/>
<path d="M4400 1840 c-8 -5 -11 -12 -7 -16 4 -4 13 -2 19 4 15 15 7 24 -12 12z"/>
<path d="M1811 1799 c-56 -27 -78 -49 -49 -49 6 0 9 -3 5 -6 -3 -4 0 -22 8
-41 23 -54 19 -65 -36 -103 -28 -19 -58 -43 -67 -54 -9 -10 -23 -24 -29 -31
-18 -19 -17 -38 1 -28 8 4 35 25 60 47 26 21 62 46 81 56 47 24 56 10 65 -88
8 -90 0 -119 -34 -128 -25 -6 -40 -29 -30 -45 8 -14 17 -11 49 19 17 16 35 27
42 25 6 -2 14 5 18 17 4 12 9 19 12 16 3 -3 14 -1 25 5 13 7 23 7 32 0 16 -14
26 -4 26 26 0 27 -16 29 -56 8 -16 -8 -32 -11 -36 -7 -4 4 -9 32 -10 61 -3 45
0 56 17 65 46 26 85 84 85 127 0 21 5 41 10 44 6 3 10 11 10 16 0 6 -6 7 -12
3 -9 -6 -9 -3 0 9 24 28 6 57 -36 58 -20 1 -49 3 -64 4 -14 2 -53 -9 -87 -26z
m153 -49 c-3 -81 -29 -136 -75 -160 -19 -11 -28 3 -9 15 13 8 1 35 -15 35 -18
0 -57 84 -53 112 3 25 38 35 113 34 39 -1 40 -2 39 -36z"/>
<path d="M1881 1686 c-9 -10 -9 -16 -1 -21 17 -10 37 12 24 25 -8 8 -15 6 -23
-4z"/>
<path d="M3832 1809 c-31 -13 -43 -24 -40 -36 3 -19 58 -30 58 -12 0 6 17 17
38 26 47 19 50 22 32 33 -21 14 -39 11 -88 -11z"/>
<path d="M1230 1789 c0 -5 5 -7 10 -4 6 3 10 8 10 11 0 2 -4 4 -10 4 -5 0 -10
-5 -10 -11z"/>
<path d="M3245 1676 c-33 -12 -59 -26 -57 -31 3 -12 33 -14 47 -4 6 4 12 7 15
7 22 -2 118 16 128 24 42 34 -44 37 -133 4z"/>
<path d="M5027 1618 c-13 -24 -28 -53 -31 -65 -4 -13 -12 -24 -17 -24 -52 -7
-68 -19 -67 -51 1 -27 3 -29 13 -14 19 25 79 32 110 12 28 -19 33 -59 13 -117
-11 -35 -46 -74 -63 -74 -47 2 -68 66 -31 96 20 17 20 18 2 25 -14 5 -25 0
-43 -22 -12 -16 -23 -35 -23 -43 0 -26 42 -81 66 -87 17 -4 24 -13 24 -29 0
-13 -4 -26 -9 -29 -9 -6 -19 -46 -27 -110 -7 -56 -15 -67 -35 -53 -18 14 -51
72 -44 79 3 3 -6 10 -19 18 -28 14 -35 34 -42 110 -5 58 -15 77 -33 66 -17
-11 -14 -119 4 -142 8 -10 15 -30 15 -44 0 -37 36 -90 69 -101 16 -6 36 -25
47 -45 10 -18 22 -34 25 -34 15 0 2 -27 -26 -57 -37 -38 -62 -100 -46 -116 15
-15 38 7 46 44 4 17 13 33 20 36 8 2 11 11 8 19 -8 21 34 18 64 -5 l24 -20 50
31 c41 25 50 35 45 52 -3 13 2 32 10 45 9 12 17 46 19 76 2 30 7 60 12 67 15
23 30 98 25 124 -11 58 -25 32 -86 -167 -14 -47 -26 -90 -26 -97 0 -6 -12 -14
-27 -18 -16 -3 -35 -8 -44 -10 -8 -2 -24 2 -34 10 -18 13 -19 16 -4 33 9 10
16 29 14 43 -1 14 9 64 21 113 13 48 21 94 18 101 -3 8 3 16 15 19 21 5 65 82
56 97 -3 6 -1 10 6 10 8 0 10 15 7 50 -4 38 -1 55 12 70 10 11 21 20 26 21 5
0 20 14 33 30 39 50 11 53 -42 5 -43 -40 -49 -43 -72 -33 -24 11 -37 57 -16
57 11 0 21 25 26 63 6 39 -9 33 -38 -15z"/>
<path d="M1169 1609 c-13 -11 -30 -24 -38 -29 -8 -4 -11 -12 -7 -18 9 -15 36
-4 36 14 0 8 6 14 14 14 13 0 31 28 23 36 -2 2 -15 -5 -28 -17z"/>
<path d="M666 1485 c-18 -19 -14 -48 11 -76 12 -15 11 -17 -12 -23 -25 -6 -35
-26 -14 -26 8 0 8 -4 1 -13 -13 -16 36 -148 80 -215 15 -24 28 -47 28 -53 0
-11 49 -1 69 15 18 14 44 76 36 84 -3 4 -10 0 -14 -7 -7 -10 -11 -8 -16 10
-21 65 -77 169 -100 186 -20 14 -28 31 -32 64 -7 63 -16 75 -37 54z m45 -138
c19 -15 96 -167 101 -198 5 -36 -18 -33 -36 6 -10 19 -21 33 -27 30 -5 -4 -9
3 -9 14 0 12 -4 21 -10 21 -5 0 -12 12 -16 28 -4 15 -12 36 -19 47 -31 51 -22
82 16 52z"/>
<path d="M3581 1448 c-11 -18 -32 -46 -45 -62 l-24 -29 -27 31 c-15 18 -33 32
-40 32 -7 0 -15 6 -18 13 -3 9 -10 7 -23 -5 -10 -10 -13 -18 -7 -18 6 0 25
-12 42 -27 26 -23 31 -35 31 -73 0 -51 -13 -70 -46 -70 -44 0 -69 67 -39 106
21 28 18 36 -12 32 -25 -3 -29 -8 -36 -57 l-9 -54 42 -40 c41 -39 42 -40 81
-28 22 7 43 19 46 27 8 22 23 16 23 -10 0 -37 26 -88 62 -122 45 -43 69 -54
109 -49 31 4 40 -1 79 -40 37 -37 41 -46 30 -60 -7 -8 -18 -15 -25 -15 -8 0
-26 -10 -42 -23 -15 -13 -50 -34 -76 -46 -45 -22 -47 -24 -32 -41 9 -10 29
-20 45 -23 15 -4 52 -27 80 -52 29 -25 57 -44 63 -42 19 6 19 27 0 34 -10 4
-24 13 -31 20 -7 7 -20 13 -27 13 -8 0 -12 6 -9 14 3 8 -4 16 -20 20 -30 7
-34 24 -8 33 9 4 27 17 39 30 12 13 30 25 40 26 39 8 73 19 74 26 0 3 2 14 4
24 2 9 -3 17 -11 17 -8 0 -14 5 -14 10 0 6 -4 10 -10 10 -12 0 -90 79 -90 92
0 6 7 7 18 3 24 -11 201 -63 234 -70 18 -3 30 -13 33 -28 4 -13 15 -28 26 -35
16 -10 19 -9 19 7 0 41 -13 83 -21 69 -7 -10 -9 -9 -9 5 0 13 -9 17 -43 17
-24 0 -47 4 -53 10 -5 5 -25 11 -44 13 -19 2 -36 9 -38 15 -2 6 -26 14 -53 18
-45 6 -48 8 -43 29 4 17 0 26 -15 35 -22 12 -46 4 -75 -26 -9 -9 -16 -11 -16
-4 0 6 -4 9 -10 5 -5 -3 -6 -13 -3 -21 9 -25 -39 -13 -52 12 -6 11 -15 19 -21
17 -6 -2 -11 2 -11 9 0 7 -3 28 -7 46 -7 30 -6 32 18 32 13 0 28 5 32 12 5 7
11 5 21 -7 7 -11 13 -15 13 -9 0 5 4 2 10 -6 8 -12 10 -12 16 3 3 9 1 24 -6
32 -10 12 -4 24 35 67 39 43 44 53 30 60 -17 10 -52 -11 -108 -67 -19 -19 -42
-35 -50 -35 -26 0 -30 37 -7 62 42 45 59 98 41 126 -6 10 -14 5 -30 -20z"/>
<path d="M4240 1440 c-27 -18 9 -30 88 -29 53 1 72 5 72 15 0 9 -13 14 -37 14
-21 0 -54 3 -73 5 -19 3 -42 1 -50 -5z"/>
<path d="M453 1425 c-3 -10 2 -50 11 -90 14 -60 15 -77 5 -94 -11 -16 -10 -23
2 -38 9 -10 28 -47 43 -82 50 -113 76 -147 98 -126 3 3 -13 42 -35 86 -37 75
-40 85 -30 120 10 37 2 52 -13 28 -5 -8 -9 -7 -14 1 -12 20 12 41 29 27 18
-15 66 -119 80 -174 7 -23 16 -45 21 -48 15 -9 12 -19 -10 -45 -20 -24 -27
-50 -12 -50 15 0 51 44 67 82 19 46 19 54 1 39 -14 -12 -21 -1 -47 84 -14 45
-54 122 -75 145 -8 8 -26 15 -41 16 -24 1 -28 6 -39 55 -7 30 -12 58 -11 63 4
17 -23 17 -30 1z"/>
<path d="M4722 1378 c-18 -18 -14 -38 7 -38 27 0 37 19 19 36 -11 11 -16 12
-26 2z"/>
<path d="M285 1290 c-11 -18 34 -100 51 -93 15 5 13 20 -8 76 -11 27 -31 36
-43 17z"/>
<path d="M2344 1266 c-3 -8 0 -33 6 -56 11 -41 19 -93 23 -155 2 -26 -3 -32
-43 -51 -25 -11 -51 -28 -58 -37 -23 -27 5 -29 52 -2 25 14 54 25 65 25 11 0
22 4 25 8 4 7 -8 127 -18 172 -1 8 -6 32 -11 53 -4 20 -11 37 -17 37 -5 0 -6
5 -3 10 3 6 1 10 -5 10 -6 0 -13 -6 -16 -14z"/>
<path d="M2465 1259 c-4 -5 -1 -24 5 -40 7 -16 10 -32 7 -36 -4 -3 -2 -13 3
-22 7 -15 18 -75 24 -136 2 -20 7 -25 27 -25 18 0 -1 129 -37 253 -6 19 -20
22 -29 6z"/>
<path d="M350 1165 c-14 -17 -6 -108 10 -113 6 -2 8 -8 4 -13 -3 -5 -2 -14 2
-20 10 -17 18 -74 18 -141 1 -32 6 -60 12 -62 20 -8 104 55 104 77 0 18 -2 19
-17 5 -23 -19 -51 -29 -57 -20 -2 4 -14 54 -26 112 -12 58 -25 115 -27 128
-10 42 13 22 45 -42 17 -34 32 -66 32 -70 0 -5 10 -21 21 -38 18 -25 23 -28
31 -15 5 10 -4 41 -31 95 -60 125 -90 154 -121 117z"/>
<path d="M4247 1075 c-54 -19 -59 -28 -12 -20 22 4 47 14 55 21 18 17 6 17
-43 -1z"/>
<path d="M1295 1010 c3 -5 8 -10 11 -10 2 0 4 5 4 10 0 6 -5 10 -11 10 -5 0
-7 -4 -4 -10z"/>
<path d="M1557 1013 c-4 -4 -4 -29 -1 -57 7 -53 47 -106 79 -106 22 0 54 36
50 57 -2 10 -4 22 -4 27 -1 5 -12 -3 -26 -18 -21 -23 -28 -26 -40 -16 -8 7
-15 23 -15 37 0 21 -25 83 -34 83 -1 0 -6 -3 -9 -7z"/>
<path d="M2522 942 c-23 -21 -42 -43 -42 -49 0 -6 -7 -16 -15 -23 -15 -13 -21
-50 -7 -50 4 0 23 24 42 52 19 29 45 61 58 72 22 20 29 36 14 36 -4 0 -27 -17
-50 -38z"/>
<path d="M4526 791 c-4 -5 18 -11 46 -14 112 -11 177 -24 195 -39 14 -11 57 8
48 22 -16 27 -275 55 -289 31z"/>
<path d="M4835 740 c-7 -11 4 -61 18 -77 5 -7 7 -13 4 -13 -3 0 0 -15 7 -32
14 -35 11 -58 -7 -58 -30 -1 -97 -86 -97 -123 0 -25 42 -19 46 6 4 27 19 42
64 62 48 22 50 34 19 152 -20 75 -40 106 -54 83z"/>
<path d="M4523 732 c-8 -5 -6 -20 9 -57 11 -28 23 -58 26 -67 5 -12 12 -15 20
-9 11 7 10 20 -6 72 -20 64 -28 74 -49 61z"/>
</g>
</svg>
