<?xml version="1.0" standalone="no"?>
<!DOCTYPE svg PUBLIC "-//W3C//DTD SVG 20010904//EN"
 "http://www.w3.org/TR/2001/REC-SVG-20010904/DTD/svg10.dtd">
<svg version="1.0" xmlns="http://www.w3.org/2000/svg"
 width="408.000000pt" height="342.000000pt" viewBox="0 0 408.000000 342.000000"
 preserveAspectRatio="xMidYMid meet">
<metadata>
Created by potrace 1.12, written by Peter Selinger 2001-2015
</metadata>
<g transform="translate(0.000000,342.000000) scale(0.100000,-0.100000)"
fill="#000000" stroke="none">
<path d="M1407 3024 c-6 -6 -81 -12 -237 -19 -63 -3 -131 -7 -150 -10 -83 -9
-136 -17 -150 -22 -8 -3 -29 -7 -45 -8 -17 -1 -37 -5 -44 -9 -7 -5 -30 -10
-50 -13 -43 -5 -91 -22 -91 -33 0 -11 42 -20 54 -11 23 16 173 54 186 46 5 -3
11 -1 14 3 5 9 57 14 148 16 27 1 48 5 48 10 0 5 6 4 13 -2 6 -5 21 -6 32 -2
11 4 26 5 33 3 6 -3 20 -2 30 2 9 4 53 9 97 12 129 6 505 8 505 3 0 -3 51 -5
114 -5 73 0 112 4 108 10 -3 6 1 5 9 -1 13 -11 107 -19 343 -30 61 -3 138 -7
171 -9 33 -2 125 -6 205 -10 172 -7 233 -13 360 -30 19 -2 55 -7 80 -10 25 -3
56 -8 70 -10 86 -12 198 -16 205 -6 4 8 -4 11 -22 10 -41 -1 -266 25 -355 42
-26 5 -89 11 -140 15 -51 3 -108 9 -126 14 -18 5 -30 5 -27 1 5 -8 -34 -7
-141 5 -33 3 -100 7 -150 9 -49 1 -100 6 -113 10 -18 5 -22 4 -16 -5 5 -7 4
-11 -1 -7 -5 3 -29 6 -54 8 -25 1 -49 5 -54 8 -6 2 -28 4 -50 4 -23 -1 -45 2
-51 6 -13 9 -46 8 -62 -2 -7 -5 -13 -4 -13 0 0 5 -60 10 -132 11 -350 7 -469
7 -480 1 -6 -4 -23 -3 -39 1 -15 5 -30 6 -32 4z"/>
<path d="M3582 2883 c8 -10 18 -36 22 -58 4 -22 9 -51 12 -65 19 -111 18 -250
-2 -435 -5 -38 -8 -105 -9 -147 0 -43 -2 -78 -5 -78 -3 0 -6 -30 -8 -68 -2
-37 -4 -91 -5 -119 -2 -29 -1 -53 0 -53 7 0 25 56 29 90 2 19 6 49 9 65 2 17
7 73 10 125 4 52 9 120 12 150 14 144 8 467 -11 546 -7 26 -40 64 -56 64 -10
0 -9 -4 2 -17z"/>
<path d="M561 2773 c9 -23 16 -185 8 -203 -1 -3 -3 -30 -5 -60 -3 -66 -12
-154 -18 -195 -12 -69 -10 -205 2 -217 15 -15 13 -22 18 92 2 52 8 138 14 190
13 115 22 383 14 404 -3 9 -15 16 -25 16 -16 0 -17 -3 -8 -27z"/>
<path d="M1005 2670 c-4 -6 -9 -34 -31 -165 -4 -22 -10 -44 -14 -50 -10 -13
-38 -135 -37 -158 0 -19 23 -20 130 -3 l37 6 0 -49 c0 -27 5 -62 11 -78 9 -25
11 -26 21 -10 12 22 15 40 30 170 8 69 8 101 0 109 -17 17 -31 0 -38 -43 -8
-49 -30 -65 -101 -74 l-51 -6 10 38 c5 21 12 53 15 71 3 19 13 36 22 40 16 6
40 31 41 44 0 3 -9 4 -20 1 -23 -6 -24 -2 -10 47 18 68 20 117 4 117 -8 0 -17
-3 -19 -7z"/>
<path d="M1380 2655 c0 -8 7 -15 15 -15 8 0 15 7 15 15 0 8 -7 15 -15 15 -8 0
-15 -7 -15 -15z"/>
<path d="M1850 2663 c-41 -16 -60 -73 -23 -73 8 0 11 5 8 11 -4 6 1 16 11 24
16 11 20 10 30 -3 12 -17 8 -65 -8 -96 -8 -15 -6 -21 8 -30 11 -5 25 -11 32
-12 46 -8 53 -34 27 -97 -15 -37 -31 -47 -76 -47 -36 0 -39 -27 -5 -40 44 -16
116 35 116 82 0 10 4 18 8 18 5 0 8 18 8 41 -1 38 -5 43 -42 63 -36 18 -40 24
-33 43 12 33 3 96 -17 110 -19 14 -21 14 -44 6z"/>
<path d="M1500 2635 c-7 -8 -21 -15 -31 -15 -11 0 -19 -6 -19 -13 0 -7 -12
-26 -27 -42 -16 -16 -27 -33 -26 -37 2 -4 -9 -16 -25 -25 -15 -10 -36 -26 -46
-35 -19 -18 -19 -18 9 -18 23 0 41 13 80 55 29 30 55 55 60 55 13 0 -3 -194
-21 -252 -4 -14 1 -18 21 -18 30 0 32 5 40 89 3 35 7 67 10 71 3 5 2 11 -3 14
-8 5 0 110 13 159 5 20 4 27 -8 27 -8 0 -20 -7 -27 -15z"/>
<path d="M3018 2611 c-63 -29 -66 -36 -49 -126 4 -25 2 -56 -6 -85 -25 -83 -9
-176 31 -186 32 -8 87 1 124 20 17 9 32 14 32 11 0 -11 71 48 81 67 14 25 -7
84 -43 123 -29 33 -35 51 -17 57 5 2 13 23 16 47 4 31 12 45 27 50 17 7 12 11
-29 24 -78 26 -105 26 -167 -2z m122 -21 c15 -8 17 -15 10 -42 -5 -17 -19 -41
-31 -54 -22 -23 -19 -44 6 -44 7 0 17 -9 20 -20 3 -11 10 -20 15 -20 4 0 15
-20 23 -44 14 -41 14 -46 -3 -61 -31 -28 -90 -53 -132 -57 -50 -3 -57 10 -47
90 4 32 8 93 8 138 1 64 5 84 19 96 32 28 79 36 112 18z"/>
<path d="M2496 2608 c-12 -38 -29 -117 -31 -144 -2 -18 -8 -41 -14 -53 -7 -12
-9 -21 -6 -21 3 0 1 -8 -4 -18 -12 -23 -3 -62 14 -62 17 0 57 49 49 61 -3 5 2
6 10 3 9 -3 16 -2 16 3 0 5 21 9 46 8 l47 0 14 -50 c17 -58 28 -74 43 -59 7 7
4 29 -9 67 l-20 57 28 0 c16 0 34 7 41 15 14 16 10 18 -36 15 -33 -1 -44 12
-118 143 -26 46 -62 64 -70 35z m27 -70 c-7 -53 -20 -88 -31 -88 -9 0 -5 23
14 103 10 43 23 32 17 -15z m55 -63 c9 -17 21 -33 25 -36 12 -9 -19 -19 -56
-19 -24 0 -28 3 -19 12 7 7 12 27 12 46 0 40 15 39 38 -3z"/>
<path d="M1830 2018 c0 -14 23 -33 43 -34 13 -2 15 1 7 10 -5 7 -7 15 -4 18 2
3 -7 8 -21 10 -14 3 -25 1 -25 -4z"/>
<path d="M917 1684 c-1 -2 -43 -6 -92 -9 -50 -3 -105 -10 -124 -15 -19 -5 -38
-7 -43 -4 -4 3 -8 2 -8 -3 0 -4 -19 -8 -42 -9 -73 -2 -108 -9 -108 -21 0 -7
11 -13 25 -13 14 0 25 4 25 9 0 4 17 7 38 6 20 -2 64 1 97 6 33 5 87 12 120
14 33 3 69 8 80 12 30 9 155 10 155 1 0 -4 7 -8 15 -8 8 0 15 6 15 13 0 8 3 9
8 1 8 -12 142 -12 161 0 6 4 11 4 11 -1 0 -7 204 -10 288 -4 38 2 24 22 -15
21 -163 -3 -167 -3 -205 4 -16 2 -30 0 -34 -5 -3 -5 -9 -7 -13 -5 -21 14 -75
16 -83 4 -5 -8 -11 -9 -15 -3 -7 9 -248 17 -256 9z"/>
<path d="M1573 1667 c2 -7 24 -12 54 -12 28 0 54 -3 58 -7 4 -4 18 -2 30 4 13
6 32 7 42 3 22 -10 65 -7 77 5 5 5 -1 11 -15 14 -36 8 -129 2 -129 -8 0 -5 -6
-4 -12 1 -19 15 -110 14 -105 0z"/>
<path d="M1857 1666 c-4 -10 7 -14 39 -14 24 -1 44 3 44 9 0 6 4 8 9 4 6 -3
29 -8 53 -11 24 -3 48 -7 55 -9 7 -2 15 0 18 4 2 5 25 4 51 -1 46 -10 61 -7
50 10 -3 6 -43 10 -88 10 -46 0 -85 1 -88 2 -3 1 -35 4 -72 5 -48 3 -68 0 -71
-9z"/>
<path d="M2217 1650 c14 -14 133 -16 133 -2 0 4 -32 8 -71 8 -39 1 -67 -2 -62
-6z"/>
<path d="M2408 1652 c-52 -6 -28 -17 37 -18 46 0 65 3 65 12 0 12 -32 14 -102
6z"/>
<path d="M2595 1651 c-19 -8 -19 -8 4 -20 13 -7 21 -8 17 -3 -4 6 2 15 11 21
22 13 -1 14 -32 2z"/>
<path d="M3077 1649 c8 -8 16 -8 30 0 16 9 14 10 -11 11 -22 0 -27 -3 -19 -11z"/>
<path d="M3157 1650 c9 -9 110 -24 102 -15 -4 3 -30 9 -58 14 -29 5 -49 5 -44
1z"/>
<path d="M2655 1639 c-13 -6 1 -7 43 -5 34 1 62 0 62 -3 0 -3 20 -6 45 -6 48
-1 60 9 23 18 -35 9 -150 6 -173 -4z"/>
<path d="M2860 1640 c0 -4 13 -10 29 -12 17 -2 28 -1 26 3 -7 10 -55 18 -55 9z"/>
<path d="M2930 1639 c0 -10 90 -8 96 3 3 5 -17 8 -45 7 -28 -2 -51 -6 -51 -10z"/>
<path d="M2028 1015 c-3 -3 -30 -7 -59 -9 -111 -8 -168 -30 -168 -64 1 -49
-30 -147 -50 -160 -11 -8 -21 -21 -21 -29 0 -7 -10 -17 -22 -22 -21 -8 -21 -8
5 -13 19 -4 27 -1 27 9 0 8 5 11 11 8 5 -4 24 -1 40 5 37 16 42 11 49 -48 5
-41 8 -47 28 -45 15 2 22 -3 23 -15 0 -9 1 -42 2 -72 1 -30 6 -58 12 -62 5 -4
11 -25 12 -47 1 -22 8 -50 17 -63 9 -12 16 -29 15 -38 0 -10 -2 -11 -6 -2 -6
14 -73 17 -73 2 0 -5 7 -10 15 -10 8 0 15 -6 15 -14 0 -8 11 -13 26 -13 31 0
48 35 34 72 -5 14 -7 25 -4 25 2 0 -2 13 -11 30 -22 43 -20 61 8 51 12 -4 28
-6 35 -4 6 3 12 -2 12 -9 0 -8 12 -38 26 -66 22 -45 29 -52 48 -46 11 4 31 7
44 6 13 -1 22 4 22 13 0 8 5 15 10 15 6 0 10 5 10 11 0 7 -10 9 -25 5 -14 -3
-36 -9 -50 -12 -21 -5 -25 -3 -25 16 0 12 -5 30 -11 41 -9 17 -6 25 16 45 16
14 23 29 19 36 -5 7 -9 49 -10 93 -1 44 -5 108 -9 143 -4 40 -3 62 3 62 6 0
15 12 20 28 10 26 11 26 17 5 4 -13 18 -24 36 -28 23 -5 37 0 69 26 22 18 47
43 55 56 25 38 -4 29 -55 -17 -24 -22 -49 -39 -54 -37 -6 2 -14 18 -18 35 -5
18 -13 32 -18 32 -6 0 -10 9 -10 20 0 37 -60 77 -82 55z m7 -102 c-12 -26 -20
-32 -28 -24 -6 6 -28 11 -48 11 -30 0 -37 3 -34 18 2 9 4 20 4 24 1 3 24 9 52
13 33 5 53 13 57 24 5 13 7 11 10 -7 2 -13 -4 -39 -13 -59z m-175 -64 c0 -6
-6 -17 -14 -25 -13 -12 -14 -11 -12 13 2 16 4 29 5 31 2 7 21 -10 21 -19z
m117 15 c-3 -3 -12 -4 -19 -1 -8 3 -5 6 6 6 11 1 17 -2 13 -5z m39 -164 c9
-166 7 -174 -41 -168 -28 3 -31 9 -37 66 -1 12 -7 22 -13 22 -5 0 -3 5 5 10 8
5 11 10 5 10 -5 0 -11 31 -12 68 l-2 69 45 -1 46 -1 4 -75z"/>
<path d="M2270 970 c-9 -6 -10 -10 -3 -10 6 0 15 5 18 10 8 12 4 12 -15 0z"/>
<path d="M1795 630 c-3 -6 1 -7 9 -4 18 7 21 14 7 14 -6 0 -13 -4 -16 -10z"/>
</g>
</svg>
