<?xml version="1.0" standalone="no"?>
<!DOCTYPE svg PUBLIC "-//W3C//DTD SVG 20010904//EN"
 "http://www.w3.org/TR/2001/REC-SVG-20010904/DTD/svg10.dtd">
<svg version="1.0" xmlns="http://www.w3.org/2000/svg"
 width="411.000000pt" height="384.000000pt" viewBox="0 0 411.000000 384.000000"
 preserveAspectRatio="xMidYMid meet">
<metadata>
Created by potrace 1.12, written by Peter Selinger 2001-2015
</metadata>
<g transform="translate(0.000000,384.000000) scale(0.100000,-0.100000)"
fill="#000000" stroke="none">
<path d="M2545 3168 c-55 -12 -110 -17 -243 -21 -62 -3 -115 -6 -117 -8 -2 -2
-126 -3 -277 -3 -150 1 -277 -1 -283 -4 -5 -3 -28 -5 -51 -3 -23 1 -59 -2 -80
-8 -22 -5 -68 -11 -104 -12 -36 -1 -83 -6 -105 -10 -102 -20 -213 -40 -240
-43 -16 -2 -54 -9 -82 -16 -63 -14 -85 -35 -27 -26 22 3 62 9 89 12 28 3 79
11 115 19 56 12 184 31 350 51 25 3 182 7 350 9 168 3 323 7 345 10 22 3 92 7
155 10 63 3 124 7 135 10 11 2 42 4 68 4 32 1 46 5 41 12 -4 8 -1 8 12 1 11
-5 45 -6 77 -3 67 8 190 -4 195 -19 6 -18 32 -10 32 10 0 15 -7 20 -24 20 -14
0 -27 4 -30 9 -7 11 -248 11 -301 -1z"/>
<path d="M3019 3115 c-1 -8 -2 -21 -3 -27 -1 -7 1 -30 5 -51 3 -20 3 -39 0
-42 -4 -2 -8 -66 -10 -142 -1 -75 -5 -141 -8 -146 -10 -16 -14 -417 -5 -417
12 0 24 29 16 41 -3 5 -1 9 3 9 5 0 9 33 9 73 2 105 14 367 20 399 2 15 0 38
-6 52 -5 14 -6 26 -1 26 6 0 8 159 1 223 -2 21 -20 23 -21 2z"/>
<path d="M785 3089 c-4 -6 -4 -27 0 -47 10 -50 15 -134 16 -277 1 -72 6 -126
13 -134 8 -11 8 -15 -2 -18 -6 -3 -10 -8 -8 -12 7 -11 11 -185 5 -196 -7 -13
-10 -135 -3 -146 2 -4 11 -6 20 -2 13 5 14 43 10 301 -6 310 -15 522 -23 535
-6 10 -21 9 -28 -4z"/>
<path d="M2670 3075 c-13 -14 -21 -25 -17 -25 5 0 -1 -12 -12 -26 -12 -15 -21
-35 -21 -45 0 -31 -43 -23 -83 16 -34 34 -67 46 -67 25 0 -5 -7 -7 -15 -4 -8
4 -15 2 -15 -2 0 -11 20 -42 20 -31 0 4 18 -2 41 -13 l41 -21 -23 -20 c-13
-11 -22 -31 -23 -49 -1 -27 -4 -30 -37 -30 -37 0 -79 -22 -62 -33 5 -3 30 -7
56 -8 25 -2 44 -6 41 -11 -3 -4 2 -20 10 -35 8 -16 15 -24 16 -18 0 5 7 -1 16
-13 10 -14 25 -22 45 -22 28 0 36 -15 30 -52 0 -5 3 -8 9 -8 5 0 7 -6 4 -13
-4 -12 6 -14 46 -8 4 1 4 17 2 36 -2 19 -8 32 -13 29 -5 -3 -9 -1 -9 4 0 5 14
12 31 16 29 6 67 37 70 58 5 34 28 78 41 79 7 1 23 0 36 -1 21 -1 22 1 12 20
-9 18 -18 21 -48 16 -32 -4 -41 0 -68 30 -18 19 -37 34 -44 34 -14 0 -4 73 11
78 5 2 7 7 5 10 -2 4 2 13 10 20 8 7 14 8 14 2 0 -5 4 -10 9 -10 4 0 8 10 7
23 -1 31 -35 32 -66 2z m-7 -176 c15 -17 26 -39 25 -48 -2 -9 3 -15 10 -13 6
1 12 -6 11 -15 -2 -30 -14 -64 -22 -63 -4 0 -22 -7 -39 -16 -22 -12 -33 -13
-36 -5 -2 6 -12 11 -22 11 -10 0 -27 15 -39 35 -15 26 -17 35 -7 35 8 0 19 7
26 15 11 13 10 14 -3 9 -19 -7 -39 26 -27 46 5 8 6 18 3 24 -4 5 1 7 10 3 10
-3 17 -2 17 3 0 6 15 10 33 10 24 0 40 -8 60 -31z"/>
<path d="M2125 2832 c-53 -5 -82 -22 -104 -63 -12 -21 -26 -39 -30 -39 -12 0
-53 -108 -46 -120 3 -5 17 -10 30 -10 18 0 23 6 24 28 1 54 2 62 12 62 5 0 9
7 9 16 0 9 13 29 28 44 16 15 32 35 36 46 5 14 9 15 15 5 5 -7 17 -11 28 -9
29 5 74 -28 66 -50 -15 -41 -48 -42 -62 -2 -10 31 -17 35 -38 22 -13 -8 -15
-72 -1 -72 19 0 6 -16 -14 -17 -13 -1 -24 -7 -26 -13 -2 -5 -7 -8 -12 -5 -4 3
-10 -5 -13 -16 -4 -15 0 -23 14 -26 24 -7 25 -23 1 -23 -10 0 -37 -14 -59 -30
-27 -20 -43 -26 -45 -18 -2 6 -12 9 -21 5 -32 -12 -13 -99 28 -130 15 -11 122
-2 190 16 33 9 77 19 98 22 20 3 37 10 37 15 0 6 7 10 15 10 9 0 16 10 16 25
1 14 2 28 3 33 17 68 17 73 2 88 -15 14 -17 14 -22 -1 -5 -12 -9 -13 -20 -4
-9 7 -27 9 -51 4 -21 -5 -45 -10 -54 -11 -10 -2 -19 4 -21 14 -4 13 4 22 26
32 102 43 111 52 95 97 -18 51 -73 82 -134 75z m135 -267 c0 -8 -4 -15 -10
-15 -5 0 -10 -9 -10 -20 0 -34 -64 -55 -206 -67 -58 -5 -61 -4 -67 18 -4 13
-7 27 -7 30 0 10 40 20 104 25 33 2 67 11 75 18 9 8 34 16 56 19 22 2 46 4 53
5 6 1 12 -5 12 -13z"/>
<path d="M1155 2775 c-90 -47 -68 -127 39 -141 38 -6 47 -4 52 11 5 12 9 13
14 5 5 -9 10 -6 15 9 6 19 9 20 22 9 13 -10 17 -10 20 0 3 6 10 12 17 12 7 0
17 5 24 12 21 21 63 18 104 -9 37 -25 38 -27 21 -44 -57 -55 -128 -67 -193
-34 -49 25 -63 14 -39 -32 10 -20 19 -52 19 -70 0 -18 3 -33 8 -34 4 0 17 -2
30 -5 19 -3 22 -1 17 21 -3 14 -7 36 -10 50 -4 21 -2 24 15 22 11 -2 22 -6 26
-10 4 -3 14 -2 24 3 10 5 20 6 24 3 3 -4 17 0 31 7 14 7 27 11 30 8 3 -2 5
-25 6 -51 2 -29 7 -48 16 -51 20 -8 26 17 21 79 -3 36 -1 55 6 55 6 0 4 4 -4
10 -22 14 -4 24 48 26 26 1 50 2 55 3 8 1 26 42 32 73 6 28 -14 31 -21 3 -11
-45 -39 -51 -98 -19 -28 15 -57 32 -64 37 -24 19 -71 17 -123 -3 -28 -12 -53
-19 -54 -18 -1 2 -7 13 -14 25 -6 12 -24 24 -41 28 -16 4 -30 11 -30 16 0 13
-10 11 -45 -6z m61 -54 c16 -13 19 -22 13 -39 -17 -45 -81 -12 -77 40 2 20 6
24 23 20 11 -3 29 -12 41 -21z"/>
<path d="M3475 2750 c-3 -5 -29 -6 -58 -3 -44 4 -61 1 -107 -23 -44 -23 -56
-35 -58 -56 -2 -20 1 -28 12 -28 9 0 16 9 16 20 0 25 54 60 92 60 35 0 28 -27
-15 -61 -48 -37 -97 -88 -98 -102 -3 -27 3 -53 17 -74 15 -24 10 -72 -9 -85
-13 -8 -82 -3 -154 12 -59 13 -93 1 -57 -18 20 -10 123 -24 181 -24 31 0 33
-2 33 -34 0 -19 -4 -34 -8 -34 -4 0 -6 -16 -4 -35 5 -42 -1 -43 -44 -10 -18
14 -37 25 -42 25 -6 0 -12 4 -14 9 -1 5 -16 11 -33 13 -22 2 -30 -2 -33 -16
-2 -11 0 -16 7 -12 6 4 11 2 11 -3 0 -6 3 -10 8 -9 14 4 58 -15 84 -37 15 -13
32 -25 38 -27 9 -3 30 -86 31 -128 1 -8 7 -47 15 -87 8 -40 14 -74 14 -77 0
-8 63 -36 68 -31 3 3 1 5 -5 5 -23 0 -62 240 -58 365 1 52 -2 96 -9 105 -6 8
-6 12 -1 7 12 -10 35 47 28 72 -4 17 0 20 25 19 16 -1 34 2 40 6 32 20 58 -28
65 -122 2 -29 7 -55 10 -58 3 -3 1 -19 -3 -35 -5 -16 -5 -31 0 -34 5 -3 6 -15
3 -28 -3 -12 -5 -31 -4 -42 6 -107 10 -137 21 -150 8 -10 9 -15 2 -15 -7 0
-11 -19 -10 -45 0 -25 -1 -47 -3 -49 -2 -1 -31 -12 -64 -22 l-60 -20 3 -45 c2
-24 7 -59 12 -78 5 -20 5 -54 -1 -84 -5 -28 -6 -60 -3 -70 5 -17 3 -19 -12
-12 -37 16 -118 3 -111 -18 2 -7 19 -12 38 -13 20 0 50 -8 69 -17 40 -20 47
-21 64 -5 8 8 11 24 7 43 -3 16 -6 72 -6 123 0 50 -2 92 -5 92 -3 0 -5 17 -4
37 1 28 6 38 24 45 28 10 29 9 35 -37 3 -20 8 -41 11 -47 7 -10 16 -133 14
-187 -1 -39 -7 -54 -21 -46 -5 3 -18 -3 -29 -13 l-21 -19 21 -6 c33 -9 89 19
96 48 6 23 2 82 -13 195 -16 121 -8 145 51 154 5 0 11 7 14 15 4 11 -3 12 -31
7 l-35 -6 -2 82 c-1 46 -4 139 -6 208 -5 151 -7 211 -5 226 1 6 15 14 33 18
42 8 112 86 78 86 -5 0 -10 -6 -10 -13 0 -6 -14 -18 -31 -26 -42 -18 -52 -3
-44 69 12 122 13 175 5 191 -11 19 -47 32 -55 19z m-17 -73 c24 -29 30 -63 17
-101 -31 -88 -113 -125 -153 -68 -20 28 -19 38 1 82 17 35 30 42 44 24 17 -23
46 -10 38 17 -4 13 -1 27 11 40 20 22 28 24 42 6z"/>
<path d="M2249 2076 c-4 -4 -102 -15 -199 -21 -120 -9 -198 -15 -265 -22 -38
-4 -81 -6 -95 -5 -14 1 -32 -1 -40 -4 -8 -3 -52 -7 -98 -9 -47 -3 -90 -9 -96
-14 -7 -6 -23 -7 -36 -4 -13 4 -21 2 -17 -3 3 -5 -13 -10 -36 -10 -23 0 -60
-3 -82 -6 -22 -4 -67 -10 -100 -13 -56 -5 -117 -20 -140 -33 -5 -3 -20 -7 -34
-8 -13 -2 -31 -11 -40 -20 -10 -10 -11 -14 -3 -9 8 4 30 9 50 11 19 2 38 8 42
13 3 6 16 9 28 6 12 -2 24 0 27 5 3 4 21 7 40 5 19 -2 49 1 67 5 18 5 65 11
103 14 67 4 244 24 422 46 45 6 126 13 180 15 54 3 148 11 208 18 113 14 445
14 480 1 10 -4 34 -8 52 -8 18 -1 33 -4 33 -8 0 -7 57 -28 78 -28 12 0 12 4
-3 20 -10 11 -26 20 -36 20 -10 0 -21 5 -24 10 -3 6 -25 10 -49 10 -23 0 -47
5 -54 12 -11 11 -352 25 -363 14z"/>
<path d="M2853 1624 c-13 -6 -7 -72 8 -88 16 -18 10 -21 -37 -20 -43 0 -47 3
-60 34 -8 19 -12 40 -10 47 3 8 -2 13 -14 13 -23 0 -23 0 -9 -37 6 -15 13 -37
15 -48 2 -11 8 -21 14 -23 17 -6 11 -33 -12 -52 l-23 -18 30 -43 c17 -24 41
-46 54 -49 24 -6 42 -30 22 -30 -6 0 -7 -7 -4 -17 5 -11 3 -14 -6 -8 -10 5
-11 2 -6 -14 3 -11 2 -21 -3 -21 -5 0 -9 -12 -9 -27 1 -16 -5 -63 -11 -106 -7
-44 -9 -84 -5 -90 11 -17 11 -49 1 -69 -5 -10 -5 -18 0 -18 4 0 6 -29 4 -65
-3 -49 0 -71 12 -90 18 -28 46 -34 46 -10 0 31 16 13 26 -30 7 -32 7 -45 0
-45 -6 0 -4 -5 4 -10 11 -7 12 -10 2 -10 -8 0 -11 -7 -8 -17 3 -10 7 -36 11
-58 9 -63 15 -75 37 -75 17 0 19 4 14 28 -4 15 -9 59 -11 97 -3 39 -10 94 -17
124 -9 43 -9 56 0 59 7 2 18 9 25 16 18 18 46 26 52 16 4 -6 -5 -14 -19 -20
-22 -8 -26 -16 -26 -47 0 -47 14 -99 32 -117 8 -7 29 -17 47 -21 27 -6 36 -3
57 22 34 40 32 60 -5 34 -16 -12 -33 -21 -38 -21 -4 0 -10 60 -11 133 -2 72
-10 161 -18 197 -8 36 -17 75 -20 87 -2 14 5 31 21 49 46 50 87 249 56 269
-17 10 -31 -31 -28 -76 4 -47 -17 -130 -41 -168 l-16 -24 -17 51 c-9 27 -24
61 -34 75 -15 24 -15 26 4 32 21 6 24 16 22 70 -3 60 -12 81 -42 99 -28 16
-29 19 -13 30 14 11 20 10 36 -6 19 -19 28 -21 52 -12 21 8 10 24 -15 24 -25
0 -35 25 -19 45 18 22 5 30 -25 17 -17 -8 -25 -20 -25 -37 0 -22 -19 -38 -21
-17 0 4 -2 17 -3 30 -2 13 1 25 6 28 4 3 8 12 8 20 0 14 -14 17 -37 8z m38
-143 c12 -2 29 -53 29 -86 0 -25 -5 -35 -20 -40 -42 -13 -129 22 -130 53 0 7
7 28 15 48 14 34 16 35 57 30 24 -3 46 -5 49 -5z m9 -197 c0 -2 11 -33 24 -69
14 -35 22 -64 18 -62 -14 4 -54 -41 -42 -48 6 -4 17 -1 25 5 15 13 39 4 30
-11 -4 -5 -2 -9 3 -9 5 0 10 -10 10 -22 1 -13 5 -47 10 -77 13 -74 8 -85 -45
-99 -25 -7 -43 -15 -40 -18 11 -12 -17 -30 -40 -26 -25 5 -25 8 -25 167 0 77
17 260 26 274 5 8 46 4 46 -5z"/>
<path d="M2058 1490 c-44 -24 -50 -46 -52 -178 -1 -77 1 -92 14 -90 10 2 16
18 18 50 l3 48 29 -21 c24 -19 27 -25 19 -46 -8 -22 -24 -114 -46 -267 -6 -36
-4 -38 16 -31 16 5 21 2 22 -12 0 -10 3 -29 5 -43 2 -14 5 -42 5 -62 1 -21 3
-38 4 -38 2 0 10 12 20 26 11 16 13 29 7 37 -14 17 -9 100 6 105 11 3 16 -18
13 -58 0 -8 3 -21 8 -29 7 -12 14 -12 40 0 17 8 33 19 36 26 6 16 -7 17 -23 1
-15 -15 -18 -11 -27 30 -6 29 -4 34 14 39 12 3 21 9 21 14 0 11 -119 8 -126
-3 -16 -26 -18 4 -7 90 18 133 33 202 44 202 5 0 9 -3 9 -7 9 -188 22 -267 43
-260 12 4 11 54 -2 91 -4 12 -9 60 -10 107 -2 67 1 88 13 98 10 8 16 9 16 3 0
-15 36 -25 60 -17 10 3 26 20 35 37 21 43 18 48 -9 14 -24 -29 -52 -31 -60 -4
-32 103 -73 168 -104 168 -10 -1 -33 -10 -54 -20z m67 -35 c6 -11 18 -32 28
-46 23 -34 14 -70 -20 -86 -30 -15 -49 -4 -64 35 -8 21 -11 22 -26 11 -15 -13
-16 -10 -9 31 11 69 66 103 91 55z"/>
<path d="M1289 1467 c-28 -14 -78 -85 -79 -110 0 -10 -7 -31 -15 -47 -8 -16
-19 -64 -24 -107 -5 -43 -12 -86 -16 -95 -5 -14 -2 -18 14 -18 21 0 44 36 34
53 -3 4 0 14 6 21 6 7 11 41 12 74 1 55 4 62 22 62 14 0 17 -3 9 -12 -14 -18
16 -84 45 -97 15 -7 23 -20 24 -38 1 -16 3 -44 5 -63 4 -29 -2 -40 -35 -75
-61 -61 -101 -145 -104 -213 -1 -43 -7 -61 -22 -74 -20 -16 -20 -17 5 -26 14
-5 34 -11 45 -14 16 -3 20 -11 19 -41 -1 -20 3 -37 7 -37 5 0 9 -5 9 -11 0 -5
-4 -7 -10 -4 -6 4 -10 -15 -10 -49 0 -30 5 -58 10 -61 6 -4 8 -10 5 -15 -3 -4
2 -10 10 -14 8 -3 12 -12 9 -20 -7 -19 10 -28 51 -28 30 0 81 29 58 34 -4 0
-12 2 -18 3 -5 2 -24 3 -41 4 -31 1 -31 2 -30 49 1 26 -2 54 -6 64 -5 11 -2
18 10 23 15 6 15 7 1 15 -20 11 -13 76 9 85 24 9 35 -10 37 -68 1 -29 4 -58 8
-64 4 -6 31 -11 61 -11 41 1 56 5 59 17 3 9 8 25 13 36 7 20 7 20 -14 1 -16
-14 -28 -16 -49 -11 -15 4 -22 10 -15 12 10 4 10 8 1 19 -8 10 -8 14 0 14 6 0
10 12 9 28 -1 15 4 37 11 50 7 13 11 40 10 60 -1 20 2 50 6 66 5 20 4 31 -6
37 -12 8 -12 10 0 18 12 8 11 36 -4 94 -2 4 -3 21 -4 37 0 17 -9 38 -19 48
-24 24 -30 112 -8 112 9 0 16 4 16 9 0 15 51 23 66 10 8 -6 23 -9 34 -6 11 3
20 1 20 -4 0 -5 5 -9 10 -9 6 0 24 -15 40 -34 17 -19 41 -37 55 -40 14 -4 25
-14 25 -24 1 -16 1 -16 14 0 7 10 25 22 41 28 30 11 98 3 89 -11 -3 -5 -1 -9
5 -9 14 0 18 -41 7 -67 -11 -26 -24 -30 -32 -8 -4 8 -15 15 -26 15 -27 0 -68
-44 -57 -61 4 -8 0 -24 -11 -39 -12 -16 -22 -54 -26 -94 l-7 -67 -62 6 c-42 5
-65 3 -69 -4 -4 -6 -12 -9 -17 -6 -21 14 -49 -6 -49 -35 0 -24 3 -27 23 -22
12 3 24 8 27 12 3 4 35 9 73 12 74 4 69 11 69 -74 1 -16 5 -28 10 -28 5 0 6
-4 3 -10 -12 -20 -16 -92 -5 -105 8 -10 5 -17 -12 -29 -12 -9 -19 -16 -14 -16
5 0 3 -7 -4 -15 -7 -9 -11 -18 -8 -20 7 -8 172 37 180 49 7 10 13 -40 9 -71
-1 -7 4 -13 11 -13 10 0 10 -2 0 -9 -8 -5 -12 -16 -10 -26 6 -35 24 -25 41 22
21 58 21 69 4 54 -19 -15 -24 -7 -19 29 3 20 10 30 22 30 25 0 48 90 33 130
-2 8 -6 37 -8 64 l-4 49 84 -6 c47 -2 85 -1 85 3 0 4 11 6 25 5 25 -3 34 8 15
20 -8 5 -56 11 -160 20 -14 1 -31 -2 -37 -8 -10 -7 -13 -2 -13 20 0 43 -30
123 -46 123 -8 0 -11 6 -7 17 5 12 2 15 -9 11 -11 -5 -14 -1 -10 17 2 14 9 22
17 19 19 -8 27 11 27 61 0 41 1 44 19 34 15 -7 21 -6 25 6 3 8 12 15 19 15 8
0 17 9 20 20 3 11 13 20 21 20 8 0 14 7 14 15 0 12 -5 13 -26 4 -33 -12 -42
-5 -20 17 13 13 14 19 6 28 -9 8 -20 2 -44 -26 -32 -36 -42 -41 -83 -39 -26 1
-30 23 -9 43 17 18 30 58 18 58 -4 0 -24 -18 -42 -40 -18 -22 -36 -40 -39 -40
-4 0 -6 15 -6 33 0 22 -5 32 -15 32 -11 0 -14 -9 -13 -35 2 -19 -4 -44 -12
-54 -14 -19 -16 -19 -47 -1 -41 23 -105 94 -92 103 5 4 10 17 12 29 3 18 -1
21 -25 19 -20 -2 -29 -9 -31 -25 -2 -11 -7 -21 -13 -21 -9 0 -13 14 -24 83 -5
28 -19 52 -53 85 -59 60 -91 74 -123 59z m51 -59 c46 -26 48 -31 19 -44 -20
-9 -20 -11 -5 -26 9 -9 16 -21 16 -27 0 -5 9 -12 19 -16 23 -7 36 -52 20 -71
-16 -20 -64 -14 -96 12 -24 19 -26 24 -13 39 12 15 12 19 -3 29 -11 9 -15 22
-11 40 3 18 0 28 -11 32 -19 8 -19 19 1 38 20 20 18 20 64 -6z m46 -543 c0
-126 3 -121 -66 -124 -19 -2 -50 -3 -67 -4 -41 -3 -42 8 -3 22 28 9 42 31 20
31 -5 0 -10 -4 -10 -9 0 -5 -7 -11 -15 -14 -11 -5 -14 3 -11 39 2 25 7 48 10
52 11 10 46 93 46 108 0 8 12 16 28 20 15 3 32 7 37 9 23 6 30 -22 31 -130z
m389 115 c3 -5 -1 -10 -10 -10 -9 0 -13 5 -10 10 3 6 8 10 10 10 2 0 7 -4 10
-10z m-54 -75 c-18 -39 -32 -45 -28 -12 1 17 24 41 43 47 1 0 -6 -16 -15 -35z
m82 -32 c24 -62 30 -102 17 -118 -7 -8 -8 -20 -4 -27 11 -17 14 -34 15 -88 0
-71 8 -100 25 -93 8 3 14 1 14 -3 0 -9 -88 -38 -147 -50 l-33 -6 0 71 c0 56 3
71 15 71 9 0 12 6 9 15 -4 8 -1 22 6 30 10 12 9 20 -4 40 -15 23 -14 29 16
110 18 47 38 85 44 85 7 0 19 -17 27 -37z"/>
<path d="M2536 1343 c-3 -10 -8 -35 -12 -56 -5 -31 -10 -38 -27 -35 -16 2 -24
14 -32 48 -6 25 -14 44 -18 43 -4 -2 -14 -3 -22 -3 -9 0 -15 -9 -15 -21 0 -28
39 -91 51 -83 6 3 21 -1 34 -10 13 -9 31 -16 38 -16 13 0 25 -33 32 -85 6 -54
-38 -82 -80 -51 -24 17 -30 99 -9 120 18 19 1 30 -25 17 -33 -18 -47 -91 -28
-150 3 -10 -36 -47 -58 -54 -17 -6 -18 -5 -5 5 10 9 15 32 15 71 1 52 -1 58
-19 55 -24 -4 -35 -39 -32 -107 1 -34 -3 -52 -12 -56 -31 -12 -4 -123 42 -173
17 -20 21 -38 24 -110 3 -109 8 -129 27 -129 14 0 15 14 10 116 -9 164 -8 179
13 204 14 15 13 19 -1 35 -11 12 -13 22 -7 32 5 8 10 27 10 42 0 29 15 45 25
28 3 -5 21 -10 39 -10 41 0 82 -31 89 -67 3 -16 0 -47 -6 -71 -9 -35 -9 -45 2
-51 11 -7 12 -32 6 -125 l-7 -116 -36 -9 c-21 -6 -56 -13 -80 -17 -24 -4 -53
-15 -65 -25 -19 -16 -20 -20 -7 -29 8 -6 25 -9 38 -7 19 4 22 0 23 -27 3 -69
-1 -110 -11 -120 -5 -5 -10 -16 -10 -23 0 -22 28 -26 47 -8 14 14 15 23 6 56
-6 21 -6 39 -1 39 4 0 6 10 4 23 -16 75 -16 75 3 80 35 9 40 -5 38 -108 -2
-111 0 -113 69 -100 38 7 92 71 74 89 -7 7 -14 6 -22 -2 -7 -7 -8 -12 -2 -12
14 -1 -56 -30 -72 -30 -11 0 -11 6 -3 28 6 15 9 59 8 97 -3 60 -1 70 13 67 8
-1 18 4 21 13 4 8 13 12 21 9 8 -3 17 -1 21 5 3 7 -2 11 -14 11 -25 0 -30 28
-17 95 15 84 16 98 5 111 -9 11 -9 14 0 14 8 0 11 19 10 60 -1 33 -6 60 -11
60 -4 0 -8 4 -8 10 0 5 6 7 14 4 15 -6 42 49 31 65 -3 6 0 11 7 11 8 1 6 6 -6
15 -18 14 -21 12 -34 -15 l-15 -31 -23 22 c-25 23 -32 51 -13 46 18 -3 32 62
25 116 -3 26 -1 47 3 47 5 0 11 9 14 20 3 11 2 20 -3 20 -4 0 3 21 16 48 22
46 22 47 3 50 -27 5 -46 -13 -54 -49 -4 -16 -10 -29 -15 -29 -11 0 -20 39 -10
45 10 6 1 45 -10 45 -5 0 -11 -8 -14 -17z m-141 -353 c3 -5 1 -10 -4 -10 -6 0
-11 5 -11 10 0 6 2 10 4 10 3 0 8 -4 11 -10z m-15 -134 l0 -29 -23 24 c-12 13
-23 31 -24 40 -1 14 2 15 23 5 17 -8 24 -19 24 -40z"/>
<path d="M1725 434 c-6 -2 -9 -31 -7 -64 2 -50 0 -58 -13 -54 -23 9 -19 -29 4
-43 18 -11 21 -9 30 20 5 18 11 58 14 90 4 55 -1 63 -28 51z"/>
</g>
</svg>
