<?xml version="1.0" standalone="no"?>
<!DOCTYPE svg PUBLIC "-//W3C//DTD SVG 20010904//EN"
 "http://www.w3.org/TR/2001/REC-SVG-20010904/DTD/svg10.dtd">
<svg version="1.0" xmlns="http://www.w3.org/2000/svg"
 width="361.000000pt" height="243.000000pt" viewBox="0 0 361.000000 243.000000"
 preserveAspectRatio="xMidYMid meet">
<metadata>
Created by potrace 1.12, written by Peter Selinger 2001-2015
</metadata>
<g transform="translate(0.000000,243.000000) scale(0.100000,-0.100000)"
fill="#000000" stroke="none">
<path d="M2569 1755 c-40 -22 -59 -58 -57 -107 2 -28 -6 -59 -21 -91 -22 -45
-41 -54 -41 -19 -1 14 -5 12 -21 -7 -23 -28 -13 -41 34 -41 32 0 84 47 89 81
3 20 5 19 45 -10 24 -17 49 -31 57 -31 9 0 12 -8 8 -25 -2 -14 -8 -25 -13 -25
-5 0 -9 -7 -9 -16 0 -9 5 -12 12 -8 7 4 8 3 4 -4 -4 -7 -16 -12 -26 -12 -21 0
-65 -60 -76 -104 -3 -14 -10 -26 -15 -26 -5 0 -17 -16 -26 -37 -23 -47 -67
-81 -86 -65 -19 16 -52 4 -67 -24 -12 -22 -11 -26 26 -58 l39 -34 3 27 c5 38
20 48 28 17 9 -37 32 -34 26 4 -4 28 15 60 35 60 4 0 15 15 22 33 8 17 28 53
45 79 30 46 46 59 46 38 0 -5 -5 -10 -11 -10 -5 0 -7 -5 -3 -12 4 -7 7 -32 5
-56 -2 -29 2 -48 11 -53 10 -6 10 -11 1 -20 -19 -19 -4 -40 23 -33 15 4 24 2
24 -6 0 -6 17 -28 38 -48 65 -64 65 -66 45 -104 -10 -19 -33 -53 -51 -75 -40
-51 -42 -80 -2 -34 24 27 31 30 36 17 3 -9 1 -29 -4 -46 -12 -34 -4 -43 36
-39 15 2 32 0 39 -4 17 -10 89 8 108 27 9 9 20 16 25 16 5 0 24 14 42 31 l33
31 -34 -6 c-19 -3 -47 -13 -63 -20 -26 -13 -29 -13 -38 5 -6 10 -8 19 -4 19 3
0 1 6 -5 14 -15 17 -4 63 16 70 8 3 11 10 8 16 -4 6 -11 8 -16 5 -5 -4 -9 -1
-9 6 0 7 -10 23 -21 35 -20 22 -20 24 -5 40 10 9 21 13 25 8 15 -17 50 -89 56
-117 6 -28 26 -33 52 -12 24 20 39 31 76 59 20 16 37 35 37 42 0 19 -17 18
-24 -2 -4 -9 -9 -14 -13 -11 -3 4 -25 -5 -50 -18 -46 -26 -57 -30 -49 -17 7
12 -19 84 -27 75 -4 -3 -7 1 -7 9 0 9 -9 22 -20 29 -20 14 -20 15 19 94 41 83
53 126 37 135 -5 3 -15 -16 -21 -41 -7 -25 -24 -68 -38 -95 -14 -27 -28 -57
-31 -68 -5 -13 -10 -15 -19 -8 -6 6 -15 10 -20 11 -4 0 -24 3 -45 7 -20 4 -53
8 -72 8 -34 1 -35 2 -41 51 -8 67 -2 85 27 85 13 0 24 4 24 10 0 5 -10 9 -21
7 -15 -1 -23 4 -25 21 -2 13 1 22 9 22 8 0 7 3 -3 10 -10 6 -5 9 20 8 45 -1
121 22 140 42 8 9 23 19 32 23 23 8 58 66 51 84 -3 7 -2 13 3 12 26 -6 63 16
75 42 6 16 22 38 35 48 27 21 30 31 10 31 -8 0 -16 7 -20 15 -4 12 -12 9 -36
-16 -30 -32 -30 -32 -31 -8 -1 13 0 35 1 48 1 14 -2 21 -9 17 -6 -4 -11 -14
-11 -22 0 -8 -5 -12 -10 -9 -7 4 -9 -7 -6 -29 6 -52 -7 -52 -32 -1 -15 31 -28
45 -42 45 -11 0 -20 -5 -20 -11 0 -5 5 -7 10 -4 6 3 10 -1 10 -9 0 -8 -5 -18
-11 -21 -6 -4 -8 -14 -4 -23 3 -8 0 -19 -7 -23 -17 -10 15 -79 37 -79 8 0 15
-9 15 -20 0 -21 -34 -44 -55 -36 -7 2 -21 -4 -30 -14 -9 -10 -36 -25 -59 -33
l-43 -15 5 25 c3 16 -2 29 -14 38 -18 14 -18 14 2 15 12 0 27 7 34 15 7 8 22
15 34 15 22 0 66 33 66 50 0 19 -17 18 -34 -1 -10 -12 -20 -19 -22 -16 -3 3
-7 31 -10 63 -6 81 -32 107 -111 110 -37 2 -68 -2 -84 -11z m62 -29 c-7 -8
-19 -12 -27 -9 -8 3 -14 1 -14 -5 0 -15 34 -20 79 -12 39 7 41 6 41 -19 0 -41
-16 -59 -37 -43 -43 30 -64 36 -73 22 -4 -7 -6 -20 -3 -29 3 -12 0 -11 -11 3
-29 36 -17 80 29 104 25 13 32 7 16 -12z m51 -8 c-15 -15 -24 -6 -16 16 5 12
10 14 17 7 8 -8 8 -14 -1 -23z m316 -80 c-6 -18 -28 -21 -28 -4 0 9 7 16 16
16 9 0 14 -5 12 -12z m-598 -478 c0 -5 -5 -10 -11 -10 -5 0 -7 5 -4 10 3 6 8
10 11 10 2 0 4 -4 4 -10z m423 -175 c4 -8 2 -17 -3 -20 -5 -3 -5 -18 -1 -33 4
-15 6 -33 3 -41 -8 -23 -36 -46 -54 -43 -31 6 -1 152 32 152 10 0 20 -7 23
-15z"/>
<path d="M1158 1383 c-49 -2 -88 -8 -88 -13 0 -5 24 -8 53 -6 28 2 71 4 95 5
23 0 42 6 42 11 0 6 -3 9 -7 8 -5 -1 -47 -4 -95 -5z"/>
<path d="M1310 1380 c0 -4 21 -8 48 -8 26 0 79 -2 117 -5 175 -13 300 -19 295
-14 -6 7 -96 18 -185 23 -183 10 -275 12 -275 4z"/>
<path d="M1278 1373 c7 -3 16 -2 19 1 4 3 -2 6 -13 5 -11 0 -14 -3 -6 -6z"/>
<path d="M2235 1370 c-3 -5 -1 -10 4 -10 6 0 11 5 11 10 0 6 -2 10 -4 10 -3 0
-8 -4 -11 -10z"/>
<path d="M2295 1370 c3 -5 8 -10 11 -10 2 0 4 5 4 10 0 6 -5 10 -11 10 -5 0
-7 -4 -4 -10z"/>
<path d="M2334 1369 c-3 -5 6 -9 20 -9 31 0 34 6 6 13 -11 3 -23 1 -26 -4z"/>
<path d="M2405 1370 c-3 -5 -1 -10 4 -10 6 0 11 5 11 10 0 6 -2 10 -4 10 -3 0
-8 -4 -11 -10z"/>
<path d="M2480 1370 c0 -5 4 -10 9 -10 6 0 13 5 16 10 3 6 -1 10 -9 10 -9 0
-16 -4 -16 -10z"/>
<path d="M1890 1360 c0 -5 5 -10 10 -10 6 0 10 5 10 10 0 6 -4 10 -10 10 -5 0
-10 -4 -10 -10z"/>
<path d="M1930 1360 c-12 -8 -10 -10 8 -10 13 0 20 4 17 10 -7 12 -6 12 -25 0z"/>
<path d="M2043 1358 c-2 -5 7 -8 21 -8 14 0 27 4 30 9 3 5 -6 8 -20 7 -14 0
-28 -4 -31 -8z"/>
<path d="M2745 1359 c-4 -6 -5 -13 -2 -16 7 -7 27 6 27 18 0 12 -17 12 -25 -2z"/>
<path d="M2787 1364 c-11 -12 3 -24 29 -24 13 0 24 5 24 11 0 6 -7 9 -15 5 -8
-3 -15 -1 -15 4 0 11 -13 13 -23 4z"/>
<path d="M2890 1352 c0 -5 7 -9 15 -9 8 0 15 4 15 9 0 4 -7 8 -15 8 -8 0 -15
-4 -15 -8z"/>
<path d="M852 974 c4 -4 56 -12 115 -18 l108 -11 -1 -65 c-1 -36 -5 -83 -8
-105 -15 -97 -17 -155 -6 -155 7 0 10 6 7 13 -2 6 0 23 5 37 13 33 21 107 22
201 l1 75 45 -7 c86 -15 220 -8 220 10 0 4 -30 6 -67 3 -94 -5 -95 -5 -123 2
-14 3 -56 8 -95 11 -38 3 -106 8 -150 11 -44 3 -77 3 -73 -2z"/>
<path d="M1390 940 c0 -5 4 -10 8 -10 4 0 7 -33 6 -74 l-2 -74 40 -4 c27 -2
46 2 59 13 20 18 26 35 8 23 -7 -4 -9 0 -5 13 14 44 8 119 -8 102 -2 -2 -6
-33 -9 -69 -3 -36 -6 -66 -6 -67 -1 -2 -14 -3 -30 -3 -28 0 -28 1 -25 48 2 26
5 62 8 80 5 29 3 32 -19 32 -14 0 -25 -4 -25 -10z"/>
<path d="M1465 940 c-3 -5 -2 -10 4 -10 5 0 13 5 16 10 3 6 2 10 -4 10 -5 0
-13 -4 -16 -10z"/>
<path d="M2147 919 c7 -7 15 -10 18 -7 3 3 -2 9 -12 12 -14 6 -15 5 -6 -5z"/>
<path d="M2360 912 c-47 -5 -70 -12 -70 -22 0 -6 9 -10 20 -10 11 0 20 5 20
11 0 10 84 8 95 -3 10 -9 169 2 180 13 7 7 -4 9 -35 5 -25 -4 -76 -3 -115 1
-38 5 -81 7 -95 5z"/>
<path d="M1147 903 c-2 -5 -7 -20 -11 -35 -5 -21 -3 -28 9 -28 8 0 15 6 16 13
0 6 2 22 3 35 3 21 -8 30 -17 15z"/>
<path d="M2460 835 c0 -14 5 -25 10 -25 6 0 10 11 10 25 0 14 -4 25 -10 25 -5
0 -10 -11 -10 -25z"/>
<path d="M2957 844 c10 -23 10 -45 0 -61 -5 -8 -4 -13 2 -13 24 0 25 80 2 88
-9 3 -10 -1 -4 -14z"/>
<path d="M1302 841 c2 -7 7 -12 11 -12 12 1 9 15 -3 20 -7 2 -11 -2 -8 -8z"/>
<path d="M1144 823 c3 -6 2 -14 -4 -18 -5 -3 -10 -40 -10 -82 0 -82 8 -97 11
-23 1 25 6 53 11 62 5 10 4 19 -3 24 -8 4 -7 9 2 15 12 7 12 10 0 21 -9 8 -11
9 -7 1z"/>
<path d="M2390 788 c0 -25 3 -29 10 -18 13 20 13 50 0 50 -5 0 -10 -15 -10
-32z"/>
<path d="M1554 801 c3 -5 -6 -21 -19 -35 -34 -36 -34 -65 0 -33 7 6 24 21 38
32 21 18 22 21 8 32 -19 14 -35 17 -27 4z"/>
<path d="M2460 770 c0 -16 5 -30 10 -30 6 0 10 14 10 30 0 17 -4 30 -10 30 -5
0 -10 -13 -10 -30z"/>
<path d="M2680 774 c0 -12 7 -27 15 -34 19 -16 19 -3 0 30 -13 24 -14 24 -15
4z"/>
<path d="M1346 773 c-9 -9 -7 -51 3 -57 6 -4 31 34 31 48 0 8 -28 14 -34 9z"/>
<path d="M2456 715 c-9 -24 -8 -53 3 -59 5 -3 11 8 13 24 5 35 -6 60 -16 35z"/>
<path d="M2387 693 c-4 -3 -7 -11 -7 -17 0 -6 5 -5 12 2 6 6 9 14 7 17 -3 3
-9 2 -12 -2z"/>
<path d="M1190 635 c7 -8 17 -15 22 -15 5 0 3 7 -6 15 -8 8 -18 15 -22 15 -3
0 -1 -7 6 -15z"/>
<path d="M897 602 c-8 -9 -20 -30 -26 -45 -16 -42 4 -107 33 -107 8 0 8 3 0 8
-20 14 -23 42 -8 84 8 23 22 50 31 60 14 15 14 18 1 18 -8 0 -22 -8 -31 -18z"/>
<path d="M1174 602 c-3 -9 -9 -24 -14 -34 -6 -11 -5 -18 5 -22 9 -3 20 7 30
26 18 38 18 35 0 42 -10 3 -18 -1 -21 -12z"/>
<path d="M970 560 c0 -31 33 -70 59 -70 13 0 11 4 -5 18 -25 20 -37 49 -24 57
17 10 11 25 -10 25 -15 0 -20 -7 -20 -30z"/>
<path d="M1076 573 c-21 -11 -25 -17 -16 -23 14 -9 60 16 60 31 0 12 -9 10
-44 -8z"/>
<path d="M2600 570 c-8 -5 -12 -10 -8 -10 4 0 0 -16 -8 -36 -8 -20 -13 -39
-10 -42 11 -10 37 22 33 39 -3 10 0 20 5 21 6 2 9 11 7 21 -3 12 -8 14 -19 7z"/>
<path d="M2275 507 c-13 -10 -16 -21 -11 -40 6 -26 46 -58 46 -37 0 5 -5 10
-11 10 -8 0 -10 14 -6 40 3 22 4 40 3 40 -1 0 -10 -6 -21 -13z"/>
<path d="M2410 506 l-35 -10 29 -4 c16 -2 33 1 39 7 16 16 5 19 -33 7z"/>
<path d="M2545 460 c-3 -5 -1 -10 4 -10 6 0 11 5 11 10 0 6 -2 10 -4 10 -3 0
-8 -4 -11 -10z"/>
<path d="M905 430 c3 -5 14 -10 23 -10 15 0 15 2 2 10 -20 13 -33 13 -25 0z"/>
</g>
</svg>
