<?xml version="1.0" standalone="no"?>
<!DOCTYPE svg PUBLIC "-//W3C//DTD SVG 20010904//EN"
 "http://www.w3.org/TR/2001/REC-SVG-20010904/DTD/svg10.dtd">
<svg version="1.0" xmlns="http://www.w3.org/2000/svg"
 width="303.000000pt" height="210.000000pt" viewBox="0 0 303.000000 210.000000"
 preserveAspectRatio="xMidYMid meet">
<metadata>
Created by potrace 1.12, written by Peter Selinger 2001-2015
</metadata>
<g transform="translate(0.000000,210.000000) scale(0.100000,-0.100000)"
fill="#000000" stroke="none">
<path d="M1122 1676 c-21 -21 -30 -38 -27 -49 4 -8 2 -25 -4 -36 -11 -19 -9
-19 19 -10 21 8 30 17 30 33 0 13 5 37 11 55 6 18 10 34 8 36 -2 2 -19 -11
-37 -29z"/>
<path d="M963 1692 c-15 -10 -4 -62 13 -62 17 0 28 -42 20 -75 -9 -36 -29 -31
-60 14 -31 44 -57 55 -83 35 -15 -11 -16 -13 -2 -14 17 0 43 -46 34 -60 -5 -9
42 -20 89 -20 l31 -1 -28 -22 c-23 -20 -26 -28 -21 -56 5 -22 3 -36 -6 -41 -7
-5 -14 -17 -15 -27 0 -10 -4 -24 -9 -31 -4 -7 -2 -12 4 -12 6 0 8 -5 5 -10 -3
-6 3 -23 14 -39 14 -20 17 -31 9 -39 -6 -6 -12 -21 -14 -34 -2 -13 -13 -59
-24 -103 -19 -71 -28 -141 -33 -240 -2 -25 2 -30 23 -31 14 -1 28 3 32 9 17
27 23 -14 21 -141 0 -75 -4 -154 -8 -174 -6 -30 -4 -38 8 -38 26 0 34 61 38
283 1 76 6 140 10 143 5 3 22 -2 38 -11 23 -11 29 -20 25 -37 -3 -13 -9 -45
-14 -73 -14 -75 -18 -94 -25 -105 -4 -6 -8 -28 -10 -49 -3 -31 0 -40 14 -44
20 -5 47 28 31 38 -11 7 -10 36 1 45 9 8 37 170 29 170 -3 0 -5 13 -2 28 4 33
-11 49 -53 54 -25 2 -30 7 -28 28 3 59 16 129 33 185 10 33 21 72 24 87 4 15
16 33 28 39 51 27 69 54 78 118 5 35 6 69 3 77 -3 9 2 14 13 15 39 1 57 8 79
29 13 12 28 19 34 15 7 -3 11 2 11 14 0 28 -19 26 -52 -4 -15 -14 -38 -26 -50
-28 -19 -2 -23 3 -24 28 -1 53 -11 58 -58 30 -23 -13 -58 -27 -78 -30 l-36 -6
4 41 c5 51 -10 120 -28 131 -16 11 -20 11 -35 1z m154 -198 c-3 -4 3 -14 15
-24 15 -12 19 -22 14 -36 -6 -12 -10 -15 -13 -6 -3 6 -18 12 -35 12 -23 0 -29
4 -24 16 3 9 6 19 6 24 0 5 8 11 18 13 9 3 19 5 21 6 2 0 2 -2 -2 -5z m-121
-71 c-10 -10 -19 5 -10 18 6 11 8 11 12 0 2 -7 1 -15 -2 -18z m94 -20 c0 -8
13 -13 31 -13 24 0 30 -3 25 -16 -3 -9 -6 -19 -6 -24 0 -12 -50 -70 -61 -70
-5 0 -8 3 -8 8 6 37 -16 42 -55 11 -15 -12 -28 -20 -30 -18 -48 57 -11 134 64
134 26 0 40 -4 40 -12z m-57 -176 c3 -7 -6 -46 -19 -87 -24 -75 -36 -143 -35
-189 1 -24 1 -24 -13 -6 -13 19 -15 18 -25 -15 -10 -34 -10 -33 -9 20 0 77 26
219 46 258 17 32 46 43 55 19z m-78 -347 c3 -5 1 -10 -4 -10 -6 0 -11 5 -11
10 0 6 2 10 4 10 3 0 8 -4 11 -10z"/>
<path d="M2095 1551 c-3 -6 -13 -9 -23 -9 -32 1 -122 -11 -132 -17 -5 -3 -10
0 -10 7 -1 8 -6 5 -16 -7 -12 -17 -17 -18 -35 -7 -29 18 -37 9 -45 -56 -3 -31
-10 -61 -14 -67 -5 -5 -9 -14 -11 -20 -3 -16 -43 -55 -56 -55 -14 0 -18 -29
-5 -31 4 -1 20 -3 36 -5 34 -4 116 -36 116 -46 0 -3 13 -13 29 -21 27 -13 41
-14 191 -3 55 4 80 14 80 33 0 10 11 13 46 11 l46 -3 -2 119 c0 66 -5 127 -11
137 -16 31 -168 64 -184 40z m130 -43 c24 -11 25 -16 25 -92 0 -87 -6 -104
-36 -110 -10 -3 -40 -12 -65 -22 -44 -17 -49 -16 -125 3 -66 16 -84 17 -109 7
-21 -8 -36 -9 -55 -1 -41 18 -44 24 -26 62 9 19 14 40 11 45 -3 6 -1 10 4 10
6 0 11 16 11 35 0 31 2 34 23 26 19 -7 23 -17 27 -77 4 -54 9 -70 22 -72 14
-3 16 7 11 90 l-5 94 38 -3 c22 -2 62 3 89 11 53 15 119 13 160 -6z m-255
-227 c0 -5 10 -11 22 -14 30 -8 20 -16 -30 -22 -41 -5 -42 -5 -30 20 11 24 38
35 38 16z"/>
<path d="M1970 1440 c0 -11 4 -20 8 -20 4 0 8 9 8 20 0 11 -4 20 -8 20 -4 0
-8 -9 -8 -20z"/>
<path d="M2493 1478 c-4 -7 -9 -24 -11 -38 -3 -24 -2 -24 11 -6 18 24 43 28
58 10 6 -8 22 -14 35 -14 29 0 54 -25 54 -53 0 -28 -32 -98 -51 -114 -35 -29
-63 -32 -92 -9 l-28 23 37 0 c23 0 41 6 49 16 7 10 17 17 24 17 11 0 16 32 6
42 -3 3 -20 -8 -37 -23 -24 -24 -38 -29 -67 -26 -29 3 -36 8 -37 26 -1 12 7
32 17 45 23 29 24 36 4 36 -22 0 -55 -41 -55 -67 0 -34 25 -77 56 -100 38 -28
27 -63 -34 -104 -26 -18 -48 -36 -50 -41 -2 -4 -14 -8 -26 -8 -12 0 -31 -7
-42 -15 -25 -19 -34 -19 -34 0 0 8 6 14 13 13 17 -4 10 83 -9 102 -14 13 -17
13 -27 0 -7 -8 -23 -15 -37 -16 -14 0 -43 -4 -65 -8 -22 -5 -46 -8 -52 -9 -7
0 -13 -4 -13 -9 0 -5 -5 -6 -10 -3 -17 10 -110 -25 -110 -41 0 -10 6 -13 18
-10 9 3 42 10 72 16 30 6 69 13 85 16 17 4 45 7 63 8 18 0 37 8 42 16 7 11 10
5 10 -23 0 -34 -2 -36 -18 -26 -15 9 -25 8 -48 -4 -16 -9 -49 -26 -74 -37 -24
-12 -50 -26 -58 -32 -7 -6 -29 -13 -47 -15 -34 -3 -35 -2 -41 37 -4 25 -14 45
-26 51 -11 6 -21 9 -23 7 -1 -2 4 -27 11 -56 15 -57 33 -82 59 -82 34 0 122
31 143 51 12 11 22 17 22 13 0 -3 7 -1 15 6 9 7 34 16 57 20 41 8 41 8 19 -9
-12 -9 -19 -20 -15 -24 10 -10 64 -9 64 1 0 4 20 14 45 21 38 11 77 35 132 80
14 12 20 -11 29 -101 6 -65 6 -65 -21 -72 -15 -4 -25 -10 -21 -13 3 -3 -3 -11
-13 -17 -11 -6 -40 -26 -66 -43 -25 -18 -50 -33 -55 -33 -5 0 -24 -9 -43 -20
l-34 -20 14 -73 c16 -84 13 -165 -11 -225 -11 -29 -13 -49 -7 -60 8 -14 10
-13 16 11 4 15 11 27 16 27 5 0 9 9 9 20 0 11 5 20 11 20 14 0 40 26 32 33 -3
4 -7 27 -9 51 -1 25 -5 50 -9 56 -3 5 -8 32 -10 60 l-4 50 56 37 c31 21 67 45
80 54 13 9 30 24 37 35 12 16 15 16 28 3 13 -12 16 -51 9 -105 -1 -11 -29 -20
-91 -31 -13 -2 -31 -9 -38 -16 -12 -9 -10 -14 9 -30 21 -17 32 -60 20 -82 -8
-14 -1 -68 11 -82 6 -8 -5 -25 -38 -55 -25 -24 -53 -47 -61 -51 -12 -7 -12
-11 4 -23 21 -16 37 -18 28 -4 -3 5 0 10 7 10 7 0 26 14 43 31 30 33 32 43 36
174 1 77 7 98 25 91 8 -3 14 -1 14 4 0 6 9 10 19 10 39 0 50 26 49 106 -1 67
-4 77 -22 84 -18 8 -19 9 -3 9 20 1 20 24 1 194 -5 45 -4 57 7 58 61 3 119 44
119 85 0 38 18 36 30 -3 20 -63 62 -81 100 -43 21 21 27 74 10 85 -5 3 -13 -9
-18 -26 -9 -37 -36 -59 -51 -44 -6 6 -13 32 -16 58 -12 98 -45 139 -132 161
-73 19 -70 19 -80 4z"/>
<path d="M70 1419 c0 -5 5 -7 10 -4 6 3 10 8 10 11 0 2 -4 4 -10 4 -5 0 -10
-5 -10 -11z"/>
<path d="M2517 1403 c-23 -26 -27 -85 -4 -61 11 12 37 63 37 73 0 11 -18 4
-33 -12z"/>
<path d="M2 1360 c0 -14 2 -19 5 -12 2 6 2 18 0 25 -3 6 -5 1 -5 -13z"/>
<path d="M603 1274 c-77 -59 -120 -125 -108 -164 3 -11 2 -20 -3 -20 -10 0
-47 -79 -44 -93 1 -4 -8 -22 -22 -40 -13 -18 -29 -43 -36 -56 -12 -24 -12 -24
24 -18 35 6 36 5 30 -21 -13 -59 -17 -68 -38 -84 -12 -10 -16 -18 -8 -18 7 0
10 -4 7 -10 -3 -5 1 -10 9 -10 11 0 14 -8 11 -36 -3 -22 -1 -33 5 -29 5 3 10
13 10 20 0 9 6 12 15 9 20 -8 19 15 -1 44 -9 13 -13 26 -10 29 3 4 6 2 6 -4 0
-6 8 -9 19 -6 10 3 22 0 25 -6 9 -14 49 -14 63 0 8 8 13 5 18 -12 15 -46 6
-128 -24 -229 -34 -115 -38 -150 -17 -150 19 0 29 16 31 54 2 17 10 59 19 94
10 34 15 66 12 71 -4 5 -2 11 3 13 13 5 22 86 10 94 -6 3 -8 15 -6 26 10 36
-13 68 -47 68 -44 1 -73 20 -71 48 1 12 -3 22 -9 22 -6 0 -4 4 4 10 9 6 14 23
13 49 -1 23 2 41 8 41 5 0 9 5 9 11 0 5 -5 7 -11 3 -7 -4 -6 2 2 17 14 27 26
39 54 55 31 18 32 38 0 32 -25 -5 -27 -4 -21 24 3 18 2 27 -4 23 -27 -17 3 35
60 103 14 15 41 16 38 0 -2 -6 -14 -22 -28 -34 -22 -20 -23 -23 -7 -29 12 -5
17 -18 17 -50 0 -24 -4 -47 -10 -50 -5 -3 -7 -25 -3 -51 4 -30 1 -55 -9 -77
-19 -39 -41 -107 -36 -112 1 -1 13 1 25 6 17 6 23 19 28 64 8 62 18 74 44 51
26 -23 81 -33 81 -13 0 12 -20 24 -52 31 -13 2 -21 16 -9 16 7 0 -1 14 -19 30
-18 17 -27 30 -22 30 6 0 14 16 18 35 7 37 21 43 57 23 63 -34 80 -18 90 87 4
33 9 69 13 81 5 18 -3 24 -51 42 -31 12 -62 22 -68 22 -7 -1 -44 -26 -84 -56z
m154 -19 c9 -25 -2 -27 -22 -5 -17 18 -17 20 -1 20 9 0 19 -7 23 -15z m-34
-65 c22 -29 34 -55 31 -65 -5 -12 -10 -13 -20 -4 -7 6 -18 8 -24 4 -5 -3 -10
1 -10 9 0 9 -6 16 -14 16 -8 0 -21 18 -30 40 -20 51 -20 50 7 50 16 0 34 -15
60 -50z m-276 -272 c-3 -8 -6 -5 -6 6 -1 11 2 17 5 13 3 -3 4 -12 1 -19z"/>
<path d="M871 1264 c0 -11 3 -14 6 -6 3 7 2 16 -1 19 -3 4 -6 -2 -5 -13z"/>
<path d="M135 1250 c-3 -5 3 -10 15 -10 12 0 18 5 15 10 -3 6 -10 10 -15 10
-5 0 -12 -4 -15 -10z"/>
<path d="M1786 1251 c-4 -5 -2 -12 3 -15 5 -4 12 -2 15 3 4 5 2 12 -3 15 -5 4
-12 2 -15 -3z"/>
<path d="M610 815 c-13 -15 -14 -14 35 -30 23 -7 33 -45 29 -111 -5 -81 -10
-112 -27 -172 -13 -42 -13 -52 -3 -52 15 0 39 25 42 44 17 93 22 143 19 201
-3 95 -3 97 -17 89 -8 -5 -9 -2 -5 9 12 31 -50 50 -73 22z"/>
<path d="M861 760 l-22 -30 22 -8 c12 -5 33 -7 46 -4 29 5 31 38 3 47 -11 4
-18 11 -15 16 15 23 -14 6 -34 -21z"/>
</g>
</svg>
