<?xml version="1.0" standalone="no"?>
<!DOCTYPE svg PUBLIC "-//W3C//DTD SVG 20010904//EN"
 "http://www.w3.org/TR/2001/REC-SVG-20010904/DTD/svg10.dtd">
<svg version="1.0" xmlns="http://www.w3.org/2000/svg"
 width="834.000000pt" height="459.000000pt" viewBox="0 0 834.000000 459.000000"
 preserveAspectRatio="xMidYMid meet">
<metadata>
Created by potrace 1.12, written by Peter Selinger 2001-2015
</metadata>
<g transform="translate(0.000000,459.000000) scale(0.100000,-0.100000)"
fill="#000000" stroke="none">
<path d="M795 4350 c3 -5 15 -10 26 -10 11 0 17 5 14 10 -3 6 -15 10 -26 10
-11 0 -17 -4 -14 -10z"/>
<path d="M4376 4095 c6 -49 10 -62 18 -54 2 2 -2 27 -10 54 l-14 50 6 -50z"/>
<path d="M4951 4114 c0 -11 3 -14 6 -6 3 7 2 16 -1 19 -3 4 -6 -2 -5 -13z"/>
<path d="M4253 4060 c-13 -5 -23 -16 -23 -25 0 -8 -6 -15 -13 -15 -12 0 -57
-75 -59 -97 0 -4 -13 -32 -29 -62 -16 -30 -29 -58 -29 -62 0 -5 -11 -33 -25
-63 -14 -30 -25 -62 -25 -70 0 -9 -4 -16 -10 -16 -5 0 -10 -9 -10 -20 0 -18
-17 -57 -30 -70 -9 -9 -28 -54 -41 -95 -7 -22 -18 -50 -26 -62 -8 -11 -10 -23
-6 -26 5 -3 20 20 35 51 14 31 42 92 62 135 20 43 39 89 42 102 3 14 9 25 13
25 3 0 15 27 25 60 11 33 23 60 28 60 4 0 8 6 8 13 0 24 67 153 96 185 18 18
41 33 57 34 15 1 27 8 27 15 0 15 -34 16 -67 3z"/>
<path d="M4400 4020 c0 -6 4 -10 10 -10 5 0 13 -12 16 -27 4 -16 13 -37 20
-48 8 -11 14 -28 14 -37 0 -17 30 -69 62 -109 25 -31 78 -50 78 -28 0 5 -4 8
-8 5 -5 -3 -19 2 -31 10 -21 15 -21 17 -4 31 14 11 15 16 5 20 -7 3 -17 16
-23 30 -5 13 -13 21 -19 18 -5 -3 -10 0 -10 7 0 7 -8 18 -17 24 -10 6 -29 34
-43 62 -23 47 -50 75 -50 52z m135 -200 c3 -5 1 -10 -4 -10 -6 0 -11 5 -11 10
0 6 2 10 4 10 3 0 8 -4 11 -10z"/>
<path d="M5423 3904 c-3 -9 -1 -24 5 -33 37 -50 21 -72 -33 -47 -28 14 -39 15
-50 6 -12 -10 -12 -15 2 -36 9 -14 22 -23 30 -20 10 4 12 -3 7 -37 -8 -52 -8
-51 -27 -32 -9 8 -18 11 -21 6 -9 -14 27 -39 58 -39 17 0 33 -7 39 -17 8 -14
11 -15 18 -4 5 8 9 24 9 37 0 12 5 22 11 22 5 0 8 4 5 9 -4 5 15 9 41 9 87 0
86 0 69 17 -8 8 -20 15 -26 15 -8 0 -10 8 -5 23 3 12 8 34 9 48 1 14 5 30 9
36 8 13 -25 44 -39 35 -5 -4 -10 -36 -11 -71 l0 -64 -48 -18 c-27 -10 -52 -16
-57 -13 -14 9 -9 44 7 45 31 3 35 4 55 22 14 12 19 24 14 41 -3 13 -1 27 5 30
6 4 11 12 11 17 0 6 -4 8 -9 5 -5 -3 -14 1 -21 9 -17 20 -49 19 -57 -1z"/>
<path d="M4310 3850 c0 -5 5 -10 11 -10 5 0 7 5 4 10 -3 6 -8 10 -11 10 -2 0
-4 -4 -4 -10z"/>
<path d="M4276 3794 c-12 -17 -15 -29 -8 -36 7 -7 16 -1 28 16 11 18 14 30 7
37 -7 7 -16 1 -27 -17z"/>
<path d="M4590 3790 c0 -5 5 -10 10 -10 6 0 10 5 10 10 0 6 -4 10 -10 10 -5 0
-10 -4 -10 -10z"/>
<path d="M4648 3759 c13 -13 45 -14 49 -1 3 9 -5 12 -26 10 -17 -1 -27 -5 -23
-9z"/>
<path d="M4235 3740 c-3 -11 -11 -20 -16 -20 -5 0 -9 -7 -9 -15 0 -8 -4 -15
-10 -15 -5 0 -10 -6 -10 -14 0 -8 7 -13 15 -12 23 3 55 33 55 51 0 10 5 13 13
9 6 -4 3 2 -7 14 -23 27 -23 27 -31 2z"/>
<path d="M5200 3750 c-12 -7 -12 -13 -4 -27 6 -10 17 -28 25 -41 12 -20 12
-24 -1 -32 -13 -9 -13 -11 0 -20 8 -5 23 -10 33 -10 10 0 16 -4 13 -9 -6 -9
16 -21 40 -21 18 0 18 15 -1 34 -8 8 -15 18 -15 21 0 4 -9 20 -21 37 -24 33
-23 37 14 40 34 3 36 18 2 18 -14 0 -25 5 -25 10 0 13 -40 13 -60 0z"/>
<path d="M4767 3649 c33 -36 83 -64 83 -46 0 16 -44 60 -52 51 -4 -3 -17 0
-30 7 l-23 12 22 -24z"/>
<path d="M5481 3652 c-1 -7 -6 -10 -11 -7 -6 3 -13 -1 -16 -9 -4 -10 -18 -16
-39 -16 -42 0 -54 -27 -29 -65 24 -36 7 -50 -64 -51 -61 -2 -61 -2 -113 -101
-7 -13 -16 -23 -21 -23 -4 0 -8 -7 -8 -15 0 -30 50 -3 51 28 1 17 2 18 6 4 2
-9 8 -15 13 -12 4 3 6 14 3 26 -7 25 11 39 49 39 15 0 33 6 40 13 7 6 28 13
46 13 32 2 62 18 62 35 0 4 -6 14 -14 21 -7 8 -17 24 -21 37 -6 20 -4 22 17
20 31 -4 88 10 88 22 0 5 -4 9 -8 9 -5 0 -14 10 -20 23 -6 12 -11 16 -11 9z"/>
<path d="M4137 3629 c-37 -28 -91 -149 -68 -149 6 0 12 5 12 10 1 6 3 15 4 20
1 6 3 16 4 23 1 8 4 8 12 -3 9 -13 10 -12 5 3 -3 10 0 20 9 23 7 3 11 12 8 21
-5 12 -1 14 15 9 16 -5 22 -2 28 16 3 13 11 26 16 29 5 3 3 9 -6 12 -8 3 -26
-3 -39 -14z"/>
<path d="M3927 3613 c-10 -9 -9 -23 2 -23 5 0 11 7 15 15 5 15 -5 20 -17 8z"/>
<path d="M5229 3583 c-8 -2 -25 -23 -37 -46 -12 -23 -28 -53 -36 -67 -8 -14
-17 -33 -20 -44 -6 -17 -8 -18 -24 -2 -21 18 -42 21 -42 6 0 -15 46 -34 65
-26 9 3 19 15 22 26 4 16 8 18 27 8 20 -11 21 -10 3 9 -17 20 -17 21 8 37 14
9 25 23 25 31 0 8 5 15 10 15 6 0 10 6 10 14 0 8 6 16 13 19 17 6 -4 25 -24
20z"/>
<path d="M4880 3560 c0 -5 5 -10 11 -10 5 0 7 5 4 10 -3 6 -8 10 -11 10 -2 0
-4 -4 -4 -10z"/>
<path d="M3916 3535 c-9 -14 -14 -30 -11 -35 3 -6 1 -10 -4 -10 -6 0 -11 -13
-11 -29 0 -17 -5 -33 -11 -36 -6 -4 -8 -13 -5 -21 3 -8 2 -14 -2 -14 -4 0 -8
-8 -9 -17 0 -10 -4 -33 -8 -52 -7 -31 -7 -33 7 -20 9 7 13 20 11 26 -3 7 0 13
6 13 6 0 11 -9 11 -20 0 -11 4 -20 9 -20 5 0 11 9 14 20 3 11 1 20 -3 20 -12
0 -5 92 9 119 7 12 9 26 6 31 -3 5 -1 11 5 15 6 4 8 11 4 16 -3 5 0 16 6 24 7
9 8 15 2 15 -5 0 -17 -11 -26 -25z"/>
<path d="M4942 3519 c1 -12 9 -24 16 -27 9 -3 13 3 10 19 -1 12 -9 24 -16 27
-9 3 -13 -3 -10 -19z"/>
<path d="M4996 3482 c-3 -6 1 -13 10 -16 23 -9 28 -2 10 13 -8 7 -17 8 -20 3z"/>
<path d="M2034 3378 c-4 -6 -2 -14 4 -16 7 -2 10 -8 6 -13 -3 -5 4 -9 15 -9
18 0 19 3 9 25 -12 27 -23 31 -34 13z"/>
<path d="M2806 3381 c-3 -4 3 -16 13 -25 27 -24 20 -50 -15 -57 -43 -9 -74
-20 -74 -28 0 -12 23 -31 38 -31 14 0 51 -38 52 -53 0 -4 -33 -5 -74 -1 -86 8
-108 -1 -112 -45 -3 -28 4 -41 59 -96 47 -48 71 -65 100 -70 21 -4 40 -5 43
-2 8 8 -27 40 -61 57 -46 22 -107 89 -103 114 3 22 29 28 59 14 15 -6 82 -10
122 -6 27 2 20 34 -18 75 -22 24 -30 40 -23 44 17 11 36 0 44 -24 4 -12 15
-32 25 -45 20 -26 15 -50 -13 -70 -10 -7 -18 -19 -18 -27 0 -13 75 -55 98 -55
28 0 9 -27 -30 -44 -24 -9 -58 -29 -76 -44 -30 -25 -32 -29 -22 -62 13 -43 23
-140 15 -140 -13 0 -43 20 -79 54 -22 19 -42 33 -46 31 -4 -3 -15 4 -24 14 -9
10 -34 24 -57 31 -22 7 -51 24 -65 37 -32 29 -49 30 -34 2 7 -11 14 -18 17
-15 4 3 13 0 21 -6 17 -15 49 -34 80 -47 12 -6 22 -15 22 -21 0 -6 4 -9 9 -5
5 3 31 -13 56 -35 58 -50 186 -112 237 -115 49 -3 49 12 1 20 -61 10 -80 24
-88 64 -13 68 -17 131 -9 131 25 -1 36 -21 36 -61 -1 -24 5 -47 11 -51 28 -18
36 -7 39 50 3 55 2 58 -27 72 -45 23 -39 49 18 79 61 31 61 58 0 81 -23 8 -45
18 -48 22 -4 3 4 24 17 46 l23 41 -21 23 c-30 32 -35 53 -22 88 8 24 15 29 29
25 13 -4 19 -1 19 9 0 9 -6 16 -12 17 -43 3 -72 12 -91 29 -23 22 -33 25 -41
11z"/>
<path d="M2067 3323 c-11 -10 -8 -25 3 -18 6 3 10 2 10 -3 0 -11 50 -35 58
-27 3 3 0 5 -7 5 -6 0 -22 11 -35 25 -13 13 -26 22 -29 18z"/>
<path d="M5220 3319 c0 -5 5 -7 10 -4 6 3 10 8 10 11 0 2 -4 4 -10 4 -5 0 -10
-5 -10 -11z"/>
<path d="M3862 3278 c-14 -18 -26 -60 -23 -80 1 -10 -4 -18 -12 -18 -10 0 -13
-8 -9 -25 2 -14 0 -25 -7 -25 -12 0 -45 -59 -37 -67 5 -5 60 54 62 66 1 7 11
34 35 93 10 26 19 51 19 57 0 15 -15 14 -28 -1z"/>
<path d="M2167 3254 c-3 -4 5 -16 19 -26 31 -25 44 -16 19 12 -19 21 -28 24
-38 14z"/>
<path d="M2234 3184 c3 -9 6 -18 6 -20 0 -2 7 -4 15 -4 13 0 13 3 3 20 -15 24
-33 27 -24 4z"/>
<path d="M2100 3131 c11 -22 29 -35 36 -28 7 6 -27 47 -39 47 -4 0 -3 -9 3
-19z"/>
<path d="M2260 3143 c0 -12 52 -83 61 -83 20 0 15 19 -15 53 -30 35 -46 45
-46 30z"/>
<path d="M5330 3120 c0 -5 5 -10 10 -10 6 0 10 5 10 10 0 6 -4 10 -10 10 -5 0
-10 -4 -10 -10z"/>
<path d="M2167 3083 c-6 -10 2 -21 31 -37 7 -4 12 -1 12 8 0 9 -6 16 -14 16
-8 0 -16 5 -18 12 -3 8 -6 9 -11 1z"/>
<path d="M5340 3080 c0 -5 5 -10 11 -10 5 0 7 5 4 10 -3 6 -8 10 -11 10 -2 0
-4 -4 -4 -10z"/>
<path d="M1990 3050 c0 -5 5 -10 10 -10 6 0 10 5 10 10 0 6 -4 10 -10 10 -5 0
-10 -4 -10 -10z"/>
<path d="M2341 3048 c-1 -22 18 -33 32 -19 8 8 7 11 -5 11 -9 0 -19 6 -21 13
-3 7 -6 6 -6 -5z"/>
<path d="M3800 3010 c0 -5 5 -10 10 -10 6 0 10 5 10 10 0 6 -4 10 -10 10 -5 0
-10 -4 -10 -10z"/>
<path d="M1966 2995 c-4 -10 1 -15 16 -15 17 0 18 2 8 15 -7 8 -14 15 -15 15
-2 0 -5 -7 -9 -15z"/>
<path d="M2400 3001 c0 -10 73 -53 98 -57 22 -4 13 12 -15 26 -16 7 -40 19
-55 27 -17 8 -28 10 -28 4z"/>
<path d="M5407 2980 c3 -11 7 -20 9 -20 2 0 4 9 4 20 0 11 -4 20 -9 20 -5 0
-7 -9 -4 -20z"/>
<path d="M5450 2880 c0 -5 5 -10 10 -10 6 0 10 5 10 10 0 6 -4 10 -10 10 -5 0
-10 -4 -10 -10z"/>
<path d="M6655 2863 c-31 -7 -85 -33 -85 -41 0 -4 19 -6 42 -3 39 3 41 2 28
-14 -8 -9 -24 -21 -35 -25 -26 -10 -45 -67 -33 -100 6 -18 5 -26 -6 -32 -8 -5
-22 -15 -30 -24 -11 -11 -27 -13 -61 -9 -51 7 -105 -1 -105 -17 0 -6 7 -8 15
-5 8 4 17 2 20 -3 4 -6 22 -10 42 -10 35 0 36 0 18 -20 -9 -10 -38 -22 -64
-26 -66 -11 -65 -11 -79 -12 -8 -1 -12 -7 -10 -14 3 -8 21 -11 51 -9 26 1 47
1 47 -2 0 -13 -83 -152 -97 -162 -17 -13 -10 -35 12 -35 27 0 26 -21 -4 -57
-17 -21 -39 -49 -49 -62 -16 -21 -21 -22 -43 -11 -13 7 -27 17 -30 23 -9 14
-49 -2 -49 -20 0 -8 9 -17 20 -20 11 -3 20 -8 20 -12 0 -10 59 -33 69 -27 5 4
12 2 16 -4 9 -15 25 -2 19 15 -3 8 -1 20 5 27 39 46 52 63 63 88 18 42 88 50
88 11 0 -19 -20 -77 -38 -108 -7 -12 -12 -31 -12 -42 0 -25 -13 -27 -34 -5
-17 17 -47 16 -53 -2 -2 -6 9 -17 24 -25 16 -8 33 -19 38 -26 10 -11 28 -16
53 -14 6 0 12 11 12 24 0 12 11 46 25 75 14 29 27 68 29 85 8 56 17 76 32 70
10 -4 12 0 8 11 -3 9 -1 16 6 16 6 0 8 5 5 10 -3 6 -2 10 4 10 6 0 13 12 17
28 3 15 17 55 30 88 20 52 28 79 33 114 1 3 13 -8 27 -23 19 -21 33 -27 60
-25 19 1 42 10 50 19 20 22 3 33 -22 15 -13 -10 -24 -11 -36 -5 -22 12 -23 31
-3 69 16 31 35 40 35 16 0 -12 20 -26 38 -26 4 0 7 34 7 75 0 41 -4 75 -9 75
-5 0 -2 8 5 18 7 9 9 14 4 9 -10 -9 -38 51 -29 64 5 8 -9 13 -28 10 -5 0 -8 4
-8 9 0 10 -28 11 -65 3z m65 -34 c0 -6 -7 -9 -15 -6 -8 4 -17 2 -20 -4 -7 -11
-25 -3 -25 12 0 5 14 9 30 9 17 0 30 -5 30 -11z m-74 -70 c3 -6 22 -9 40 -7
39 5 43 -6 19 -52 -11 -21 -23 -30 -39 -30 -53 0 -65 19 -50 78 7 24 19 29 30
11z m24 -123 c0 -3 -4 -8 -10 -11 -5 -3 -10 -1 -10 4 0 6 5 11 10 11 6 0 10
-2 10 -4z m-77 -74 c-31 -90 -58 -157 -85 -207 -28 -53 -28 -53 -105 -40 l-33
6 20 36 c10 20 17 40 14 45 -3 4 -2 8 3 8 4 0 19 23 31 51 15 33 28 49 37 45
8 -3 17 6 24 25 5 16 17 29 25 29 9 0 15 3 15 8 -3 19 2 33 10 28 5 -3 14 1
21 9 6 7 18 11 25 9 11 -5 11 -14 -2 -52z"/>
<path d="M5461 2838 c-1 -15 4 -30 9 -33 12 -7 12 12 0 40 -8 18 -9 17 -9 -7z"/>
<path d="M3641 2838 c-1 -10 -1 -21 0 -24 0 -4 -3 -10 -8 -13 -5 -3 -16 -25
-25 -47 -15 -40 -15 -41 3 -37 11 3 20 8 20 12 1 3 3 19 5 34 1 16 7 34 12 40
5 7 6 21 1 32 -6 17 -8 17 -8 3z"/>
<path d="M3743 2820 c0 -35 3 -37 16 -11 8 14 7 22 -3 30 -10 8 -13 4 -13 -19z"/>
<path d="M4381 2824 c-17 -7 -31 -18 -31 -23 0 -14 38 -33 50 -26 6 3 10 2 10
-4 0 -5 9 -13 21 -16 34 -11 20 -45 -26 -61 -44 -15 -41 -14 -55 -14 -5 0 -7
-7 -4 -15 4 -8 10 -13 14 -10 5 3 13 -2 18 -11 5 -9 13 -16 18 -16 5 0 19 -4
32 -9 13 -5 30 -9 37 -9 14 0 35 -29 35 -49 0 -6 -4 -11 -9 -11 -5 0 -22 -5
-38 -12 -15 -6 -35 -10 -44 -9 -9 1 -29 -3 -44 -9 l-29 -11 24 -14 c33 -19 38
-21 90 -35 25 -7 51 -14 58 -16 11 -3 17 -33 13 -58 -1 -5 1 -16 5 -25 4 -9 8
-18 8 -21 8 -31 60 -80 72 -68 5 6 -19 68 -27 68 -4 0 -3 16 1 36 12 53 -15
97 -63 105 -52 8 -55 16 -13 33 20 8 36 22 36 31 0 32 -30 72 -62 85 -18 8
-34 14 -36 16 -4 3 47 54 54 54 3 0 2 -4 -1 -10 -3 -5 -1 -18 4 -27 6 -10 11
-14 11 -10 0 5 10 1 22 -7 12 -9 31 -16 41 -16 15 0 18 -5 13 -24 -7 -27 18
-54 55 -61 24 -5 49 -30 49 -49 0 -6 -4 -5 -9 3 -7 11 -10 7 -13 -14 -2 -23
-10 -31 -35 -39 -29 -8 -32 -12 -26 -34 3 -14 12 -37 19 -51 8 -14 14 -32 14
-38 0 -7 5 -13 10 -13 6 0 10 -9 10 -19 0 -11 5 -21 11 -23 5 -2 11 -12 13
-23 4 -26 66 -36 66 -11 0 9 -8 16 -17 16 -13 0 -14 3 -6 8 10 6 5 20 -17 55
-31 50 -40 107 -17 107 8 0 14 6 15 13 12 80 12 94 -1 111 -7 10 -24 20 -38
21 -13 1 -28 3 -32 4 -5 0 -6 14 -2 30 8 39 -15 62 -55 54 -17 -3 -31 -2 -31
3 -7 51 -7 64 1 59 5 -3 12 0 16 6 3 6 0 15 -7 20 -8 5 -10 9 -5 9 8 0 -3 11
-72 71 -20 17 -65 18 -101 3z m102 -36 c30 -14 39 -31 31 -53 -7 -17 -24 -20
-24 -4 0 13 -20 33 -42 42 -21 7 -24 27 -5 27 7 0 25 -6 40 -12z"/>
<path d="M5477 2776 c-3 -8 -2 -18 3 -21 13 -8 20 9 11 24 -6 10 -10 9 -14 -3z"/>
<path d="M5490 2706 c0 -14 5 -28 10 -31 6 -4 10 7 10 24 0 17 -4 31 -10 31
-5 0 -10 -11 -10 -24z"/>
<path d="M3730 2720 c-8 -26 -7 -41 2 -32 6 6 8 16 5 24 -3 7 -6 11 -7 8z"/>
<path d="M3030 2669 c0 -6 9 -13 20 -16 11 -3 20 -9 20 -14 0 -27 145 -49 167
-25 5 5 -17 7 -47 4 -44 -3 -59 -1 -75 14 -16 16 -71 48 -82 48 -1 0 -3 -5 -3
-11z"/>
<path d="M3680 2639 c0 -11 5 -17 10 -14 6 3 10 13 10 21 0 8 -4 14 -10 14 -5
0 -10 -9 -10 -21z"/>
<path d="M3273 2603 c4 -6 23 -13 42 -15 43 -5 32 9 -14 18 -23 5 -32 4 -28
-3z"/>
<path d="M5545 2600 c-8 -13 -1 -24 14 -19 6 3 7 10 2 18 -6 10 -10 10 -16 1z"/>
<path d="M5560 2564 c0 -8 43 -87 51 -94 3 -3 14 -20 24 -37 11 -18 25 -33 32
-33 7 0 13 -9 13 -19 0 -11 33 -50 78 -91 109 -101 189 -151 162 -100 -6 11
-17 20 -26 20 -8 0 -30 16 -50 35 -19 19 -41 35 -49 35 -8 0 -15 5 -15 10 0 6
-11 20 -25 32 -14 12 -25 28 -25 35 0 8 -4 12 -10 8 -5 -3 -17 9 -26 27 -9 18
-23 37 -30 41 -8 4 -14 17 -14 27 0 11 -7 20 -15 20 -14 0 -20 12 -16 33 1 5
-8 11 -19 14 -11 3 -20 14 -20 24 0 11 -4 19 -10 19 -5 0 -10 -3 -10 -6z"/>
<path d="M1785 2530 c-3 -5 -2 -10 4 -10 5 0 13 5 16 10 3 6 2 10 -4 10 -5 0
-13 -4 -16 -10z"/>
<path d="M3614 2525 c4 -24 16 -30 16 -7 0 12 -4 22 -9 22 -5 0 -8 -7 -7 -15z"/>
<path d="M3718 2518 c14 -14 16 -98 2 -98 -5 0 -10 3 -10 8 0 8 -49 32 -67 32
-25 0 -12 -15 28 -34 22 -10 43 -26 47 -35 3 -9 14 -24 25 -33 11 -10 23 -41
30 -81 9 -53 8 -78 -6 -141 -23 -104 -14 -122 90 -171 130 -61 158 -77 247
-145 72 -55 89 -73 106 -116 12 -28 33 -61 46 -73 27 -24 80 -35 89 -20 4 5
-4 9 -18 9 -28 0 -77 48 -77 76 0 18 -89 124 -104 124 -7 0 -23 12 -55 41 -9
8 -23 13 -29 11 -7 -2 -12 1 -12 7 0 11 -132 81 -179 96 -13 4 -39 21 -56 37
-28 25 -32 35 -29 66 19 181 12 250 -27 300 -14 18 -17 34 -12 72 6 49 -6 80
-30 80 -7 0 -7 -4 1 -12z"/>
<path d="M3556 2448 c-9 -17 -16 -35 -16 -40 0 -9 -4 -15 -45 -61 -14 -15 -25
-39 -25 -53 0 -14 -11 -35 -25 -48 -14 -13 -32 -40 -40 -60 -8 -20 -20 -36
-25 -36 -5 0 -13 -18 -16 -41 -4 -22 -13 -43 -20 -46 -19 -7 -18 -23 1 -23 8
0 15 7 15 15 0 8 5 15 10 15 6 0 10 8 10 18 0 9 7 26 15 36 8 11 15 28 15 38
0 10 3 18 8 18 4 0 23 24 42 53 19 28 37 54 40 57 13 13 44 66 42 73 -1 4 3 7
8 7 6 0 10 9 10 20 0 10 7 23 17 28 11 7 14 15 8 28 -5 11 -7 22 -7 27 4 17
-8 5 -22 -25z"/>
<path d="M3380 2449 c0 -5 5 -7 10 -4 6 3 10 8 10 11 0 2 -4 4 -10 4 -5 0 -10
-5 -10 -11z"/>
<path d="M1715 2411 c-3 -5 -1 -12 5 -16 5 -3 10 1 10 9 0 18 -6 21 -15 7z"/>
<path d="M3340 2404 c0 -8 5 -12 10 -9 6 4 8 11 5 16 -9 14 -15 11 -15 -7z"/>
<path d="M3886 2402 c-4 -7 9 -46 28 -88 20 -42 36 -77 36 -80 0 -17 44 -114
52 -114 7 0 7 4 1 13 -6 6 -21 44 -33 82 -13 39 -33 93 -46 120 -12 28 -24 57
-26 65 -3 10 -6 11 -12 2z"/>
<path d="M4717 2404 c-7 -7 25 -73 36 -74 9 0 4 35 -8 63 -7 17 -17 22 -28 11z"/>
<path d="M6907 2383 c-15 -14 -6 -24 21 -21 27 3 27 2 25 -51 -1 -58 -24 -91
-48 -71 -7 5 -15 7 -18 3 -4 -3 -7 8 -7 25 0 18 5 32 10 32 6 0 10 8 9 18 0
10 -3 12 -6 4 -2 -6 -9 -9 -14 -6 -21 12 -41 -19 -34 -53 5 -28 3 -33 -14 -33
-11 0 -21 -5 -23 -11 -2 -6 -13 -2 -25 9 -12 10 -33 18 -45 16 -13 -1 -29 -3
-37 -3 -23 -2 7 -29 40 -36 33 -8 36 -18 12 -43 -10 -10 -26 -35 -37 -57 -58
-124 -71 -145 -90 -145 -18 0 -19 -1 -1 -20 10 -11 24 -20 30 -20 7 0 19 -10
27 -21 l14 -22 27 25 c15 14 27 28 27 32 0 4 11 19 25 34 14 15 25 33 25 40 0
7 5 10 10 7 6 -3 14 5 20 20 5 14 16 28 24 31 18 7 37 88 29 126 -5 26 -4 27
35 25 49 -2 69 14 78 59 7 41 0 77 -22 98 -16 16 -55 22 -67 9z m-62 -225 c-4
-24 -16 -55 -27 -70 -19 -27 -51 -37 -62 -19 -7 11 28 83 37 75 4 -4 7 0 7 8
0 12 33 45 48 47 2 1 1 -18 -3 -41z m-72 -139 c-10 -4 -33 -27 -52 -53 -19
-25 -36 -46 -37 -46 -8 0 27 95 36 98 5 2 10 10 10 17 0 11 6 11 30 2 25 -9
27 -13 13 -18z"/>
<path d="M4758 2314 c-10 -9 4 -44 16 -44 20 0 26 11 15 31 -10 19 -21 24 -31
13z"/>
<path d="M7132 2256 c-32 -12 -34 -26 -2 -26 9 0 25 -9 35 -20 15 -17 16 -24
7 -45 -21 -45 -92 -26 -92 25 0 13 -5 20 -12 17 -7 -2 -12 -14 -10 -26 1 -13
-9 -34 -25 -51 -40 -42 -48 -53 -56 -72 -3 -10 -16 -18 -27 -18 -21 0 -28 -16
-9 -22 8 -3 7 -13 -3 -33 -9 -17 -13 -35 -11 -41 2 -7 -5 -27 -16 -45 -12 -19
-21 -42 -21 -51 0 -11 -8 -18 -20 -18 -30 0 -24 -17 9 -28 33 -12 37 -9 57 33
8 17 21 41 29 55 9 14 14 32 11 41 -2 12 2 15 16 11 17 -4 19 -10 13 -40 -10
-53 -56 -139 -81 -153 -27 -14 -24 -25 9 -31 24 -5 37 8 82 75 14 21 23 43 20
48 -4 5 -2 9 3 9 18 0 35 57 23 78 -6 11 -7 22 -2 24 5 2 18 32 29 68 18 59
22 65 53 73 24 6 35 5 37 -3 8 -24 42 -50 65 -49 22 0 22 0 1 9 -30 12 -36 36
-19 70 31 59 11 129 -40 142 -11 3 -35 0 -53 -6z m-72 -193 c-16 -59 -21 -65
-42 -49 -15 11 -14 16 13 60 17 26 33 45 36 42 3 -3 0 -27 -7 -53z m-32 -85
c-6 -17 -38 -19 -38 -2 0 8 9 14 21 14 11 0 19 -5 17 -12z"/>
<path d="M5936 2163 c-6 -7 37 -34 77 -49 9 -3 17 -10 17 -15 0 -5 4 -9 9 -9
13 0 170 -107 206 -140 66 -61 246 -173 271 -169 4 0 10 -3 13 -8 3 -6 40 -29
81 -53 104 -61 140 -90 260 -210 111 -112 175 -170 186 -170 3 0 36 -22 73
-48 90 -66 213 -132 253 -137 19 -2 51 -11 71 -20 41 -17 102 -20 92 -5 -4 6
-10 8 -15 5 -5 -3 -17 -1 -27 4 -16 8 -87 29 -105 31 -7 1 -116 57 -159 82
-12 7 -38 27 -57 45 -20 17 -47 35 -61 38 -14 4 -38 20 -55 36 -16 16 -35 29
-42 29 -7 0 -16 9 -19 20 -3 11 -13 20 -21 20 -8 0 -14 4 -14 9 0 16 -211 221
-227 221 -6 0 -20 9 -33 20 -13 11 -29 20 -37 20 -7 0 -13 4 -13 9 0 5 -11 12
-25 15 -14 4 -25 11 -25 16 0 6 -5 10 -11 10 -6 0 -22 9 -36 20 -14 11 -29 18
-33 15 -4 -3 -10 2 -14 10 -3 8 -13 15 -21 15 -10 0 -14 -5 -10 -12 4 -7 -1
-4 -9 6 -9 11 -16 23 -16 28 0 4 -7 8 -16 8 -9 0 -23 9 -32 19 -10 11 -26 21
-36 23 -11 2 -29 12 -42 23 -37 33 -54 46 -54 41 0 -3 -11 5 -24 17 -39 36
-55 47 -65 47 -5 0 -12 7 -15 16 -3 8 -10 13 -15 10 -5 -4 -11 -3 -13 1 -1 5
-20 16 -40 27 -20 10 -46 27 -56 36 -10 10 -28 21 -40 24 -12 4 -22 12 -22 17
0 6 -4 8 -9 4 -5 -3 -12 -1 -16 5 -7 12 -19 13 -29 3z"/>
<path d="M7437 2153 c-2 -4 -4 -20 -3 -35 1 -23 -3 -28 -21 -28 -30 0 -40 -20
-11 -21 13 -1 28 -1 35 0 6 1 11 -13 11 -33 0 -26 -5 -36 -24 -45 -49 -22 -75
-4 -36 25 14 12 15 15 3 23 -22 14 -48 -4 -56 -39 -4 -20 -14 -32 -30 -36 -13
-3 -32 -15 -42 -27 -29 -33 -73 -113 -66 -121 3 -3 -3 -6 -15 -6 -19 0 -20 -4
-16 -46 4 -32 1 -51 -9 -62 -9 -10 -19 -29 -22 -44 -4 -16 -11 -28 -16 -28
-13 0 -11 -24 2 -37 13 -13 39 -6 39 9 0 5 10 30 22 56 12 26 20 62 19 80 -2
33 -1 34 31 27 18 -4 40 -14 49 -22 15 -12 19 -10 37 19 11 18 25 51 32 73 7
22 16 44 21 50 5 5 9 19 9 31 0 26 48 40 65 19 17 -22 55 -29 55 -11 0 9 -6
16 -14 16 -20 0 -26 23 -11 44 9 11 23 16 42 14 20 -2 29 2 31 15 3 15 0 18
-16 13 -15 -5 -25 2 -43 31 -13 21 -24 51 -24 67 0 28 -18 46 -28 29z m-86
-220 c-5 -10 -22 -49 -37 -86 -19 -48 -31 -66 -41 -62 -8 3 -23 5 -34 5 -10 0
-19 4 -19 10 0 17 84 128 105 139 30 14 36 13 26 -6z"/>
<path d="M4000 2097 c0 -32 113 -147 129 -131 3 3 -3 12 -14 20 -37 26 -95 87
-95 100 0 7 -4 16 -10 19 -5 3 -10 0 -10 -8z"/>
<path d="M1466 2073 c-6 -14 -5 -15 5 -6 7 7 10 15 7 18 -3 3 -9 -2 -12 -12z"/>
<path d="M7510 2070 c-6 -11 -7 -20 -2 -20 10 0 32 21 32 32 0 16 -19 8 -30
-12z"/>
<path d="M3316 2008 c-9 -12 -16 -28 -16 -36 0 -7 -4 -10 -10 -7 -6 3 -10 -5
-10 -19 0 -13 -5 -26 -12 -28 -6 -2 -8 -9 -4 -16 5 -8 12 -6 25 6 10 9 16 20
14 24 -6 11 19 58 28 52 5 -3 9 -1 9 5 0 5 3 16 6 25 9 24 -13 19 -30 -6z"/>
<path d="M7655 1965 c-14 -13 -25 -29 -25 -34 0 -5 -9 -8 -20 -6 -12 2 -23 -2
-27 -10 -3 -8 -11 -15 -19 -15 -8 0 -14 -4 -14 -9 0 -5 -3 -18 -6 -28 -5 -17
-5 -17 9 0 10 12 22 17 35 13 11 -4 23 -2 27 4 3 5 17 10 31 10 21 0 24 -4 19
-20 -4 -13 -1 -22 9 -26 21 -8 21 -33 0 -41 -8 -3 -13 -12 -10 -19 3 -7 -4
-20 -16 -28 -27 -19 -62 -3 -55 24 12 45 -55 60 -95 23 -66 -62 -91 -92 -104
-123 -8 -19 -20 -38 -27 -42 -9 -6 -7 -11 6 -19 18 -11 18 -11 0 -24 -11 -8
-27 -31 -37 -53 -15 -33 -21 -38 -43 -34 -37 7 -27 -26 13 -43 32 -13 32 -13
63 35 17 26 31 59 31 74 l0 26 35 -17 c35 -17 49 -53 21 -53 -8 0 -27 -25 -41
-55 -15 -30 -31 -55 -36 -55 -15 0 -10 -40 6 -46 21 -8 49 25 76 91 12 29 32
58 44 65 15 8 21 21 22 46 1 19 10 52 22 74 12 22 21 47 21 55 0 15 20 14 68
-1 18 -6 69 32 77 56 4 11 13 20 21 20 8 0 14 5 14 10 0 6 -4 10 -10 10 -5 0
-10 11 -10 25 0 14 -4 25 -10 25 -5 0 -10 7 -10 15 0 8 5 15 10 15 6 0 10 -5
10 -11 0 -8 5 -7 16 2 14 11 14 13 -1 22 -9 5 -22 7 -29 4 -7 -3 -23 3 -37 13
l-24 19 23 21 c12 11 22 25 22 30 0 17 -20 11 -45 -15z m-128 -267 c-16 -34
-29 -69 -30 -79 -2 -24 -28 -24 -57 -1 -22 18 -22 19 -6 50 9 17 37 53 63 79
40 42 47 45 53 29 3 -11 -5 -42 -23 -78z"/>
<path d="M4150 1953 c8 -3 23 -12 33 -21 9 -8 17 -12 17 -7 0 12 -33 34 -50
34 -13 -1 -13 -1 0 -6z"/>
<path d="M1325 1920 c3 -5 8 -10 11 -10 2 0 4 5 4 10 0 6 -5 10 -11 10 -5 0
-7 -4 -4 -10z"/>
<path d="M4206 1894 c-8 -21 18 -76 44 -92 25 -16 26 -2 1 25 -11 12 -18 23
-15 25 2 3 -2 17 -10 32 -11 22 -15 24 -20 10z"/>
<path d="M1252 1868 c-7 -7 -12 -16 -12 -20 0 -15 15 -8 28 12 13 22 3 27 -16
8z"/>
<path d="M3240 1870 c0 -5 4 -10 9 -10 6 0 13 5 16 10 3 6 -1 10 -9 10 -9 0
-16 -4 -16 -10z"/>
<path d="M1235 1820 c-3 -5 -1 -10 4 -10 6 0 11 5 11 10 0 6 -2 10 -4 10 -3 0
-8 -4 -11 -10z"/>
<path d="M1190 1811 c0 -5 -9 -13 -20 -16 -11 -3 -20 -13 -20 -22 0 -14 2 -14
23 0 13 8 32 17 42 19 19 4 19 5 -2 16 -13 7 -23 8 -23 3z"/>
<path d="M4300 1772 c0 -12 50 -58 50 -46 0 5 5 1 11 -9 11 -18 49 -38 81 -42
9 -1 25 -8 36 -16 11 -8 47 -33 80 -56 33 -23 67 -49 75 -58 9 -8 22 -15 30
-15 8 0 20 -7 27 -15 7 -8 21 -15 31 -15 17 0 18 3 7 20 -7 11 -18 20 -25 20
-7 0 -13 5 -13 10 0 6 -6 10 -14 10 -27 0 -94 44 -183 120 -10 8 -19 14 -20
13 -3 -3 -6 -3 -28 1 -26 4 -84 36 -110 60 -30 28 -35 31 -35 18z"/>
<path d="M1100 1709 c0 -5 5 -7 10 -4 6 3 10 8 10 11 0 2 -4 4 -10 4 -5 0 -10
-5 -10 -11z"/>
<path d="M7263 1688 c-6 -7 -23 -46 -38 -86 -25 -65 -31 -72 -53 -70 -35 4
-39 -20 -6 -32 42 -16 68 8 94 87 12 37 26 72 30 77 9 10 2 36 -10 36 -4 0
-12 -6 -17 -12z"/>
<path d="M3940 1630 c0 -5 5 -10 10 -10 6 0 10 5 10 10 0 6 -4 10 -10 10 -5 0
-10 -4 -10 -10z"/>
<path d="M3070 1614 c0 -8 5 -12 10 -9 6 3 10 10 10 16 0 5 -4 9 -10 9 -5 0
-10 -7 -10 -16z"/>
<path d="M3913 1613 c4 -3 2 -12 -5 -20 -6 -7 -8 -16 -5 -19 3 -3 -1 -21 -9
-39 -9 -22 -10 -36 -4 -40 6 -4 8 -11 4 -16 -3 -5 -11 -6 -17 -2 -7 4 -5 -4 4
-17 8 -13 23 -24 32 -26 13 -2 16 5 13 37 -2 22 1 42 5 45 13 8 11 54 -2 54
-6 0 -3 7 5 16 18 18 13 34 -11 34 -9 0 -13 -3 -10 -7z"/>
<path d="M2890 1550 c-8 -5 -12 -12 -9 -15 4 -3 12 1 19 10 14 17 11 19 -10 5z"/>
<path d="M3031 1540 c0 -8 4 -24 9 -35 l9 -20 0 20 c0 11 -4 27 -9 35 -9 13
-10 13 -9 0z"/>
<path d="M2836 1505 c-3 -8 -1 -15 4 -15 13 0 22 18 11 24 -5 3 -11 -1 -15 -9z"/>
<path d="M4372 1492 c-45 -30 -45 -42 -1 -42 15 0 69 -16 119 -35 103 -39 100
-39 100 -25 0 5 -17 17 -37 25 -84 34 -113 51 -112 65 4 49 -9 51 -69 12z m48
-7 c0 -9 -6 -12 -15 -9 -8 4 -12 10 -9 15 8 14 24 10 24 -6z"/>
<path d="M785 1450 c-3 -5 -1 -10 4 -10 6 0 11 5 11 10 0 6 -2 10 -4 10 -3 0
-8 -4 -11 -10z"/>
<path d="M2980 1439 c0 -5 5 -7 10 -4 6 3 10 8 10 11 0 2 -4 4 -10 4 -5 0 -10
-5 -10 -11z"/>
<path d="M740 1420 c0 -16 17 -20 28 -7 8 10 6 13 -9 14 -10 1 -19 -2 -19 -7z"/>
<path d="M2937 1376 c-4 -10 -1 -13 8 -9 8 3 12 9 9 14 -7 12 -11 11 -17 -5z"/>
<path d="M4610 1370 c0 -5 5 -10 11 -10 5 0 7 5 4 10 -3 6 -8 10 -11 10 -2 0
-4 -4 -4 -10z"/>
<path d="M2901 1323 c0 -13 -6 -23 -12 -23 -5 0 -7 -5 -3 -11 10 -18 26 6 21
32 -4 24 -4 24 -6 2z"/>
<path d="M5437 1289 c7 -7 15 -10 18 -7 3 3 -2 9 -12 12 -14 6 -15 5 -6 -5z"/>
<path d="M2654 1275 c-3 -8 -4 -20 -2 -27 3 -7 7 -1 10 15 6 29 1 36 -8 12z"/>
<path d="M5526 1235 c4 -8 10 -15 15 -15 4 0 6 7 3 15 -4 8 -10 15 -15 15 -4
0 -6 -7 -3 -15z"/>
<path d="M2564 1185 c-20 -19 -42 -35 -49 -35 -12 0 -45 -31 -45 -42 0 -3 11
-4 24 -3 33 4 141 115 112 115 -3 0 -21 -16 -42 -35z"/>
<path d="M2800 1200 c0 -5 5 -10 11 -10 5 0 7 5 4 10 -3 6 -8 10 -11 10 -2 0
-4 -4 -4 -10z"/>
<path d="M2758 1153 c6 -2 18 -2 25 0 6 3 1 5 -13 5 -14 0 -19 -2 -12 -5z"/>
<path d="M4290 1130 c0 -11 4 -20 9 -20 5 0 7 9 4 20 -3 11 -7 20 -9 20 -2 0
-4 -9 -4 -20z"/>
<path d="M2710 1090 c0 -5 7 -10 15 -10 8 0 15 5 15 10 0 6 -7 10 -15 10 -8 0
-15 -4 -15 -10z"/>
<path d="M380 1076 c0 -2 8 -10 18 -17 15 -13 16 -12 3 4 -13 16 -21 21 -21
13z"/>
<path d="M2505 980 c3 -5 8 -10 11 -10 2 0 4 5 4 10 0 6 -5 10 -11 10 -5 0 -7
-4 -4 -10z"/>
<path d="M5815 930 c-3 -5 -1 -10 4 -10 6 0 11 5 11 10 0 6 -2 10 -4 10 -3 0
-8 -4 -11 -10z"/>
<path d="M2371 874 c0 -11 3 -14 6 -6 3 7 2 16 -1 19 -3 4 -6 -2 -5 -13z"/>
<path d="M5820 836 c0 -9 5 -16 10 -16 6 0 10 4 10 9 0 6 -4 13 -10 16 -5 3
-10 -1 -10 -9z"/>
<path d="M5804 779 c-3 -6 -1 -16 5 -22 8 -8 11 -5 11 11 0 24 -5 28 -16 11z"/>
<path d="M4495 720 c3 -5 10 -10 16 -10 5 0 9 5 9 10 0 6 -7 10 -16 10 -8 0
-12 -4 -9 -10z"/>
<path d="M4987 497 c-3 -9 1 -14 14 -13 22 1 27 20 6 24 -8 2 -17 -3 -20 -11z"/>
<path d="M5225 480 c-3 -5 1 -10 9 -10 9 0 16 5 16 10 0 6 -4 10 -9 10 -6 0
-13 -4 -16 -10z"/>
<path d="M5280 480 c0 -5 11 -10 25 -10 14 0 25 5 25 10 0 6 -11 10 -25 10
-14 0 -25 -4 -25 -10z"/>
</g>
</svg>
