<?xml version="1.0" standalone="no"?>
<!DOCTYPE svg PUBLIC "-//W3C//DTD SVG 20010904//EN"
 "http://www.w3.org/TR/2001/REC-SVG-20010904/DTD/svg10.dtd">
<svg version="1.0" xmlns="http://www.w3.org/2000/svg"
 width="121.000000pt" height="130.000000pt" viewBox="0 0 121.000000 130.000000"
 preserveAspectRatio="xMidYMid meet">
<metadata>
Created by potrace 1.12, written by Peter Selinger 2001-2015
</metadata>
<g transform="translate(0.000000,130.000000) scale(0.100000,-0.100000)"
fill="#000000" stroke="none">
<path d="M436 743 c-4 -4 -13 -8 -20 -8 -15 0 -66 -37 -103 -73 -25 -25 -24
-57 3 -78 10 -8 6 -17 -22 -43 -32 -31 -34 -35 -21 -55 12 -18 12 -25 -1 -54
-15 -31 -15 -33 7 -55 l24 -22 -6 23 c-4 15 3 36 19 60 18 26 23 43 19 64 -5
22 -3 28 10 28 11 0 15 -5 11 -15 -3 -9 1 -18 9 -21 8 -4 13 -10 10 -14 -3 -4
10 -21 28 -37 26 -23 43 -29 71 -28 38 2 86 22 86 37 0 4 6 8 14 8 7 0 21 11
30 25 l16 25 31 -28 c17 -15 40 -35 51 -46 20 -18 21 -18 40 2 25 24 16 42
-20 42 -42 0 -56 15 -58 60 -7 142 -23 167 -114 173 -43 3 -67 9 -75 21 -13
17 -27 20 -39 9z m22 -55 c2 -11 -4 -16 -22 -14 -24 1 -34 15 -20 28 10 11 39
1 42 -14z m-77 -47 c-12 -12 -19 -26 -16 -31 4 -6 -3 -10 -14 -10 -12 0 -21 5
-21 11 0 17 54 68 64 59 4 -4 -2 -18 -13 -29z m247 2 c4 -29 -1 -29 -35 3
l-28 26 30 -4 c22 -2 31 -9 33 -25z m-47 -24 c12 -17 14 -31 8 -57 -4 -20 -6
-40 -3 -44 3 -4 -2 -8 -10 -8 -9 0 -25 -9 -35 -19 -29 -29 -101 -37 -128 -14
-23 19 -26 29 -24 80 1 39 51 96 76 87 8 -3 15 -10 15 -15 0 -5 5 -9 10 -9 6
0 10 9 10 19 0 17 4 19 32 10 18 -5 40 -19 49 -30z"/>
</g>
</svg>
