<?xml version="1.0" standalone="no"?>
<!DOCTYPE svg PUBLIC "-//W3C//DTD SVG 20010904//EN"
 "http://www.w3.org/TR/2001/REC-SVG-20010904/DTD/svg10.dtd">
<svg version="1.0" xmlns="http://www.w3.org/2000/svg"
 width="658.000000pt" height="337.000000pt" viewBox="0 0 658.000000 337.000000"
 preserveAspectRatio="xMidYMid meet">
<metadata>
Created by potrace 1.12, written by Peter Selinger 2001-2015
</metadata>
<g transform="translate(0.000000,337.000000) scale(0.100000,-0.100000)"
fill="#000000" stroke="none">
<path d="M5706 2797 c6 -17 53 -47 74 -47 22 0 9 20 -17 26 -16 4 -36 14 -46
22 -16 15 -17 14 -11 -1z"/>
<path d="M5810 2747 c0 -3 19 -14 43 -26 23 -11 52 -28 64 -37 20 -15 21 -14
16 5 -3 12 -13 21 -22 21 -9 0 -25 6 -36 14 -22 15 -65 30 -65 23z"/>
<path d="M5550 2706 c0 -9 5 -16 10 -16 6 0 10 4 10 9 0 6 -4 13 -10 16 -5 3
-10 -1 -10 -9z"/>
<path d="M5590 2690 c0 -5 7 -10 15 -10 8 0 15 5 15 10 0 6 -7 10 -15 10 -8 0
-15 -4 -15 -10z"/>
<path d="M5645 2680 c-3 -5 -1 -10 4 -10 6 0 11 5 11 10 0 6 -2 10 -4 10 -3 0
-8 -4 -11 -10z"/>
<path d="M5675 2680 c3 -5 13 -10 21 -10 8 0 12 5 9 10 -3 6 -13 10 -21 10 -8
0 -12 -4 -9 -10z"/>
<path d="M5320 2615 c-7 -8 -9 -15 -6 -15 4 0 14 7 22 15 9 8 11 15 6 15 -5 0
-15 -7 -22 -15z"/>
<path d="M5388 2623 c7 -3 16 -2 19 1 4 3 -2 6 -13 5 -11 0 -14 -3 -6 -6z"/>
<path d="M5278 2565 c-6 -14 -15 -25 -19 -25 -5 0 -15 -13 -24 -30 -9 -16 -13
-30 -9 -30 4 0 1 -7 -6 -15 -7 -8 -10 -15 -6 -15 4 0 -1 -14 -9 -31 -9 -17
-14 -33 -12 -36 3 -2 -5 -28 -18 -58 -13 -29 -21 -56 -18 -59 4 -3 -1 -6 -11
-6 -10 0 -14 -5 -10 -11 3 -6 1 -15 -5 -19 -7 -4 -15 -22 -17 -41 -3 -19 -12
-43 -19 -55 -7 -12 -15 -36 -18 -55 -2 -21 -9 -33 -17 -31 -8 2 -10 -3 -6 -13
3 -9 -2 -34 -11 -57 -11 -28 -13 -43 -6 -45 6 -2 9 -13 6 -23 -3 -11 -1 -20 4
-20 5 0 15 26 21 58 16 77 17 80 25 88 4 4 7 20 7 36 0 26 9 51 68 178 9 19
16 37 17 40 1 14 72 148 88 164 9 11 17 24 17 29 0 5 11 20 25 33 14 13 21 26
15 29 -9 6 -52 -30 -44 -38 2 -2 -5 -12 -16 -22 -19 -18 -20 -17 -20 3 0 12 5
22 11 22 5 0 7 5 4 10 -3 6 -2 10 4 10 5 0 19 14 31 30 18 25 19 30 5 30 -8 0
-21 -11 -27 -25z"/>
<path d="M6000 2581 c0 -5 5 -13 10 -16 6 -3 10 -2 10 4 0 5 -4 13 -10 16 -5
3 -10 2 -10 -4z"/>
<path d="M6070 2476 c0 -50 14 -80 61 -128 22 -23 42 -50 44 -59 4 -22 28 -59
37 -59 12 0 9 25 -4 38 -17 17 -2 15 27 -4 20 -13 25 -14 25 -2 0 7 -13 22
-30 31 -16 10 -30 22 -30 28 0 5 -6 9 -12 9 -14 0 -58 59 -58 77 0 6 -7 14
-16 17 -9 4 -14 13 -10 21 6 17 -13 65 -26 65 -4 0 -8 -15 -8 -34z"/>
<path d="M5688 2353 c7 -3 16 -2 19 1 4 3 -2 6 -13 5 -11 0 -14 -3 -6 -6z"/>
<path d="M5693 2283 c-17 -6 -17 -23 0 -23 8 0 14 7 14 15 0 8 -1 15 -1 14 -1
0 -7 -3 -13 -6z"/>
<path d="M5693 2244 c3 -4 0 -13 -8 -21 -22 -22 -18 -31 11 -25 17 3 23 9 20
19 -3 8 -6 19 -6 24 0 5 -5 9 -12 9 -6 0 -9 -3 -5 -6z"/>
<path d="M6270 2235 c0 -9 6 -12 15 -9 8 4 15 7 15 9 0 2 -7 5 -15 9 -9 3 -15
0 -15 -9z"/>
<path d="M5516 2225 c-11 -8 -15 -15 -9 -15 6 0 16 7 23 15 16 19 11 19 -14 0z"/>
<path d="M6210 2205 c0 -8 7 -15 15 -15 9 0 12 6 9 15 -4 8 -10 15 -15 15 -5
0 -9 -7 -9 -15z"/>
<path d="M5667 2173 c-13 -12 -7 -33 8 -33 14 0 19 -11 16 -35 -1 -12 38 -39
46 -31 3 2 15 -6 28 -20 13 -14 26 -21 29 -16 3 5 -9 20 -27 32 -23 16 -38 37
-46 67 -13 43 -14 44 -35 26 -19 -16 -19 -16 -7 0 13 16 2 25 -12 10z"/>
<path d="M6220 2169 c0 -5 5 -7 10 -4 6 3 10 8 10 11 0 2 -4 4 -10 4 -5 0 -10
-5 -10 -11z"/>
<path d="M5475 2160 c3 -5 -1 -10 -10 -10 -9 0 -13 -4 -10 -10 3 -5 2 -10 -3
-10 -6 0 -12 -7 -16 -15 -11 -30 22 -14 43 20 17 29 18 35 5 35 -8 0 -12 -4
-9 -10z"/>
<path d="M6230 2140 c0 -5 7 -10 16 -10 8 0 12 5 9 10 -3 6 -10 10 -16 10 -5
0 -9 -4 -9 -10z"/>
<path d="M5640 2131 c0 -5 5 -13 10 -16 6 -3 10 -2 10 4 0 5 -4 13 -10 16 -5
3 -10 2 -10 -4z"/>
<path d="M6230 2101 c0 -29 15 -33 18 -5 1 13 -3 24 -8 24 -6 0 -10 -9 -10
-19z"/>
<path d="M845 2101 c-3 -3 36 -15 87 -28 51 -13 97 -28 102 -33 6 -6 18 -10
28 -10 9 0 78 -29 152 -65 74 -36 138 -65 141 -65 4 0 21 -6 38 -14 51 -23
331 -105 407 -120 53 -10 179 -44 191 -51 8 -6 10 -4 4 4 -4 7 4 5 19 -4 14
-10 26 -14 26 -9 0 4 5 3 12 -4 7 -7 22 -12 34 -12 13 0 26 -4 29 -10 3 -5 17
-10 31 -10 13 0 32 -4 42 -10 31 -17 112 -29 112 -16 0 6 4 5 9 -3 5 -8 18
-12 30 -8 12 3 21 2 21 -3 0 -11 63 -14 279 -12 130 1 197 6 202 13 5 8 8 8
10 0 3 -7 18 -6 50 3 70 21 179 29 179 13 0 -23 -38 -93 -74 -136 -20 -24 -34
-47 -31 -51 3 -5 -4 -11 -15 -15 -11 -3 -19 -9 -18 -13 3 -15 -17 -48 -44 -75
-15 -15 -28 -30 -28 -33 0 -5 -12 -20 -38 -49 -7 -8 -11 -15 -9 -15 3 0 -21
-27 -52 -60 -32 -33 -62 -60 -67 -60 -17 0 -65 -52 -60 -66 3 -8 0 -11 -10 -7
-7 3 -14 0 -14 -7 0 -6 -4 -8 -10 -5 -5 3 -10 0 -10 -7 0 -7 -14 -19 -32 -27
-17 -8 -39 -22 -50 -33 -10 -10 -19 -18 -20 -17 -2 0 -10 -2 -18 -5 -8 -2 -32
-10 -53 -16 -51 -16 -88 -36 -81 -43 3 -3 -10 -9 -30 -12 -20 -4 -33 -11 -30
-16 3 -5 -1 -9 -9 -9 -15 0 -53 -37 -45 -45 2 -2 44 16 93 40 49 25 92 45 96
45 13 0 52 19 84 40 17 11 47 28 67 38 21 9 41 25 44 35 3 9 10 17 16 17 10 0
46 29 134 108 16 15 49 53 72 84 23 31 46 59 52 63 6 3 8 11 5 16 -4 5 0 9 8
9 8 0 20 14 27 30 7 17 16 30 19 30 4 0 18 18 30 41 13 22 26 38 29 34 11 -10
11 -39 0 -52 -5 -7 -8 -20 -4 -28 3 -8 2 -15 -3 -15 -9 0 -31 -68 -31 -98 0
-11 -6 -22 -14 -25 -8 -3 -12 -16 -11 -31 2 -14 -1 -26 -7 -26 -6 0 -8 -9 -5
-19 3 -11 -1 -28 -9 -39 -7 -11 -10 -22 -7 -26 3 -3 0 -6 -7 -6 -7 0 -11 -3
-7 -6 3 -3 -3 -21 -13 -39 -10 -19 -22 -51 -26 -72 -10 -49 -8 -42 -27 -85
-10 -21 -17 -42 -17 -48 0 -5 -7 -10 -16 -10 -9 0 -18 -9 -21 -20 -3 -11 -10
-20 -15 -20 -5 0 -6 -4 -3 -10 3 -5 -1 -10 -10 -10 -9 0 -14 -4 -10 -9 3 -5
-5 -17 -17 -26 -20 -13 -21 -17 -8 -26 12 -9 11 -9 -5 -4 -30 11 -53 8 -72
-10 -9 -9 -19 -12 -22 -7 -3 5 -22 7 -41 5 -65 -7 -85 -6 -125 1 -75 13 -130
30 -143 43 -15 15 -57 -1 -47 -17 6 -10 65 -40 87 -44 7 -1 31 -8 53 -14 43
-13 205 -30 224 -24 6 2 8 8 5 14 -4 6 1 8 15 3 13 -4 21 -2 21 5 0 8 15 11
45 8 25 -2 45 0 45 4 0 5 3 7 8 7 4 -1 14 -1 22 0 12 1 12 3 2 10 -10 6 -6 11
17 19 17 6 31 16 31 22 0 6 5 8 11 4 6 -3 8 -15 6 -26 -9 -31 13 -68 39 -68
13 0 29 6 35 13 7 7 26 11 44 9 41 -5 55 15 20 28 -26 10 -26 30 0 30 18 0 24
-10 30 -55 6 -47 7 -48 52 -48 27 0 42 6 60 27 13 15 21 31 19 35 -3 4 9 13
27 19 26 9 32 17 33 42 1 16 -4 30 -10 30 -6 0 -3 5 7 11 19 11 25 93 7 104
-17 10 -11 25 9 25 11 0 26 7 35 15 8 8 23 15 34 15 17 0 31 23 32 51 0 12
-84 18 -97 7 -9 -7 -13 -7 -13 1 0 6 -7 11 -15 11 -8 0 -15 7 -15 15 0 8 -5
15 -11 15 -5 0 -8 4 -5 9 6 9 -26 21 -58 21 -14 0 -17 -6 -14 -25 3 -13 1 -26
-5 -28 -11 -3 -19 -30 -18 -63 1 -18 -6 -23 -40 -26 -23 -2 -56 -2 -74 0 -32
4 -32 4 -23 40 5 21 9 45 9 55 0 9 4 17 9 17 8 0 22 40 25 72 1 10 8 24 15 33
7 8 9 15 5 15 -4 0 -2 6 4 14 9 11 9 15 0 18 -8 3 -5 10 7 23 13 13 15 20 6
23 -8 2 -9 9 -2 22 19 36 30 104 17 112 -9 6 -9 8 1 8 9 0 12 10 11 28 -2 15
1 33 5 41 7 10 5 12 -5 6 -11 -7 -11 -5 1 10 11 14 12 19 3 22 -19 7 -16 23 3
23 10 0 14 6 10 15 -3 8 -2 15 2 15 10 0 44 80 45 109 2 24 -1 25 -53 25 -30
-1 -95 -6 -145 -13 -117 -17 -385 -31 -385 -21 0 3 -17 5 -38 5 -20 0 -53 3
-72 7 -19 3 -55 9 -80 11 -62 7 -222 47 -237 59 -7 6 -20 8 -28 4 -8 -3 -15
-1 -15 4 0 6 -6 10 -12 10 -7 0 -25 7 -40 14 -16 8 -28 10 -28 5 0 -6 -7 -6
-19 0 -21 12 -95 31 -131 35 -14 1 -32 5 -40 8 -26 10 -314 90 -335 93 -12 1
-36 12 -55 24 -19 11 -43 21 -53 21 -10 0 -28 5 -40 12 -12 7 -29 12 -37 13
-8 0 -14 6 -12 13 1 6 -7 12 -19 12 -11 0 -27 7 -36 15 -8 8 -19 13 -24 10 -5
-4 -9 -1 -9 5 0 6 -4 9 -8 6 -5 -3 -22 3 -39 13 -16 10 -45 22 -64 26 -19 4
-39 11 -45 16 -12 10 -162 28 -169 20z m2115 -981 c0 -5 -2 -10 -4 -10 -3 0
-8 5 -11 10 -3 6 -1 10 4 10 6 0 11 -4 11 -10z m215 -167 c-1 -24 2 -46 7 -49
4 -3 8 -25 8 -50 0 -41 -2 -44 -27 -45 -47 -1 -73 -5 -80 -12 -3 -4 1 -7 10
-7 13 0 15 -5 8 -22 -8 -22 -15 -23 -66 -14 -33 6 -121 41 -127 49 -4 6 2 18
13 28 10 9 19 21 19 28 0 6 5 11 11 11 5 0 8 4 5 8 -2 4 10 9 27 10 18 2 47 4
65 6 22 1 38 -3 45 -14 14 -19 47 -33 47 -20 0 5 -4 12 -10 15 -14 9 -12 21 5
38 12 13 12 15 -5 20 -11 3 -18 11 -15 19 24 69 24 69 44 57 14 -10 18 -22 16
-56z m-255 37 c0 -5 -4 -10 -10 -10 -5 0 -10 5 -10 10 0 6 5 10 10 10 6 0 10
-4 10 -10z m-95 -221 c10 -15 -1 -23 -20 -15 -9 3 -13 10 -10 16 8 13 22 13
30 -1z m88 -14 c-3 -17 -32 -17 -49 0 -16 15 -14 16 17 13 19 -2 33 -7 32 -13z
m266 -36 c-20 -12 -30 13 -11 27 14 10 18 10 20 -3 2 -9 -2 -19 -9 -24z m-369
17 c0 -2 -7 -9 -15 -16 -13 -11 -14 -10 -9 4 5 14 24 23 24 12z m104 -42 c7
-18 0 -34 -15 -34 -5 0 -9 11 -9 25 0 28 15 34 24 9z m224 1 c7 -6 -19 -55
-27 -50 -5 3 -12 1 -16 -4 -7 -12 -45 18 -45 34 0 23 25 36 55 29 16 -3 31 -7
33 -9z"/>
<path d="M5634 2080 c0 -11 1 -20 3 -20 1 0 7 9 13 20 8 15 8 20 -3 20 -7 0
-13 -9 -13 -20z"/>
<path d="M5431 2074 c0 -11 3 -14 6 -6 3 7 2 16 -1 19 -3 4 -6 -2 -5 -13z"/>
<path d="M837 2063 c-3 -4 -8 -23 -12 -40 -3 -18 -11 -33 -16 -33 -5 0 -8 -3
-7 -7 4 -19 -39 -109 -69 -146 -13 -16 -23 -35 -23 -42 0 -8 -6 -18 -13 -22
-20 -12 -48 -58 -40 -66 3 -4 -1 -7 -11 -7 -9 0 -14 -4 -11 -10 3 -5 1 -10 -5
-10 -6 0 -39 -28 -73 -63 -34 -35 -77 -72 -94 -82 -18 -11 -33 -23 -33 -27 0
-4 -9 -5 -20 -3 -11 2 -20 1 -20 -3 0 -4 -29 -20 -65 -37 -36 -16 -65 -33 -65
-37 0 -4 -7 -5 -15 -2 -8 4 -15 2 -15 -2 0 -5 -13 -9 -29 -10 -16 -1 -37 -5
-47 -9 -22 -9 -30 -12 -44 -14 -24 -3 -7 -21 20 -21 17 0 30 4 30 9 0 5 24 15
52 22 29 6 60 16 68 20 24 13 108 49 115 49 3 0 29 15 58 33 85 55 221 191
276 276 77 120 126 220 130 264 1 5 6 5 12 1 7 -4 10 -1 7 7 -5 16 -34 24 -41
12z"/>
<path d="M5627 2043 c-2 -5 -8 -25 -11 -47 -6 -29 -4 -37 6 -34 7 3 14 23 16
46 3 39 -1 52 -11 35z"/>
<path d="M6210 1988 c-45 -12 -58 -25 -26 -25 14 0 24 3 21 7 -7 11 62 18 78
8 9 -6 9 -10 -3 -17 -8 -5 -17 -8 -21 -5 -4 2 -20 -1 -36 -8 -15 -6 -31 -11
-35 -10 -5 1 -8 -3 -8 -9 0 -6 -9 -8 -22 -4 -23 7 -23 7 -3 -8 11 -9 22 -11
23 -6 2 5 8 7 12 4 10 -6 66 16 93 37 23 17 12 48 -17 47 -11 0 -37 -5 -56
-11z"/>
<path d="M5400 1968 c0 -19 2 -20 10 -8 13 19 13 30 0 30 -5 0 -10 -10 -10
-22z"/>
<path d="M5612 1941 c-11 -7 -11 -9 0 -14 9 -3 15 1 15 9 0 8 -1 14 -1 14 -1
0 -7 -4 -14 -9z"/>
<path d="M6085 1910 c-3 -5 -2 -10 4 -10 5 0 13 5 16 10 3 6 2 10 -4 10 -5 0
-13 -4 -16 -10z"/>
<path d="M5595 1890 c-3 -5 -2 -10 4 -10 5 0 13 5 16 10 3 6 2 10 -4 10 -5 0
-13 -4 -16 -10z"/>
<path d="M3156 1631 c-17 -32 -16 -40 15 -131 12 -36 25 -72 27 -80 3 -8 6
-17 7 -20 1 -3 5 -17 9 -32 5 -16 12 -28 18 -28 5 0 6 -4 3 -10 -6 -9 0 -18
33 -55 8 -9 9 -16 2 -20 -6 -4 -7 -13 -1 -23 4 -9 11 -34 15 -54 4 -21 11 -38
17 -38 6 0 7 -4 4 -10 -3 -5 -1 -10 5 -10 6 0 8 -4 5 -10 -3 -5 3 -17 14 -27
14 -11 19 -25 16 -42 -3 -15 -2 -20 1 -13 3 6 10 9 15 6 6 -3 7 5 3 23 -4 15
-11 30 -16 31 -4 2 -6 8 -2 13 3 5 1 9 -4 9 -5 0 -8 11 -7 25 2 18 -2 25 -13
25 -13 0 -14 2 -4 9 11 7 10 16 -6 48 -17 36 -17 40 -2 36 9 -2 24 -16 33 -31
8 -15 36 -49 61 -76 25 -27 46 -50 46 -52 0 -1 10 -14 23 -29 57 -67 106 -114
147 -142 25 -17 54 -41 65 -53 11 -13 40 -36 64 -52 25 -15 39 -28 31 -28 -8
0 5 -12 28 -27 23 -15 42 -31 42 -35 0 -11 -47 -21 -75 -16 -30 6 -32 2 -4
-12 25 -14 111 4 130 26 7 8 7 14 1 14 -5 0 -12 9 -15 20 -3 11 -13 23 -24 27
-10 3 -35 24 -56 45 -21 21 -43 38 -48 38 -5 0 -9 4 -9 10 0 5 -35 36 -77 67
-81 60 -153 128 -213 202 -19 24 -54 64 -77 88 -24 25 -43 47 -43 49 0 2 -15
18 -32 36 -21 21 -32 41 -30 55 2 13 -4 26 -16 32 -18 9 -38 54 -34 74 1 4 -3
7 -10 7 -6 0 -8 3 -5 7 4 3 0 17 -8 30 -9 13 -13 23 -10 23 3 0 -1 12 -9 28
-9 17 -11 35 -5 49 13 34 -8 38 -25 4z"/>
<path d="M201 1286 c-12 -14 -14 -13 89 -51 24 -9 39 -10 48 -3 8 7 12 7 12 0
0 -8 67 -25 110 -27 8 0 22 -5 30 -10 8 -5 44 -10 80 -11 36 -1 72 -4 80 -7
35 -12 87 -25 107 -25 25 -1 138 -30 168 -43 21 -9 174 -39 213 -42 12 0 22
-5 22 -9 0 -4 6 -8 13 -8 7 0 35 -14 63 -32 27 -17 56 -33 65 -35 9 -1 46 -16
82 -33 36 -16 70 -30 75 -30 6 0 17 -6 24 -13 28 -28 127 -54 235 -62 111 -9
118 -10 123 -16 9 -11 80 -18 80 -8 0 6 6 6 18 0 11 -6 24 -6 36 1 14 8 17 7
12 -1 -7 -11 -2 -12 119 -17 22 -1 46 1 53 4 25 9 -10 22 -61 22 -27 0 -56 4
-66 9 -15 9 -77 17 -173 24 -14 1 -24 5 -22 9 5 8 -95 15 -108 7 -5 -3 -26 0
-46 7 -28 9 -39 9 -44 1 -6 -9 -11 -8 -17 3 -6 8 -13 11 -17 8 -4 -4 -19 1
-34 12 -16 11 -36 20 -47 20 -26 0 -134 46 -143 60 -4 7 -14 10 -21 8 -7 -2
-40 10 -72 29 -32 18 -65 33 -73 33 -8 0 -14 5 -14 10 0 6 -9 10 -19 10 -11 0
-23 5 -26 10 -3 6 -19 10 -35 10 -16 0 -41 4 -55 10 -14 5 -41 12 -58 14 -18
2 -45 9 -60 15 -16 6 -40 11 -53 11 -14 0 -23 3 -21 8 3 4 -7 8 -21 9 -62 4
-99 11 -133 26 -20 9 -67 18 -105 21 -38 2 -96 12 -129 21 -33 10 -67 17 -75
17 -8 0 -28 4 -45 9 -16 5 -46 10 -67 13 -20 2 -45 9 -56 15 -26 14 -27 14
-41 -3z"/>
<path d="M3366 993 c3 -16 9 -32 15 -37 5 -6 10 -21 10 -35 1 -18 3 -21 6 -8
3 10 1 26 -3 35 -10 23 -11 29 -13 52 0 11 -5 20 -10 20 -5 0 -7 -12 -5 -27z"/>
<path d="M5694 898 c-33 -15 -50 -53 -34 -73 7 -9 21 -13 31 -10 12 4 20 1 21
-7 0 -7 2 -17 3 -23 2 -5 3 -15 4 -21 0 -7 8 -15 17 -18 8 -3 12 -2 9 4 -4 6
5 9 20 8 24 -2 40 -27 34 -54 -5 -26 3 -44 19 -43 10 0 12 3 5 6 -7 2 -13 9
-13 14 0 6 5 7 10 4 19 -12 45 5 46 29 1 16 -6 28 -22 37 l-24 13 39 35 c21
20 42 45 45 56 4 11 8 22 9 23 1 2 -20 5 -47 7 -49 3 -76 -10 -76 -35 0 -7 -7
-9 -16 -6 -9 3 -20 6 -25 6 -5 0 -9 14 -9 30 0 32 -10 36 -46 18z m16 -38
c-20 -13 -33 -13 -25 0 3 6 14 10 23 10 15 0 15 -2 2 -10z m156 -25 c-8 -8
-19 -15 -25 -15 -6 0 -11 -4 -11 -10 0 -5 -7 -10 -16 -10 -8 0 -12 5 -8 11 5
8 1 8 -14 0 -11 -6 -22 -16 -24 -23 -2 -6 -10 -8 -16 -4 -9 6 -9 10 0 19 31
29 65 46 96 46 30 1 32 -1 18 -14z"/>
<path d="M3410 893 c1 -18 30 -44 40 -38 8 5 6 13 -6 26 -17 19 -34 25 -34 12z"/>
<path d="M3460 839 c0 -5 5 -7 10 -4 6 3 10 8 10 11 0 2 -4 4 -10 4 -5 0 -10
-5 -10 -11z"/>
<path d="M5884 805 c-4 -8 -1 -21 4 -28 6 -7 7 -18 2 -26 -5 -8 -4 -24 3 -38
12 -26 27 -31 27 -8 0 9 8 19 18 22 9 4 23 12 30 19 10 10 8 14 -10 20 -13 5
-27 8 -33 9 -5 0 -11 6 -11 13 -1 6 -2 17 -3 22 -2 15 -21 12 -27 -5z"/>
<path d="M3535 760 c3 -5 11 -10 16 -10 6 0 7 5 4 10 -3 6 -11 10 -16 10 -6 0
-7 -4 -4 -10z"/>
<path d="M5588 749 c-25 -19 -29 -19 -44 -5 -31 32 -63 15 -33 -17 10 -11 19
-27 19 -34 0 -19 13 -16 38 7 41 39 111 50 81 13 -14 -16 -69 -47 -69 -38 0 4
-10 -1 -22 -9 -12 -9 -26 -16 -30 -16 -8 0 -23 40 -27 71 -1 8 -9 6 -23 -3
-13 -8 -32 -18 -43 -22 -16 -5 -14 -1 8 19 29 28 36 48 12 39 -8 -4 -15 -10
-15 -14 0 -5 -8 -11 -18 -15 -11 -3 -24 -16 -30 -30 -10 -22 -9 -25 12 -31 13
-3 33 -1 44 5 28 15 29 15 41 -20 9 -25 15 -30 31 -25 11 3 29 9 40 12 14 5
20 2 20 -9 0 -9 -4 -18 -9 -21 -5 -3 -11 -15 -14 -27 -5 -18 -2 -20 18 -15 13
3 27 2 30 -4 3 -5 13 -10 21 -10 10 0 13 7 9 23 -5 20 -3 24 16 23 12 -1 24 5
26 12 3 7 -4 12 -16 12 -11 0 -23 5 -26 10 -4 6 -11 8 -16 5 -5 -4 -9 1 -9 9
0 9 4 16 9 16 15 0 71 54 71 69 0 18 -30 40 -55 40 -11 0 -32 -9 -47 -20z"/>
<path d="M4672 753 c-7 -3 -17 -16 -22 -29 -5 -13 -14 -23 -19 -22 -5 2 -8 0
-7 -4 0 -4 -9 -14 -21 -23 -29 -21 -51 -96 -51 -178 0 -37 -5 -73 -10 -80 -7
-7 -7 -18 -2 -26 13 -23 69 5 76 38 12 53 15 59 33 64 13 3 20 18 25 50 l7 46
37 -13 c43 -15 78 -12 133 12 29 12 35 19 27 29 -7 9 -5 15 8 20 11 3 22 12
27 19 4 7 14 11 22 8 8 -4 15 -2 15 4 0 7 10 5 28 -3 15 -7 45 -16 67 -19 37
-6 39 -5 21 9 -11 8 -28 15 -37 15 -10 0 -21 5 -24 10 -9 14 88 3 131 -15 18
-7 35 -11 38 -7 3 3 6 0 6 -6 0 -7 -8 -12 -18 -12 -10 0 -29 -8 -42 -17 -14
-10 -27 -17 -30 -16 -11 4 -56 -10 -79 -25 -14 -8 -54 -16 -90 -18 -36 -1 -70
-3 -76 -4 -5 0 -3 -5 5 -10 8 -5 11 -10 5 -11 -5 -1 3 -4 20 -8 21 -4 36 -18
52 -46 27 -50 27 -52 4 -60 -11 -3 -23 -15 -26 -26 -4 -10 -13 -19 -21 -19 -8
0 -14 -7 -14 -15 0 -16 20 -16 31 -1 8 11 31 -2 24 -14 -3 -5 -1 -11 5 -15 12
-8 52 4 46 13 -2 4 6 12 19 18 19 9 22 9 18 -3 -5 -13 -3 -13 17 -3 22 12 22
14 7 25 -9 7 -17 19 -17 28 0 10 -5 14 -15 11 -8 -4 -15 -2 -16 2 -3 43 -10
70 -24 91 -10 14 -12 22 -6 19 6 -4 28 2 49 12 59 28 77 14 74 -57 -1 -19 3
-38 10 -43 10 -6 8 -12 -7 -24 -17 -12 -18 -16 -5 -24 9 -6 17 -5 22 3 4 7 8
8 8 2 0 -5 4 -3 10 5 6 9 5 17 -3 22 -13 9 51 1 65 -8 14 -9 20 23 8 45 -6 12
-20 21 -32 21 -26 0 -47 27 -48 62 0 21 9 34 39 54 53 34 56 49 19 75 -36 26
-168 40 -192 20 -8 -7 -25 -9 -40 -5 -18 4 -26 2 -26 -7 0 -12 -2 -12 -9 -1
-7 11 -11 11 -24 -2 -8 -9 -18 -16 -22 -16 -4 0 -14 7 -22 16 -13 13 -18 13
-25 2 -8 -10 -9 -9 -5 4 7 20 -31 47 -73 53 -16 2 -33 5 -37 8 -4 2 -14 2 -21
0z m103 -53 c3 -5 1 -10 -4 -10 -6 0 -11 5 -11 10 0 6 2 10 4 10 3 0 8 -4 11
-10z m-110 -30 c-4 -6 -1 -17 5 -25 12 -14 11 -16 -7 -14 -7 0 -37 -62 -35
-73 1 -5 -3 -8 -9 -8 -6 0 -9 -6 -6 -13 3 -7 -3 -13 -13 -14 -15 -1 -17 3 -10
28 5 18 5 31 -2 35 -7 4 -5 10 6 16 9 5 16 16 16 23 0 8 7 15 16 15 8 0 12 5
9 10 -8 14 3 30 21 30 8 0 12 -5 9 -10z m135 -24 c18 -7 29 -15 24 -18 -5 -3
-27 3 -49 13 -46 21 -24 26 25 5z m-45 -37 c10 -15 -1 -23 -20 -15 -9 3 -13
10 -10 16 8 13 22 13 30 -1z m-159 -178 c-12 -19 -24 -12 -19 10 4 13 9 17 15
11 6 -6 7 -15 4 -21z"/>
<path d="M3583 723 c9 -9 20 -13 24 -9 4 4 1 11 -7 16 -25 16 -35 11 -17 -7z"/>
<path d="M3645 705 c30 -13 45 -11 45 5 0 4 -17 8 -37 8 l-38 -1 30 -12z"/>
<path d="M3717 707 c-3 -8 1 -14 8 -14 7 0 11 6 8 14 -3 7 -6 13 -8 13 -2 0
-5 -6 -8 -13z"/>
<path d="M3210 577 c-34 -11 -34 -11 -8 -15 15 -2 35 1 44 6 26 15 3 20 -36 9z"/>
<path d="M3310 576 c0 -2 7 -6 15 -10 8 -3 15 -1 15 4 0 6 -7 10 -15 10 -8 0
-15 -2 -15 -4z"/>
</g>
</svg>
