<?xml version="1.0" standalone="no"?>
<!DOCTYPE svg PUBLIC "-//W3C//DTD SVG 20010904//EN"
 "http://www.w3.org/TR/2001/REC-SVG-20010904/DTD/svg10.dtd">
<svg version="1.0" xmlns="http://www.w3.org/2000/svg"
 width="310.000000pt" height="210.000000pt" viewBox="0 0 310.000000 210.000000"
 preserveAspectRatio="xMidYMid meet">
<metadata>
Created by potrace 1.12, written by Peter Selinger 2001-2015
</metadata>
<g transform="translate(0.000000,210.000000) scale(0.100000,-0.100000)"
fill="#000000" stroke="none">
<path d="M1796 1703 c-1 -2 -31 -6 -64 -8 -34 -3 -73 -10 -87 -15 -15 -6 -27
-6 -30 0 -3 5 -12 7 -20 4 -8 -4 -13 -9 -11 -13 3 -4 -12 -6 -32 -5 -20 1 -45
-3 -55 -8 -9 -5 -52 -10 -95 -12 -102 -5 -152 -15 -152 -32 0 -8 -8 -11 -21
-9 -12 2 -31 -1 -43 -7 -11 -7 -24 -12 -28 -13 -8 0 -51 -45 -43 -45 3 0 -3
-9 -13 -20 -21 -22 -28 -90 -10 -90 17 0 37 32 38 60 0 35 65 95 110 104 19 4
55 9 80 12 100 9 214 26 229 33 9 5 35 7 58 6 24 -2 41 1 38 5 -3 5 10 6 30 3
21 -3 41 -1 50 7 9 7 18 10 22 7 3 -4 13 -2 20 5 11 9 17 9 24 -3 5 -8 9 -9 9
-2 0 7 13 9 40 6 30 -4 40 -2 40 8 0 11 2 11 10 -1 9 -13 11 -13 20 0 6 9 10
10 10 3 0 -7 16 -11 45 -9 25 1 45 0 45 -3 0 -3 11 -7 25 -7 37 -3 31 23 -7
32 -33 7 -226 13 -232 7z"/>
<path d="M2098 1674 c-10 -3 -18 -9 -18 -14 0 -14 29 -20 54 -10 14 5 27 5 32
0 5 -5 26 -12 46 -15 33 -5 37 -4 35 14 -1 14 -8 20 -22 20 -11 -1 -40 1 -65
4 -25 3 -53 3 -62 1z"/>
<path d="M2276 1658 c3 -4 0 -8 -5 -8 -6 0 -11 -5 -11 -11 0 -17 64 -6 68 12
2 11 -5 15 -27 15 -17 0 -28 -3 -25 -8z"/>
<path d="M2356 1655 c-24 -18 -19 -31 11 -30 27 0 28 -2 40 -85 6 -47 17 -112
23 -145 6 -33 17 -103 25 -155 22 -143 47 -260 57 -260 4 0 8 -6 8 -14 0 -13
20 -26 41 -26 5 0 0 18 -11 40 -14 28 -17 40 -8 40 10 0 10 2 0 8 -7 5 -10 16
-6 25 3 10 1 17 -5 17 -6 0 -8 6 -6 13 3 7 1 35 -5 62 -6 28 -13 64 -15 80 -8
52 -13 90 -14 102 -1 6 -9 14 -18 16 -17 4 -17 5 0 6 10 1 17 9 17 22 0 11 -3
18 -7 16 -5 -3 -8 7 -9 21 -1 45 -16 127 -23 130 -3 1 -6 21 -5 45 1 24 -4 50
-10 58 -15 21 -59 29 -80 14z"/>
<path d="M1560 1554 c-14 -4 -14 -13 -5 -67 6 -34 17 -75 23 -90 7 -16 12 -40
12 -55 0 -15 4 -33 8 -40 5 -7 5 -40 1 -75 -5 -43 -4 -64 4 -69 9 -6 9 -8 0
-8 -6 0 -13 -10 -15 -22 -2 -18 -9 -23 -33 -22 -16 1 -43 6 -58 13 -16 6 -33
8 -38 5 -6 -3 -16 0 -24 6 -8 7 -15 10 -15 7 0 -3 -12 0 -27 8 -15 8 -30 12
-35 9 -4 -3 -8 2 -8 12 0 11 -6 15 -18 12 -10 -3 -23 1 -30 9 -7 7 -24 13 -37
13 -13 0 -30 7 -39 15 -17 17 -52 20 -61 5 -3 -5 -1 -10 5 -10 6 0 8 -4 5 -10
-3 -6 4 -10 18 -10 13 0 27 -3 31 -7 3 -4 15 -8 25 -10 10 -1 45 -16 78 -32
62 -31 98 -42 146 -44 15 -1 27 -5 27 -9 0 -4 13 -6 30 -4 16 2 31 -1 33 -7 2
-7 14 -6 34 3 33 15 36 24 48 148 4 38 2 52 -7 52 -10 0 -10 2 0 9 11 6 10 12
-5 26 -12 13 -14 20 -6 22 10 4 9 13 -2 40 -8 19 -12 39 -9 44 3 5 1 9 -3 9
-5 0 -7 16 -5 35 4 31 -16 97 -28 94 -3 -1 -12 -3 -20 -5z"/>
<path d="M2158 1422 c-47 -31 -103 -70 -123 -86 -34 -28 -37 -28 -78 -16 -23
8 -45 13 -49 12 -5 -1 -8 2 -8 6 0 16 -75 51 -90 42 -8 -5 -17 -7 -20 -5 -4 2
-3 -18 0 -46 4 -27 3 -49 0 -49 -7 0 -8 -3 -16 -75 -3 -27 -10 -54 -15 -60
-16 -17 -9 -40 16 -52 14 -6 25 -7 25 -2 0 5 9 9 20 9 20 0 27 14 13 23 -5 2
-2 2 4 1 7 -2 16 3 20 10 5 7 18 18 31 25 12 7 20 17 16 23 -4 6 -1 9 7 6 13
-5 58 20 87 49 7 7 29 13 48 13 19 0 37 0 41 1 4 0 9 -4 11 -10 2 -6 -3 -11
-11 -11 -13 0 -49 -68 -46 -88 4 -23 -4 -30 -33 -30 -73 0 -107 -32 -126 -120
-11 -46 0 -72 28 -72 11 0 20 -4 20 -8 0 -16 94 -13 150 4 36 11 67 29 88 52
l33 34 74 -36 c72 -36 75 -36 100 -20 18 12 22 20 15 29 -12 14 -23 86 -22
140 0 22 -1 35 -4 28 -4 -10 -10 -10 -26 0 -15 9 -22 9 -25 1 -2 -7 -12 -10
-22 -7 -9 2 -23 -3 -30 -11 -8 -9 -24 -16 -37 -16 -17 0 -24 -6 -24 -20 0 -15
-7 -20 -24 -20 -14 0 -28 4 -31 10 -3 5 0 7 8 4 20 -7 30 11 14 25 -8 6 -24
12 -38 13 -13 2 -27 7 -31 12 -8 11 24 77 46 95 9 7 13 18 10 23 -4 5 8 3 24
-6 35 -18 82 -21 82 -5 0 5 4 8 9 5 15 -10 63 35 58 55 -3 10 0 20 6 22 15 5
13 67 -2 76 -7 5 -12 11 -12 15 3 20 -2 28 -24 38 -13 6 -22 15 -19 19 15 25
-41 1 -118 -49z m118 -14 c13 -37 11 -61 -5 -90 -16 -29 -46 -37 -53 -16 -3 9
-16 10 -51 1 -38 -8 -50 -7 -64 4 -10 8 -12 12 -6 8 7 -3 25 5 40 19 15 15 31
26 35 26 9 0 44 28 67 53 20 23 28 22 37 -5z m-379 -114 c24 -9 43 -19 43 -23
-1 -9 -102 -72 -108 -66 -3 3 0 23 7 45 6 22 9 45 6 50 -9 14 3 12 52 -6z
m413 -250 c0 -24 -5 -34 -15 -34 -8 0 -15 5 -15 10 0 6 -9 10 -20 10 -29 0
-24 27 7 44 35 18 43 13 43 -30z m-267 0 c-2 -7 6 -18 19 -25 25 -13 52 -38
47 -43 -13 -9 -124 -46 -140 -46 -28 0 -42 34 -30 75 12 44 30 63 67 67 31 3
45 -7 37 -28z"/>
<path d="M1117 1435 c-4 -8 -13 -15 -22 -15 -13 0 -14 -4 -4 -21 6 -12 7 -19
1 -15 -5 3 -10 -12 -10 -38 -1 -24 -2 -48 -3 -52 -4 -22 3 -32 27 -43 15 -6
29 -9 33 -5 3 4 1 8 -4 10 -7 3 -8 27 -5 67 4 40 3 65 -4 70 -8 5 -8 9 -1 15
12 8 13 27 4 37 -4 3 -9 -1 -12 -10z"/>
<path d="M2248 1213 c7 -3 16 -2 19 1 4 3 -2 6 -13 5 -11 0 -14 -3 -6 -6z"/>
<path d="M1080 1181 c0 -5 -9 -7 -20 -4 -21 5 -25 -4 -12 -23 11 -17 142 -16
142 1 0 8 -9 17 -20 20 -37 12 -90 15 -90 6z"/>
<path d="M970 1159 c-43 -10 -106 -21 -140 -24 -31 -2 -140 -33 -160 -46 -8
-5 -26 -15 -40 -21 -14 -7 -32 -21 -41 -30 -9 -10 -25 -19 -35 -19 -11 -1 -3
-4 16 -8 26 -5 40 -2 54 11 11 10 39 25 63 34 24 9 43 20 43 24 0 5 8 6 19 3
10 -3 32 2 49 11 17 9 45 16 62 16 16 0 30 5 30 10 0 7 7 7 20 0 11 -6 25 -8
30 -5 5 3 28 8 52 11 51 7 52 8 45 29 -7 17 -15 17 -67 4z"/>
<path d="M547 993 c-18 -5 -18 -5 0 -18 17 -13 17 -14 1 -20 -10 -4 -18 -12
-18 -17 0 -6 6 -5 15 2 15 12 22 0 8 -13 -12 -13 -14 -79 -2 -93 6 -8 7 -14 2
-14 -12 0 -11 -109 1 -128 4 -6 18 -12 31 -12 22 0 23 3 15 24 -5 13 -6 27 -3
30 3 3 1 12 -5 19 -7 8 -9 17 -5 20 3 4 0 13 -7 22 -10 12 -10 15 0 15 9 0 10
12 6 43 -9 67 -10 100 -2 125 8 23 2 25 -37 15z"/>
<path d="M1525 966 c-14 -10 -26 -11 -44 -5 -16 6 -28 6 -35 -1 -18 -18 11
-34 62 -34 43 0 49 -2 44 -19 -3 -10 1 -23 9 -28 10 -6 10 -9 2 -9 -7 0 -13
-10 -13 -22 0 -17 6 -23 25 -24 26 -2 34 11 13 19 -9 4 -8 6 3 6 12 1 15 12
14 49 -1 26 -5 55 -9 65 -10 21 -45 22 -71 3z"/>
<path d="M2765 859 c-4 -6 -5 -13 -2 -16 7 -7 27 6 27 18 0 12 -17 12 -25 -2z"/>
<path d="M2731 741 c-12 -21 -5 -32 15 -24 16 6 19 43 4 43 -5 0 -14 -8 -19
-19z"/>
<path d="M2305 743 c-37 -9 -38 -22 -2 -28 33 -7 46 -19 53 -55 2 -8 7 -16 12
-18 6 -2 8 -11 6 -20 -2 -9 -5 -39 -7 -67 -5 -86 -85 -174 -159 -175 -16 0
-28 -5 -28 -11 0 -8 -4 -8 -13 0 -8 6 -24 8 -37 6 -13 -2 -29 0 -36 6 -7 6
-18 8 -24 4 -6 -3 -10 3 -10 15 0 11 -7 23 -15 26 -13 5 -13 10 0 41 8 19 12
39 10 44 -3 5 7 11 22 15 15 4 37 12 48 17 11 6 29 12 40 14 10 2 22 8 25 13
3 5 19 11 35 14 16 3 31 10 33 16 2 5 13 10 25 10 12 0 28 4 36 9 27 17 -9 23
-62 10 -29 -7 -55 -12 -59 -11 -5 1 -8 -2 -8 -6 0 -5 -13 -7 -28 -4 -17 2 -35
-2 -43 -10 -8 -8 -27 -18 -42 -22 -16 -4 -25 -11 -21 -17 4 -7 -1 -9 -15 -4
-15 5 -21 2 -21 -10 0 -8 -6 -18 -13 -21 -8 -3 -14 -10 -15 -17 -15 -94 -14
-98 8 -117 13 -11 27 -20 32 -20 4 0 16 -8 26 -18 15 -15 33 -18 93 -17 111 3
113 3 137 26 12 11 27 17 34 13 7 -4 8 -3 4 4 -4 7 -1 12 8 12 9 0 16 7 16 15
0 9 9 15 21 15 16 0 20 5 16 19 -3 12 3 27 14 37 13 12 16 21 9 34 -7 13 -6
20 5 24 17 6 21 61 5 71 -6 4 -8 11 -5 16 4 5 3 15 -2 22 -4 6 -8 17 -9 23 -1
6 -10 24 -20 39 -13 20 -23 26 -41 22 -18 -3 -23 -1 -19 9 3 8 4 13 3 13 -1
-1 -11 -3 -22 -6z"/>
<path d="M2258 694 c-2 -2 -28 -5 -58 -8 -100 -8 -140 -18 -140 -34 0 -12 10
-14 57 -8 32 4 60 11 64 17 3 6 35 8 82 5 66 -5 75 -4 70 10 -3 8 -11 13 -18
10 -7 -2 -16 -2 -19 2 -8 7 -33 12 -38 6z"/>
<path d="M1919 665 c-5 -4 -27 -8 -129 -19 -116 -12 -166 -19 -174 -24 -5 -2
-25 -6 -45 -8 -49 -3 -74 -9 -89 -18 -7 -4 -19 -2 -27 4 -17 14 -35 5 -35 -18
0 -12 -3 -13 -12 -4 -17 17 -72 16 -65 -1 3 -9 -9 -12 -47 -11 -52 1 -106 20
-106 36 0 5 -10 6 -22 2 -13 -4 -32 -8 -43 -9 -41 -3 -84 -18 -79 -26 3 -5 0
-9 -5 -9 -6 0 -20 -9 -32 -21 -11 -11 -27 -18 -36 -15 -8 3 -19 3 -24 0 -6 -3
-41 -7 -79 -9 -39 -1 -76 -7 -83 -14 -8 -6 -17 -8 -20 -4 -4 3 -7 1 -7 -5 0
-7 -7 -12 -15 -12 -36 0 -38 -100 -3 -164 7 -11 11 -24 10 -28 -3 -12 78 -88
93 -88 8 0 15 -4 15 -9 0 -21 145 -40 205 -27 11 2 24 5 28 5 5 1 5 6 1 13 -4
6 -3 8 4 4 6 -3 18 1 26 10 9 8 16 12 16 7 1 -4 9 3 20 16 11 12 17 27 14 32
-3 5 3 9 13 9 17 1 17 2 -1 15 -19 14 -19 15 5 15 26 0 49 32 49 65 0 8 4 15
9 15 5 0 7 10 3 22 -4 16 -2 19 8 13 10 -6 12 -3 7 15 -3 12 -2 33 3 46 5 13
6 24 1 24 -14 0 -5 42 12 52 11 6 17 5 17 -1 0 -7 15 -9 38 -6 63 9 132 28
132 37 0 4 15 6 33 4 17 -2 55 0 82 4 28 5 75 11 105 14 30 3 69 8 85 11 17 3
36 7 43 7 6 1 12 8 12 17 1 14 2 14 10 -1 8 -13 21 -15 60 -12 27 3 65 11 83
19 23 9 37 11 44 4 7 -7 12 -4 16 10 5 22 -16 30 -28 11 -4 -6 -12 -7 -18 -3
-14 9 -72 15 -78 8z m-729 -103 c21 -5 17 -7 -25 -17 -28 -6 -49 -16 -48 -23
2 -6 -4 -9 -12 -6 -8 4 -13 9 -10 14 2 4 -7 5 -20 2 -15 -2 -25 0 -25 7 0 6 7
11 15 11 8 0 15 5 15 11 0 6 6 9 13 6 8 -3 20 -1 28 4 8 5 21 6 29 3 8 -4 26
-9 40 -12z m30 -77 c6 -33 -8 -96 -25 -107 -7 -6 -6 -11 2 -16 9 -6 5 -13 -12
-26 -14 -10 -23 -22 -20 -26 8 -13 -60 -79 -100 -96 -48 -21 -85 -21 -144 0
-25 8 -48 13 -53 10 -4 -3 -8 0 -8 5 0 6 -7 11 -17 11 -9 0 -13 3 -10 6 4 4
-2 19 -13 34 -11 16 -20 33 -20 39 0 7 -10 16 -22 21 -17 6 -18 9 -6 9 15 1
15 5 6 32 -16 46 1 76 47 81 20 2 48 -2 62 -9 35 -18 37 -16 13 9 -11 12 -18
23 -16 25 7 8 86 11 91 4 2 -5 24 -5 47 -1 24 5 46 6 50 4 5 -3 8 0 8 6 0 7 6
8 19 0 26 -13 31 -13 31 4 0 10 12 13 43 12 38 -1 42 -3 47 -31z"/>
</g>
</svg>
