<svg xmlns="http://www.w3.org/2000/svg" version="1.0" width="236.000000pt" height="234.000000pt" viewBox="0 0 236.000000 234.000000" preserveAspectRatio="xMidYMid meet"><style>.style0{fill:	#000000;}</style><metadata>Created by potrace 1.12, written by Peter Selinger 2001-2015</metadata><g class="style0"><path d="M156.6 50.1 c-5 4.4 -5.6 5.7 -6.2 14.2 -0.7 10 -1.2 11.9 -3.1 11.5 -2.1 -0.4 -2.4 -2.6 -0.8 -7.1 1.4 -4.1 0 -5.2 -1.5 -1.1 -1.6 4.2 -1.3 10.4 0.6 10.4 0.9 -0 1.2 0.5 0.8 1.2 -0.8 1.4 3.6 -2 4.8 -3.7 0.4 -0.6 0.8 -4 0.8 -7.6 0 -7.9 0.9 -13.1 2.1 -12.3 0.5 0.3 0.6 2.2 0.3 4.3 -0.8 5.3 1.8 10.8 5.6 11.6 2.5 0.5 2.9 1.2 3.4 5.3 0.3 2.6 0.5 8.1 0.5 12.2 -0.1 13.5 -0.1 13.2 2.1 12.5 1.1 -0.4 2 -0.2 2 0.4 0 0.6 0.9 0.2 2.1 -1 1.4 -1.4 2.9 -1.9 4.5 -1.6 1.3 0.2 2.4 -0 2.4 -0.4 0 -1.3 4.8 -1.1 5.6 0.2 0.3 0.6 0.7 5.1 0.7 10 0 4.9 0.4 8.9 0.9 8.9 0.4 -0 0.8 -0.7 0.8 -1.6 0 -1.2 0.6 -1.5 2.5 -1 1.5 0.4 2.5 0.2 2.5 -0.4 0 -0.6 0.5 -0.8 1 -0.5 0.6 0.3 1 0.2 1 -0.4 0 -0.5 0.9 -1.1 2 -1.3 1.3 -0.2 1.7 -0.7 1.2 -1.6 -0.7 -1 -1.7 -0.9 -5.1 0.3 -2.4 0.8 -4.4 1.5 -4.5 1.5 -0.1 -0 -0.2 -2.1 -0.2 -4.8 -0.1 -13.1 -0.1 -13.2 -3.5 -13.2 -1.7 -0 -3.9 0.5 -4.9 1 -1.2 0.6 -2.1 0.7 -2.5 -0 -0.3 -0.5 -1.5 -0.6 -2.8 -0.1 -1.2 0.4 -2.8 0.6 -3.4 0.4 -0.7 -0.3 -1.3 -0 -1.3 0.6 0 0.6 -0.5 1.1 -1.1 1.1 -0.6 -0 -0.8 -0.9 -0.3 -2.3 0.4 -1.2 0.7 -3 0.6 -4 0 -0.9 0.4 -1.7 1.1 -1.7 0.6 -0 0.3 -0.6 -0.7 -1.3 -1.8 -1.3 -1.7 -1.5 0.9 -3.5 1.5 -1.2 3.1 -2 3.5 -1.7 0.4 0.3 1.1 -0.2 1.4 -1.1 0.3 -0.8 1.1 -1.2 1.7 -0.8 0.7 0.4 0.9 0.3 0.6 -0.3 -0.4 -0.6 0.9 -2.1 2.8 -3.4 1.9 -1.3 3.5 -2.7 3.5 -3.2 0 -0.4 0.9 -0.7 2 -0.7 1.1 -0 2 -0.5 2 -1 0 -0.6 1.3 -1 3 -1 1.9 -0 3.3 -0.7 4 -2.1 1.1 -1.9 0.9 -2 -2.4 -1.3 -2.4 0.4 -3.6 0.2 -3.6 -0.5 0 -0.6 0.4 -1.1 0.9 -1.1 1.1 -0 2.4 -3.1 1.6 -3.8 -0.3 -0.3 -1.4 0.3 -2.5 1.3 -1.1 1 -2 1.3 -2 0.7 0 -0.7 -0.3 -1.1 -0.7 -1.1 -2 0.3 -2.1 -0.3 -0.5 -2.1 0.9 -1.2 1.7 -2.4 1.7 -2.8 0.1 -0.4 0.6 -1.7 1.3 -2.8 0.6 -1.2 0.8 -2.4 0.5 -2.8 -0.4 -0.3 -1.6 1.3 -2.8 3.6 -3.7 7.3 -9.6 8.2 -10.9 1.6 -0.6 -2.9 -5.8 -6 -10.3 -6 -1.3 -0 -2.3 -0.6 -2.3 -1.3 0 -1.6 5.6 -0.7 7.1 1.1 0.6 0.8 1.8 1.4 2.6 1.4 1.2 -0 1.2 -0.3 -0.1 -1.6 -0.9 -0.8 -1.6 -1.9 -1.6 -2.4 0 -0.4 -1.1 -1.1 -2.4 -1.4 -1.3 -0.3 -3 -0.8 -3.8 -1.1 -0.8 -0.3 -3.1 0.9 -5.2 2.6zm10.9 8.7c1.7 1 1.8 1.3 0.5 2.2 -1.1 0.7 -1.6 0.6 -1.8 -0.4 -0.2 -0.8 -1.1 -1.2 -2.3 -0.9 -1.9 0.5 -2.2 2.7 -0.3 2.9 3.3 0.2 7.4 1.8 7.1 2.7 -0.2 0.7 -2.6 1.3 -5.3 1.5 -5.5 0.3 -8.1 -1.4 -8.6 -5.8 -0.2 -2 0.3 -2.5 2.7 -3.1 3.8 -0.8 5.5 -0.6 8 0.9zm13.5 8.2c0 0.4 -0.7 2.4 -1.5 4.3 -1.4 3.4 -8.9 9.7 -11.5 9.7 -0.6 -0 -0.8 0.4 -0.5 1 0.3 0.5 0.1 1 -0.6 1 -0.7 -0 -0.9 -1 -0.6 -2.9 0.4 -1.8 0.2 -3.1 -0.5 -3.3 -0.7 -0.3 -0.9 -1.2 -0.4 -2.3 0.6 -1.6 0.9 -1.7 1.6 -0.5 0.8 1.2 1 1.1 1 -0.6 0 -1.2 1 -2.5 2.5 -3.2 1.4 -0.6 2.5 -1.5 2.4 -1.9 -0.1 -0.5 -0.1 -1.1 0 -1.5 0.1 -0.9 8.1 -0.8 8.1 0.2z"/><path d="M177.5 103 c-0.4 0.6 -1.3 0.9 -2.1 0.6 -0.8 -0.3 -1.4 0.1 -1.4 0.9 0 0.8 -0.6 1.5 -1.4 1.5 -0.8 -0 -1.8 0.5 -2.2 1.2 -0.4 0.6 -0.3 0.8 0.4 0.4 2.5 -1.5 2 1.4 -0.8 4.3 -1.6 1.8 -3.2 4.1 -3.5 5.2 -0.7 2.1 -0.9 2.1 -7.2 2.4l-4.1 0.2 -0.7 -4.4c-0.8 -5.2 -1.8 -4.9 -1.9 0.5 -0.1 3.1 -0.5 3.8 -2.3 4 -1.3 0.2 -2.3 0.7 -2.3 1.2 0 1.1 2.7 2 4.3 1.4 1 -0.4 1.2 3 1 16.5 -0.2 11 0.1 17.2 0.8 17.7 0.7 0.4 1 -2.2 0.9 -7.8 -0.1 -4.5 -0.1 -12.3 -0.1 -17.2l0.1 -8.9 3.9 0.7c2.9 0.4 4.3 0.1 6 -1.3 1.1 -1 2.1 -2.3 2.1 -2.9 0 -0.5 0.7 -1.2 1.5 -1.5 0.8 -0.4 2.7 -2.5 4.2 -4.9 1.5 -2.3 3.9 -5.3 5.3 -6.5 1.9 -1.6 2.2 -2.5 1.4 -3.3 -0.9 -0.9 -1.3 -0.9 -1.9 -0z"/><path d="M64 104 c2 1.3 5.3 1.3 4.5 -0 -0.3 -0.6 -1.8 -1 -3.3 -1 -2.1 -0 -2.4 0.2 -1.2 1z"/><path d="M71 104.5 c0 0.8 0.8 1.1 2 0.8 1.1 -0.3 2 -0.7 2 -0.8 0 -0.1 -0.9 -0.5 -2 -0.8 -1.2 -0.3 -2 -0 -2 0.8z"/><path d="M144 104.2 c0 0.4 0.7 0.8 1.5 0.8 0.8 -0 1.5 -0.4 1.5 -0.8 0 -0.5 -0.7 -0.9 -1.5 -0.9 -0.8 -0 -1.5 0.4 -1.5 0.9z"/><path d="M77.5 105 c0.3 0.5 1 1 1.6 1 0.5 -0 0.9 -0.5 0.9 -1 0 -0.6 -0.7 -1 -1.6 -1 -0.8 -0 -1.2 0.4 -0.9 1z"/><path d="M123.7 105.5 c-1.2 0.8 0.2 1.1 5.6 1.1 5.8 0.1 6.6 -0.1 4.2 -0.8 -4.7 -1.4 -8.2 -1.5 -9.8 -0.3z"/><path d="M90.5 106 c0.3 0.6 2 1 3.7 1 3.8 -0 3.4 -0.5 -1 -1.3 -2.1 -0.4 -3.1 -0.3 -2.7 0.3z"/><path d="M154.8 106.2 c0.5 0.5 1.6 0.8 2.3 0.6 0.8 -0.3 0.3 -0.7 -1 -1.1 -1.7 -0.4 -2.1 -0.3 -1.3 0.5z"/><path d="M165 105.9 c0 0.6 0.9 0.9 2 0.8 1.1 -0.1 2 -0.5 2 -0.9 0 -0.4 -0.9 -0.8 -2 -0.8 -1.1 -0 -2 0.4 -2 0.9z"/><path d="M98.5 107 c0.3 0.5 1 1 1.6 1 0.5 -0 0.9 -0.5 0.9 -1 0 -0.6 -0.7 -1 -1.6 -1 -0.8 -0 -1.2 0.4 -0.9 1z"/><path d="M105 106.9 c0 0.6 0.3 1.2 0.8 1.2 4.5 0.7 6.5 0.7 5.2 -0 -3 -1.7 -6 -2.2 -6 -1.2z"/><path d="M114.8 106.7 c-1 0.2 -1.8 0.9 -1.8 1.4 0 1 3.2 0.4 6 -1.2 1.2 -0.7 1.1 -0.8 -0.5 -0.8 -1.1 0.1 -2.8 0.3 -3.7 0.6z"/><path d="M47 108 c0 0.5 0.7 0.7 1.5 0.4 0.8 -0.4 1.5 -0.8 1.5 -1 0 -0.2 -0.7 -0.4 -1.5 -0.4 -0.8 -0 -1.5 0.4 -1.5 1z"/><path d="M94 118.4 c-4.1 0.7 -7.6 1 -7.8 0.6 -0.4 -1 -4.2 -0.1 -4.2 1 0 0.4 3.8 0.6 8.5 0.5 4.7 -0.1 8.5 0.2 8.5 0.7 0 0.4 0.7 0.8 1.6 0.8 0.8 -0 1.3 -0.4 0.9 -0.9 -0.3 -0.5 -0.1 -1.2 0.5 -1.6 0.5 -0.3 1 -0.2 1 0.3 0 1.8 4.4 2.2 6.1 0.6 1.1 -1 1.9 -1.2 2.4 -0.5 0.3 0.6 0.3 1.1 -0.2 1.1 -0.4 -0 -0.1 0.4 0.7 0.9 0.8 0.6 2.7 0.7 4.3 0.4 1.9 -0.4 3.2 -0.1 3.8 0.8 0.5 0.8 0.9 0.9 0.9 0.3 0 -0.7 2.5 -1 6.5 -1 3.6 0.1 6.5 -0.2 6.5 -0.7 0 -0.9 -1.6 -1 -10.9 -0.8 -6.7 0.2 -7.3 0.1 -6.2 -1.3 1.2 -1.4 0.6 -1.6 -5 -1.6 -3.5 -0 -7.3 -0.2 -8.4 -0.4 -1.1 -0.2 -5.4 0.1 -9.5 0.8z"/><path d="M75.5 120 c-0.3 0.5 0.1 1 0.9 1 0.9 -0 1.6 -0.5 1.6 -1 0 -0.6 -0.4 -1 -0.9 -1 -0.6 -0 -1.3 0.4 -1.6 1z"/><path d="M86.6 122.8 c-1.1 1.8 -0.9 8.9 0.8 32.2 0.5 5.8 0.5 5.8 1.7 3.7 0.5 -0.9 0.7 -2.2 0.4 -2.7 -0.4 -0.6 -0.6 -8.5 -0.6 -17.5 0.1 -14.9 -0.4 -18.7 -2.3 -15.7z"/><path d="M76.1 127.6 c-1.4 3.9 -0.7 20.9 1 21.9 0.4 0.3 0.8 -3.6 0.7 -8.7 -0.1 -5.1 0.1 -11 0.4 -13.1 0.8 -4.7 -0.4 -4.8 -2.1 -0.1z"/><path d="M98.4 151.9 c1.4 2.6 1.4 3.4 -0.2 8 -0.9 2.8 -3 6.5 -4.6 8.2 -3.3 3.4 -3.1 4.3 0.4 2.6 2.5 -1.3 6 -7.3 6.3 -10.8 0.1 -1.1 0.5 -1.9 0.9 -1.9 0.8 -0 0.4 -2.4 -1.1 -6.3 -0.6 -1.5 -1.5 -2.7 -2.1 -2.7 -0.6 -0 -0.5 1.2 0.4 2.9z"/><path d="M171 152.1 c0 0.5 1.1 1.4 2.5 1.9 1.9 0.7 2.5 1.7 2.5 3.9 0 1.6 -0.3 3.1 -0.7 3.3 -0.5 0.2 -1.9 1.6 -3.3 3.2l-2.5 2.9 2.5 -1.3c1.4 -0.7 3.3 -1.9 4.3 -2.8 2 -1.8 2.3 -7.1 0.5 -9.4 -1.5 -1.8 -5.8 -3.1 -5.8 -1.7z"/><path d="M76 153.5 c0 0.8 0.5 1.5 1 1.5 0.6 -0 1 -0.7 1 -1.5 0 -0.8 -0.4 -1.5 -1 -1.5 -0.5 -0 -1 0.7 -1 1.5z"/><path d="M77 157.8 c0 1.2 0.4 2.2 0.9 2.2 1 -0 0.9 -2.6 -0.2 -3.6 -0.4 -0.4 -0.7 0.2 -0.7 1.4z"/><path d="M63.1 161.9 c-2.1 3.8 -0.9 11.1 1.7 11.1 1.5 -0 1.5 -0.1 0 -1.6 -1.4 -1.5 -1.5 -2.2 -0.3 -6 1.4 -4.6 0.4 -6.9 -1.4 -3.5z"/><path d="M77.4 164 c-0.1 1.6 0.2 2.7 0.7 2.4 1.1 -0.6 1.2 -5.4 0.1 -5.4 -0.4 -0 -0.8 1.3 -0.8 3z"/><path d="M144.1 164.4 c-1.8 2.1 4.5 6.6 9.2 6.6 2.1 -0 3.7 -0.5 3.7 -1.1 0 -0.7 -1 -0.9 -2.5 -0.5 -3.5 0.9 -8.7 -2.2 -7.9 -4.6 0.6 -2.1 -0.9 -2.4 -2.5 -0.4z"/><path d="M84.5 173 c-0.3 0.5 -0.1 1 0.4 1 0.6 -0 1.1 -0.5 1.1 -1 0 -0.6 -0.2 -1 -0.4 -1 -0.3 -0 -0.8 0.4 -1.1 1z"/><path d="M65.8 174.7 c0.7 0.3 1.6 0.2 1.9 -0.1 0.4 -0.3 -0.2 -0.6 -1.3 -0.5 -1.1 -0 -1.4 0.3 -0.6 0.6z"/></g></svg>