<?xml version="1.0" standalone="no"?>
<!DOCTYPE svg PUBLIC "-//W3C//DTD SVG 20010904//EN"
 "http://www.w3.org/TR/2001/REC-SVG-20010904/DTD/svg10.dtd">
<svg version="1.0" xmlns="http://www.w3.org/2000/svg"
 width="414.000000pt" height="423.000000pt" viewBox="0 0 414.000000 423.000000"
 preserveAspectRatio="xMidYMid meet">
<metadata>
Created by potrace 1.12, written by Peter Selinger 2001-2015
</metadata>
<g transform="translate(0.000000,423.000000) scale(0.100000,-0.100000)"
fill="#000000" stroke="none">
<path d="M2027 3410 c-7 -28 69 -150 94 -150 6 0 1 16 -12 36 -12 20 -34 58
-49 86 -23 42 -28 46 -33 28z"/>
<path d="M2070 3412 c0 -19 35 -54 95 -96 36 -25 71 -50 78 -56 48 -41 177
-106 177 -90 0 4 -24 22 -54 39 -30 16 -57 35 -61 41 -3 5 -16 10 -27 10 -12
0 -19 3 -15 6 3 4 -20 23 -52 44 -32 21 -71 54 -87 74 -27 33 -54 47 -54 28z"/>
<path d="M1962 3290 c-12 -16 -22 -32 -22 -36 0 -4 -16 -38 -35 -76 -19 -37
-37 -76 -38 -86 -7 -41 -78 -163 -116 -200 -23 -22 -41 -46 -41 -53 0 -24
-156 -221 -246 -310 -43 -42 -166 -108 -172 -91 -4 13 -41 -4 -54 -24 -4 -7
-60 -37 -124 -68 -64 -32 -114 -60 -110 -63 7 -7 126 36 147 54 9 7 22 11 30
9 30 -10 280 -16 275 -7 -3 5 -30 10 -58 10 -110 3 -179 8 -184 14 -3 3 23 14
58 25 59 17 234 123 222 134 -2 3 22 35 55 71 33 37 68 78 77 93 10 14 28 30
41 35 13 5 23 16 23 24 0 9 12 33 27 53 15 20 43 60 64 87 37 50 64 103 138
273 22 51 49 105 61 119 11 14 20 30 20 34 0 18 -17 8 -38 -21z"/>
<path d="M2165 3180 c-3 -5 -1 -10 4 -10 6 0 11 5 11 10 0 6 -2 10 -4 10 -3 0
-8 -4 -11 -10z"/>
<path d="M2192 3138 c4 -25 28 -37 28 -14 0 9 -5 16 -11 16 -5 0 -7 5 -4 10 3
6 1 10 -5 10 -6 0 -10 -10 -8 -22z"/>
<path d="M2446 3146 c21 -15 30 -14 19 3 -3 6 -14 11 -23 11 -13 0 -13 -2 4
-14z"/>
<path d="M2487 3144 c-10 -10 12 -34 32 -34 9 0 23 -6 31 -12 8 -7 6 -3 -4 10
-11 12 -25 22 -32 22 -7 0 -14 5 -16 11 -2 5 -7 7 -11 3z"/>
<path d="M2230 3082 c0 -5 15 -34 33 -66 17 -32 37 -67 44 -79 16 -30 161
-177 175 -177 6 0 19 -9 28 -20 17 -20 145 -101 200 -127 14 -6 85 -32 158
-57 73 -24 139 -49 145 -55 7 -5 33 -18 57 -29 25 -11 50 -26 56 -33 7 -8 14
-76 17 -158 4 -79 9 -146 12 -149 3 -3 5 5 5 17 0 12 4 20 8 17 5 -3 9 8 10
25 0 16 -3 27 -8 24 -5 -3 -8 21 -8 52 1 32 -3 85 -7 117 -8 56 -7 59 11 52
10 -4 33 -9 49 -12 22 -3 18 0 -15 12 -45 17 -60 29 -60 51 0 9 10 8 41 -2 70
-25 77 -17 14 16 -33 17 -64 32 -70 33 -5 1 -20 8 -33 15 -39 21 -49 5 -11
-18 32 -19 60 -61 40 -61 -4 0 -38 15 -77 34 -38 18 -87 40 -109 47 -22 8 -42
17 -45 20 -6 8 -128 49 -146 49 -7 0 -14 5 -16 11 -2 5 -11 11 -21 13 -10 1
-26 9 -35 17 -10 8 -30 20 -45 28 -15 8 -27 18 -27 23 0 4 -7 8 -15 8 -16 0
-21 3 -80 55 -18 17 -40 35 -47 41 -37 31 -178 198 -178 211 0 5 -9 18 -20 28
-11 10 -17 22 -14 26 3 5 0 9 -5 9 -6 0 -11 -4 -11 -8z"/>
<path d="M3137 3058 c-17 -11 53 -9 78 2 15 7 10 9 -23 8 -23 -1 -48 -5 -55
-10z"/>
<path d="M2698 3033 c6 -2 18 -2 25 0 6 3 1 5 -13 5 -14 0 -19 -2 -12 -5z"/>
<path d="M2810 3010 c0 -9 69 -34 76 -28 2 3 -14 12 -36 21 -22 8 -40 12 -40
7z"/>
<path d="M3369 2953 c5 -10 12 -49 15 -87 8 -85 16 -98 16 -25 0 62 -16 129
-31 129 -6 0 -6 -6 0 -17z"/>
<path d="M3215 2748 c-25 -28 -58 -71 -72 -95 -13 -24 -29 -43 -34 -43 -5 0
-9 -7 -9 -15 0 -27 30 -3 56 44 32 60 83 131 94 131 4 0 10 7 14 15 9 24 0 18
-49 -37z"/>
<path d="M3399 2775 c-8 -14 4 -122 13 -110 3 6 3 35 0 65 -4 30 -10 51 -13
45z"/>
<path d="M2682 2674 c10 -10 20 -16 22 -13 3 3 -5 11 -17 18 -21 13 -21 12 -5
-5z"/>
<path d="M3410 2620 c-4 -23 -2 -38 13 -125 9 -49 15 -66 15 -45 1 41 -24 192
-28 170z"/>
<path d="M2910 2600 c0 -5 24 -10 53 -10 37 0 48 3 37 10 -20 13 -90 13 -90 0z"/>
<path d="M1595 2590 c-3 -5 -1 -10 4 -10 6 0 11 5 11 10 0 6 -2 10 -4 10 -3 0
-8 -4 -11 -10z"/>
<path d="M1529 2543 c-13 -15 -12 -15 9 -4 23 12 28 21 13 21 -5 0 -15 -7 -22
-17z"/>
<path d="M2680 2400 c0 -5 4 -10 9 -10 6 0 13 5 16 10 3 6 -1 10 -9 10 -9 0
-16 -4 -16 -10z"/>
<path d="M3441 2378 c0 -7 4 -22 9 -33 8 -18 9 -17 9 7 1 15 -3 30 -9 33 -5 3
-10 0 -9 -7z"/>
<path d="M2346 2352 c-3 -5 1 -9 9 -9 8 0 15 4 15 9 0 4 -4 8 -9 8 -6 0 -12
-4 -15 -8z"/>
<path d="M2308 2343 c7 -3 16 -2 19 1 4 3 -2 6 -13 5 -11 0 -14 -3 -6 -6z"/>
<path d="M1482 2334 c4 -3 30 -7 60 -9 41 -3 46 -2 23 4 -36 10 -91 13 -83 5z"/>
<path d="M1618 2323 c7 -3 16 -2 19 1 4 3 -2 6 -13 5 -11 0 -14 -3 -6 -6z"/>
<path d="M3455 2310 c3 -5 8 -10 11 -10 2 0 4 5 4 10 0 6 -5 10 -11 10 -5 0
-7 -4 -4 -10z"/>
<path d="M1061 2144 c0 -11 3 -14 6 -6 3 7 2 16 -1 19 -3 4 -6 -2 -5 -13z"/>
<path d="M3171 2138 c-1 -10 -6 -18 -13 -18 -9 0 -9 -3 0 -12 17 -17 32 2 22
27 -7 17 -9 17 -9 3z"/>
<path d="M1721 2090 c-29 -41 -37 -75 -32 -145 3 -39 -55 -181 -77 -190 -27
-10 -25 4 7 57 l31 53 -40 -44 c-44 -48 -59 -86 -41 -104 19 -19 62 13 99 73
17 30 32 64 32 76 0 36 16 37 50 2 l33 -32 -7 -121 c-4 -66 -9 -163 -12 -215
-3 -52 -9 -133 -14 -180 -4 -47 -6 -87 -4 -90 3 -2 13 1 22 6 12 8 16 21 13
45 -2 19 3 153 10 298 13 262 13 263 37 274 28 13 42 -2 42 -44 0 -14 3 -29 7
-33 4 -3 7 -14 8 -24 1 -9 9 -55 18 -102 9 -47 21 -139 27 -205 6 -66 12 -139
15 -161 7 -73 3 -77 -92 -96 -47 -10 -97 -25 -111 -34 -23 -15 -23 -17 -8 -26
12 -7 27 -5 51 6 18 9 40 16 48 16 8 0 31 7 50 15 20 8 41 15 47 15 14 0 12
-27 -3 -42 -11 -9 -11 -23 -4 -57 6 -31 6 -61 -2 -94 -15 -66 -14 -75 9 -82
23 -7 57 9 81 39 23 28 18 30 -25 12 l-35 -15 4 80 c2 43 6 83 10 89 18 30
-11 418 -45 586 -6 28 -13 64 -15 80 -3 16 -10 50 -16 76 -9 38 -8 51 4 69 15
21 15 21 26 1 17 -32 38 -33 72 -5 29 25 86 130 104 193 14 48 -15 4 -58 -86
-22 -46 -67 -94 -88 -94 -5 0 -11 12 -15 28 -25 115 -61 158 -142 169 -38 5
-42 3 -71 -37z m49 2 c0 -4 15 -7 33 -5 61 6 96 -46 81 -119 -7 -36 -19 -35
-33 2 -5 17 -17 30 -25 30 -16 0 -21 -13 -31 -77 -6 -38 -9 -42 -26 -33 -28
15 -49 63 -49 111 0 36 2 40 15 29 16 -14 18 -6 6 25 -5 11 -4 25 1 33 12 14
28 16 28 4z m66 -149 c-3 -3 -1 -14 4 -24 8 -14 6 -21 -11 -30 -20 -10 -21 -9
-16 12 4 13 7 32 7 42 0 10 5 15 11 12 6 -4 8 -9 5 -12z"/>
<path d="M1065 2100 c3 -5 8 -10 11 -10 2 0 4 5 4 10 0 6 -5 10 -11 10 -5 0
-7 -4 -4 -10z"/>
<path d="M3150 2060 c0 -4 7 -13 15 -20 12 -10 15 -9 15 7 0 11 -7 20 -15 20
-8 0 -15 -4 -15 -7z"/>
<path d="M3525 2036 c-43 -46 -54 -121 -39 -262 7 -65 17 -127 22 -139 6 -11
15 -36 20 -55 l11 -35 -5 40 c-2 22 -7 53 -10 69 -7 35 -11 64 -20 182 -7 94
3 151 33 186 16 18 4 32 -12 14z"/>
<path d="M3165 2010 c3 -5 11 -10 16 -10 6 0 7 5 4 10 -3 6 -11 10 -16 10 -6
0 -7 -4 -4 -10z"/>
<path d="M3168 1924 c2 -30 6 -53 9 -50 10 10 8 106 -2 106 -6 0 -9 -23 -7
-56z"/>
<path d="M3172 1710 c2 -149 12 -274 17 -220 2 14 2 50 1 80 -2 30 -3 105 -4
167 -1 62 -5 116 -10 120 -4 4 -6 -62 -4 -147z"/>
<path d="M1925 1810 c-3 -5 9 -16 27 -24 18 -8 56 -29 83 -45 71 -43 135 -74
141 -69 12 13 -12 37 -68 68 -146 83 -169 92 -183 70z"/>
<path d="M4060 1720 c0 -5 5 -10 10 -10 6 0 10 5 10 10 0 6 -4 10 -10 10 -5 0
-10 -4 -10 -10z"/>
<path d="M1934 1709 c-9 -15 7 -29 121 -103 61 -40 103 -62 109 -56 12 12 -9
37 -48 57 -17 8 -49 30 -71 48 -56 45 -102 68 -111 54z"/>
<path d="M2514 1659 c-18 -18 -36 -25 -67 -28 -5 -1 -6 -5 -3 -10 3 -4 -27
-32 -67 -62 -40 -30 -83 -66 -95 -81 -22 -27 -23 -28 -6 -50 22 -28 141 -118
156 -118 6 0 3 9 -7 20 -18 20 -18 21 3 42 l21 22 21 -27 c12 -15 27 -24 35
-20 12 4 9 10 -10 25 -14 11 -25 23 -25 28 0 13 33 21 44 10 5 -5 17 -10 25
-10 11 0 9 6 -8 24 l-22 23 25 16 c31 21 76 69 76 81 0 5 -9 1 -21 -10 -20
-18 -21 -18 -35 1 -9 13 -11 22 -4 29 16 16 12 25 -8 19 -26 -6 -48 22 -32 42
19 23 33 18 59 -20 21 -31 56 -53 66 -43 3 2 -6 15 -18 28 -12 14 -33 40 -45
58 -27 38 -31 38 -58 11z m-21 -80 c4 -15 -1 -28 -16 -40 -27 -22 -27 -22 -52
-3 -19 14 -19 15 10 39 37 30 51 31 58 4z m39 -55 c17 -16 17 -18 -8 -41 -20
-19 -29 -21 -40 -12 -18 15 -18 28 3 51 20 22 22 22 45 2z m-122 -9 c20 -24
-4 -47 -36 -33 -26 12 -32 33 -11 41 22 9 34 7 47 -8z m-52 -58 c9 -7 9 -13 1
-23 -15 -18 -29 -17 -54 2 -20 15 -20 16 -1 29 18 14 27 13 54 -8z m108 -1
c15 -12 16 -17 7 -27 -10 -10 -17 -9 -33 6 -36 33 -14 50 26 21z m-52 -39 c16
-12 16 -14 -3 -31 -17 -15 -23 -16 -36 -6 -11 9 -12 17 -4 31 12 22 19 23 43
6z"/>
<path d="M1089 1423 c0 -21 -2 -47 -4 -59 -3 -11 -1 -33 4 -50 7 -22 9 -10 12
59 2 48 1 87 -3 87 -5 0 -8 -17 -9 -37z"/>
<path d="M3191 1444 c0 -11 3 -14 6 -6 3 7 2 16 -1 19 -3 4 -6 -2 -5 -13z"/>
<path d="M3186 1402 c-5 -9 -2 -39 5 -46 3 -3 6 8 7 24 2 30 -2 38 -12 22z"/>
<path d="M3191 1275 c9 -88 15 -90 15 -5 -1 42 -5 70 -12 70 -6 0 -8 -22 -3
-65z"/>
<path d="M3588 1333 c7 -3 16 -2 19 1 4 3 -2 6 -13 5 -11 0 -14 -3 -6 -6z"/>
<path d="M1089 1273 c-2 -32 -11 -244 -10 -267 0 -30 16 -55 27 -43 3 3 2 11
-2 18 -4 7 -7 77 -6 156 1 79 0 143 -3 143 -3 0 -5 -3 -6 -7z"/>
<path d="M3203 1155 c0 -22 2 -30 4 -17 2 12 2 30 0 40 -3 9 -5 -1 -4 -23z"/>
<path d="M1806 1099 c-4 -9 -3 -33 1 -55 5 -21 9 -61 8 -89 l0 -50 -35 0 c-49
0 -47 -26 3 -38 55 -13 62 -2 60 97 -2 85 -24 166 -37 135z"/>
<path d="M3211 1074 c0 -11 3 -14 6 -6 3 7 2 16 -1 19 -3 4 -6 -2 -5 -13z"/>
<path d="M3210 1015 c0 -8 4 -15 10 -15 5 0 7 7 4 15 -4 8 -8 15 -10 15 -2 0
-4 -7 -4 -15z"/>
</g>
</svg>
