<?xml version="1.0" standalone="no"?>
<!DOCTYPE svg PUBLIC "-//W3C//DTD SVG 20010904//EN"
 "http://www.w3.org/TR/2001/REC-SVG-20010904/DTD/svg10.dtd">
<svg version="1.0" xmlns="http://www.w3.org/2000/svg"
 width="380.000000pt" height="287.000000pt" viewBox="0 0 380.000000 287.000000"
 preserveAspectRatio="xMidYMid meet">
<metadata>
Created by potrace 1.12, written by Peter Selinger 2001-2015
</metadata>
<g transform="translate(0.000000,287.000000) scale(0.100000,-0.100000)"
fill="#000000" stroke="none">
<path d="M937 2340 c-16 -5 -35 -6 -42 -3 -8 2 -40 -3 -71 -12 -32 -9 -85 -20
-118 -23 -45 -5 -61 -11 -61 -22 0 -8 10 -16 23 -18 15 -2 22 -11 23 -25 5
-130 -1 -287 -12 -287 -10 0 2 -133 12 -144 19 -20 28 12 34 119 14 224 11
298 -11 320 -21 21 -15 25 36 30 23 2 47 8 53 13 7 4 25 9 41 10 16 1 56 6 90
12 92 15 184 12 256 -8 75 -22 77 -26 79 -147 1 -44 6 -118 12 -165 21 -166
21 -173 1 -164 -20 11 -115 11 -317 2 -82 -4 -156 -7 -162 -8 -18 0 -16 -15 3
-34 12 -12 29 -14 77 -10 34 4 82 8 107 9 25 2 47 4 50 5 3 1 24 1 48 0 23 -1
58 4 78 10 31 10 44 9 96 -10 60 -22 96 -21 82 2 -6 10 -12 105 -14 226 0 7
-5 10 -12 6 -7 -5 -8 -3 -3 6 4 7 2 16 -6 21 -8 5 -9 9 -4 9 6 0 9 23 8 53 -1
28 -2 52 -3 52 -1 0 -3 26 -5 58 -4 70 -23 93 -85 103 -22 4 -43 11 -46 15 -7
11 -200 10 -237 -1z"/>
<path d="M854 2178 l-62 -10 -1 -109 c-2 -113 10 -163 32 -139 8 8 8 14 2 16
-13 5 -7 195 6 209 6 6 76 10 166 11 177 0 175 1 189 -91 9 -69 21 -95 40 -95
11 0 14 5 9 18 -4 9 -9 37 -11 62 -9 106 -35 131 -129 128 -27 0 -79 1 -115 5
-36 3 -93 0 -126 -5z"/>
<path d="M2758 2109 c-9 -5 -43 -14 -75 -20 -68 -12 -188 -53 -217 -74 -12 -8
-32 -22 -46 -32 -14 -9 -38 -29 -55 -44 -16 -15 -51 -36 -77 -46 -54 -21 -118
-75 -274 -229 -62 -60 -160 -155 -218 -211 -58 -55 -106 -105 -106 -110 0 -6
-9 -18 -20 -28 -11 -10 -20 -26 -20 -37 0 -10 -4 -18 -8 -18 -5 0 -20 -10 -33
-21 -13 -12 -42 -33 -64 -47 l-39 -25 44 -39 c25 -21 53 -41 63 -44 29 -9 19
-23 -25 -34 -24 -6 -51 -15 -61 -20 -39 -23 -124 -49 -162 -51 -48 -3 -81 -17
-68 -30 23 -23 153 -12 153 12 0 5 15 9 33 9 47 0 77 10 77 26 0 8 6 11 15 8
8 -4 15 -2 15 4 0 6 12 9 26 7 14 -1 31 3 37 9 7 6 24 17 40 23 31 14 33 24
12 57 -14 21 -14 24 0 30 9 3 15 11 13 17 -4 13 45 69 60 69 5 0 22 19 38 43
16 23 37 51 47 61 9 11 17 25 17 30 0 6 16 22 34 36 36 26 33 50 -4 50 -32 0
-30 36 5 74 32 35 55 46 55 27 0 -5 9 -12 19 -16 11 -3 21 -16 23 -27 2 -12 9
-23 16 -26 7 -2 12 0 11 5 -4 21 2 33 16 33 8 0 15 8 15 18 0 13 12 22 40 31
22 6 40 16 40 21 0 6 7 10 15 10 9 0 18 7 21 15 4 8 10 15 15 15 18 0 99 56
99 68 0 20 35 53 59 55 11 1 21 5 21 9 0 4 6 8 14 8 8 0 17 7 20 16 9 24 8 26
-15 13 -17 -9 -23 -8 -30 2 -5 8 -9 10 -9 6 0 -5 -16 0 -36 12 -19 12 -44 21
-55 21 -31 0 -22 16 19 37 29 14 47 17 71 10 39 -10 50 -3 34 22 -10 15 -8 21
13 31 13 8 24 19 24 27 0 7 6 13 13 13 6 0 30 14 51 30 22 17 48 30 59 30 10
0 33 6 50 14 18 8 60 19 95 26 34 7 62 17 62 21 0 5 7 9 15 9 8 0 15 5 15 10
0 12 -10 12 -32 -1z m-490 -303 c15 -7 39 -19 55 -26 15 -8 27 -16 27 -19 0
-3 -24 -21 -52 -40 -41 -27 -55 -31 -67 -22 -9 6 -23 14 -31 18 -25 11 -55 43
-41 43 7 0 9 5 6 10 -3 6 0 10 7 10 7 0 24 9 38 20 30 24 26 23 58 6z m-133
-77 c4 -5 17 -15 28 -20 46 -21 63 -35 59 -47 -2 -6 -9 -12 -16 -12 -6 0 -33
-20 -59 -45 -27 -25 -53 -45 -59 -45 -7 0 -22 -10 -34 -21 l-23 -22 -24 23
c-20 20 -22 26 -13 55 9 30 13 33 42 28 29 -5 32 -3 32 23 0 15 5 30 11 32 6
2 11 10 11 18 0 8 7 14 16 14 10 0 14 6 10 15 -6 17 9 21 19 4z m-255 -297
c19 -18 19 -18 -5 -47 -23 -26 -27 -27 -50 -15 -31 17 -31 21 1 54 32 31 30
31 54 8z m-67 -106 c-4 -6 -25 -30 -47 -53 -40 -44 -66 -55 -66 -28 0 8 -7 15
-16 15 -12 0 -9 7 12 29 45 45 96 72 111 59 7 -5 10 -15 6 -22z m-123 -116
c13 0 -33 -89 -45 -89 -20 -1 -56 35 -50 49 7 20 57 49 73 44 8 -2 18 -4 22
-4z"/>
<path d="M2806 2111 c-7 -11 14 -20 32 -14 6 3 12 9 12 14 0 12 -37 12 -44 0z"/>
<path d="M2865 2110 c-3 -5 -1 -10 4 -10 6 0 11 5 11 10 0 6 -2 10 -4 10 -3 0
-8 -4 -11 -10z"/>
<path d="M2900 2111 c0 -5 9 -12 20 -15 11 -3 29 -9 40 -12 11 -3 20 -1 20 5
0 6 -7 11 -15 11 -8 0 -15 5 -15 10 0 6 -11 10 -25 10 -14 0 -25 -4 -25 -9z"/>
<path d="M2993 2080 c-17 -27 -16 -55 2 -70 13 -11 15 -8 15 19 0 29 1 30 33
24 39 -7 47 -18 47 -60 0 -37 17 -44 25 -10 12 58 9 77 -14 77 -10 0 -31 7
-47 15 -20 10 -30 11 -35 3 -5 -7 -8 -5 -10 6 -4 15 -6 14 -16 -4z"/>
<path d="M2830 2060 c0 -5 9 -10 19 -10 16 0 20 -8 23 -37 3 -42 28 -59 28
-19 0 42 -21 76 -47 76 -12 0 -23 -4 -23 -10z"/>
<path d="M2723 2044 c-3 -9 -2 -19 4 -23 5 -3 12 -14 16 -23 4 -11 17 -18 34
-18 l28 0 -25 13 c-18 9 -25 21 -25 40 1 30 -22 37 -32 11z"/>
<path d="M3140 2021 c0 -5 10 -11 23 -15 36 -9 43 -6 23 9 -22 17 -46 20 -46
6z"/>
<path d="M2580 2014 c0 -14 24 -50 43 -65 21 -17 21 -17 -14 -38 -19 -11 -40
-21 -46 -21 -7 0 -13 -5 -13 -11 0 -15 47 -3 81 22 15 10 32 19 38 19 19 0 12
15 -11 25 -13 6 -27 24 -32 43 -6 21 -15 32 -27 32 -11 0 -19 -3 -19 -6z"/>
<path d="M2511 1990 c-10 -6 -11 -11 -3 -21 51 -62 61 -72 62 -61 0 18 -26 78
-37 85 -5 3 -15 2 -22 -3z"/>
<path d="M2825 1990 c-19 -7 -19 -8 -2 -15 10 -4 23 -3 29 3 14 14 -3 21 -27
12z"/>
<path d="M3208 1983 c14 -6 16 -33 2 -33 -5 0 -10 -15 -10 -32 l1 -33 24 28
c14 15 25 23 25 18 0 -21 2 -26 18 -53 13 -23 13 -29 2 -43 -12 -14 -12 -18 1
-26 8 -4 22 -6 32 -3 16 5 18 2 12 -18 -17 -54 -26 -67 -58 -92 -39 -30 -58
-34 -34 -8 32 35 22 103 -24 157 -9 11 -19 29 -21 40 -2 13 -14 22 -33 26 -47
9 -75 21 -75 30 0 5 -8 9 -18 9 -10 0 -22 3 -26 7 -8 8 -27 13 -79 20 -29 4
-36 2 -32 -9 3 -8 21 -14 41 -15 20 -1 41 -6 46 -11 6 -6 16 -8 23 -6 7 3 15
-2 19 -11 3 -9 0 -18 -7 -20 -6 -2 -41 -14 -77 -25 -87 -29 -97 -39 -99 -104
-1 -51 1 -57 36 -91 48 -47 117 -77 173 -76 84 1 115 7 113 19 -2 8 10 12 32
12 24 0 35 5 35 15 0 8 6 15 14 15 8 0 26 14 39 30 14 17 30 30 36 30 6 0 11
12 12 28 1 15 2 42 3 59 1 19 -4 35 -11 37 -7 3 -10 12 -6 22 4 12 3 15 -5 10
-7 -4 -12 -2 -12 4 0 14 -25 40 -38 40 -6 0 -16 14 -24 30 -9 22 -19 30 -38
29 -14 0 -19 -3 -12 -6z m-88 -118 c22 -27 -2 -39 -38 -21 -37 19 -59 20 -90
3 -26 -15 -62 -77 -62 -108 0 -18 -2 -20 -15 -9 -11 9 -14 23 -10 44 11 55 26
75 62 82 18 3 36 10 39 15 9 16 100 10 114 -6z m-48 -57 c18 -18 19 -23 6 -32
-8 -6 -17 -19 -21 -28 -3 -10 -11 -18 -17 -18 -5 0 -10 8 -10 18 -1 15 -2 15
-15 -2 -10 -14 -18 -17 -25 -10 -14 14 -1 74 16 74 8 0 14 5 14 10 0 17 29 11
52 -12z m58 -77 c-11 -46 -14 -49 -38 -46 -15 1 -33 3 -39 4 -25 2 -12 20 22
31 22 7 35 18 35 29 0 17 20 44 28 36 2 -2 -1 -26 -8 -54z m56 4 c-4 -14 -11
-25 -16 -25 -10 0 -4 43 8 65 9 15 14 -14 8 -40z"/>
<path d="M878 1949 c-25 -16 5 -24 84 -22 101 1 168 11 168 24 0 12 -232 10
-252 -2z"/>
<path d="M2690 1950 c0 -13 11 -13 30 0 12 8 11 10 -7 10 -13 0 -23 -4 -23
-10z"/>
<path d="M2415 1860 c3 -5 11 -10 16 -10 6 0 7 5 4 10 -3 6 -11 10 -16 10 -6
0 -7 -4 -4 -10z"/>
<path d="M2473 1834 c-30 -15 -44 -34 -25 -34 8 0 70 49 62 49 -3 0 -20 -7
-37 -15z"/>
<path d="M898 1674 c-2 -1 -30 -6 -62 -8 -32 -3 -62 -9 -67 -12 -6 -3 -20 -7
-32 -8 -12 -2 -37 -6 -55 -10 -26 -6 -31 -11 -22 -21 13 -16 43 -13 112 8 28
9 45 11 41 5 -4 -7 4 -8 23 -3 16 4 49 9 74 11 25 2 50 6 56 8 6 2 52 -1 101
-8 50 -7 99 -11 109 -9 11 3 34 4 53 3 18 0 39 4 47 11 17 14 22 -8 26 -108 3
-64 1 -73 -14 -73 -10 0 -18 -3 -18 -8 0 -9 59 -36 66 -30 4 5 5 68 1 176 l-2
62 -34 6 c-19 4 -61 2 -92 -4 -40 -7 -70 -7 -94 -1 -20 6 -43 8 -50 5 -7 -2
-16 -2 -19 1 -6 6 -143 13 -148 7z"/>
<path d="M957 1613 c-4 -3 -7 -22 -7 -42 0 -20 -3 -53 -7 -74 -5 -35 -8 -38
-37 -36 -59 4 -86 -1 -86 -15 0 -8 6 -16 13 -19 23 -9 251 -2 267 8 8 5 24 8
35 7 31 -4 55 19 58 55 1 18 5 33 9 33 4 0 4 10 -1 23 -13 35 -36 27 -39 -13
-6 -80 -2 -77 -102 -77 -85 0 -100 4 -82 21 4 4 8 31 8 59 1 28 7 53 13 55 6
2 11 8 11 13 0 10 -43 12 -53 2z"/>
<path d="M1050 1584 c-16 -41 -13 -104 5 -104 14 0 19 16 16 52 -1 9 5 31 14
47 15 30 15 31 -5 31 -13 0 -24 -10 -30 -26z"/>
<path d="M843 1585 c-11 -30 -8 -88 5 -92 7 -3 12 4 12 16 0 11 4 22 9 25 10
7 2 54 -10 62 -5 3 -12 -2 -16 -11z"/>
<path d="M674 1541 c8 -53 23 -91 36 -91 5 0 10 3 11 8 0 4 2 17 3 29 2 12 -2
19 -7 16 -6 -4 -8 3 -5 15 4 12 2 22 -4 22 -5 0 -6 5 -2 11 6 11 -12 29 -30
29 -5 0 -6 -18 -2 -39z"/>
<path d="M1978 1476 c-19 -14 -25 -46 -8 -46 11 0 33 37 28 50 -2 5 -11 3 -20
-4z"/>
<path d="M737 1458 c-28 -17 -36 -27 -31 -40 3 -11 1 -24 -4 -31 -5 -7 -19
-39 -31 -72 -18 -48 -21 -71 -16 -117 4 -31 12 -61 18 -66 7 -5 30 -9 52 -8
29 1 41 6 43 19 3 12 -3 17 -21 17 -33 0 -44 17 -42 68 1 24 -3 42 -9 42 -6 0
-3 7 7 14 11 9 15 20 10 31 -4 12 -3 16 5 11 6 -3 13 3 17 14 3 11 11 20 16
20 6 0 7 5 4 10 -3 6 1 13 9 16 9 3 16 15 16 25 0 10 5 19 10 19 14 0 13 13
-2 33 -12 15 -16 15 -51 -5z"/>
<path d="M1023 1310 c-18 -11 -35 -31 -39 -45 -6 -25 -40 -52 -52 -41 -3 3 0
6 6 6 7 0 12 5 12 11 0 14 -50 3 -66 -14 -7 -7 -24 -34 -39 -62 -15 -27 -39
-63 -55 -80 -31 -33 -60 -86 -60 -108 0 -8 7 -17 15 -21 23 -8 45 4 38 21 -4
9 -2 14 3 10 6 -3 15 -3 21 1 12 8 43 66 43 81 0 16 34 91 41 91 4 0 9 -26 13
-59 4 -38 13 -64 25 -75 17 -16 18 -21 6 -54 -8 -20 -17 -46 -21 -57 -8 -23
-12 -156 -5 -170 3 -5 6 -33 7 -62 1 -31 10 -62 21 -78 16 -23 23 -25 65 -21
l47 5 11 -42 c6 -23 15 -51 20 -62 4 -11 11 -28 14 -38 7 -22 34 -33 48 -19 8
8 5 29 -10 75 -24 68 -24 144 -2 292 12 81 10 137 -5 147 -6 5 -6 8 3 8 6 0
12 5 12 10 0 6 -7 10 -17 10 -15 0 -15 2 1 19 10 11 15 25 11 30 -3 6 -1 11 4
11 6 0 11 -4 11 -9 0 -12 88 -7 101 6 10 10 24 123 16 123 -2 0 -17 -20 -33
-45 -15 -25 -30 -45 -33 -45 -4 0 -6 34 -5 76 1 71 -1 78 -28 105 -16 15 -29
32 -29 36 0 4 -7 7 -15 7 -8 -1 -14 4 -14 12 0 8 -8 14 -18 14 -10 0 -22 4
-28 10 -6 6 -21 3 -41 -10z m86 -62 c31 -28 34 -36 36 -92 2 -64 -11 -96 -49
-128 -15 -12 -24 -14 -34 -6 -9 8 -19 5 -37 -12 -23 -21 -25 -22 -25 -5 0 10
-3 15 -7 12 -9 -9 -34 13 -27 24 3 5 1 9 -5 9 -11 0 -30 84 -27 120 2 15 12
28 27 35 33 13 76 45 63 45 -6 0 -11 7 -11 15 0 27 59 17 96 -17z m-99 -287
c0 -6 12 -6 32 0 33 9 46 1 49 -31 2 -20 -3 -74 -19 -219 -7 -63 -7 -64 -41
-66 -33 -3 -33 -3 -27 34 9 50 10 61 7 106 l-3 40 -9 -40 c-5 -22 -11 -50 -14
-62 -3 -13 -10 -23 -16 -23 -8 0 -9 21 -6 65 3 36 1 67 -4 71 -5 3 -5 12 0 23
5 9 6 23 1 31 -5 8 -2 22 7 37 8 13 12 23 9 23 -4 0 -4 5 -1 10 8 13 35 13 35
1z"/>
<path d="M955 526 c-7 -22 -17 -72 -22 -108 -5 -35 -3 -38 18 -38 31 0 55 15
40 24 -12 8 -7 57 10 88 6 10 9 24 7 30 -5 15 -49 18 -53 4z"/>
</g>
</svg>
