<?xml version="1.0" standalone="no"?>
<!DOCTYPE svg PUBLIC "-//W3C//DTD SVG 20010904//EN"
 "http://www.w3.org/TR/2001/REC-SVG-20010904/DTD/svg10.dtd">
<svg version="1.0" xmlns="http://www.w3.org/2000/svg"
 width="605.000000pt" height="335.000000pt" viewBox="0 0 605.000000 335.000000"
 preserveAspectRatio="xMidYMid meet">
<metadata>
Created by potrace 1.12, written by Peter Selinger 2001-2015
</metadata>
<g transform="translate(0.000000,335.000000) scale(0.100000,-0.100000)"
fill="#000000" stroke="none">
<path d="M300 3186 c0 -2 7 -6 15 -10 8 -3 15 -1 15 4 0 6 -7 10 -15 10 -8 0
-15 -2 -15 -4z"/>
<path d="M3451 3004 c0 -11 3 -14 6 -6 3 7 2 16 -1 19 -3 4 -6 -2 -5 -13z"/>
<path d="M2913 2963 c-7 -2 -13 -11 -13 -19 0 -8 -4 -14 -9 -14 -10 0 -39 -41
-43 -61 -2 -7 -13 -33 -25 -58 -13 -24 -23 -48 -23 -53 0 -4 -11 -31 -25 -60
-14 -28 -25 -60 -25 -70 0 -10 -5 -18 -11 -18 -5 0 -7 -4 -4 -10 3 -5 2 -10
-4 -10 -8 0 -21 -25 -26 -50 -5 -24 -20 -58 -32 -72 -8 -9 -10 -18 -5 -22 5
-3 15 8 22 24 7 17 17 30 22 30 5 0 6 5 3 10 -3 6 -2 10 2 10 5 0 9 8 10 18 1
19 110 272 145 337 27 51 52 75 78 75 11 0 20 5 20 10 0 10 -35 12 -57 3z"/>
<path d="M3010 2960 c0 -5 5 -10 11 -10 5 0 7 5 4 10 -3 6 -8 10 -11 10 -2 0
-4 -4 -4 -10z"/>
<path d="M3030 2930 c0 -5 7 -10 16 -10 8 0 12 5 9 10 -3 6 -10 10 -16 10 -5
0 -9 -4 -9 -10z"/>
<path d="M3050 2899 c0 -9 7 -22 15 -29 19 -16 19 0 0 26 -12 16 -14 16 -15 3z"/>
<path d="M3808 2848 c-3 -7 0 -25 6 -40 14 -36 4 -43 -33 -23 -28 14 -32 14
-37 1 -9 -23 4 -36 36 -36 40 0 81 20 79 39 -2 29 1 41 11 41 6 0 10 -20 10
-45 0 -43 -1 -44 -42 -57 -33 -10 -42 -10 -46 0 -6 18 -22 4 -22 -20 0 -14 -5
-18 -16 -14 -10 4 -14 1 -12 -6 3 -7 18 -14 34 -16 16 -2 35 -12 42 -22 11
-18 9 -20 -17 -20 -35 0 -45 -20 -25 -48 13 -19 12 -22 -5 -32 -11 -5 -35 -10
-53 -10 -29 0 -37 -7 -66 -51 -18 -28 -31 -53 -29 -56 3 -2 18 2 34 11 15 8
21 15 13 16 -12 0 -12 2 -2 9 8 4 13 12 12 17 0 5 10 10 22 12 13 2 30 6 38 9
8 3 23 8 33 10 34 6 56 23 51 38 -4 8 -10 15 -14 15 -4 0 -10 9 -13 20 -4 16
-1 20 11 16 9 -3 31 1 47 9 17 7 24 14 18 14 -7 1 -13 7 -13 15 0 9 -7 12 -19
9 -15 -4 -18 0 -14 21 3 14 10 26 15 26 5 0 7 3 4 8 -2 4 15 6 40 5 43 -3 60
11 28 24 -9 3 -13 12 -9 22 12 28 13 66 4 77 -5 6 -20 9 -33 7 -13 -3 -27 0
-30 6 -10 15 -33 14 -38 -1z"/>
<path d="M3084 2815 c16 -39 63 -84 86 -85 9 0 6 6 -9 16 -15 11 -19 19 -12
23 7 5 -1 20 -22 44 -43 49 -63 50 -43 2z m51 -35 c3 -5 1 -10 -4 -10 -6 0
-11 5 -11 10 0 6 2 10 4 10 3 0 8 -4 11 -10z"/>
<path d="M2936 2764 c-9 -22 3 -32 14 -14 12 19 12 30 1 30 -5 0 -12 -7 -15
-16z"/>
<path d="M3170 2760 c0 -5 5 -10 10 -10 6 0 10 5 10 10 0 6 -4 10 -10 10 -5 0
-10 -4 -10 -10z"/>
<path d="M3225 2741 c-2 -5 4 -11 15 -14 11 -3 20 -2 20 3 0 12 -28 21 -35 11z"/>
<path d="M3638 2732 c-17 -7 -17 -9 1 -39 18 -28 18 -32 4 -37 -12 -5 -6 -12
23 -27 46 -23 76 -23 52 1 -18 19 -38 55 -38 69 0 6 10 11 23 11 20 0 20 1 -7
15 -31 16 -33 17 -58 7z"/>
<path d="M2890 2703 c-8 -16 -16 -31 -18 -36 -2 -4 8 -2 22 4 14 7 26 18 26
26 0 7 0 16 1 20 2 20 -19 10 -31 -14z"/>
<path d="M3320 2641 c24 -16 46 -28 49 -25 9 9 -34 43 -64 49 -28 6 -26 4 15
-24z"/>
<path d="M2829 2637 c-9 -7 -23 -27 -33 -44 -15 -30 -15 -33 -1 -33 9 0 14 4
11 9 -3 5 1 12 10 15 8 3 12 10 9 16 -3 6 1 7 9 4 14 -5 18 0 15 23 0 4 8 10
18 14 17 7 16 8 -2 8 -11 0 -27 -5 -36 -12z"/>
<path d="M2665 2620 c-3 -5 1 -10 9 -10 9 0 16 5 16 10 0 6 -4 10 -9 10 -6 0
-13 -4 -16 -10z"/>
<path d="M3615 2540 c-27 -53 -33 -59 -54 -54 -21 5 -23 3 -12 -10 8 -9 18
-16 23 -16 12 0 38 26 38 38 0 5 9 17 20 27 11 10 20 24 20 30 0 7 7 15 15 19
21 8 19 26 -3 26 -12 0 -28 -20 -47 -60z"/>
<path d="M2665 2574 c-9 -9 -14 -23 -11 -30 3 -8 0 -14 -6 -14 -6 0 -9 -3 -5
-6 3 -3 1 -18 -5 -33 -14 -36 -18 -71 -7 -71 5 0 9 -7 9 -15 0 -8 5 -15 10
-15 7 0 9 13 5 33 -3 19 2 59 14 100 11 37 18 67 16 67 -2 0 -11 -7 -20 -16z"/>
<path d="M3440 2556 c0 -8 5 -18 10 -21 6 -3 10 1 10 9 0 8 -4 18 -10 21 -5 3
-10 -1 -10 -9z"/>
<path d="M2775 2540 c-3 -5 -2 -10 4 -10 5 0 13 5 16 10 3 6 2 10 -4 10 -5 0
-13 -4 -16 -10z"/>
<path d="M3480 2520 c0 -6 7 -10 15 -10 8 0 15 2 15 4 0 2 -7 6 -15 10 -8 3
-15 1 -15 -4z"/>
<path d="M1820 2450 c-8 -5 -10 -10 -4 -10 6 0 16 -11 22 -25 11 -23 10 -25
-16 -25 -37 -1 -65 -23 -50 -38 7 -7 18 -12 25 -12 10 0 33 -29 33 -43 0 -3
-20 -2 -44 0 -107 13 -126 -26 -50 -102 25 -25 58 -48 73 -51 23 -5 27 -11 27
-37 0 -18 3 -53 6 -79 8 -54 2 -58 -39 -24 -39 32 -123 78 -136 73 -6 -2 3
-10 21 -18 18 -7 32 -17 32 -21 0 -5 6 -8 13 -8 6 -1 28 -14 47 -30 19 -17 40
-30 47 -30 7 0 13 -3 13 -7 0 -13 87 -45 112 -41 18 3 14 7 -22 18 -32 11 -44
20 -42 32 1 9 -2 19 -8 23 -17 10 -13 85 5 85 15 0 20 -16 16 -57 -1 -13 3
-23 9 -23 5 0 13 0 18 0 4 -1 9 16 12 37 4 33 2 40 -22 55 -16 10 -28 21 -28
25 0 5 18 18 40 31 22 12 40 29 40 36 0 7 -18 20 -40 29 -35 13 -55 37 -32 37
5 0 14 11 20 24 8 18 7 27 -4 37 -7 8 -17 29 -20 47 -6 28 -4 34 15 39 30 8
26 23 -6 23 -15 0 -36 9 -48 20 -14 13 -25 16 -35 10z m40 -102 c6 -13 15 -30
22 -39 9 -13 7 -22 -11 -44 l-21 -28 27 -19 c16 -10 36 -18 46 -18 28 0 20
-16 -18 -34 -19 -9 -37 -21 -41 -27 -4 -6 -12 -2 -21 10 -8 12 -20 21 -28 21
-22 0 -95 75 -95 97 0 19 3 20 41 12 53 -12 109 -8 109 7 0 7 -11 26 -25 42
-23 27 -24 42 -3 42 5 0 13 -10 18 -22z"/>
<path d="M1240 2441 c0 -6 5 -13 10 -16 6 -3 10 1 10 9 0 9 -4 16 -10 16 -5 0
-10 -4 -10 -9z"/>
<path d="M1275 2385 c17 -14 35 -25 40 -25 6 0 -3 11 -20 25 -16 13 -34 24
-40 24 -5 0 4 -11 20 -24z"/>
<path d="M2610 2394 c0 -8 5 -12 10 -9 6 3 10 10 10 16 0 5 -4 9 -10 9 -5 0
-10 -7 -10 -16z"/>
<path d="M2622 2372 c-7 -5 -14 -23 -15 -40 -1 -18 -5 -32 -9 -32 -5 0 -8 -7
-8 -16 0 -9 -9 -27 -20 -41 -11 -14 -20 -33 -20 -42 1 -13 3 -12 12 4 6 11 21
28 32 37 12 10 17 17 12 18 -5 0 -3 7 4 15 7 8 10 15 7 15 -4 0 2 20 13 45 19
44 17 52 -8 37z"/>
<path d="M1344 2344 c3 -8 6 -18 6 -20 0 -2 7 -4 15 -4 18 0 9 26 -12 34 -11
5 -13 2 -9 -10z"/>
<path d="M1390 2302 c0 -12 19 -26 26 -19 2 2 -2 10 -11 17 -9 8 -15 8 -15 2z"/>
<path d="M1290 2260 c6 -11 15 -20 20 -20 6 0 2 9 -7 20 -10 11 -19 20 -21 20
-1 0 2 -9 8 -20z"/>
<path d="M1410 2261 c0 -13 65 -81 78 -81 6 0 -5 17 -23 38 -19 20 -35 40 -35
45 0 4 -4 7 -10 7 -5 0 -10 -4 -10 -9z"/>
<path d="M3730 2250 c0 -5 5 -10 10 -10 6 0 10 5 10 10 0 6 -4 10 -10 10 -5 0
-10 -4 -10 -10z"/>
<path d="M1340 2211 c0 -5 7 -11 15 -15 8 -3 15 -1 15 3 0 5 -7 11 -15 15 -8
3 -15 1 -15 -3z"/>
<path d="M1195 2159 c-4 -6 -5 -12 -2 -15 2 -3 7 2 10 11 7 17 1 20 -8 4z"/>
<path d="M1555 2135 c28 -13 56 -29 63 -35 9 -8 12 -7 12 2 0 7 -24 23 -53 36
-68 29 -86 27 -22 -3z"/>
<path d="M3791 2144 c0 -11 3 -14 6 -6 3 7 2 16 -1 19 -3 4 -6 -2 -5 -13z"/>
<path d="M4722 2050 c-50 -12 -64 -30 -23 -30 29 0 32 -2 21 -15 -7 -8 -18
-15 -26 -15 -15 0 -30 -63 -19 -80 13 -22 -35 -44 -91 -41 -64 3 -82 -16 -24
-25 66 -11 52 -25 -37 -39 -52 -8 -57 -25 -8 -25 19 0 35 -2 35 -4 0 -8 -54
-102 -67 -118 -13 -14 -12 -18 6 -27 20 -11 20 -13 -15 -59 -20 -26 -38 -49
-39 -50 -2 -2 -17 4 -34 14 -22 13 -34 15 -42 7 -7 -7 0 -17 28 -34 46 -29 75
-33 71 -10 -2 9 9 26 24 39 15 13 27 26 26 30 -4 21 17 42 43 42 36 0 38 -25
9 -85 -11 -22 -19 -47 -20 -54 0 -12 -3 -12 -12 -3 -15 15 -48 16 -48 1 0 -6
9 -13 20 -16 11 -3 20 -9 20 -14 0 -5 7 -9 15 -9 8 0 15 -6 15 -12 1 -19 30
23 30 42 0 9 9 35 20 58 12 24 18 47 15 52 -3 5 3 18 14 29 11 11 17 22 14 25
-4 3 0 14 9 23 8 10 25 52 39 93 13 41 24 76 25 78 1 2 16 -6 34 -16 34 -21
65 -19 74 5 5 12 0 13 -23 8 -37 -8 -43 2 -24 45 12 30 16 33 24 18 22 -39 36
-20 35 47 0 36 -4 65 -8 65 -5 0 -7 3 -6 8 2 11 -14 46 -26 54 -13 9 -30 9
-74 -2z m68 -20 c0 -5 -12 -10 -26 -10 -14 0 -23 4 -19 10 3 6 15 10 26 10 10
0 19 -4 19 -10z m0 -62 c0 -25 -26 -58 -46 -58 -26 0 -47 30 -38 53 5 15 84
20 84 5z m-101 -148 c-18 -54 -62 -153 -76 -170 -8 -11 -25 -14 -52 -12 l-39
4 22 49 c13 26 29 56 37 65 8 9 13 19 12 21 -2 1 0 3 3 2 3 0 18 18 32 40 14
22 29 38 33 35 4 -2 11 1 14 7 15 23 25 -8 14 -41z"/>
<path d="M2533 2018 c-1 -31 0 -32 10 -10 7 15 7 26 0 33 -7 7 -10 -1 -10 -23z"/>
<path d="M3830 2038 c0 -9 5 -20 10 -23 13 -8 13 5 0 25 -8 13 -10 13 -10 -2z"/>
<path d="M3023 2027 c-18 -6 -33 -13 -33 -17 0 -3 18 -14 41 -24 50 -22 49
-47 -4 -60 -20 -5 -37 -15 -37 -23 0 -7 3 -12 8 -11 4 1 29 -8 55 -20 72 -33
62 -55 -36 -76 -24 -6 -26 -8 -13 -21 8 -8 21 -15 28 -15 7 0 31 -7 53 -14 34
-12 40 -18 37 -39 -4 -32 22 -83 48 -97 23 -12 25 -7 8 23 -6 12 -11 37 -9 55
3 47 -13 69 -56 77 l-38 7 31 16 c45 24 32 72 -24 93 -24 9 -24 10 -6 30 16
18 19 19 22 5 2 -9 10 -16 18 -16 8 0 14 -4 14 -10 0 -5 9 -10 19 -10 13 0 21
-8 23 -22 2 -18 24 -36 66 -54 12 -6 -15 -57 -34 -64 -22 -9 -23 -11 -10 -47
26 -74 57 -123 78 -123 23 0 18 24 -13 76 -23 38 -24 60 -4 80 18 19 20 78 3
92 -7 5 -22 12 -33 14 -11 2 -19 10 -17 17 7 31 -10 52 -36 49 -22 -2 -28 2
-30 20 -2 12 1 22 7 22 20 0 11 20 -25 54 -43 41 -58 45 -101 33z m70 -29 c12
-7 24 -14 25 -15 2 -1 1 -10 -2 -21 -6 -18 -8 -18 -36 8 -43 40 -36 55 13 28z"/>
<path d="M2453 2018 c-5 -7 -14 -25 -21 -40 -10 -23 -9 -28 3 -28 8 0 16 9 16
20 2 28 3 33 12 48 5 6 6 12 4 12 -3 0 -9 -6 -14 -12z"/>
<path d="M3846 1991 c-4 -7 -5 -15 -2 -18 9 -9 19 4 14 18 -4 11 -6 11 -12 0z"/>
<path d="M3854 1939 c-3 -6 -1 -16 5 -22 8 -8 11 -5 11 11 0 24 -5 28 -16 11z"/>
<path d="M1990 1911 c0 -6 5 -11 12 -11 6 0 22 -10 35 -22 17 -16 34 -21 65
-20 52 2 64 12 14 12 -22 0 -55 11 -82 26 -24 14 -44 21 -44 15z"/>
<path d="M2480 1884 c0 -8 5 -12 10 -9 6 3 10 10 10 16 0 5 -4 9 -10 9 -5 0
-10 -7 -10 -16z"/>
<path d="M2170 1860 c8 -5 22 -9 30 -9 10 0 8 3 -5 9 -27 12 -43 12 -25 0z"/>
<path d="M3896 1852 c-4 -7 -2 -12 3 -12 6 0 10 -3 9 -7 -3 -11 35 -73 44 -73
4 0 8 -6 8 -13 0 -8 9 -22 20 -32 11 -10 20 -23 20 -30 0 -14 121 -124 158
-144 15 -8 32 -20 40 -27 7 -8 19 -14 26 -14 6 0 21 -7 31 -15 11 -8 45 -32
76 -53 31 -20 90 -62 130 -93 41 -31 110 -75 154 -98 44 -24 87 -48 95 -55 8
-6 28 -18 45 -26 16 -8 81 -66 145 -128 152 -150 286 -239 420 -279 98 -29
105 -15 9 17 -46 14 -110 44 -143 66 -32 21 -73 48 -91 59 -19 12 -42 28 -53
38 -10 9 -22 14 -25 11 -4 -4 -10 1 -14 11 -11 29 -177 188 -220 210 -21 11
-40 22 -43 25 -10 11 -132 80 -141 80 -5 0 -9 5 -9 10 0 6 -5 10 -10 10 -6 0
-16 5 -23 10 -7 6 -35 25 -62 43 -28 18 -62 42 -75 55 -13 12 -43 31 -66 43
-24 11 -53 28 -66 38 -13 10 -41 28 -63 40 -48 25 -69 39 -102 66 -39 32 -83
74 -83 80 0 3 -9 15 -20 28 -51 55 -90 109 -106 146 -7 17 -13 21 -18 13z"/>
<path d="M2435 1800 c3 -5 8 -10 11 -10 2 0 4 5 4 10 0 6 -5 10 -11 10 -5 0
-7 -4 -4 -10z"/>
<path d="M2518 1759 l4 -42 -23 17 c-13 9 -33 16 -44 15 -16 0 -13 -4 11 -14
16 -7 43 -33 60 -56 24 -34 29 -53 29 -98 0 -31 -3 -73 -7 -93 -11 -52 3 -80
54 -104 23 -12 62 -31 85 -42 79 -40 190 -129 202 -164 6 -18 21 -42 33 -55
22 -24 68 -32 68 -12 0 6 -6 9 -14 6 -20 -8 -56 21 -56 46 -1 27 -31 64 -85
103 -22 16 -42 31 -45 34 -7 7 -42 26 -129 70 -102 52 -105 56 -94 125 13 72
6 142 -18 183 -12 20 -17 42 -13 57 6 25 -3 65 -14 65 -4 0 -6 -19 -4 -41z"/>
<path d="M2382 1720 c-12 -23 -19 -47 -15 -52 3 -6 2 -8 -3 -5 -15 9 -34 -7
-39 -31 -4 -25 7 -29 24 -8 9 11 9 15 -1 19 -8 4 -7 6 4 6 11 1 26 19 39 46
27 58 20 79 -9 25z"/>
<path d="M995 1710 c-3 -5 -1 -10 4 -10 6 0 11 5 11 10 0 6 -2 10 -4 10 -3 0
-8 -4 -11 -10z"/>
<path d="M2640 1697 c0 -9 4 -25 9 -35 21 -38 50 -109 56 -134 4 -16 11 -28
15 -28 8 0 -26 101 -59 170 -11 25 -21 37 -21 27z"/>
<path d="M3270 1698 c0 -7 7 -22 15 -32 12 -16 15 -17 15 -4 0 24 -11 48 -21
48 -5 0 -9 -6 -9 -12z"/>
<path d="M4930 1690 c-12 -8 -11 -10 8 -10 28 0 37 -22 25 -63 -12 -42 -48
-46 -48 -4 1 19 -4 27 -17 27 -13 0 -18 -8 -18 -29 0 -31 -28 -50 -52 -34 -21
12 -58 15 -58 3 0 -6 11 -15 25 -20 26 -10 32 -24 14 -35 -6 -4 -26 -40 -44
-81 -24 -52 -39 -74 -52 -74 -14 0 -13 -3 7 -17 14 -9 29 -23 33 -30 4 -7 12
-13 17 -13 5 0 39 39 75 87 57 75 65 91 65 130 0 41 1 43 24 37 52 -13 86 64
50 114 -16 24 -31 27 -54 12z m-48 -173 c-9 -37 -33 -67 -53 -67 -25 0 -24 25
1 50 11 11 20 24 20 29 0 10 21 20 32 15 3 -2 4 -14 0 -27z m-45 -100 c3 -5 1
-7 -5 -3 -6 3 -24 -11 -41 -31 -35 -43 -38 -39 -14 16 12 29 21 37 35 33 10
-2 21 -9 25 -15z"/>
<path d="M3304 1623 c3 -21 19 -20 22 2 1 8 -4 15 -11 15 -7 0 -12 -8 -11 -17z"/>
<path d="M5099 1595 c-23 -13 -23 -14 -4 -21 38 -14 45 -24 33 -50 -6 -13 -17
-24 -23 -24 -15 0 -45 32 -45 48 0 7 -5 12 -11 12 -6 0 -9 -8 -6 -19 3 -12
-11 -35 -43 -70 -26 -28 -45 -53 -42 -56 2 -2 1 -12 -4 -22 -4 -10 -8 -22 -9
-28 -2 -17 -40 -90 -50 -97 -5 -4 -2 -10 8 -14 17 -6 57 19 55 35 -2 16 28 71
37 68 22 -8 -19 -122 -51 -140 -22 -12 -16 -29 8 -25 22 3 80 76 72 90 -2 3 0
8 6 10 5 1 11 19 14 38 5 43 23 111 33 126 5 6 19 14 33 17 20 5 28 2 35 -16
6 -12 19 -24 29 -26 18 -3 19 -2 3 14 -20 20 -20 20 -6 60 24 65 -19 118 -72
90z m-53 -150 c-5 -26 -12 -35 -26 -35 -11 0 -20 7 -20 15 0 8 4 15 8 15 5 0
14 12 21 26 16 35 25 24 17 -21z m-28 -57 c-6 -18 -28 -21 -28 -4 0 9 7 16 16
16 9 0 14 -5 12 -12z"/>
<path d="M2298 1583 c-21 -25 -58 -101 -58 -118 0 -8 -4 -15 -10 -15 -5 0 -10
-6 -10 -14 0 -7 -8 -24 -18 -37 -11 -13 -22 -37 -26 -53 -6 -26 -5 -28 8 -17
9 7 13 17 11 22 -3 4 4 18 15 29 12 12 23 30 25 40 2 10 8 26 13 36 5 11 16
33 23 49 8 17 20 36 27 43 19 21 34 52 24 52 -5 0 -16 -8 -24 -17z"/>
<path d="M5329 1503 c-1 -10 -1 -21 0 -25 0 -5 -8 -8 -19 -8 -11 0 -20 -4 -20
-10 0 -5 3 -9 8 -9 26 4 42 -3 39 -18 -4 -29 -17 -43 -38 -43 -21 0 -26 16 -7
22 6 2 8 9 4 16 -10 16 -31 5 -44 -24 -7 -13 -22 -29 -34 -35 -22 -10 -75 -86
-70 -101 1 -5 -5 -8 -13 -8 -11 0 -14 -8 -9 -36 3 -23 1 -42 -8 -52 -38 -48
-44 -82 -14 -82 14 0 46 83 46 118 0 19 4 22 28 16 15 -4 30 -12 34 -18 9 -14
34 18 49 64 6 19 15 39 20 45 5 5 9 17 9 27 0 22 23 23 56 2 29 -20 48 -9 20
12 -16 11 -17 16 -6 29 7 8 23 15 36 15 13 0 24 5 24 10 0 6 -8 10 -17 10 -20
0 -53 51 -53 81 0 24 -20 25 -21 2z m-86 -203 c-21 -47 -31 -60 -48 -60 -33 0
-36 9 -12 44 66 95 98 104 60 16z"/>
<path d="M2729 1462 c13 -24 61 -71 86 -84 11 -6 -1 9 -27 34 -27 24 -48 50
-48 56 0 7 -5 12 -10 12 -7 0 -7 -6 -1 -18z"/>
<path d="M5387 1463 c-4 -3 -7 -11 -7 -17 0 -6 5 -5 12 2 6 6 9 14 7 17 -3 3
-9 2 -12 -2z"/>
<path d="M5490 1369 c-7 -11 -24 -25 -40 -30 -37 -13 -46 -35 -14 -34 13 1 27
5 31 8 13 14 33 6 33 -12 0 -11 5 -21 10 -23 7 -2 5 -15 -5 -36 -23 -45 -64
-43 -56 2 3 12 -19 26 -40 26 -22 0 -107 -84 -115 -115 -3 -14 -11 -25 -17
-25 -8 0 -8 -3 0 -11 15 -15 -34 -89 -59 -89 -27 0 -22 -19 8 -30 14 -6 27
-10 29 -10 9 0 45 70 45 89 0 21 1 21 30 6 33 -17 38 -30 15 -39 -8 -3 -21
-18 -27 -33 -7 -15 -18 -36 -26 -45 -8 -10 -12 -24 -8 -33 9 -25 39 0 59 50
10 23 25 51 35 61 9 10 18 28 20 39 2 11 10 33 18 49 8 16 14 34 14 41 0 7 13
9 36 7 30 -4 40 1 68 31 18 20 30 38 26 39 -4 2 -10 15 -14 30 -5 22 -3 26 9
22 8 -4 15 -1 15 5 0 6 -11 11 -24 11 -13 0 -29 7 -36 15 -10 13 -10 19 5 35
16 18 16 20 2 20 -9 0 -21 -9 -27 -21z m-70 -139 c0 -6 -4 -18 -9 -28 -11 -21
-27 -62 -35 -84 -7 -22 -29 -23 -46 -3 -16 20 -6 44 36 88 36 37 54 46 54 27z"/>
<path d="M2840 1372 c0 -4 9 -13 20 -20 11 -7 20 -9 20 -4 0 4 -9 13 -20 20
-11 7 -20 9 -20 4z"/>
<path d="M2880 1322 c0 -21 29 -72 42 -72 6 0 3 9 -8 21 -10 12 -17 22 -15 23
3 0 0 10 -7 21 -6 11 -12 14 -12 7z"/>
<path d="M635 1289 c-10 -30 0 -33 13 -4 6 14 7 25 2 25 -5 0 -12 -9 -15 -21z"/>
<path d="M2150 1299 c0 -5 5 -7 10 -4 6 3 10 8 10 11 0 2 -4 4 -10 4 -5 0 -10
-5 -10 -11z"/>
<path d="M594 1262 c3 -5 -1 -12 -9 -16 -8 -3 -15 -10 -15 -15 0 -5 11 -4 25
2 26 12 28 28 5 35 -7 3 -10 0 -6 -6z"/>
<path d="M2983 1197 c21 -18 47 -34 59 -34 11 -1 28 -8 38 -15 77 -57 171
-117 191 -123 l24 -7 -26 25 c-14 13 -36 28 -50 32 -13 4 -42 23 -63 41 -21
19 -60 41 -85 50 -25 10 -60 28 -78 41 -47 34 -54 27 -10 -10z"/>
<path d="M5173 1110 c-22 -50 -30 -60 -51 -60 -21 0 -23 -2 -12 -15 32 -38 84
16 104 108 11 49 -15 29 -41 -33z"/>
<path d="M2665 1103 c-10 -14 -18 -43 -19 -64 0 -20 -4 -35 -8 -33 -14 9 -8
-13 7 -26 8 -7 16 -11 16 -9 2 5 6 33 15 94 3 28 12 53 18 57 8 6 8 8 0 8 -7
0 -20 -12 -29 -27z"/>
<path d="M2020 1109 c0 -5 5 -7 10 -4 6 3 10 8 10 11 0 2 -4 4 -10 4 -5 0 -10
-5 -10 -11z"/>
<path d="M1845 1030 c-3 -5 -1 -10 4 -10 6 0 11 5 11 10 0 6 -2 10 -4 10 -3 0
-8 -4 -11 -10z"/>
<path d="M2999 1010 l-24 -19 22 -1 c12 0 56 -13 97 -29 87 -34 103 -26 21 10
-37 16 -55 29 -55 41 0 24 -32 23 -61 -2z m46 0 c-3 -5 -10 -10 -16 -10 -5 0
-9 5 -9 10 0 6 7 10 16 10 8 0 12 -4 9 -10z"/>
<path d="M290 982 c0 -6 -8 -13 -17 -15 -16 -4 -16 -5 -1 -6 18 -1 34 16 24
26 -3 4 -6 1 -6 -5z"/>
<path d="M1915 930 c-3 -5 -2 -10 4 -10 5 0 13 5 16 10 3 6 2 10 -4 10 -5 0
-13 -4 -16 -10z"/>
<path d="M1875 860 c-3 -6 1 -7 9 -4 18 7 21 14 7 14 -6 0 -13 -4 -16 -10z"/>
<path d="M1639 785 c-13 -13 -29 -25 -35 -25 -6 0 -17 -6 -23 -14 -9 -11 -9
-15 1 -19 17 -6 39 3 33 13 -3 5 3 11 12 14 18 6 48 44 40 52 -2 3 -15 -7 -28
-21z"/>
<path d="M4090 470 c0 -5 5 -10 10 -10 6 0 10 5 10 10 0 6 -4 10 -10 10 -5 0
-10 -4 -10 -10z"/>
<path d="M3088 433 c6 -2 18 -2 25 0 6 3 1 5 -13 5 -14 0 -19 -2 -12 -5z"/>
<path d="M3474 268 c-10 -16 4 -22 28 -11 l22 10 -22 5 c-12 4 -25 2 -28 -4z"/>
<path d="M3650 250 c0 -5 4 -10 9 -10 6 0 13 5 16 10 3 6 -1 10 -9 10 -9 0
-16 -4 -16 -10z"/>
<path d="M3695 250 c3 -5 15 -10 26 -10 11 0 17 5 14 10 -3 6 -15 10 -26 10
-11 0 -17 -4 -14 -10z"/>
</g>
</svg>
