<?xml version="1.0" standalone="no"?>
<!DOCTYPE svg PUBLIC "-//W3C//DTD SVG 20010904//EN"
 "http://www.w3.org/TR/2001/REC-SVG-20010904/DTD/svg10.dtd">
<svg version="1.0" xmlns="http://www.w3.org/2000/svg"
 width="380.000000pt" height="286.000000pt" viewBox="0 0 380.000000 286.000000"
 preserveAspectRatio="xMidYMid meet">
<metadata>
Created by potrace 1.12, written by Peter Selinger 2001-2015
</metadata>
<g transform="translate(0.000000,286.000000) scale(0.100000,-0.100000)"
fill="#000000" stroke="none">
<path d="M2087 2040 c-27 -5 -57 -16 -66 -24 -10 -9 -23 -16 -29 -16 -7 0 -12
-7 -12 -15 0 -8 -5 -15 -10 -15 -6 0 -15 -11 -20 -25 -5 -14 -15 -24 -22 -23
-6 2 -13 -6 -15 -17 -2 -11 -8 -29 -13 -40 -12 -29 -52 -185 -55 -220 -12
-105 -35 -215 -47 -215 -5 0 -8 -7 -8 -14 0 -8 -11 -36 -25 -62 -19 -36 -22
-50 -14 -60 9 -11 8 -14 -5 -14 -9 0 -16 -4 -16 -8 0 -4 19 -8 43 -7 27 0 41
4 40 12 -2 7 8 34 22 59 20 37 22 49 13 56 -10 6 -10 8 0 8 6 0 12 7 12 16 0
9 7 22 16 28 18 14 42 122 40 185 -1 27 3 45 11 48 7 3 13 15 13 27 1 26 22
107 34 124 4 7 5 24 2 38 -5 17 -2 24 9 24 13 0 20 18 16 43 0 4 6 7 14 7 8 0
15 5 15 11 0 24 32 41 78 41 26 1 50 6 54 12 5 8 8 7 8 -1 0 -7 6 -13 12 -13
7 0 36 -12 65 -27 45 -24 51 -31 46 -51 -11 -46 61 -82 121 -59 8 3 18 2 21
-3 6 -10 37 -2 47 13 3 6 27 10 52 11 25 0 46 3 46 7 0 4 27 6 60 4 33 -1 62
1 65 4 2 4 18 6 34 5 17 -1 34 2 37 7 3 5 19 2 35 -6 36 -19 32 -30 -12 -33
-18 -2 -36 -6 -39 -11 -3 -5 -25 -14 -50 -21 -25 -7 -54 -16 -65 -20 -31 -13
-94 -23 -155 -25 -62 -2 -98 -11 -118 -31 -7 -8 -18 -12 -23 -9 -5 4 -9 1 -9
-6 0 -6 -13 -27 -30 -46 -16 -18 -30 -39 -30 -46 -1 -14 -48 -67 -76 -84 -10
-6 -18 -17 -16 -24 2 -10 0 -10 -12 0 -12 10 -16 9 -25 -6 -9 -16 -12 -16 -21
-3 -5 8 -10 11 -10 7 0 -4 -10 -3 -21 4 -17 8 -23 8 -30 -2 -10 -17 -3 -28 27
-39 21 -8 22 -13 14 -36 -6 -14 -8 -30 -5 -34 3 -5 0 -12 -8 -17 -22 -14 -36
-57 -25 -77 7 -13 5 -22 -7 -36 -24 -26 -15 -55 15 -54 23 1 39 -11 40 -29 0
-5 -4 -5 -10 -2 -5 3 -10 0 -10 -7 0 -8 13 -15 32 -16 17 -2 37 -7 44 -13 9
-7 14 -5 17 8 4 14 5 12 6 -5 1 -15 9 -26 21 -29 11 -3 17 -9 14 -15 -3 -5 2
-20 11 -35 9 -14 12 -22 6 -19 -14 9 -14 0 -1 -24 7 -12 6 -21 -3 -27 -22 -16
-164 -58 -184 -54 -7 1 -13 -4 -13 -10 0 -7 -3 -9 -7 -6 -3 4 -12 2 -20 -4
-10 -9 -13 -8 -13 1 0 9 -3 10 -13 1 -9 -7 -17 -7 -23 -1 -17 17 -74 30 -74
17 0 -6 -6 -2 -14 8 -13 17 -14 17 -23 1 -8 -15 -11 -16 -16 -3 -5 13 -39 24
-112 34 -40 5 -45 5 -80 -1 -16 -2 -59 -9 -94 -15 -36 -6 -68 -16 -73 -23 -6
-10 -8 -10 -8 1 0 10 -3 11 -13 2 -8 -6 -16 -8 -19 -5 -3 3 -41 -2 -84 -11
-44 -9 -97 -18 -118 -20 -22 -3 -43 -10 -47 -16 -5 -8 -8 -7 -12 2 -4 9 -6 8
-6 -5 -1 -15 -4 -16 -15 -7 -8 7 -20 11 -28 10 -7 -1 -20 0 -28 4 -8 3 -33 8
-55 11 -65 10 -74 12 -81 19 -4 4 -16 7 -26 7 -24 0 -23 21 2 27 23 6 26 19 8
27 -9 3 -8 5 2 4 27 -4 73 13 87 30 9 12 12 13 13 3 0 -11 5 -10 25 3 13 9 31
16 39 16 8 0 17 6 19 13 4 9 6 8 6 -2 1 -10 4 -11 15 -2 24 20 74 31 80 18 3
-8 9 -6 16 5 6 9 17 15 25 12 8 -4 15 -1 15 5 0 6 7 11 15 11 9 0 12 6 9 15
-4 9 0 15 10 16 16 2 30 4 44 9 4 2 12 4 17 4 6 1 21 8 33 15 13 7 26 10 29 7
3 -3 14 4 24 16 11 11 19 16 19 10 0 -17 32 -15 57 3 12 8 28 12 36 9 8 -3 18
-1 22 5 3 6 15 11 26 11 28 0 25 38 -5 51 -18 9 -29 8 -49 -5 -24 -16 -64 -28
-99 -30 -10 0 -18 -3 -18 -6 0 -3 -12 -7 -27 -8 -26 -2 -112 -39 -123 -53 -3
-3 -22 -9 -42 -13 -21 -4 -38 -11 -38 -15 0 -5 -22 -11 -49 -15 -27 -4 -51
-11 -53 -16 -2 -5 -19 -11 -38 -13 -19 -2 -48 -9 -63 -15 -16 -7 -33 -10 -38
-6 -5 3 -9 -2 -9 -11 0 -9 -5 -13 -11 -9 -6 3 -14 3 -18 -2 -3 -5 -24 -18 -46
-29 -22 -11 -42 -22 -45 -25 -6 -6 -54 -34 -90 -52 -44 -22 -54 -36 -37 -52 9
-9 18 -11 24 -5 5 5 21 4 41 -3 28 -11 34 -10 42 2 6 9 10 10 10 3 0 -14 95
-47 110 -38 5 3 19 1 30 -5 29 -16 207 -23 216 -9 4 8 9 7 15 -2 6 -10 11 -11
17 -3 4 6 24 11 46 12 52 2 76 11 76 28 0 18 8 18 27 -2 9 -8 22 -13 30 -10 8
4 38 9 66 12 29 4 54 10 57 15 3 5 17 6 31 4 14 -3 34 1 44 8 10 8 28 12 41 9
17 -3 22 -10 21 -31 -2 -23 2 -26 31 -29 33 -3 92 16 92 30 0 5 5 8 10 8 6 0
10 -6 10 -14 0 -7 14 -16 30 -20 41 -8 180 4 180 16 0 5 4 6 10 3 26 -16 52
-14 57 5 3 11 9 17 14 14 5 -3 9 -1 9 4 0 6 6 12 14 15 10 4 12 -1 9 -16 -3
-16 -2 -18 5 -9 5 8 21 15 36 15 14 1 26 7 26 13 0 6 8 18 17 25 11 10 14 10
9 2 -4 -7 -3 -13 3 -13 5 0 12 4 16 10 3 5 13 6 21 3 11 -4 15 0 12 13 -2 10
2 19 9 19 20 0 27 15 7 16 -10 0 -13 3 -6 6 18 7 15 38 -12 97 -15 32 -34 56
-50 64 -14 6 -26 15 -26 19 0 5 -16 8 -35 7 -29 -2 -36 2 -41 22 -4 14 -2 42
4 64 5 22 6 40 2 40 -5 0 -6 9 -3 20 3 11 12 20 19 20 8 0 14 9 14 20 0 14 -5
18 -17 13 -16 -6 -16 -5 -4 10 7 9 20 17 27 17 8 0 14 7 14 16 0 10 -5 14 -16
10 -9 -4 -13 -2 -8 5 3 6 22 9 41 7 30 -4 36 0 50 26 9 17 30 45 47 61 30 29
44 65 25 65 -5 0 -9 8 -9 18 0 14 2 14 9 3 5 -8 16 -11 25 -8 21 8 21 27 0 27
-11 0 -14 5 -10 16 3 9 6 18 6 21 0 3 7 0 16 -8 13 -10 17 -10 25 2 5 8 9 10
9 4 0 -5 4 -4 9 4 8 12 12 12 25 2 11 -9 16 -10 16 -2 0 7 13 10 35 8 21 -3
32 0 28 6 -4 6 4 8 20 5 14 -3 32 -1 39 3 7 5 16 3 20 -4 5 -9 10 -9 20 1 6 6
20 12 30 12 10 0 18 4 18 8 0 8 14 12 53 13 9 0 17 6 17 12 0 19 37 39 43 24
4 -7 6 -6 6 4 1 8 9 16 19 16 9 -1 34 0 56 1 l38 2 -7 38 c-10 56 -53 83 -94
58 -11 -7 -13 -5 -8 7 4 11 1 17 -8 17 -8 0 -15 -3 -15 -7 0 -5 -58 -8 -129
-8 -84 -1 -134 -5 -143 -13 -9 -7 -18 -8 -24 -3 -9 10 -87 -6 -113 -23 -11 -7
-13 -5 -7 9 9 26 -2 55 -20 48 -7 -3 -14 0 -14 7 0 20 -65 75 -90 76 -14 1
-41 4 -60 7 -19 3 -57 2 -83 -3z m-152 -260 c1 -10 -4 -21 -11 -24 -11 -4 -13
23 -5 53 3 10 15 -11 16 -29z m-165 -864 c0 -3 -4 -8 -10 -11 -5 -3 -10 -1
-10 4 0 6 5 11 10 11 6 0 10 -2 10 -4z"/>
</g>
</svg>
