<?xml version="1.0" standalone="no"?>
<!DOCTYPE svg PUBLIC "-//W3C//DTD SVG 20010904//EN"
 "http://www.w3.org/TR/2001/REC-SVG-20010904/DTD/svg10.dtd">
<svg version="1.0" xmlns="http://www.w3.org/2000/svg"
 width="208.000000pt" height="272.000000pt" viewBox="0 0 208.000000 272.000000"
 preserveAspectRatio="xMidYMid meet">
<metadata>
Created by potrace 1.12, written by Peter Selinger 2001-2015
</metadata>
<g transform="translate(0.000000,272.000000) scale(0.100000,-0.100000)"
fill="#000000" stroke="none">
<path d="M1131 2199 c-15 -16 -21 -36 -21 -69 0 -33 -6 -52 -19 -64 -31 -28
-46 -73 -31 -91 14 -17 46 -20 55 -5 12 20 21 9 17 -19 -2 -16 -15 -40 -28
-52 -16 -15 -24 -33 -24 -57 0 -20 -7 -74 -16 -121 -15 -82 -15 -201 1 -277 6
-30 4 -33 -40 -54 -25 -12 -67 -43 -94 -69 -40 -39 -50 -57 -65 -115 -18 -72
-37 -115 -67 -155 -11 -13 -19 -28 -19 -34 0 -10 7 -9 135 18 114 23 129 27
150 41 11 8 30 14 42 14 13 0 23 6 24 13 0 6 16 25 35 41 l34 28 83 -11 c105
-13 170 -12 164 3 -3 8 5 11 25 8 25 -4 29 -1 26 14 -2 13 -13 20 -34 22 -24
2 -36 11 -50 38 -10 18 -21 34 -25 34 -3 0 -24 26 -47 58 -38 54 -39 59 -27
88 52 124 79 290 61 374 -15 69 -83 164 -109 154 -24 -9 -43 34 -24 53 13 13
18 13 41 -2 49 -32 97 3 84 62 -3 13 -9 8 -21 -20 -14 -33 -19 -37 -36 -28
-22 12 -27 25 -37 94 -8 60 -38 96 -85 103 -29 5 -40 2 -58 -17z m77 -15 c27
-19 29 -44 2 -44 -11 0 -20 -5 -20 -11 0 -7 10 -9 24 -7 19 4 26 0 30 -16 8
-29 -10 -44 -34 -28 -25 15 -30 15 -30 -2 0 -19 28 -28 51 -16 24 13 25 -1 1
-30 -16 -20 -23 -21 -48 -13 -27 9 -29 13 -28 59 0 27 3 63 6 79 4 17 7 33 7
38 1 11 15 8 39 -9z m-96 -169 c-10 -35 -32 -46 -32 -15 0 30 20 64 31 53 5
-5 5 -22 1 -38z m103 -45 c4 -6 -8 -10 -30 -10 -33 0 -35 2 -25 20 9 16 15 18
30 10 10 -6 22 -15 25 -20z m4 -36 c2 -2 7 -25 12 -51 5 -26 12 -55 14 -64 6
-17 -10 -27 -55 -35 -49 -10 -47 -26 2 -19 46 7 48 6 58 -21 16 -40 17 -66 3
-71 -7 -3 -14 13 -19 42 -8 56 -19 50 -19 -11 0 -27 5 -44 12 -44 6 0 18 -3
26 -6 27 -10 45 21 36 63 -27 120 -36 193 -24 193 18 0 33 -21 67 -92 21 -46
28 -71 23 -93 -3 -16 -6 -39 -7 -50 -2 -31 -25 -121 -41 -157 -9 -18 -18 -46
-21 -61 -6 -23 -10 -27 -29 -21 -12 3 -32 16 -44 27 -13 11 -35 22 -50 23 -34
4 -45 23 -60 104 -14 71 -10 102 12 94 11 -5 12 1 2 31 -8 28 -8 38 2 44 6 4
11 12 10 17 -1 5 0 25 1 44 l2 35 11 -27 c6 -16 14 -28 19 -28 12 0 10 38 -3
61 -6 12 -7 28 -3 37 7 16 10 25 13 45 1 7 39 0 50 -9z m-59 -478 c0 -3 -4 -8
-10 -11 -5 -3 -10 -1 -10 4 0 6 5 11 10 11 6 0 10 -2 10 -4z m-90 -94 c0 -39
27 -128 45 -145 9 -10 12 -26 9 -49 -5 -28 -14 -39 -48 -56 -70 -37 -236 -74
-236 -53 0 3 9 21 20 39 11 18 20 46 20 62 0 39 44 131 79 164 26 25 85 62
104 65 4 0 7 -12 7 -27z m140 -7 c0 -8 -4 -15 -10 -15 -5 0 -10 7 -10 15 0 8
5 15 10 15 6 0 10 -7 10 -15z m119 -32 c17 -27 40 -59 51 -73 10 -14 20 -34
22 -45 3 -18 -3 -20 -62 -23 -107 -5 -126 9 -83 59 8 10 17 42 20 73 3 31 9
56 13 56 4 0 21 -21 39 -47z m-84 -52 c-3 -12 -11 -19 -16 -16 -5 4 -5 14 2
26 13 26 23 18 14 -10z"/>
<path d="M1574 1289 l-42 -10 11 -35 c6 -21 20 -39 33 -44 12 -5 26 -22 32
-39 10 -27 8 -36 -13 -66 -13 -20 -26 -31 -30 -25 -3 5 -4 14 -1 19 3 5 -3 11
-14 14 -13 3 -18 11 -14 20 8 21 -6 26 -44 15 -35 -9 -55 -42 -42 -68 4 -8 6
-26 5 -40 -2 -14 -4 -34 -4 -46 -2 -43 -64 -83 -78 -49 -3 10 -2 20 3 24 5 3
15 19 22 35 11 24 11 31 0 37 -27 18 -68 14 -85 -9 -20 -24 -16 -41 12 -54 19
-8 24 -16 19 -31 -7 -21 10 -37 39 -37 9 0 35 -18 56 -39 l40 -40 -3 -136 c-1
-75 1 -138 6 -141 4 -3 8 0 8 5 0 6 6 11 14 11 16 0 21 -13 31 -78 7 -43 7
-43 -20 -36 -21 5 -27 4 -23 -7 2 -8 19 -15 36 -17 l32 -3 0 70 c0 63 2 71 19
71 14 0 20 -10 25 -37 9 -57 8 -66 -9 -59 -9 3 -15 0 -15 -8 0 -19 40 -28 46
-11 3 8 1 41 -4 75 -7 47 -6 60 3 56 23 -8 34 41 33 150 -1 98 1 109 18 114
40 11 84 45 84 65 -1 19 -2 19 -14 3 -12 -16 -85 -53 -90 -46 -1 2 -8 22 -16
45 -7 24 -21 50 -32 59 -23 22 -23 59 0 85 23 24 45 91 32 99 -9 5 -30 54 -30
69 0 4 7 8 15 8 8 0 15 -6 15 -13 0 -6 7 -15 16 -18 25 -10 54 -7 54 5 0 6 -7
9 -15 6 -21 -9 -27 7 -15 38 10 26 9 27 -16 21 -20 -5 -27 -3 -31 14 -3 11 -8
20 -12 19 -3 -1 -25 -5 -47 -10z m-50 -198 c9 -16 12 -31 9 -35 -10 -9 -35 -7
-29 3 3 5 -3 11 -14 14 -12 3 -20 14 -20 26 0 32 36 27 54 -8z m34 -78 c2 -7
-3 -13 -11 -13 -24 0 -48 -36 -54 -79 -6 -47 -17 -58 -38 -41 -20 17 -19 40 3
40 13 0 14 2 3 9 -9 6 -10 11 -2 15 6 4 11 13 11 21 0 39 18 60 50 60 19 0 35
-6 38 -12z m2 -103 c0 -29 -4 -40 -15 -40 -8 0 -15 -4 -15 -10 0 -5 5 -10 10
-10 6 0 10 -16 10 -35 0 -28 -5 -38 -22 -45 -18 -7 -19 -9 -5 -9 16 -1 17 -9
14 -78 -3 -63 -7 -79 -20 -81 -20 -4 -24 37 -5 56 10 10 10 17 -1 34 -27 43
-8 199 29 239 8 10 16 18 18 18 1 1 2 -17 2 -39z m57 3 c11 -26 17 -78 20
-164 3 -139 -2 -156 -52 -161 -28 -3 -30 -1 -31 31 0 18 3 61 7 95 4 33 10 81
12 106 8 70 19 130 24 130 2 0 11 -17 20 -37z"/>
<path d="M775 1249 c-4 -6 -5 -13 -2 -16 8 -7 47 7 47 18 0 13 -37 11 -45 -2z"/>
<path d="M675 1204 c-13 -14 -27 -34 -30 -44 -3 -10 -17 -26 -32 -35 -18 -12
-22 -19 -13 -25 9 -6 9 -16 -1 -49 -9 -31 -9 -50 -2 -76 9 -27 8 -37 -1 -43
-26 -15 -39 -59 -42 -145 -2 -60 -8 -93 -18 -102 -22 -23 -29 -70 -20 -148 4
-40 7 -77 5 -84 -1 -7 9 -15 23 -19 19 -4 26 -13 28 -37 3 -28 7 -32 36 -35
18 -2 32 1 32 7 0 6 -9 11 -20 11 -14 0 -20 7 -20 23 0 13 3 26 6 29 11 11 44
-5 44 -21 0 -25 18 -39 46 -33 29 5 31 18 4 25 -27 7 -25 26 4 37 45 17 59 53
60 152 1 72 -2 92 -16 102 -9 7 -15 22 -12 36 9 59 10 135 4 171 -5 28 -3 42
7 51 10 8 14 28 12 65 -3 58 2 67 33 68 32 0 34 23 2 27 -23 3 -30 11 -45 58
-10 30 -19 56 -19 58 -1 12 -36 -3 -55 -24z m45 -50 c7 -19 10 -38 7 -40 -4
-5 -41 10 -55 21 -5 4 21 55 29 55 4 0 13 -16 19 -36z m-6 -90 c26 -25 24 -91
-2 -111 -23 -19 -56 -16 -77 7 -13 15 -16 30 -12 61 3 23 11 46 19 50 21 14
55 10 72 -7z m8 -185 c4 -19 3 -63 -2 -99 -5 -36 -10 -67 -10 -70 0 -10 -110
-9 -110 0 0 5 -7 7 -15 4 -12 -5 -15 3 -15 42 1 54 16 132 30 149 4 5 32 10
61 9 53 0 54 -1 61 -35z m12 -210 c10 -10 8 -154 -3 -181 -7 -18 -18 -28 -33
-29 -132 -8 -139 -7 -147 15 -5 11 -9 58 -10 104 -2 75 0 83 19 90 23 9 165
10 174 1z"/>
<path d="M1515 1170 c4 -6 11 -8 16 -5 14 9 11 15 -7 15 -8 0 -12 -5 -9 -10z"/>
</g>
</svg>
